<svg version="1.1" viewBox="0.0 0.0 600.0 600.0" fill="none" stroke="none" stroke-linecap="square" stroke-miterlimit="10" xmlns:xlink="http://www.w3.org/1999/xlink" xmlns="http://www.w3.org/2000/svg"><clipPath id="p.0"><path d="m0 0l600.0 0l0 600.0l-600.0 0l0 -600.0z" clip-rule="nonzero"/></clipPath><g clip-path="url(#p.0)"><path fill="#ffffff" d="m0 0l600.0 0l0 600.0l-600.0 0z" fill-rule="evenodd"/><path fill="#eeeeee" d="m51.779526 50.425198l496.44092 0l0 499.14963l-496.44092 0z" fill-rule="evenodd"/><path fill="#414141" d="m-122.97113 99.13911l104.031494 0l0 25.858269l-104.031494 0z" fill-rule="evenodd"/><path fill="#000000" d="m-122.97113 66.38058l104.031494 0l0 25.858269l-104.031494 0z" fill-rule="evenodd"/><path fill="#eeeeee" d="m-122.97113 164.65617l104.031494 0l0 25.858261l-104.031494 0z" fill-rule="evenodd"/><path fill="#414141" d="m140.557 104.57689l34.83464 0l0 368.7544l-34.83464 0z" fill-rule="evenodd"/><path fill="#000000" d="m146.22368 472.97372l0 -368.36343l6.6771545 0l0 368.36343z" fill-rule="evenodd"/><path fill="#000000" d="m163.04782 472.86075l0 -368.28394l6.67717 0l0 368.28394z" fill-rule="evenodd"/><path fill="#414141" d="m136.78798 86.45345l296.44092 0l0 18.519684l-296.44092 0z" fill-rule="evenodd"/><path fill="#000000" d="m138.87459 92.37471l292.18896 0l0 6.67717l-292.18896 0z" fill-rule="evenodd"/><path fill="#999999" d="m175.39165 415.5532l218.86613 0l0 5.5118103l-218.86613 0z" fill-rule="evenodd"/><path fill="#999999" d="m-122.97113 131.89764l104.031494 0l0 25.858261l-104.031494 0z" fill-rule="evenodd"/><path fill="#999999" d="m390.3701 510.4252l0 -261.60632l42.078735 0l0 261.60632z" fill-rule="evenodd"/><path fill="#414141" d="m193.39108 421.0656l34.83464 0l0 16.283478l-34.83464 0z" fill-rule="evenodd"/><path fill="#414141" d="m175.39108 437.3491l70.83464 0l0 5.5118103l-70.83464 0z" fill-rule="evenodd"/><path fill="#414141" d="m337.53543 421.0656l34.834656 0l0 16.283478l-34.834656 0z" fill-rule="evenodd"/><path fill="#414141" d="m319.53543 437.3491l70.834656 0l0 5.5118103l-70.834656 0z" fill-rule="evenodd"/><path fill="#000000" d="m227.97113 425.83466l109.82678 0l0 5.5118103l-109.82678 0z" fill-rule="evenodd"/><path fill="#000000" d="m282.55167 469.66666l111.71652 0l0 40.503937l-111.71652 0z" fill-rule="evenodd"/><path fill="#999999" d="m263.021 439.41675l39.716522 0l0 47.24411l-39.716522 0z" fill-rule="evenodd"/><path fill="#000000" d="m285.6378 420.88977l0 18.48819l-5.5118103 0l0 -18.48819z" fill-rule="evenodd"/><path fill="#414141" d="m136.78868 469.6649l145.76378 0l0 40.503937l-145.76378 0z" fill-rule="evenodd"/><path fill="#eeeeee" d="m145.29697 482.24667l0 0c0 -2.5570374 2.0728912 -4.6299133 4.6299286 -4.6299133l0 0c1.2279205 0 2.4055634 0.48779297 3.2738495 1.3560486c0.8682709 0.86828613 1.3560638 2.045929 1.3560638 3.2738647l0 0c0 2.5570374 -2.072876 4.6299133 -4.6299133 4.6299133l0 0c-2.5570374 0 -4.6299286 -2.072876 -4.6299286 -4.6299133z" fill-rule="evenodd"/><path fill="#eeeeee" d="m162.12228 498.24667l0 0c0 -2.5570374 2.072876 -4.6299133 4.6299133 -4.6299133l0 0c1.2279358 0 2.4055786 0.48779297 3.2738495 1.3560486c0.86828613 0.86828613 1.3560791 2.045929 1.3560791 3.2738647l0 0c0 2.5570374 -2.0728912 4.6299133 -4.6299286 4.6299133l0 0c-2.5570374 0 -4.6299133 -2.072876 -4.6299133 -4.6299133z" fill-rule="evenodd"/><path fill="#999999" d="m255.22488 501.96063l14.078735 0l0 1.7952881l-14.078735 0z" fill-rule="evenodd"/><path fill="#999999" d="m247.18552 500.5118l-0.8110199 3.24411l-5.968506 0l-0.8110199 -3.24411z" fill-rule="evenodd"/><path fill="#414141" d="m394.24728 104.57689l34.834656 0l0 368.7544l-34.834656 0z" fill-rule="evenodd"/><path fill="#000000" d="m399.91397 472.97372l0 -368.36343l6.6771545 0l0 368.36343z" fill-rule="evenodd"/><path fill="#000000" d="m416.7381 472.86075l0 -368.28394l6.677185 0l0 368.28394z" fill-rule="evenodd"/><path fill="#414141" d="m399.83862 301.08398l0 -41.228333l19.826752 -19.826782l19.826782 0l0 0l0 80.8819l0 0l-19.826782 0z" fill-rule="evenodd"/><path fill="#414141" d="m296.08463 266.55905l7.5905457 0l0 25.858276l-7.5905457 0z" fill-rule="evenodd"/><path fill="#414141" d="m400.78726 285.74277l0 16.283478l-47.40158 -16.283478z" fill-rule="evenodd"/><path fill="#414141" d="m128.36977 270.22772l313.2788 0l0 18.519684l-313.2788 0z" fill-rule="evenodd"/><path fill="#000000" d="m130.57489 276.149l308.7853 0l0 6.677185l-308.7853 0z" fill-rule="evenodd"/><path fill="#414141" d="m420.56082 279.4882l0 0c0 -4.4965515 3.645172 -8.141724 8.141724 -8.141724l23.433075 0l0 0c2.1593323 0 4.230194 0.8577881 5.75708 2.3846436c1.5268555 1.526886 2.3846436 3.5977478 2.3846436 5.75708l0 0l0 0c0 4.4965515 -3.645172 8.141724 -8.141724 8.141724l-23.433075 0c-4.4965515 0 -8.141724 -3.645172 -8.141724 -8.141724z" fill-rule="evenodd"/><path fill="#eeeeee" d="m423.56906 279.48767l0 0c0 -1.5220337 1.2338562 -2.7559204 2.7559204 -2.7559204l0 0c0.730896 0 1.4318848 0.29037476 1.9487 0.80718994c0.5168457 0.5168457 0.80718994 1.217804 0.80718994 1.9487305l0 0c0 1.5220337 -1.2338562 2.75589 -2.75589 2.75589l0 0c-1.5220642 0 -2.7559204 -1.2338562 -2.7559204 -2.75589z" fill-rule="evenodd"/><path fill="#eeeeee" d="m431.65567 279.48767l0 0c0 -1.5220337 1.2338867 -2.7559204 2.7559204 -2.7559204l0 0c0.730896 0 1.4318848 0.29037476 1.9487305 0.80718994c0.5168152 0.5168457 0.8071594 1.217804 0.8071594 1.9487305l0 0c0 1.5220337 -1.2338562 2.75589 -2.75589 2.75589l0 0c-1.5220337 0 -2.7559204 -1.2338562 -2.7559204 -2.75589z" fill-rule="evenodd"/><path fill="#eeeeee" d="m450.13074 279.48767l0 0c0 -1.5220337 1.2338867 -2.7559204 2.7559204 -2.7559204l0 0c0.730896 0 1.4318848 0.29037476 1.9487305 0.80718994c0.5168152 0.5168457 0.8071594 1.217804 0.8071594 1.9487305l0 0c0 1.5220337 -1.2338562 2.75589 -2.75589 2.75589l0 0c-1.5220337 0 -2.7559204 -1.2338562 -2.7559204 -2.75589z" fill-rule="evenodd"/><path fill="#eeeeee" d="m424.95694 249.58525l0 0c0 -2.5570374 2.072876 -4.6299286 4.6299133 -4.6299286l0 0c1.2279358 0 2.405548 0.48780823 3.2738342 1.3560791c0.86828613 0.86828613 1.3560791 2.0459137 1.3560791 3.2738495l0 0c0 2.5570374 -2.072876 4.6299133 -4.6299133 4.6299133l0 0c-2.5570374 0 -4.6299133 -2.072876 -4.6299133 -4.6299133z" fill-rule="evenodd"/><path fill="#eeeeee" d="m424.95694 309.39102l0 0c0 -2.5570374 2.072876 -4.6299133 4.6299133 -4.6299133l0 0c1.2279358 0 2.405548 0.48779297 3.2738342 1.3560791c0.86828613 0.8682556 1.3560791 2.0458984 1.3560791 3.2738342l0 0c0 2.5570374 -2.072876 4.6299133 -4.6299133 4.6299133l0 0c-2.5570374 0 -4.6299133 -2.072876 -4.6299133 -4.6299133z" fill-rule="evenodd"/><path fill="#414141" d="m101.720505 300.10236l0 -41.228333l19.826767 -19.826782l19.826782 0l0 0l0 80.8819l0 0l-19.826782 0z" fill-rule="evenodd"/><path fill="#eeeeee" d="m108.44799 267.87677l0 0c0 -3.2065125 2.5993805 -5.805908 5.8058853 -5.805908l23.22287 0l0 0c1.5398102 0 3.016571 0.61169434 4.105377 1.7005005c1.0888214 1.0888367 1.7005157 2.5655823 1.7005157 4.1054077l0 23.22284c0 3.2065125 -2.5993958 5.805908 -5.805893 5.805908l-23.22287 0c-3.2065048 0 -5.8058853 -2.5993958 -5.8058853 -5.805908z" fill-rule="evenodd"/><path fill="#eeeeee" d="m124.659775 249.58525l0 0c0 -2.5570374 2.0728836 -4.6299286 4.6299133 -4.6299286l0 0c1.2279358 0 2.4055786 0.48780823 3.2738495 1.3560791c0.86828613 0.86828613 1.3560791 2.0459137 1.3560791 3.2738495l0 0c0 2.5570374 -2.0728912 4.6299133 -4.6299286 4.6299133l0 0c-2.5570297 0 -4.6299133 -2.072876 -4.6299133 -4.6299133z" fill-rule="evenodd"/><path fill="#eeeeee" d="m124.659775 309.39102l0 0c0 -2.5570374 2.0728836 -4.6299133 4.6299133 -4.6299133l0 0c1.2279358 0 2.4055786 0.48779297 3.2738495 1.3560791c0.86828613 0.8682556 1.3560791 2.0458984 1.3560791 3.2738342l0 0c0 2.5570374 -2.0728912 4.6299133 -4.6299286 4.6299133l0 0c-2.5570297 0 -4.6299133 -2.072876 -4.6299133 -4.6299133z" fill-rule="evenodd"/><path fill="#414141" d="m145.79182 288.6404l31.275589 0l0 31.275604l-31.275589 0z" fill-rule="evenodd"/><path fill="#414141" d="m176.86136 288.43567l15.527557 0l-15.527557 15.527557z" fill-rule="evenodd"/><path fill="#000000" fill-opacity="0.0" d="m195.42783 244.56772c11.582672 1.3626404 50.210403 6.6758423 69.49606 8.175842c19.285645 1.5 34.800964 6.3263245 46.217834 0.8241577c11.416901 -5.5021973 20.082672 -26.409897 22.283478 -33.83728c2.2007751 -7.4273834 -1.6509094 -11.55249 -9.078735 -10.7270355c-7.427826 0.82547 -28.33554 8.802277 -35.48819 15.679794c-7.1526794 6.8775177 -6.18985 21.32109 -7.427826 25.585297" fill-rule="evenodd"/><path stroke="#000000" stroke-width="8.0" stroke-linejoin="round" stroke-linecap="butt" d="m195.42783 244.56772c11.582672 1.3626404 50.210403 6.6758423 69.49606 8.175842c19.285645 1.5 34.800964 6.3263245 46.217834 0.8241577c11.416901 -5.5021973 20.082672 -26.409897 22.283478 -33.83728c2.2007751 -7.4273834 -1.6509094 -11.55249 -9.078735 -10.7270355c-7.427826 0.82547 -28.33554 8.802277 -35.48819 15.679794c-7.1526794 6.8775177 -6.18985 21.32109 -7.427826 25.585297" fill-rule="evenodd"/><path fill="#000000" d="m175.39108 240.02887l22.771652 0l0 30.771667l-22.771652 0z" fill-rule="evenodd"/><path fill="#414141" d="m282.5136 300.206l4.6141663 0l-0.92282104 9.259827l-2.7685242 0z" fill-rule="evenodd"/><path fill="#414141" d="m293.93094 248.24568l-37.74478 0l0 0c-3.3379974 0 -6.539276 1.3260193 -8.899597 3.6863403c-2.360321 2.360321 -3.6863403 5.5615997 -3.6863403 8.899612l0 31.587646l50.33072 0z" fill-rule="evenodd"/><path fill="#eeeeee" d="m248.28761 259.1962l0 0c0 -2.7886963 2.0728912 -5.0493927 4.6299286 -5.0493927l0 0c1.2279205 0 2.4055634 0.5319977 3.2738342 1.4789429c0.86828613 0.9469452 1.3560791 2.2312775 1.3560791 3.5704498l0 0c0 2.7886963 -2.072876 5.049408 -4.6299133 5.049408l0 0c-2.5570374 0 -4.6299286 -2.2607117 -4.6299286 -5.049408z" fill-rule="evenodd"/><path fill="#414141" d="m257.18793 260.60983l39.72101 0l0 39.72101l-39.72101 0z" fill-rule="evenodd"/><path fill="#000000" d="m260.73 280.47034l0 0c0 -9.012421 7.3059998 -16.31842 16.31842 -16.31842l0 0c4.3279114 0 8.478577 1.7192688 11.538879 4.779541c3.0603027 3.0603027 4.779541 7.210968 4.779541 11.538879l0 0c0 9.012421 -7.3059998 16.31842 -16.31842 16.31842l0 0c-9.012421 0 -16.31842 -7.3059998 -16.31842 -16.31842z" fill-rule="evenodd"/><path fill="#414141" d="m265.34576 280.47028l0 0c0 -6.46344 5.239685 -11.703125 11.7031555 -11.703125l0 0c3.1038513 0 6.080597 1.2330017 8.27536 3.427765c2.1947632 2.1947632 3.427765 5.171509 3.427765 8.27536l0 0c0 6.4634705 -5.239685 11.7031555 -11.703125 11.7031555l0 0c-6.4634705 0 -11.7031555 -5.239685 -11.7031555 -11.7031555zm2.2182312 0l0 0c0 5.2384033 4.246521 9.484924 9.484924 9.484924c5.238373 0 9.484894 -4.246521 9.484894 -9.484924l0 0c0 -5.238373 -4.246521 -9.484924 -9.484894 -9.484924l0 0c-5.2384033 0 -9.484924 4.2465515 -9.484924 9.484924z" fill-rule="evenodd"/><path fill="#414141" d="m268.94348 280.47028l0 0c0 -4.4765015 3.6289368 -8.105408 8.105438 -8.105408l0 0c2.1496887 0 4.211334 0.8539429 5.7313843 2.3740234c1.52005 1.52005 2.3740234 3.5816956 2.3740234 5.7313843l0 0c0 4.4765015 -3.6289062 8.105438 -8.105408 8.105438l0 0c-4.4765015 0 -8.105438 -3.6289368 -8.105438 -8.105438z" fill-rule="evenodd"/><path fill="#000000" fill-opacity="0.0" d="m277.04843 260.60983l0 39.72101" fill-rule="evenodd"/><path stroke="#414141" stroke-width="2.0" stroke-linejoin="round" stroke-linecap="butt" d="m277.04843 260.60983l0 39.72101" fill-rule="evenodd"/><path fill="#000000" fill-opacity="0.0" d="m257.18793 280.47034l39.72101 0" fill-rule="evenodd"/><path stroke="#414141" stroke-width="2.0" stroke-linejoin="round" stroke-linecap="butt" d="m257.18793 280.47034l39.72101 0" fill-rule="evenodd"/><path fill="#414141" d="m394.248 464.5623l104.031525 0l0 45.606293l-104.031525 0z" fill-rule="evenodd"/><path fill="#000000" d="m394.248 388.33798l104.031525 0l0 76.44092l-104.031525 0z" fill-rule="evenodd"/><path fill="#999999" d="m406.6417 399.06763l79.24411 0l0 25.858276l-79.24411 0z" fill-rule="evenodd"/><path fill="#999999" d="m467.00458 439.4482l0 0c0 -4.7139893 5.8591003 -8.535431 13.086609 -8.535431l0 0c7.227539 0 13.086639 3.8214417 13.086639 8.535431l0 0c0 4.7139893 -5.8591003 8.535431 -13.086639 8.535431l0 0c-7.2275085 0 -13.086609 -3.8214417 -13.086609 -8.535431z" fill-rule="evenodd"/><path fill="#999999" d="m467.0177 429.72116l26.173248 0l0 9.921265l-26.173248 0z" fill-rule="evenodd"/><path fill="#414141" d="m467.00458 429.8104l0 0c0 -4.7139893 5.8591003 -8.535431 13.086609 -8.535431l0 0c7.227539 0 13.086639 3.8214417 13.086639 8.535431l0 0c0 4.7139893 -5.8591003 8.535461 -13.086639 8.535461l0 0c-7.2275085 0 -13.086609 -3.8214722 -13.086609 -8.535461z" fill-rule="evenodd"/><path fill="#eeeeee" d="m419.66632 476.87338l0 0c2.5570374 0 4.6299133 2.072876 4.6299133 4.6299133l0 0c0 1.2279358 -0.48779297 2.4055786 -1.3560791 3.2738647c-0.8682556 0.86828613 -2.0458984 1.3560791 -3.2738342 1.3560791l0 0c-2.5570374 0 -4.6299133 -2.0729065 -4.6299133 -4.629944l0 0c0 -2.5570374 2.072876 -4.6299133 4.6299133 -4.6299133z" fill-rule="evenodd"/><path fill="#eeeeee" d="m403.66632 493.6987l0 0c2.5570374 0 4.6299133 2.072876 4.6299133 4.6299133l0 0c0 1.2279358 -0.48779297 2.4055786 -1.3560791 3.2738342c-0.8682556 0.86828613 -2.0458984 1.3560791 -3.2738342 1.3560791l0 0c-2.5570374 0 -4.6299133 -2.072876 -4.6299133 -4.6299133l0 0c0 -2.5570374 2.072876 -4.6299133 4.6299133 -4.6299133z" fill-rule="evenodd"/></g></svg>