<svg version="1.1" viewBox="0.0 0.0 800.0 800.0" fill="none" stroke="none" stroke-linecap="square" stroke-miterlimit="10" xmlns:xlink="http://www.w3.org/1999/xlink" xmlns="http://www.w3.org/2000/svg"><clipPath id="g7a62f8dbcf_0_34.0"><path d="m0 0l800.0 0l0 800.0l-800.0 0l0 -800.0z" clip-rule="nonzero"/></clipPath><g clip-path="url(#g7a62f8dbcf_0_34.0)"><path fill="#ffffff" d="m0 0l800.0 0l0 800.0l-800.0 0z" fill-rule="evenodd"/><path fill="#eeeeee" d="m67.91253 67.12442l661.9803 0l0 665.61255l-661.9803 0z" fill-rule="evenodd"/><path fill="#414141" d="m-179.54855 157.50394l95.19422 0l0 23.650925l-95.19422 0z" fill-rule="evenodd"/><path fill="#000000" d="m-179.54855 127.5538l95.19422 0l0 23.65355l-95.19422 0z" fill-rule="evenodd"/><path fill="#d9d9d9" d="m-179.54855 217.47507l95.19422 0l0 23.65355l-95.19422 0z" fill-rule="evenodd"/><path fill="#999999" d="m-179.54855 187.52756l95.19422 0l0 23.650925l-95.19422 0z" fill-rule="evenodd"/><path fill="#eeeeee" d="m-179.54855 247.4252l95.19422 0l0 23.653534l-95.19422 0z" fill-rule="evenodd"/><path fill="#000000" d="m-161.40504 264.20822q-0.453125 0 -0.9375 -0.21875q-0.484375 -0.21875 -0.90625 -0.609375l-0.046875 0l-0.09375 0.671875l-0.875 0l0 -9.484375l1.09375 0l0 2.578125l-0.03125 1.171875q0.4375 -0.390625 0.953125 -0.640625q0.53125 -0.265625 1.078125 -0.265625q0.625 0 1.09375 0.234375q0.484375 0.234375 0.8125 0.671875q0.328125 0.4375 0.484375 1.046875q0.171875 0.59375 0.171875 1.34375q0 0.828125 -0.234375 1.484375q-0.21875 0.640625 -0.609375 1.09375q-0.375 0.453125 -0.890625 0.6875q-0.5 0.234375 -1.0625 0.234375zm-0.1875 -0.921875q0.40625 0 0.734375 -0.171875q0.34375 -0.1875 0.59375 -0.5q0.25 -0.328125 0.390625 -0.8125q0.140625 -0.484375 0.140625 -1.078125q0 -0.53125 -0.09375 -0.96875q-0.09375 -0.453125 -0.296875 -0.765625q-0.203125 -0.3125 -0.53125 -0.484375q-0.328125 -0.171875 -0.78125 -0.171875q-0.796875 0 -1.734375 0.875l0 3.40625q0.421875 0.375 0.84375 0.53125q0.421875 0.140625 0.734375 0.140625zm5.9962616 0.921875q-0.8125 0 -1.359375 -0.46875q-0.53125 -0.484375 -0.53125 -1.359375q0 -1.078125 0.9375 -1.640625q0.953125 -0.5625 3.046875 -0.796875q0 -0.296875 -0.0625 -0.59375q-0.0625 -0.296875 -0.21875 -0.515625q-0.140625 -0.234375 -0.40625 -0.375q-0.25 -0.140625 -0.65625 -0.140625q-0.5625 0 -1.0625 0.21875q-0.484375 0.21875 -0.859375 0.484375l-0.4375 -0.765625q0.453125 -0.296875 1.109375 -0.5625q0.65625 -0.28125 1.4375 -0.28125q1.1875 0 1.71875 0.734375q0.53125 0.71875 0.53125 1.9375l0 3.96875l-0.90625 0l-0.09375 -0.765625l-0.03125 0q-0.46875 0.375 -1.0 0.65625q-0.53125 0.265625 -1.15625 0.265625zm0.328125 -0.875q0.46875 0 0.875 -0.21875q0.421875 -0.21875 0.890625 -0.65625l0 -1.796875q-0.8125 0.109375 -1.375 0.265625q-0.546875 0.140625 -0.890625 0.34375q-0.34375 0.203125 -0.5 0.46875q-0.140625 0.25 -0.140625 0.546875q0 0.5625 0.328125 0.8125q0.328125 0.234375 0.8125 0.234375zm7.467346 0.875q-0.640625 0 -1.203125 -0.21875q-0.5625 -0.234375 -0.96875 -0.65625q-0.40625 -0.4375 -0.640625 -1.0625q-0.234375 -0.640625 -0.234375 -1.4375q0 -0.8125 0.25 -1.4375q0.265625 -0.640625 0.6875 -1.078125q0.421875 -0.453125 0.984375 -0.671875q0.578125 -0.234375 1.203125 -0.234375q0.640625 0 1.09375 0.234375q0.453125 0.21875 0.796875 0.53125l-0.5625 0.71875q-0.28125 -0.25 -0.59375 -0.40625q-0.3125 -0.171875 -0.703125 -0.171875q-0.4375 0 -0.8125 0.1875q-0.375 0.171875 -0.640625 0.515625q-0.265625 0.328125 -0.421875 0.796875q-0.140625 0.453125 -0.140625 1.015625q0 0.546875 0.140625 1.0q0.15625 0.453125 0.40625 0.78125q0.265625 0.328125 0.640625 0.515625q0.375 0.171875 0.8125 0.171875q0.453125 0 0.828125 -0.1875q0.375 -0.203125 0.6875 -0.46875l0.484375 0.734375q-0.453125 0.390625 -0.984375 0.609375q-0.53125 0.21875 -1.109375 0.21875zm3.5151062 -0.15625l0 -9.484375l1.078125 0l0 6.421875l0.046875 0l2.75 -3.421875l1.21875 0l-2.171875 2.609375l2.46875 3.875l-1.203125 0l-1.890625 -3.125l-1.21875 1.421875l0 1.703125l-1.078125 0zm8.651566 2.984375q-0.609375 0 -1.109375 -0.109375q-0.484375 -0.109375 -0.84375 -0.34375q-0.34375 -0.21875 -0.546875 -0.546875q-0.1875 -0.3125 -0.1875 -0.75q0 -0.40625 0.25 -0.78125q0.265625 -0.375 0.703125 -0.6875l0 -0.046875q-0.234375 -0.140625 -0.40625 -0.40625q-0.171875 -0.265625 -0.171875 -0.640625q0 -0.421875 0.21875 -0.71875q0.234375 -0.3125 0.484375 -0.484375l0 -0.046875q-0.3125 -0.28125 -0.578125 -0.71875q-0.25 -0.453125 -0.25 -1.03125q0 -0.53125 0.1875 -0.953125q0.1875 -0.4375 0.515625 -0.734375q0.34375 -0.296875 0.78125 -0.453125q0.453125 -0.171875 0.953125 -0.171875q0.265625 0 0.5 0.046875q0.234375 0.046875 0.421875 0.109375l2.25 0l0 0.84375l-1.328125 0q0.21875 0.234375 0.375 0.578125q0.15625 0.34375 0.15625 0.75q0 0.53125 -0.1875 0.953125q-0.1875 0.40625 -0.515625 0.703125q-0.3125 0.28125 -0.75 0.453125q-0.4375 0.15625 -0.921875 0.15625q-0.25 0 -0.5 -0.0625q-0.25 -0.0625 -0.46875 -0.171875q-0.1875 0.15625 -0.3125 0.34375q-0.109375 0.171875 -0.109375 0.4375q0 0.296875 0.234375 0.5q0.25 0.203125 0.90625 0.203125l1.265625 0q1.125 0 1.6875 0.375q0.578125 0.359375 0.578125 1.171875q0 0.453125 -0.234375 0.859375q-0.21875 0.40625 -0.65625 0.703125q-0.421875 0.3125 -1.03125 0.484375q-0.609375 0.1875 -1.359375 0.1875zm0 -5.765625q0.28125 0 0.515625 -0.109375q0.25 -0.109375 0.4375 -0.3125q0.203125 -0.203125 0.3125 -0.484375q0.109375 -0.28125 0.109375 -0.640625q0 -0.71875 -0.40625 -1.109375q-0.390625 -0.40625 -0.96875 -0.40625q-0.578125 0 -0.984375 0.40625q-0.390625 0.390625 -0.390625 1.109375q0 0.359375 0.109375 0.640625q0.109375 0.28125 0.296875 0.484375q0.1875 0.203125 0.4375 0.3125q0.25 0.109375 0.53125 0.109375zm0.15625 5.0q0.46875 0 0.84375 -0.109375q0.390625 -0.109375 0.65625 -0.296875q0.265625 -0.171875 0.40625 -0.421875q0.140625 -0.234375 0.140625 -0.484375q0 -0.453125 -0.328125 -0.625q-0.328125 -0.171875 -0.96875 -0.171875l-1.125 0q-0.1875 0 -0.40625 -0.03125q-0.21875 -0.015625 -0.4375 -0.078125q-0.34375 0.25 -0.5 0.53125q-0.15625 0.28125 -0.15625 0.5625q0 0.515625 0.5 0.8125q0.5 0.3125 1.375 0.3125zm4.373596 -2.21875l0 -6.484375l0.90625 0l0.09375 1.1875l0.03125 0q0.34375 -0.625 0.8125 -0.984375q0.46875 -0.359375 1.03125 -0.359375q0.390625 0 0.703125 0.140625l-0.21875 0.953125q-0.15625 -0.046875 -0.296875 -0.078125q-0.125 -0.03125 -0.328125 -0.03125q-0.421875 0 -0.875 0.34375q-0.4375 0.328125 -0.765625 1.15625l0 4.15625l-1.09375 0zm7.007141 0.15625q-0.59375 0 -1.140625 -0.21875q-0.53125 -0.234375 -0.953125 -0.65625q-0.40625 -0.4375 -0.65625 -1.0625q-0.25 -0.640625 -0.25 -1.4375q0 -0.8125 0.25 -1.4375q0.25 -0.640625 0.65625 -1.078125q0.421875 -0.453125 0.953125 -0.671875q0.546875 -0.234375 1.140625 -0.234375q0.609375 0 1.140625 0.234375q0.546875 0.21875 0.953125 0.671875q0.421875 0.4375 0.65625 1.078125q0.25 0.625 0.25 1.4375q0 0.796875 -0.25 1.4375q-0.234375 0.625 -0.65625 1.0625q-0.40625 0.421875 -0.953125 0.65625q-0.53125 0.21875 -1.140625 0.21875zm0 -0.90625q0.421875 0 0.765625 -0.171875q0.34375 -0.1875 0.59375 -0.515625q0.25 -0.328125 0.375 -0.78125q0.140625 -0.453125 0.140625 -1.0q0 -0.5625 -0.140625 -1.015625q-0.125 -0.46875 -0.375 -0.796875q-0.25 -0.34375 -0.59375 -0.515625q-0.34375 -0.1875 -0.765625 -0.1875q-0.40625 0 -0.765625 0.1875q-0.34375 0.171875 -0.59375 0.515625q-0.234375 0.328125 -0.375 0.796875q-0.125 0.453125 -0.125 1.015625q0 0.546875 0.125 1.0q0.140625 0.453125 0.375 0.78125q0.25 0.328125 0.59375 0.515625q0.359375 0.171875 0.765625 0.171875zm6.598816 0.90625q-1.03125 0 -1.515625 -0.640625q-0.46875 -0.640625 -0.46875 -1.890625l0 -4.109375l1.109375 0l0 3.96875q0 0.921875 0.28125 1.328125q0.28125 0.40625 0.921875 0.40625q0.515625 0 0.890625 -0.265625q0.390625 -0.265625 0.859375 -0.828125l0 -4.609375l1.09375 0l0 6.484375l-0.90625 0l-0.09375 -1.015625l-0.03125 0q-0.453125 0.53125 -0.953125 0.859375q-0.5 0.3125 -1.1875 0.3125zm5.359848 -0.15625l0 -6.484375l0.90625 0l0.09375 0.9375l0.03125 0q0.46875 -0.46875 0.984375 -0.78125q0.515625 -0.3125 1.203125 -0.3125q1.015625 0 1.484375 0.640625q0.484375 0.640625 0.484375 1.890625l0 4.109375l-1.09375 0l0 -3.953125q0 -0.921875 -0.296875 -1.328125q-0.296875 -0.40625 -0.9375 -0.40625q-0.5 0 -0.890625 0.25q-0.390625 0.25 -0.875 0.75l0 4.6875l-1.09375 0zm9.509201 0.15625q-1.234375 0 -1.96875 -0.875q-0.71875 -0.875 -0.71875 -2.5q0 -0.796875 0.234375 -1.421875q0.234375 -0.640625 0.609375 -1.078125q0.390625 -0.4375 0.890625 -0.671875q0.515625 -0.25 1.078125 -0.25q0.5625 0 0.96875 0.203125q0.421875 0.203125 0.84375 0.546875l-0.046875 -1.109375l0 -2.484375l1.09375 0l0 9.484375l-0.90625 0l-0.09375 -0.765625l-0.03125 0q-0.390625 0.375 -0.890625 0.65625q-0.5 0.265625 -1.0625 0.265625zm0.234375 -0.921875q0.453125 0 0.84375 -0.21875q0.40625 -0.21875 0.8125 -0.671875l0 -3.375q-0.421875 -0.375 -0.796875 -0.53125q-0.375 -0.15625 -0.78125 -0.15625q-0.390625 0 -0.734375 0.1875q-0.328125 0.171875 -0.59375 0.5q-0.25 0.328125 -0.390625 0.78125q-0.140625 0.453125 -0.140625 1.015625q0 1.171875 0.453125 1.828125q0.46875 0.640625 1.328125 0.640625z" fill-rule="nonzero"/><path fill="#414141" d="m562.0735 135.32971l0 0c2.7023315 -4.2897034 8.525635 -5.8447266 13.006714 -3.473236l0 0l0 0c2.1519165 1.1388245 3.7001343 3.049347 4.304138 5.311249c0.6040039 2.2619019 0.21429443 4.689926 -1.083374 6.7499084l-76.40933 121.292755c-2.7023315 4.2897034 -8.525635 5.8447266 -13.006744 3.473236l0 0l0 0c-4.481079 -2.3714905 -5.923065 -7.771454 -3.2207336 -12.061157z" fill-rule="evenodd"/><path fill="#414141" d="m312.0232 256.61475l0 0c2.7023315 4.2897034 1.260376 9.689667 -3.2207336 12.061157l0 0l0 0c-2.151886 1.1388245 -4.7311707 1.4126892 -7.1703796 0.76135254c-2.4392395 -0.6513672 -4.5386353 -2.174591 -5.8363647 -4.2345886l-76.40927 -121.29274c-2.7023315 -4.2897034 -1.2603607 -9.689667 3.2207336 -12.061157l0 0l0 0c4.4810944 -2.3714752 10.304413 -0.8164673 13.006744 3.4732513z" fill-rule="evenodd"/><path fill="#999999" d="m126.53018 417.30447l0 0c0 -138.11383 121.82713 -250.1807 272.37152 -250.5503c150.5444 -0.3695984 273.0236 111.09744 273.8293 249.20929l-273.09848 1.3410034z" fill-rule="evenodd"/><path fill="#000000" d="m249.78293 295.01157l0 0c0 -12.207031 10.803894 -22.102814 24.131165 -22.102814l0 0c13.327301 0 24.131195 9.895782 24.131195 22.102814l0 0c0 12.207062 -10.803894 22.102814 -24.131195 22.102814l0 0c-13.3272705 0 -24.131165 -9.895752 -24.131165 -22.102814z" fill-rule="evenodd"/><path fill="#000000" d="m503.98724 295.01157l0 0c0 -12.207031 10.803894 -22.102814 24.131165 -22.102814l0 0c13.327332 0 24.131226 9.895782 24.131226 22.102814l0 0c0 12.207062 -10.803894 22.102814 -24.131226 22.102814l0 0c-13.3272705 0 -24.131165 -9.895752 -24.131165 -22.102814z" fill-rule="evenodd"/><path fill="#414141" d="m652.98236 592.08923l-505.92798 0c-5.2157135 0 -10.217819 -2.0719604 -13.905899 -5.76001c-3.6880798 -3.6880493 -5.7600174 -8.690186 -5.7600174 -13.905884l0 -145.59393c0 -0.002532959 0.0020370483 -0.004547119 0.004547119 -0.004547119l545.2553 0.004547119l0 0c0.0025024414 0 0.0045166016 0.0020141602 0.0045166016 0.004547119l-0.0045166016 145.58939l0 0c0 10.861145 -8.804749 19.665894 -19.665955 19.665894z" fill-rule="evenodd"/><path fill="#000000" d="m224.90372 632.4528l0 0c0 -16.648926 16.20485 -30.145508 36.19452 -30.145508c19.989716 0 36.19455 13.496582 36.19455 30.145508l-15.072754 0c0 -8.324463 -9.456543 -15.072754 -21.121796 -15.072754c-11.665222 0 -21.121765 6.748291 -21.121765 15.072754z" fill-rule="evenodd"/><path fill="#000000" d="m297.29388 632.31757l0 40.219177l-15.200897 0l0 -40.219177z" fill-rule="evenodd"/><path fill="#000000" d="m240.0944 632.31757l0 40.281982l-15.200882 0l0 -40.281982z" fill-rule="evenodd"/><path fill="#000000" d="m639.73846 606.1793l0 0c18.151794 0 32.86676 14.863159 32.86676 33.197754c0 18.334595 -14.714966 33.197754 -32.86676 33.197754l0 -16.43341l0 0c9.075928 0 16.43341 -7.5056763 16.43341 -16.764343c0 -9.258728 -7.357483 -16.764404 -16.43341 -16.764404z" fill-rule="evenodd"/><path fill="#000000" d="m639.88715 672.57477l-39.015625 0l0 -16.391602l39.015625 0z" fill-rule="evenodd"/><path fill="#000000" d="m639.88715 622.7297l-39.084106 0l0 -16.554932l39.084106 0z" fill-rule="evenodd"/><path fill="#000000" d="m586.4576 605.9513l0 66.84766l-16.721008 0l0 -66.84766z" fill-rule="evenodd"/><path fill="#000000" d="m479.0069 637.45337l0 0c0 -19.409851 17.155182 -35.144653 38.3172 -35.144653l0 0c21.161987 0 38.31714 15.734802 38.31714 35.144653l0 0c0 19.409851 -17.155151 35.144592 -38.31714 35.144592l0 0c-21.162018 0 -38.3172 -15.734741 -38.3172 -35.144592zm13.78656 0l0 0c0 11.795715 10.982727 21.358093 24.53064 21.358093c13.547913 0 24.53064 -9.562378 24.53064 -21.358093c0 -11.795776 -10.982727 -21.358154 -24.53064 -21.358154l0 0c-13.547913 0 -24.53064 9.562378 -24.53064 21.358154z" fill-rule="evenodd"/><path fill="#000000" d="m352.9177 606.1793l0 0c18.151794 0 32.86676 14.863159 32.86676 33.197754c0 18.334595 -14.714966 33.197754 -32.86676 33.197754l0 -16.43341l0 0c9.075897 0 16.43338 -7.5056763 16.43338 -16.764343c0 -9.258728 -7.357483 -16.764404 -16.43338 -16.764404z" fill-rule="evenodd"/><path fill="#000000" d="m353.0656 672.57477l-39.015594 0l0 -16.253418l39.015594 0z" fill-rule="evenodd"/><path fill="#000000" d="m353.0656 622.59845l-39.084076 0l0 -16.416748l39.084076 0z" fill-rule="evenodd"/><path fill="#000000" d="m439.0551 621.0079l-36.577972 0l0 -15.060181l36.577972 0z" fill-rule="evenodd"/><path fill="#000000" d="m439.6719 653.4357l-37.194214 0l0 -14.896912l37.194214 0z" fill-rule="evenodd"/><path fill="#000000" d="m438.6735 605.9513l0 0c14.424866 0 26.144653 10.562927 26.238098 23.648193c0.093444824 13.085266 -11.474487 23.785034 -25.898132 23.95459l-0.21435547 -15.006409c6.1776733 -0.054138184 11.139526 -4.005371 11.10498 -8.843201c-0.0345459 -4.8377686 -5.0525208 -8.7453 -11.230591 -8.7453z" fill-rule="evenodd"/><path fill="#000000" d="m426.3619 638.40546l0 0c9.819336 -0.054382324 19.253326 3.4850464 26.19043 9.826111c6.9371033 6.3410034 10.798035 14.954224 10.718597 23.911621l-15.18042 -0.11456299l0 0c0.050079346 -4.894226 -2.210083 -9.60144 -6.2745667 -13.067871c-4.064453 -3.4664307 -9.5937195 -5.402527 -15.349884 -5.374817z" fill-rule="evenodd"/><path fill="#000000" d="m160.10236 606.17584l48.10875 0l0 16.21576l-48.10875 0z" fill-rule="evenodd"/><path fill="#000000" d="m160.10236 656.35956l19.596817 0l0 16.21576l-19.596817 0z" fill-rule="evenodd"/><path fill="#000000" d="m208.21008 620.63885l0 51.92566l-16.720963 0l0 -51.92566z" fill-rule="evenodd"/><path fill="#000000" d="m160.24939 672.5708l0 0c-11.744431 0 -22.59636 -6.329895 -28.466614 -16.604431c-5.870262 -10.274536 -5.866661 -22.932129 0.00944519 -33.203247c5.876114 -10.271118 16.731659 -16.594666 28.476074 -16.58783l-0.009231567 16.191467l0 0c-5.9586487 -0.003540039 -11.466339 3.2358398 -14.447678 8.497437c-2.9813232 5.2615967 -2.9831696 11.745728 -0.004837036 17.009094c2.9783325 5.2633667 8.484177 8.505981 14.442841 8.505981z" fill-rule="evenodd"/></g></svg>