<?xml version="1.0" encoding="UTF-8"?>
<!DOCTYPE svg PUBLIC "-//W3C//DTD SVG 1.1//EN" "http://www.w3.org/Graphics/SVG/1.1/DTD/svg11.dtd">
<svg version="1.1" xmlns="http://www.w3.org/2000/svg" xmlns:xlink="http://www.w3.org/1999/xlink" x="0" y="0" width="600" height="600" viewBox="0, 0, 600, 600">
  <g id="Background"/>
  <g id="Square">
    <path d="M50,50 L550,50 L550,550 L50,550 z" fill="#EEEEEE"/>
  </g>
  <g id="Art">
    <g>
      <path d="M474.104,492.482 L508.714,499.511 L504.622,519.654 L470.013,512.625 L474.104,492.482 z" fill="#616264"/>
      <path d="M125.719,416.648 L476.314,487.856 L470.243,517.746 L119.648,446.537 L125.719,416.648 z" fill="#000000"/>
      <path d="M454.424,483.41 L460.508,484.646 L454.437,514.536 L448.353,513.3 L454.424,483.41 z" fill="#616264"/>
      <path d="M125.719,416.648 L119.648,446.537 L79.763,423.451 L125.719,416.648 z" fill="#616264"/>
    </g>
    <path d="M95.644,240.46 C123.885,191.972 161.295,136.133 213.061,111.699 C243.529,98.48 247.228,90.223 299.108,87.965 C342.424,86.079 391.434,97.733 413.231,109.764 C425.071,116.299 457.576,127.375 485.924,166.194 C518.428,210.703 521.277,231.192 517.932,288.561 C514.586,345.93 477.51,397.553 447.153,424.564 C416.796,451.576 365.142,456.534 324.112,423.588 C283.081,390.643 261.311,355.455 244.64,343.678 C227.969,331.902 214.629,337.412 206.12,348.162 C197.727,358.767 178.484,382.683 155.004,389.462 C133.566,395.65 80.524,358.996 79.795,320.486 C78.941,275.389 95.485,240.753 95.485,240.753 L95.644,240.46 z M135.52,256.844 C120.481,284.09 122.72,314.143 140.521,323.968 C158.322,333.794 184.944,319.672 199.983,292.425 C215.023,265.179 212.784,235.126 194.983,225.3 C177.182,215.475 150.56,229.597 135.52,256.844 z" fill="#616264"/>
    <path d="M307.577,169.018 C307.577,169.018 309.734,157.336 316.154,156.589 C320.173,156.121 312.618,144.339 313.481,139.666 C314.344,134.993 320.811,124.831 323.805,125.626 C326.799,126.42 327.162,125.763 331.54,125.605 C335.919,125.447 348.327,126.288 352.773,124.452 C357.22,122.615 376.864,127.451 383.894,136.48 C390.925,145.51 392.604,145.579 393.804,157.398 C395.004,169.216 381.643,166.991 378.58,167.875 C375.518,168.759 365.219,165.649 362.315,170.912 C359.41,176.174 359.431,183.909 358.274,187.561 C357.116,191.213 355.959,194.865 350.56,195.318 C345.161,195.771 340.24,184.473 334.183,184.562 C328.127,184.652 326.516,182.905 319.802,182.632 C313.087,182.358 307.577,169.018 307.577,169.018 z" fill="#000000"/>
    <path d="M378.06,233.497 C378.06,233.497 371.217,213.243 392.602,203.42 C413.986,193.597 408.108,193.732 415.606,193.461 C418.233,193.366 436.39,188.456 452.585,202.029 C468.779,215.602 459.455,216.635 458.597,222.855 C457.738,229.075 460.854,231.825 462.392,233.703 C463.93,235.582 465.48,242.102 462.118,245.395 C458.755,248.688 455.487,254.608 457.461,255.697 C459.434,256.787 460.464,281.041 447.317,276.874 C434.17,272.707 433.967,262.811 426.399,265.328 C418.831,267.845 416.965,274.024 412.419,276.663 C407.872,279.303 400.863,278.008 395.896,271.148 C390.93,264.287 378.06,233.497 378.06,233.497 z" fill="#E1E1E1"/>
    <path d="M400.465,396.27 C400.465,396.27 352.218,381.997 360.297,342.174 C368.375,302.35 407.084,303.119 410.677,304.073 C414.27,305.026 427.418,309.194 433.486,318.722 C439.555,328.251 434.001,330.85 440.928,334.158 C447.856,337.467 449.27,342.367 453.817,339.728 C458.363,337.088 461.603,336.816 466.244,336.804 C470.885,336.791 471.346,345.284 466.582,348.318 C461.818,351.353 460.403,346.453 451.433,348.71 C442.463,350.968 432.076,363.257 433.573,366.142 C435.069,369.028 433.68,373.41 440.295,374.487 C446.909,375.564 449.7,387.358 441.858,385.648 C420.803,381.056 419.42,382.457 418.121,383.874 C404.364,398.886 400.465,396.27 400.465,396.27 z" fill="#464646"/>
  </g>
  <g id="Pebble" display="none">
    <g>
      <path d="M194.25,114 L405.25,114 C411.877,114 417.25,119.373 417.25,126 L417.25,463 C417.25,469.627 411.877,475 405.25,475 L194.25,475 C187.623,475 182.25,469.627 182.25,463 L182.25,126 C182.25,119.373 187.623,114 194.25,114 z" fill="#000000"/>
      <path d="M417.25,171 L417.25,171 C421.668,171 425.25,172.791 425.25,175 L425.25,251 C425.25,253.209 421.668,255 417.25,255 L417.25,255 C412.832,255 409.25,253.209 409.25,251 L409.25,175 C409.25,172.791 412.832,171 417.25,171 z" fill="#000000"/>
      <path d="M417.25,338 L417.25,338 C421.668,338 425.25,339.791 425.25,342 L425.25,418 C425.25,420.209 421.668,422 417.25,422 L417.25,422 C412.832,422 409.25,420.209 409.25,418 L409.25,342 C409.25,339.791 412.832,338 417.25,338 z" fill="#000000"/>
      <path d="M417.25,271 L417.25,271 C421.668,271 425.25,272.087 425.25,273.429 L425.25,319.571 C425.25,320.913 421.668,322 417.25,322 L417.25,322 C412.832,322 409.25,320.913 409.25,319.571 L409.25,273.429 C409.25,272.087 412.832,271 417.25,271 z" fill="#000000"/>
      <path d="M182.75,292 L182.75,292 C178.332,292 174.75,290.209 174.75,288 L174.75,212 C174.75,209.791 178.332,208 182.75,208 L182.75,208 C187.168,208 190.75,209.791 190.75,212 L190.75,288 C190.75,290.209 187.168,292 182.75,292 z" fill="#000000"/>
    </g>
    <path d="M231.18,79.763 L362.943,79.763 C369.739,79.763 375.248,85.136 375.248,91.763 L380.375,145.263 C380.375,151.89 374.866,157.263 368.07,157.263 L231.18,157.263 C224.384,157.263 218.875,151.89 218.875,145.263 L225.027,91.763 C225.027,85.136 230.536,79.763 237.332,79.763 z" fill="#616264"/>
    <path d="M231.18,519.654 L362.943,519.654 C369.739,519.654 375.248,514.282 375.248,507.654 L380.375,450.154 C380.375,443.527 374.866,438.154 368.07,438.154 L231.18,438.154 C224.384,438.154 218.875,443.527 218.875,450.154 L225.027,507.654 C225.027,514.282 230.536,519.654 237.332,519.654 z" fill="#616264"/>
    <g>
      <path d="M221.625,199.5 L373.625,199.5 L373.625,375.5 L221.625,375.5 L221.625,199.5 z" fill="#EEEEEE"/>
      <text transform="matrix(1, 0, 0, 1, 305, 285)">
        <tspan x="-73.375" y="-21.61" font-family="HelveticaNeue-Bold" font-size="44" fill="#000000">four</tspan>
        <tspan x="-73.375" y="21.99" font-family="HelveticaNeue-Thin" font-size="44" fill="#000000">twenty</tspan>
        <tspan x="-73.375" y="64.59" font-family="HelveticaNeue-Thin" font-size="44" fill="#000000">one</tspan>
      </text>
    </g>
  </g>
  <g id="Presentations" display="none">
    <path d="M504,88 C510.821,88.276 514.628,92.35 515.938,98.773 L516,100 C516,106.627 510.627,112 504,112 L492,112 L492,448 L108,448 L108,112 L96,112 C89.373,112 84,106.627 84,100 L84,100 C84,93.373 89.373,88 96,88 L504,88 z M389.5,244.583 L210.5,244.583 L210.5,400.583 L389.5,400.583 L389.5,244.583 z" fill="#000000"/>
    <path d="M300.5,448.5 L300.5,508.5" fill-opacity="0" stroke="#000000" stroke-width="10" stroke-linecap="round"/>
    <path d="M300.5,472.5 L180.5,508.5" fill-opacity="0" stroke="#000000" stroke-width="10" stroke-linecap="round"/>
    <path d="M300.5,472.5 L420.5,508.5" fill-opacity="0" stroke="#000000" stroke-width="10" stroke-linecap="round"/>
    <text transform="matrix(1, 0, 0, 1, 300, 189)">
      <tspan x="-143" y="-6" font-family="HelveticaNeue-Medium" font-size="24" fill="#EEEEEE">•	Lorem ipsum dolor sit </tspan>
      <tspan x="-143" y="23" font-family="HelveticaNeue-Medium" font-size="24" fill="#EEEEEE">•	Etquat accumsan</tspan>
    </text>
    <g>
      <path d="M223,256.333 L223,389.833" fill="#EEEEEE"/>
      <path d="M223,256.333 L223,389.833" fill-opacity="0" stroke="#000000" stroke-width="4" stroke-linecap="round"/>
    </g>
    <g>
      <path d="M222.5,389.833 L378.5,389.833" fill="#EEEEEE"/>
      <path d="M222.5,389.833 L378.5,389.833" fill-opacity="0" stroke="#000000" stroke-width="4" stroke-linecap="round"/>
    </g>
    <g>
      <path d="M234,353.333 L258,353.333 L258,389.333 L234,389.333 z" fill="#000000"/>
      <path d="M270,317.333 L294,317.333 L294,389.333 L270,389.333 z" fill="#000000"/>
      <path d="M306,329.333 L330,329.333 L330,389.333 L306,389.333 z" fill="#000000"/>
      <path d="M342,293.333 L366,293.333 L366,389.333 L342,389.333 z" fill="#000000"/>
    </g>
    <path d="M120.5,124.5 L480.5,124.5 L480.5,436.5 L120.5,436.5 z" fill-opacity="0" stroke="#EEEEEE" stroke-width="5"/>
  </g>
  <g id="Models" display="none">
    <g>
      <path d="M89.73,216.469 L89.73,380.908 L278.351,459.5 L278.351,291.434 L89.73,216.469 z" fill="#000000"/>
      <path d="M89.73,216.469 L89.73,380.908 L278.351,459.5 L278.351,291.434 L89.73,216.469 z" fill-opacity="0" stroke="#000000" stroke-width="1"/>
    </g>
    <g>
      <path d="M283.188,459.5 L283.188,291.434 L510.5,226.142 L510.5,392.999 L283.188,459.5 z" fill="#000000"/>
      <path d="M283.188,459.5 L283.188,291.434 L510.5,226.142 L510.5,392.999 L283.188,459.5 z" fill-opacity="0" stroke="#000000" stroke-width="1"/>
    </g>
    <g>
      <path d="M313.415,146.341 L508.082,221.305 L280.769,286.597 L92.148,211.633 L313.415,146.341 z M300.115,178.847 C246.452,178.847 202.949,195.691 202.949,216.469 C202.949,237.247 246.452,254.091 300.115,254.091 C353.778,254.091 397.281,237.247 397.281,216.469 C397.281,195.691 353.778,178.847 300.115,178.847 z" fill="#000000"/>
      <path d="M313.415,146.341 L508.082,221.305 L280.769,286.597 L92.148,211.633 L313.415,146.341 z M300.115,178.847 C246.452,178.847 202.949,195.691 202.949,216.469 C202.949,237.247 246.452,254.091 300.115,254.091 C353.778,254.091 397.281,237.247 397.281,216.469 C397.281,195.691 353.778,178.847 300.115,178.847 z" fill-opacity="0" stroke="#000000" stroke-width="1"/>
    </g>
  </g>
  <g id="Linux" display="none">
    <path d="M293.344,187.249 C293.344,188.705 291.888,188.705 291.888,188.705 L290.431,188.705 C288.975,188.705 288.975,187.249 287.518,185.793 C287.518,185.793 286.062,184.336 286.062,182.88 C286.062,181.423 286.062,181.423 287.518,181.423 L290.431,182.88 C291.888,184.336 293.344,185.793 293.344,187.249 M267.128,172.684 C267.128,165.402 264.215,161.033 259.846,161.033 C259.846,161.033 259.846,162.489 258.389,162.489 L258.389,165.402 L262.759,165.402 C262.759,168.315 264.215,169.772 264.215,172.684 L267.128,172.684 M318.104,165.402 C321.017,165.402 322.473,168.315 323.929,172.684 L326.842,172.684 C325.386,171.228 325.386,169.772 325.386,168.315 C325.386,166.859 325.386,165.402 323.929,163.946 C322.473,162.489 321.017,161.033 319.56,161.033 C319.56,161.033 318.104,162.489 316.647,162.489 C316.647,163.946 318.104,163.946 318.104,165.402 M274.41,188.705 C272.954,188.705 272.954,188.705 272.954,187.249 C272.954,185.793 272.954,184.336 274.41,182.88 C277.323,182.88 278.78,181.423 278.78,181.423 C280.236,181.423 280.236,182.88 280.236,182.88 C280.236,184.336 278.78,185.793 275.867,188.705 L274.41,188.705 M258.389,187.249 C252.563,184.336 251.107,179.967 251.107,172.684 C251.107,168.315 251.107,165.402 254.02,162.489 C255.476,159.576 258.389,158.12 261.302,158.12 C264.215,158.12 265.671,159.576 268.584,162.489 C270.041,166.859 271.497,171.228 271.497,175.597 L271.497,177.054 L271.497,178.51 L272.954,178.51 L272.954,177.054 C274.41,177.054 274.41,174.141 274.41,168.315 C274.41,163.946 274.41,159.576 271.497,155.207 C268.584,150.838 265.671,147.925 259.846,147.925 C255.476,147.925 251.107,150.838 249.651,155.207 C246.738,161.033 246.155,165.402 246.155,172.684 C246.155,178.51 248.194,184.336 254.02,190.162 C255.476,188.705 256.933,188.705 258.389,187.249 M440.445,392.608 C441.902,392.608 441.902,392.026 441.902,390.715 C441.902,387.511 440.445,383.724 436.076,379.5 C431.707,375.131 424.424,372.364 415.686,371.198 C414.229,371.053 412.773,371.053 412.773,371.053 C411.316,370.762 411.316,370.762 409.86,370.762 C408.403,370.616 405.491,370.325 404.034,370.033 C408.403,356.488 409.86,344.545 409.86,334.059 C409.86,319.495 406.947,309.299 401.121,300.561 C395.295,291.822 389.47,287.453 382.187,285.996 C380.731,287.453 380.731,287.453 380.731,288.909 C388.013,291.822 395.295,297.648 399.665,306.386 C404.034,316.582 405.491,325.32 405.491,335.515 C405.491,343.672 404.034,355.76 398.208,371.198 C392.383,373.529 386.557,378.918 382.187,387.365 C382.187,388.676 382.187,389.404 383.644,389.404 C383.644,389.404 385.1,388.093 386.557,385.617 C389.47,383.141 390.926,380.665 393.839,378.189 C398.208,375.713 401.121,374.403 405.491,374.403 C412.773,374.403 420.055,375.422 424.424,377.461 C430.25,379.355 433.163,381.394 434.62,383.724 C436.076,385.909 437.532,387.948 438.989,389.841 C438.989,391.734 440.445,392.608 440.445,392.608 M306.452,181.423 C304.996,179.967 304.996,177.054 304.996,174.141 C304.996,168.315 304.996,165.402 307.909,161.033 C310.821,158.12 313.734,156.664 316.647,156.664 C321.017,156.664 323.929,159.576 326.842,162.489 C328.299,166.859 329.755,169.772 329.755,174.141 C329.755,181.423 326.842,185.793 321.017,187.249 C321.017,187.249 322.473,188.705 323.929,188.705 C326.842,188.705 328.299,190.162 331.212,191.618 C332.668,182.88 334.125,177.054 334.125,169.772 C334.125,161.033 332.668,155.207 329.755,150.838 C325.386,146.468 321.017,145.012 315.191,145.012 C310.821,145.012 306.452,146.468 302.083,149.381 C299.17,153.751 297.713,156.664 297.713,161.033 C297.713,168.315 299.17,174.141 302.083,179.967 C303.539,179.967 304.996,181.423 306.452,181.423 M323.929,204.726 C304.996,217.834 290.431,223.66 278.78,223.66 C268.584,223.66 258.389,219.291 249.651,212.009 C251.107,214.921 252.563,217.834 254.02,219.291 L262.759,228.03 C268.584,233.855 275.867,236.768 283.149,236.768 C293.344,236.768 304.996,230.942 319.56,220.747 L332.668,212.009 C335.581,209.096 338.494,206.183 338.494,201.813 C338.494,200.357 338.494,198.901 337.037,198.901 C335.581,195.988 328.299,191.618 313.734,187.249 C300.626,181.423 290.431,178.51 284.605,178.51 C280.236,178.51 272.954,181.423 262.759,187.249 C254.02,193.075 248.194,198.901 248.194,204.726 C248.194,204.726 249.651,206.183 251.107,209.096 C259.846,216.378 268.584,220.747 277.323,220.747 C288.975,220.747 303.539,214.921 322.473,200.357 L322.473,203.27 C323.929,203.27 323.929,204.726 323.929,204.726 M357.428,498.929 C363.254,509.881 373.449,515.387 385.1,515.387 C388.013,515.387 390.926,514.95 393.839,514.076 C396.752,513.493 399.665,512.474 401.121,511.309 C402.578,510.289 404.034,509.27 405.491,508.105 C408.403,507.085 408.403,506.357 409.86,505.629 L434.62,484.219 C440.445,479.573 446.271,475.509 453.553,471.985 C459.379,468.489 465.205,466.159 468.118,464.848 C472.487,463.683 475.4,461.935 478.313,459.605 C479.769,457.42 481.226,454.653 481.226,451.157 C481.226,446.934 478.313,443.73 475.4,441.399 C472.487,439.069 469.574,437.467 466.661,436.447 C463.749,435.428 460.836,433.098 456.466,429.165 C453.553,425.378 450.64,420.135 449.184,413.29 L447.728,404.842 C446.271,400.91 446.271,397.997 444.815,396.395 C444.815,395.958 444.815,395.812 443.358,395.812 C441.902,395.812 438.989,397.123 437.532,399.599 C434.62,402.075 431.707,404.842 428.794,407.755 C427.337,410.668 422.968,413.29 420.055,415.766 C415.686,418.242 411.316,419.553 408.403,419.553 C396.752,419.553 390.926,416.348 386.557,410.086 C383.644,405.425 382.187,400.036 380.731,393.919 C377.818,391.443 376.362,390.132 373.449,390.132 C366.166,390.132 363.254,397.706 363.254,412.999 L363.254,417.805 L363.254,434.7 L363.254,447.662 L363.254,453.925 L363.254,458.294 C363.254,459.605 361.797,462.518 361.797,467.033 C360.341,471.548 360.341,476.674 360.341,482.471 L357.428,498.638 L357.428,498.885 M146.243,491.181 C159.788,493.161 175.372,497.4 192.995,503.866 C210.618,510.275 221.395,513.625 225.328,513.625 C235.523,513.625 243.97,509.11 250.961,500.385 C252.418,497.56 252.418,494.239 252.418,490.423 C252.418,476.66 244.116,459.255 227.513,438.137 L217.609,424.883 C215.57,422.116 213.094,417.892 209.89,412.212 C206.831,406.532 204.064,402.163 201.879,399.104 C199.986,395.754 196.927,392.404 192.995,389.055 C189.208,385.705 184.839,383.52 180.032,382.355 C173.915,383.52 169.692,385.559 167.652,388.326 C165.613,391.094 164.448,394.152 164.157,397.356 C163.72,400.415 162.846,402.454 161.39,403.473 C159.933,404.347 157.457,405.075 154.108,405.804 C153.379,405.804 152.068,405.804 150.175,405.949 L146.243,405.949 C138.524,405.949 133.28,406.823 130.513,408.28 C126.872,412.503 124.979,417.31 124.979,422.407 C124.979,424.737 125.561,428.67 126.726,434.204 C127.891,439.593 128.474,443.963 128.474,447.021 C128.474,452.993 126.726,458.964 123.085,464.935 C119.444,471.198 117.551,475.859 117.551,479.18 C119.007,484.831 128.62,488.807 146.243,491.137 M194.742,358.746 C194.742,348.696 197.364,337.627 202.753,324.519 C207.996,311.411 213.239,302.673 218.337,296.847 C218.046,295.39 217.317,295.39 216.152,295.39 L214.696,293.934 C210.472,298.303 205.375,308.498 199.257,323.063 C193.14,336.171 189.936,348.259 189.936,357.144 C189.936,363.698 191.538,369.378 194.451,374.33 C197.655,379.136 205.375,386.127 217.609,395.011 L233.047,405.061 C249.505,419.334 258.244,429.238 258.244,435.064 C258.244,438.122 256.787,441.181 252.418,444.531 C249.505,448.026 245.572,449.774 242.223,449.774 C241.931,449.774 241.786,450.065 241.786,450.793 C241.786,450.939 243.242,453.852 246.301,459.532 C252.418,467.834 265.526,471.912 283.003,471.912 C315.045,471.912 339.805,458.804 358.739,432.588 C358.739,425.306 358.739,420.791 357.282,418.897 L357.282,413.508 C357.282,404.041 358.739,396.905 361.651,392.244 C364.564,387.583 367.477,385.399 371.847,385.399 C374.759,385.399 377.672,386.418 380.585,388.603 C382.042,377.388 382.042,367.63 382.042,358.891 C382.042,345.638 382.042,334.714 379.129,324.519 C377.672,315.781 374.759,308.498 371.847,302.673 C368.934,298.303 366.021,293.934 363.108,289.564 C360.195,285.195 358.739,280.826 355.826,276.456 C354.369,270.631 352.913,266.261 352.913,258.979 C348.543,251.697 345.631,244.415 341.261,237.132 C338.348,229.85 335.435,222.568 332.522,216.742 L319.414,226.937 C304.85,237.132 293.198,241.502 283.003,241.502 C274.265,241.502 266.982,240.045 262.613,234.219 L253.874,226.937 C253.874,231.307 252.418,237.132 249.505,242.958 L240.329,260.436 C236.251,270.631 234.067,276.456 233.63,280.826 C233.047,283.739 232.61,286.652 232.319,286.652 L221.395,308.498 C209.598,330.345 203.627,350.59 203.627,367.339 C203.627,370.689 203.918,374.184 204.501,377.68 C197.947,373.165 194.742,366.902 194.742,358.746 M299.024,496.526 C280.09,496.526 265.526,499.089 255.331,504.172 L255.331,503.735 C248.048,512.474 239.892,516.989 228.532,516.989 C221.395,516.989 210.181,514.222 195.034,508.687 C179.741,503.444 166.196,499.424 154.399,496.773 C153.234,496.438 150.612,495.943 146.388,495.273 C142.31,494.618 138.524,493.948 135.174,493.278 C132.115,492.623 128.62,491.632 124.833,490.292 C121.192,489.142 118.279,487.642 116.094,485.821 C114.084,483.986 113.094,481.918 113.094,479.602 C113.094,477.272 113.589,474.781 114.579,472.13 C115.512,470.528 116.531,468.926 117.551,467.47 C118.57,465.868 119.444,464.411 120.027,462.955 C120.9,461.644 121.483,460.333 122.066,458.877 C122.648,457.566 123.231,456.255 123.522,454.653 C123.813,453.197 124.105,451.74 124.105,450.284 C124.105,448.827 123.522,444.458 122.357,436.739 C121.192,429.165 120.609,424.359 120.609,422.32 C120.609,415.911 122.066,410.814 125.27,407.173 C128.474,403.532 131.533,401.638 134.737,401.638 L151.486,401.638 C152.797,401.638 154.836,400.91 157.894,399.162 C158.914,396.832 159.788,394.939 160.37,393.191 C161.098,391.443 161.39,390.132 161.681,389.55 C161.972,388.676 162.264,387.802 162.555,387.074 C163.137,386.054 163.866,384.889 164.885,383.724 C163.72,382.267 163.137,380.374 163.137,378.044 C163.137,376.442 163.137,374.985 163.429,374.111 C163.429,368.868 165.905,361.44 171.148,351.682 L176.246,342.506 C180.469,334.642 183.673,328.816 186.004,322.99 C188.48,317.164 191.101,308.426 194.014,296.774 C196.345,286.579 201.879,276.384 210.618,266.188 L221.541,253.08 C229.115,244.342 234.067,237.06 236.834,231.234 C239.601,225.408 241.058,218.126 241.058,212.3 C241.058,209.387 240.329,200.648 238.727,186.084 C237.271,171.519 236.543,156.955 236.543,143.847 C236.543,133.652 237.416,126.369 239.31,119.087 C241.203,111.805 244.553,104.523 249.505,98.697 C253.874,92.871 259.7,87.045 268.439,84.132 C277.177,81.22 287.373,79.763 299.024,79.763 C303.394,79.763 307.763,79.763 312.132,81.22 C316.502,81.22 322.327,82.676 329.61,85.589 C335.435,88.502 341.261,91.415 345.631,95.784 C351.456,100.153 355.826,107.436 360.195,114.718 C363.108,123.457 366.021,132.195 367.477,143.847 C368.934,151.129 368.934,158.411 370.39,168.606 C370.39,177.345 371.847,183.171 371.847,187.54 C373.303,191.91 373.303,197.735 374.759,205.018 C376.216,210.843 377.672,216.669 380.585,221.039 C383.498,226.864 386.411,232.69 390.78,238.516 C395.15,245.798 400.976,253.08 406.801,261.819 C419.909,276.384 430.105,292.405 435.93,308.426 C443.213,322.99 447.582,341.924 447.582,362.168 C447.582,372.218 446.125,381.976 443.213,391.443 C446.125,391.443 447.582,392.608 449.038,394.647 C450.495,396.686 451.951,401.056 453.408,407.901 L454.864,418.679 C456.321,421.883 457.777,424.941 462.146,427.563 C465.059,430.185 467.972,432.369 472.342,434.117 C475.254,435.573 479.624,437.612 482.537,440.234 C485.45,443.147 486.906,446.206 486.906,449.41 C486.906,454.362 485.45,458.003 482.537,460.624 C479.624,463.537 476.711,465.576 472.342,466.887 C469.429,468.344 463.603,471.256 454.864,475.364 C447.582,479.675 440.3,484.903 433.017,491.093 L418.453,503.488 C412.627,509.168 406.801,513.246 402.432,515.722 C398.063,518.343 392.237,519.654 386.411,519.654 L376.216,518.489 C364.564,515.431 357.282,509.605 352.913,500.72 C329.61,497.895 310.676,496.497 299.024,496.497" fill="#000000"/>
  </g>
  <g id="LEGO" display="none">
    <g>
      <path d="M571.5,515.5 z" fill="#000000"/>
      <path d="M571.5,515.5 z" fill-opacity="0" stroke="#000000" stroke-width="1"/>
    </g>
    <g>
      <g>
        <path d="M90.115,216.769 L90.115,381.208 L278.736,459.8 L278.736,291.734 L90.115,216.769 z" fill="#000000"/>
        <path d="M90.115,216.769 L90.115,381.208 L278.736,459.8 L278.736,291.734 L90.115,216.769 z" fill-opacity="0" stroke="#000000" stroke-width="1"/>
      </g>
      <g>
        <path d="M283.572,459.8 L283.572,291.734 L510.885,226.442 L510.885,393.299 L283.572,459.8 z" fill="#000000"/>
        <path d="M283.572,459.8 L283.572,291.734 L510.885,226.442 L510.885,393.299 L283.572,459.8 z" fill-opacity="0" stroke="#000000" stroke-width="1"/>
      </g>
      <g>
        <path d="M92.533,211.933 L281.154,286.898 L508.467,221.606 L313.8,146.641" fill="#000000"/>
        <path d="M92.533,211.933 L281.154,286.898 L508.467,221.606 L313.8,146.641" fill-opacity="0" stroke="#000000" stroke-width="1"/>
      </g>
      <g>
        <path d="M358.642,158.837 L358.642,184.228 C358.642,194.578 337.8,202.969 312.091,202.969 L312.091,202.969 C286.382,202.969 265.54,194.578 265.54,184.228 L265.54,158.837 C265.54,169.187 286.382,177.578 312.091,177.578 C337.8,177.578 358.642,169.187 358.642,158.837 z" fill="#EEEEEE"/>
        <path d="M265.781,157.525 C266.398,156.306 266.802,154.952 267.633,153.868 C276.069,142.862 299.527,140.955 312.091,140.7 C337.8,140.7 358.642,149.091 358.642,159.441 C358.642,169.792 337.8,178.182 312.091,178.182 C286.382,178.182 265.54,169.792 265.54,159.441 L265.781,157.525 z" fill="#000000"/>
      </g>
      <path d="M342.319,221.71 L342.319,247.101 C342.319,257.452 321.477,265.843 295.768,265.843 L295.768,265.843 C270.059,265.843 249.217,257.452 249.217,247.101 L249.217,221.71 C249.217,232.061 270.059,240.451 295.768,240.451 C321.477,240.451 342.319,232.061 342.319,221.71 z" fill="#EEEEEE"/>
      <g>
        <path d="M454.161,192.711 L454.161,218.102 C454.161,228.452 433.32,236.843 407.611,236.843 L407.611,236.843 C381.901,236.843 361.06,228.452 361.06,218.102 L361.06,192.711 C361.06,203.061 381.901,211.452 407.611,211.452 C433.32,211.452 454.161,203.061 454.161,192.711 z" fill="#EEEEEE"/>
        <path d="M361.3,191.399 C361.918,190.18 362.321,188.827 363.153,187.742 C371.588,176.736 395.047,174.829 407.611,174.574 C433.32,174.574 454.161,182.965 454.161,193.315 C454.161,203.666 433.32,212.056 407.611,212.056 C381.901,212.056 361.06,203.666 361.06,193.315 L361.3,191.399 z" fill="#000000"/>
      </g>
      <g>
        <path d="M244.313,188.234 L244.313,213.626 C244.313,223.976 223.471,232.367 197.762,232.367 L197.762,232.367 C172.053,232.367 151.212,223.976 151.212,213.626 L151.212,188.234 C151.212,198.585 172.053,206.976 197.762,206.976 C223.471,206.976 244.313,198.585 244.313,188.234 z" fill="#EEEEEE"/>
        <path d="M151.452,186.923 C152.069,185.704 152.473,184.35 153.304,183.266 C161.74,172.26 185.198,170.353 197.762,170.098 C223.471,170.098 244.313,178.488 244.313,188.839 C244.313,199.189 223.471,207.58 197.762,207.58 C172.053,207.58 151.212,199.189 151.212,188.839 L151.452,186.923 z" fill="#000000"/>
      </g>
    </g>
  </g>
  <g id="Higher_Education" display="none">
    <path d="M298.346,130.109 L518.899,229.649 L299.331,331.647 L79.763,232.107 L298.346,130.109 z M299.331,222.744 C290.074,222.744 282.57,226.386 282.57,230.878 C282.57,235.37 290.074,239.012 299.331,239.012 C308.588,239.012 316.092,235.37 316.092,230.878 C316.092,226.386 308.588,222.744 299.331,222.744 z" fill="#000000"/>
    <path d="M411.576,290.78 L410.223,354.686 C410.592,397.605 360.779,428.122 299.331,428.122 C237.884,428.122 188.07,397.605 188.07,359.598 L188.171,357.139 L188.07,357.14 L187.086,292.009 L224.376,308.748 L299.331,342.394 L373.457,308.309 L373.461,308.311 L373.456,308.309 L411.576,290.78 z" fill="#000000"/>
    <path d="M158.532,262.829 L158.532,306.067 C162.772,307.875 164.515,312.976 164.932,318.129 C164.795,323.508 162.519,328.097 158.532,330.192 L158.532,348.851 L164.932,459.451 L164.867,459.455 L164.932,460.039 C164.932,465.48 160.083,469.891 154.101,469.891 C149.479,469.715 144.057,467.135 143.341,460.676 L143.27,460.68 L143.294,460.256 L143.27,460.039 L143.346,459.356 L149.67,348.851 L149.67,330.192 C145.43,328.383 143.687,323.283 143.27,318.129 C143.407,312.75 145.683,308.161 149.67,306.067 L149.67,262.829 L158.532,262.829 z" fill="#000000"/>
  </g>
  <g id="Sketch_Layers" display="none"/>
  <g id="Gadgets" display="none">
    <g>
      <g>
        <path d="M397.356,304.889 L509.066,304.889 C512.574,304.889 515.419,307.733 515.419,311.242 L515.419,489.66 C515.419,493.169 512.574,496.013 509.066,496.013 L397.356,496.013 C393.847,496.013 391.003,493.169 391.003,489.66 L391.003,311.242 C391.003,307.733 393.847,304.889 397.356,304.889 z" fill="#000000"/>
        <path d="M515.419,335.067 L515.419,335.067 C517.758,335.067 519.654,336.015 519.654,337.184 L519.654,377.421 C519.654,378.59 517.758,379.539 515.419,379.539 L515.419,379.539 C513.08,379.539 511.183,378.59 511.183,377.421 L511.183,337.184 C511.183,336.015 513.08,335.067 515.419,335.067 z" fill="#000000"/>
        <path d="M515.419,423.481 L515.419,423.481 C517.758,423.481 519.654,424.429 519.654,425.599 L519.654,465.836 C519.654,467.005 517.758,467.953 515.419,467.953 L515.419,467.953 C513.08,467.953 511.183,467.005 511.183,465.836 L511.183,425.599 C511.183,424.429 513.08,423.481 515.419,423.481 z" fill="#000000"/>
        <path d="M515.419,388.009 L515.419,388.009 C517.758,388.009 519.654,388.585 519.654,389.295 L519.654,413.725 C519.654,414.435 517.758,415.01 515.419,415.01 L515.419,415.01 C513.08,415.01 511.183,414.435 511.183,413.725 L511.183,389.295 C511.183,388.585 513.08,388.009 515.419,388.009 z" fill="#000000"/>
        <path d="M391.268,399.127 L391.268,399.127 C388.929,399.127 387.032,398.179 387.032,397.01 L387.032,356.773 C387.032,355.604 388.929,354.655 391.268,354.655 L391.268,354.655 C393.607,354.655 395.503,355.604 395.503,356.773 L395.503,397.01 C395.503,398.179 393.607,399.127 391.268,399.127 z" fill="#000000"/>
      </g>
      <path d="M416.908,286.763 L486.667,286.763 C490.265,286.763 493.182,289.607 493.182,293.116 L495.896,321.441 C495.896,324.949 492.979,327.794 489.382,327.794 L416.908,327.794 C413.31,327.794 410.393,324.949 410.393,321.441 L413.651,293.116 C413.651,289.607 416.567,286.763 420.165,286.763 z" fill="#616264"/>
      <path d="M416.908,519.654 L486.667,519.654 C490.265,519.654 493.182,516.81 493.182,513.301 L495.896,482.859 C495.896,479.35 492.979,476.506 489.382,476.506 L416.908,476.506 C413.31,476.506 410.393,479.35 410.393,482.859 L413.651,513.301 C413.651,516.81 416.567,519.654 420.165,519.654 z" fill="#616264"/>
      <g>
        <path d="M411.849,350.155 L492.323,350.155 L492.323,443.335 L411.849,443.335 L411.849,350.155 z" fill="#EEEEEE"/>
      </g>
    </g>
    <g>
      <path d="M233.331,79.842 C241.324,81.004 246.679,87.065 247.083,95.081 C247.098,97.472 246.646,99.042 245.739,101.187 C245.846,102.212 245.88,101.693 245.611,102.74 C242.04,112.804 242.076,116.88 242.076,116.88 L245.947,177.915 L251.797,178.447 L259.161,171.966 L267.704,179.92 L262.991,184.338 L277.425,198.478 L282.727,195.827 L290.386,202.602 L283.022,210.556 L284.355,216.155 C299.135,217.209 313.914,218.269 328.699,219.254 C334.468,219.639 340.276,220.203 346.061,220.276 C351.364,220.277 360.79,216.742 360.79,216.742 C360.834,216.89 360.808,216.8 360.869,217.011 C363.112,215.526 365.828,215.107 368.449,214.974 C375.082,215.097 381.097,219.313 383.079,225.737 C383.379,226.709 383.485,227.73 383.688,228.726 L383.767,230.292 C383.767,238.752 376.909,245.61 368.449,245.61 C366.059,245.625 364.489,245.173 362.343,244.266 C361.319,244.372 361.837,244.406 360.79,244.137 C350.727,240.567 346.651,240.602 346.651,240.602 L274.928,245.152 L274.774,245.611 C247.294,267.928 247.679,267.799 247.771,267.768 C245.507,288.109 244.097,307.516 242.804,326.931 C242.419,332.7 241.855,338.509 241.781,344.294 C241.781,349.596 245.316,359.023 245.316,359.023 C245.168,359.067 245.258,359.04 245.047,359.101 C246.532,361.345 246.951,364.061 247.084,366.682 C247.084,375.142 240.226,382 231.766,382 L230.2,381.921 C222.207,380.759 216.852,374.698 216.448,366.682 C216.433,364.291 216.885,362.721 217.792,360.576 C217.686,359.551 217.652,360.07 217.921,359.023 C221.491,348.96 221.455,344.883 221.456,344.883 L217.309,279.508 C207.8,282.715 189.237,288.462 181.689,278.162 C174.833,268.806 178.329,254.615 181.981,244.631 C166.266,243.508 150.552,242.378 134.832,241.331 C129.062,240.946 123.254,240.384 117.469,240.308 C112.167,240.308 102.74,243.843 102.74,243.843 C102.696,243.695 102.723,243.785 102.662,243.573 C100.418,245.059 97.702,245.478 95.081,245.611 C86.621,245.611 79.763,238.752 79.763,230.293 C79.763,221.833 86.621,214.974 95.081,214.974 C97.472,214.96 99.042,215.412 101.187,216.318 C102.212,216.212 101.693,216.178 102.74,216.447 C112.804,220.018 116.88,219.982 116.88,219.982 L194.012,215.089 L194.059,214.974 L216.939,188.746 C218.229,170.777 219.53,152.808 220.727,134.832 C221.112,129.063 221.676,123.254 221.75,117.469 C221.75,112.167 218.215,102.74 218.215,102.74 C218.363,102.696 218.273,102.723 218.485,102.662 C216.999,100.418 216.58,97.702 216.447,95.081 C216.447,86.621 223.305,79.763 231.765,79.763 L233.331,79.842 z" fill="#000000"/>
      <path d="M228.448,362.263 C228.448,362.263 219.906,361.969 215.781,361.38 C211.657,360.79 191.626,359.023 188.091,359.318 C184.556,359.612 158.928,360.496 152.153,365.209 C145.377,369.922 149.207,369.039 149.207,369.039 L148.618,372.574 C148.618,372.574 157.455,376.403 180.137,374.636 C202.82,372.868 209.301,368.744 209.301,368.744 C209.301,368.744 214.014,367.271 218.433,368.449 C222.851,369.628 225.797,371.69 225.797,371.69 L228.448,362.263 z" fill="#616264"/>
      <path d="M235.082,372.123 C235.082,372.123 243.625,372.418 247.749,373.007 C251.873,373.596 271.904,375.363 275.439,375.069 C278.974,374.774 304.603,373.89 311.378,369.177 C318.153,364.464 314.324,365.348 314.324,365.348 L314.913,361.813 C314.913,361.813 306.075,357.983 283.393,359.751 C260.71,361.518 254.23,365.642 254.23,365.642 C254.23,365.642 249.516,367.115 245.098,365.937 C240.679,364.759 237.733,362.697 237.733,362.697 L235.082,372.123 z" fill="#616264"/>
      <path d="M231.689,374.496 C227.655,374.496 224.386,371.226 224.386,367.193 C224.386,363.16 227.655,359.89 231.689,359.89 C235.722,359.89 238.992,363.16 238.992,367.193 C238.992,371.226 235.722,374.496 231.689,374.496 z" fill="#EEEEEE"/>
      <path d="M228.448,88.994 C228.448,88.994 219.906,88.7 215.781,88.11 C211.657,87.521 191.626,85.754 188.091,86.048 C184.556,86.343 158.928,87.227 152.153,91.94 C145.377,96.653 149.207,95.769 149.207,95.769 L148.618,99.304 C148.618,99.304 157.455,103.134 180.137,101.366 C202.82,99.599 209.301,95.475 209.301,95.475 C209.301,95.475 214.014,94.002 218.433,95.18 C222.851,96.359 225.797,98.421 225.797,98.421 L228.448,88.994 z" fill="#616264"/>
      <path d="M235.082,98.854 C235.082,98.854 243.625,99.148 247.749,99.738 C251.873,100.327 271.904,102.094 275.439,101.8 C278.974,101.505 304.603,100.621 311.378,95.908 C318.153,91.195 314.324,92.079 314.324,92.079 L314.913,88.544 C314.913,88.544 306.075,84.714 283.393,86.482 C260.71,88.249 254.23,92.373 254.23,92.373 C254.23,92.373 249.516,93.846 245.098,92.668 C240.679,91.489 237.733,89.427 237.733,89.427 L235.082,98.854 z" fill="#616264"/>
      <path d="M231.689,101.227 C227.655,101.227 224.386,97.957 224.386,93.924 C224.386,89.891 227.655,86.621 231.689,86.621 C235.722,86.621 238.992,89.891 238.992,93.924 C238.992,97.957 235.722,101.227 231.689,101.227 z" fill="#EEEEEE"/>
      <path d="M100.367,226.952 C100.367,226.952 100.662,218.409 101.251,214.285 C101.84,210.161 103.607,190.129 103.313,186.594 C103.018,183.059 102.135,157.431 97.421,150.656 C92.708,143.881 93.592,147.71 93.592,147.71 L90.057,147.121 C90.057,147.121 86.227,155.958 87.995,178.641 C89.762,201.323 93.886,207.804 93.886,207.804 C93.886,207.804 95.359,212.517 94.181,216.936 C93.003,221.355 90.941,224.3 90.941,224.3 L100.367,226.952 z" fill="#616264"/>
      <path d="M90.507,233.585 C90.507,233.585 90.213,242.128 89.624,246.252 C89.034,250.376 87.267,270.408 87.562,273.943 C87.856,277.478 88.74,303.106 93.453,309.881 C98.166,316.656 97.283,312.827 97.283,312.827 L100.818,313.416 C100.818,313.416 104.647,304.579 102.88,281.896 C101.112,259.214 96.988,252.733 96.988,252.733 C96.988,252.733 95.515,248.02 96.693,243.601 C97.872,239.182 99.934,236.237 99.934,236.237 L90.507,233.585 z" fill="#616264"/>
      <path d="M88.134,230.192 C88.134,226.159 91.404,222.889 95.437,222.889 C99.47,222.889 102.74,226.159 102.74,230.192 C102.74,234.225 99.47,237.495 95.437,237.495 C91.404,237.495 88.134,234.225 88.134,230.192 z" fill="#EEEEEE"/>
      <path d="M373.023,226.952 C373.023,226.952 373.318,218.409 373.907,214.285 C374.496,210.161 376.263,190.129 375.969,186.594 C375.674,183.059 374.791,157.431 370.077,150.656 C365.364,143.881 366.248,147.71 366.248,147.71 L362.713,147.121 C362.713,147.121 358.883,155.958 360.651,178.641 C362.418,201.323 366.542,207.804 366.542,207.804 C366.542,207.804 368.015,212.517 366.837,216.936 C365.659,221.355 363.597,224.3 363.597,224.3 L373.023,226.952 z" fill="#616264"/>
      <path d="M363.163,233.585 C363.163,233.585 362.869,242.128 362.28,246.252 C361.69,250.376 359.923,270.408 360.218,273.943 C360.512,277.478 361.396,303.106 366.109,309.881 C370.822,316.656 369.939,312.827 369.939,312.827 L373.474,313.416 C373.474,313.416 377.303,304.579 375.536,281.896 C373.768,259.214 369.644,252.733 369.644,252.733 C369.644,252.733 368.171,248.02 369.35,243.601 C370.528,239.182 372.59,236.237 372.59,236.237 L363.163,233.585 z" fill="#616264"/>
      <path d="M360.79,230.192 C360.79,226.159 364.06,222.889 368.093,222.889 C372.126,222.889 375.396,226.159 375.396,230.192 C375.396,234.225 372.126,237.495 368.093,237.495 C364.06,237.495 360.79,234.225 360.79,230.192 z" fill="#EEEEEE"/>
    </g>
    <g>
      <path d="M298,432.654 L330,432.654 L330,482.654 L298,482.654 L298,432.654 z" fill="#616264"/>
      <path d="M141.763,395.654 C158.06,395.726 173.808,402.118 185.344,413.654 L298,413.654 L298,501.654 L185.344,501.654 C173.886,513.475 157.995,519.244 141.763,519.654 C107.521,519.654 79.763,491.896 79.763,457.654 C79.763,423.413 107.521,395.654 141.763,395.654 z" fill="#000000"/>
      <path d="M139.5,481.154 C126.521,481.154 116,470.633 116,457.654 C116,444.676 126.521,434.154 139.5,434.154 C152.479,434.154 163,444.676 163,457.654 C163,470.633 152.479,481.154 139.5,481.154 z" fill="#616264"/>
      <path d="M88.5,454.154 L107.5,454.154 C109.433,454.154 111,455.721 111,457.654 L111,457.654 C111,459.587 109.433,461.154 107.5,461.154 L88.5,461.154 C86.567,461.154 85,459.587 85,457.654 L85,457.654 C85,455.721 86.567,454.154 88.5,454.154 z" fill="#EEEEEE"/>
    </g>
  </g>
  <g id="Ham" display="none">
    <g>
      <g>
        <path d="M286.488,283.075 C286.488,283.075 287.226,280.402 288.455,279.333 C289.684,278.264 309.104,278.798 309.104,278.798 L313.774,283.342 L315.003,281.738 L317.707,282.006 C317.707,282.006 315.249,279.867 315.003,277.729 C314.757,275.591 313.037,276.125 313.037,276.125 L313.282,269.443 L314.757,268.909 L314.757,265.969 L319.428,260.088 L343.026,260.088 L348.188,265.167 L347.943,268.641 L349.417,269.443 L349.663,275.591 L348.434,277.194 L346.222,279.867 L345.976,282.807 L348.434,282.807 L349.172,289.489 C349.172,289.489 352.121,289.489 353.105,293.231 C354.088,296.973 353.105,298.844 353.105,298.844 L357.038,307.932 L356.792,310.872 C356.792,310.872 359.575,319.462 360.725,339.471 C361.217,348.024 360.725,347.222 360.725,347.222 L364.166,349.628 L365.15,413.509 L359.988,417.25 L359.496,431.416 C359.496,431.416 356.3,435.693 358.758,450.393 C361.217,465.094 356.3,496.633 356.3,496.633 L356.3,500.108 L353.842,507.859 L353.842,513.739 C353.842,513.739 350.155,519.085 342.043,519.352 C333.931,519.62 260.678,520.154 260.678,520.154 L257.482,518.016 C257.482,518.016 253.303,518.283 248.879,513.205 C244.454,508.127 248.633,506.79 248.633,506.79 C248.633,506.79 246.912,507.057 245.929,499.306 C244.946,491.555 242.733,450.928 242.733,450.928 C242.733,450.928 246.42,443.711 242.487,432.753 C238.554,421.794 241.996,426.605 241.996,426.605 L237.079,422.863 L236.588,406.826 L240.767,402.283 L238.8,398.808 L236.588,398.273 L235.85,355.508 L238.309,354.706 L238.8,351.766 L238.063,347.222 L236.342,347.222 L236.096,330.918 L238.309,330.116 C238.309,330.116 240.521,316.218 242.733,308.734 C244.946,301.25 246.912,299.112 246.912,299.112 L247.404,292.964 C247.404,292.964 251.091,290.291 252.812,290.024 C254.532,289.757 253.795,283.075 253.795,283.075 L255.27,283.075 L260.561,80.263 L279.231,80.263 L283.785,243.25 L284.522,268.374 L285.505,275.323 L286.488,283.075 z" fill="#000000"/>
        <path d="M286.488,283.075 C286.488,283.075 287.226,280.402 288.455,279.333 C289.684,278.264 309.104,278.798 309.104,278.798 L313.774,283.342 L315.003,281.738 L317.707,282.006 C317.707,282.006 315.249,279.867 315.003,277.729 C314.757,275.591 313.037,276.125 313.037,276.125 L313.282,269.443 L314.757,268.909 L314.757,265.969 L319.428,260.088 L343.026,260.088 L348.188,265.167 L347.943,268.641 L349.417,269.443 L349.663,275.591 L348.434,277.194 L346.222,279.867 L345.976,282.807 L348.434,282.807 L349.172,289.489 C349.172,289.489 352.121,289.489 353.105,293.231 C354.088,296.973 353.105,298.844 353.105,298.844 L357.038,307.932 L356.792,310.872 C356.792,310.872 359.575,319.462 360.725,339.471 C361.217,348.024 360.725,347.222 360.725,347.222 L364.166,349.628 L365.15,413.509 L359.988,417.25 L359.496,431.416 C359.496,431.416 356.3,435.693 358.758,450.393 C361.217,465.094 356.3,496.633 356.3,496.633 L356.3,500.108 L353.842,507.859 L353.842,513.739 C353.842,513.739 350.155,519.085 342.043,519.352 C333.931,519.62 260.678,520.154 260.678,520.154 L257.482,518.016 C257.482,518.016 253.303,518.283 248.879,513.205 C244.454,508.127 248.633,506.79 248.633,506.79 C248.633,506.79 246.912,507.057 245.929,499.306 C244.946,491.555 242.733,450.928 242.733,450.928 C242.733,450.928 246.42,443.711 242.487,432.753 C238.554,421.794 241.996,426.605 241.996,426.605 L237.079,422.863 L236.588,406.826 L240.767,402.283 L238.8,398.808 L236.588,398.273 L235.85,355.508 L238.309,354.706 L238.8,351.766 L238.063,347.222 L236.342,347.222 L236.096,330.918 L238.309,330.116 C238.309,330.116 240.521,316.218 242.733,308.734 C244.946,301.25 246.912,299.112 246.912,299.112 L247.404,292.964 C247.404,292.964 251.091,290.291 252.812,290.024 C254.532,289.757 253.795,283.075 253.795,283.075 L255.27,283.075 L260.561,80.263 L279.231,80.263 L283.785,243.25 L284.522,268.374 L285.505,275.323 L286.488,283.075 z" fill-opacity="0" stroke="#000000" stroke-width="1"/>
      </g>
      <g>
        <path d="M261.047,307.932 L339.953,307.932 C344.841,307.932 348.803,312.24 348.803,317.554 L348.803,351.232 C348.803,356.546 344.841,360.854 339.953,360.854 L261.047,360.854 C256.159,360.854 252.197,356.546 252.197,351.232 L252.197,317.554 C252.197,312.24 256.159,307.932 261.047,307.932 z" fill="#616264"/>
        <path d="M261.047,307.932 L339.953,307.932 C344.841,307.932 348.803,312.24 348.803,317.554 L348.803,351.232 C348.803,356.546 344.841,360.854 339.953,360.854 L261.047,360.854 C256.159,360.854 252.197,356.546 252.197,351.232 L252.197,317.554 C252.197,312.24 256.159,307.932 261.047,307.932 z" fill-opacity="0" stroke="#000000" stroke-width="1"/>
      </g>
      <g>
        <path d="M264.734,318.356 L336.266,318.356 L336.266,350.43 L264.734,350.43 L264.734,318.356 z" fill="#EEEEEE"/>
        <path d="M264.734,318.356 L336.266,318.356 L336.266,350.43 L264.734,350.43 L264.734,318.356 z" fill-opacity="0" stroke="#000000" stroke-width="1"/>
      </g>
      <g>
        <path d="M259.51,441.84 L269.097,441.84 C271.744,441.84 273.89,444.174 273.89,447.052 L273.89,447.052 C273.89,449.931 271.744,452.264 269.097,452.264 L259.51,452.264 C256.863,452.264 254.717,449.931 254.717,447.052 L254.717,447.052 C254.717,444.174 256.863,441.84 259.51,441.84 z" fill="#616264"/>
        <path d="M259.51,441.84 L269.097,441.84 C271.744,441.84 273.89,444.174 273.89,447.052 L273.89,447.052 C273.89,449.931 271.744,452.264 269.097,452.264 L259.51,452.264 C256.863,452.264 254.717,449.931 254.717,447.052 L254.717,447.052 C254.717,444.174 256.863,441.84 259.51,441.84 z" fill-opacity="0" stroke="#EEEEEE" stroke-width="1"/>
      </g>
      <g>
        <path d="M284.092,441.84 L293.679,441.84 C296.326,441.84 298.472,444.174 298.472,447.052 L298.472,447.052 C298.472,449.931 296.326,452.264 293.679,452.264 L284.092,452.264 C281.444,452.264 279.298,449.931 279.298,447.052 L279.298,447.052 C279.298,444.174 281.444,441.84 284.092,441.84 z" fill="#616264"/>
        <path d="M284.092,441.84 L293.679,441.84 C296.326,441.84 298.472,444.174 298.472,447.052 L298.472,447.052 C298.472,449.931 296.326,452.264 293.679,452.264 L284.092,452.264 C281.444,452.264 279.298,449.931 279.298,447.052 L279.298,447.052 C279.298,444.174 281.444,441.84 284.092,441.84 z" fill-opacity="0" stroke="#EEEEEE" stroke-width="1"/>
      </g>
      <g>
        <path d="M307.813,441.84 L317.4,441.84 C320.047,441.84 322.193,444.174 322.193,447.052 L322.193,447.052 C322.193,449.931 320.047,452.264 317.4,452.264 L307.813,452.264 C305.166,452.264 303.02,449.931 303.02,447.052 L303.02,447.052 C303.02,444.174 305.166,441.84 307.813,441.84 z" fill="#616264"/>
        <path d="M307.813,441.84 L317.4,441.84 C320.047,441.84 322.193,444.174 322.193,447.052 L322.193,447.052 C322.193,449.931 320.047,452.264 317.4,452.264 L307.813,452.264 C305.166,452.264 303.02,449.931 303.02,447.052 L303.02,447.052 C303.02,444.174 305.166,441.84 307.813,441.84 z" fill-opacity="0" stroke="#EEEEEE" stroke-width="1"/>
      </g>
      <g>
        <path d="M331.903,441.84 L341.49,441.84 C344.137,441.84 346.283,444.174 346.283,447.052 L346.283,447.052 C346.283,449.931 344.137,452.264 341.49,452.264 L331.903,452.264 C329.256,452.264 327.11,449.931 327.11,447.052 L327.11,447.052 C327.11,444.174 329.256,441.84 331.903,441.84 z" fill="#616264"/>
        <path d="M331.903,441.84 L341.49,441.84 C344.137,441.84 346.283,444.174 346.283,447.052 L346.283,447.052 C346.283,449.931 344.137,452.264 341.49,452.264 L331.903,452.264 C329.256,452.264 327.11,449.931 327.11,447.052 L327.11,447.052 C327.11,444.174 329.256,441.84 331.903,441.84 z" fill-opacity="0" stroke="#EEEEEE" stroke-width="1"/>
      </g>
      <g>
        <path d="M259.51,459.214 L269.097,459.214 C271.744,459.214 273.89,461.547 273.89,464.426 L273.89,464.426 C273.89,467.304 271.744,469.638 269.097,469.638 L259.51,469.638 C256.863,469.638 254.717,467.304 254.717,464.426 L254.717,464.426 C254.717,461.547 256.863,459.214 259.51,459.214 z" fill="#616264"/>
        <path d="M259.51,459.214 L269.097,459.214 C271.744,459.214 273.89,461.547 273.89,464.426 L273.89,464.426 C273.89,467.304 271.744,469.638 269.097,469.638 L259.51,469.638 C256.863,469.638 254.717,467.304 254.717,464.426 L254.717,464.426 C254.717,461.547 256.863,459.214 259.51,459.214 z" fill-opacity="0" stroke="#EEEEEE" stroke-width="1"/>
      </g>
      <g>
        <path d="M284.092,459.214 L293.679,459.214 C296.326,459.214 298.472,461.547 298.472,464.426 L298.472,464.426 C298.472,467.304 296.326,469.638 293.679,469.638 L284.092,469.638 C281.444,469.638 279.298,467.304 279.298,464.426 L279.298,464.426 C279.298,461.547 281.444,459.214 284.092,459.214 z" fill="#616264"/>
        <path d="M284.092,459.214 L293.679,459.214 C296.326,459.214 298.472,461.547 298.472,464.426 L298.472,464.426 C298.472,467.304 296.326,469.638 293.679,469.638 L284.092,469.638 C281.444,469.638 279.298,467.304 279.298,464.426 L279.298,464.426 C279.298,461.547 281.444,459.214 284.092,459.214 z" fill-opacity="0" stroke="#EEEEEE" stroke-width="1"/>
      </g>
      <g>
        <path d="M307.813,459.214 L317.4,459.214 C320.047,459.214 322.193,461.547 322.193,464.426 L322.193,464.426 C322.193,467.304 320.047,469.638 317.4,469.638 L307.813,469.638 C305.166,469.638 303.02,467.304 303.02,464.426 L303.02,464.426 C303.02,461.547 305.166,459.214 307.813,459.214 z" fill="#616264"/>
        <path d="M307.813,459.214 L317.4,459.214 C320.047,459.214 322.193,461.547 322.193,464.426 L322.193,464.426 C322.193,467.304 320.047,469.638 317.4,469.638 L307.813,469.638 C305.166,469.638 303.02,467.304 303.02,464.426 L303.02,464.426 C303.02,461.547 305.166,459.214 307.813,459.214 z" fill-opacity="0" stroke="#EEEEEE" stroke-width="1"/>
      </g>
      <g>
        <path d="M331.903,459.214 L341.49,459.214 C344.137,459.214 346.283,461.547 346.283,464.426 L346.283,464.426 C346.283,467.304 344.137,469.638 341.49,469.638 L331.903,469.638 C329.256,469.638 327.11,467.304 327.11,464.426 L327.11,464.426 C327.11,461.547 329.256,459.214 331.903,459.214 z" fill="#616264"/>
        <path d="M331.903,459.214 L341.49,459.214 C344.137,459.214 346.283,461.547 346.283,464.426 L346.283,464.426 C346.283,467.304 344.137,469.638 341.49,469.638 L331.903,469.638 C329.256,469.638 327.11,467.304 327.11,464.426 L327.11,464.426 C327.11,461.547 329.256,459.214 331.903,459.214 z" fill-opacity="0" stroke="#EEEEEE" stroke-width="1"/>
      </g>
      <g>
        <path d="M259.51,474.716 L269.097,474.716 C271.744,474.716 273.89,477.05 273.89,479.928 L273.89,479.928 C273.89,482.807 271.744,485.14 269.097,485.14 L259.51,485.14 C256.863,485.14 254.717,482.807 254.717,479.928 L254.717,479.928 C254.717,477.05 256.863,474.716 259.51,474.716 z" fill="#616264"/>
        <path d="M259.51,474.716 L269.097,474.716 C271.744,474.716 273.89,477.05 273.89,479.928 L273.89,479.928 C273.89,482.807 271.744,485.14 269.097,485.14 L259.51,485.14 C256.863,485.14 254.717,482.807 254.717,479.928 L254.717,479.928 C254.717,477.05 256.863,474.716 259.51,474.716 z" fill-opacity="0" stroke="#EEEEEE" stroke-width="1"/>
      </g>
      <g>
        <path d="M284.092,474.716 L293.679,474.716 C296.326,474.716 298.472,477.05 298.472,479.928 L298.472,479.928 C298.472,482.807 296.326,485.14 293.679,485.14 L284.092,485.14 C281.444,485.14 279.298,482.807 279.298,479.928 L279.298,479.928 C279.298,477.05 281.444,474.716 284.092,474.716 z" fill="#616264"/>
        <path d="M284.092,474.716 L293.679,474.716 C296.326,474.716 298.472,477.05 298.472,479.928 L298.472,479.928 C298.472,482.807 296.326,485.14 293.679,485.14 L284.092,485.14 C281.444,485.14 279.298,482.807 279.298,479.928 L279.298,479.928 C279.298,477.05 281.444,474.716 284.092,474.716 z" fill-opacity="0" stroke="#EEEEEE" stroke-width="1"/>
      </g>
      <g>
        <path d="M307.813,474.716 L317.4,474.716 C320.047,474.716 322.193,477.05 322.193,479.928 L322.193,479.928 C322.193,482.807 320.047,485.14 317.4,485.14 L307.813,485.14 C305.166,485.14 303.02,482.807 303.02,479.928 L303.02,479.928 C303.02,477.05 305.166,474.716 307.813,474.716 z" fill="#616264"/>
        <path d="M307.813,474.716 L317.4,474.716 C320.047,474.716 322.193,477.05 322.193,479.928 L322.193,479.928 C322.193,482.807 320.047,485.14 317.4,485.14 L307.813,485.14 C305.166,485.14 303.02,482.807 303.02,479.928 L303.02,479.928 C303.02,477.05 305.166,474.716 307.813,474.716 z" fill-opacity="0" stroke="#EEEEEE" stroke-width="1"/>
      </g>
      <g>
        <path d="M331.903,474.716 L341.49,474.716 C344.137,474.716 346.283,477.05 346.283,479.928 L346.283,479.928 C346.283,482.807 344.137,485.14 341.49,485.14 L331.903,485.14 C329.256,485.14 327.11,482.807 327.11,479.928 L327.11,479.928 C327.11,477.05 329.256,474.716 331.903,474.716 z" fill="#616264"/>
        <path d="M331.903,474.716 L341.49,474.716 C344.137,474.716 346.283,477.05 346.283,479.928 L346.283,479.928 C346.283,482.807 344.137,485.14 341.49,485.14 L331.903,485.14 C329.256,485.14 327.11,482.807 327.11,479.928 L327.11,479.928 C327.11,477.05 329.256,474.716 331.903,474.716 z" fill-opacity="0" stroke="#EEEEEE" stroke-width="1"/>
      </g>
      <g>
        <path d="M259.51,492.09 L269.097,492.09 C271.744,492.09 273.89,494.423 273.89,497.302 L273.89,497.302 C273.89,500.18 271.744,502.514 269.097,502.514 L259.51,502.514 C256.863,502.514 254.717,500.18 254.717,497.302 L254.717,497.302 C254.717,494.423 256.863,492.09 259.51,492.09 z" fill="#616264"/>
        <path d="M259.51,492.09 L269.097,492.09 C271.744,492.09 273.89,494.423 273.89,497.302 L273.89,497.302 C273.89,500.18 271.744,502.514 269.097,502.514 L259.51,502.514 C256.863,502.514 254.717,500.18 254.717,497.302 L254.717,497.302 C254.717,494.423 256.863,492.09 259.51,492.09 z" fill-opacity="0" stroke="#EEEEEE" stroke-width="1"/>
      </g>
      <g>
        <path d="M284.092,492.09 L293.679,492.09 C296.326,492.09 298.472,494.423 298.472,497.302 L298.472,497.302 C298.472,500.18 296.326,502.514 293.679,502.514 L284.092,502.514 C281.444,502.514 279.298,500.18 279.298,497.302 L279.298,497.302 C279.298,494.423 281.444,492.09 284.092,492.09 z" fill="#616264"/>
        <path d="M284.092,492.09 L293.679,492.09 C296.326,492.09 298.472,494.423 298.472,497.302 L298.472,497.302 C298.472,500.18 296.326,502.514 293.679,502.514 L284.092,502.514 C281.444,502.514 279.298,500.18 279.298,497.302 L279.298,497.302 C279.298,494.423 281.444,492.09 284.092,492.09 z" fill-opacity="0" stroke="#EEEEEE" stroke-width="1"/>
      </g>
      <g>
        <path d="M307.813,492.09 L317.4,492.09 C320.047,492.09 322.193,494.423 322.193,497.302 L322.193,497.302 C322.193,500.18 320.047,502.514 317.4,502.514 L307.813,502.514 C305.166,502.514 303.02,500.18 303.02,497.302 L303.02,497.302 C303.02,494.423 305.166,492.09 307.813,492.09 z" fill="#616264"/>
        <path d="M307.813,492.09 L317.4,492.09 C320.047,492.09 322.193,494.423 322.193,497.302 L322.193,497.302 C322.193,500.18 320.047,502.514 317.4,502.514 L307.813,502.514 C305.166,502.514 303.02,500.18 303.02,497.302 L303.02,497.302 C303.02,494.423 305.166,492.09 307.813,492.09 z" fill-opacity="0" stroke="#EEEEEE" stroke-width="1"/>
      </g>
      <g>
        <path d="M331.903,492.09 L341.49,492.09 C344.137,492.09 346.283,494.423 346.283,497.302 L346.283,497.302 C346.283,500.18 344.137,502.514 341.49,502.514 L331.903,502.514 C329.256,502.514 327.11,500.18 327.11,497.302 L327.11,497.302 C327.11,494.423 329.256,492.09 331.903,492.09 z" fill="#616264"/>
        <path d="M331.903,492.09 L341.49,492.09 C344.137,492.09 346.283,494.423 346.283,497.302 L346.283,497.302 C346.283,500.18 344.137,502.514 341.49,502.514 L331.903,502.514 C329.256,502.514 327.11,500.18 327.11,497.302 L327.11,497.302 C327.11,494.423 329.256,492.09 331.903,492.09 z" fill-opacity="0" stroke="#EEEEEE" stroke-width="1"/>
      </g>
      <g>
        <path d="M293.916,364.898 L329.805,364.898 L329.805,371.312 L293.916,371.312 L293.916,364.898 z" fill="#616264"/>
        <path d="M287.525,375.589 L307.436,375.589 L307.436,381.469 L287.525,381.469 L287.525,375.589 z" fill="#616264"/>
        <path d="M287.525,386.815 L307.436,386.815 L307.436,392.695 L287.525,392.695 L287.525,386.815 z" fill="#616264"/>
        <path d="M287.525,396.704 L307.436,396.704 L307.436,402.585 L287.525,402.585 L287.525,396.704 z" fill="#616264"/>
        <path d="M316.777,375.589 L336.688,375.589 L336.688,381.469 L316.777,381.469 L316.777,375.589 z" fill="#616264"/>
        <path d="M316.777,386.815 L336.688,386.815 L336.688,392.695 L316.777,392.695 L316.777,386.815 z" fill="#616264"/>
        <path d="M316.777,396.704 L336.688,396.704 L336.688,402.585 L316.777,402.585 L316.777,396.704 z" fill="#616264"/>
        <path d="M293.916,408.197 L329.805,408.197 L329.805,414.612 L293.916,414.612 L293.916,408.197 z" fill="#616264"/>
      </g>
      <path d="M283.223,420.091 L316.777,420.091 C319.424,420.091 321.57,422.425 321.57,425.304 L321.57,425.304 C321.57,428.182 319.424,430.516 316.777,430.516 L283.223,430.516 C280.576,430.516 278.43,428.182 278.43,425.304 L278.43,425.304 C278.43,422.425 280.576,420.091 283.223,420.091 z" fill="#616264"/>
      <g>
        <path d="M331.903,420.591 L341.49,420.591 C344.137,420.591 346.283,422.925 346.283,425.804 L346.283,425.804 C346.283,428.682 344.137,431.016 341.49,431.016 L331.903,431.016 C329.256,431.016 327.11,428.682 327.11,425.804 L327.11,425.804 C327.11,422.925 329.256,420.591 331.903,420.591 z" fill="#616264"/>
        <path d="M331.903,420.591 L341.49,420.591 C344.137,420.591 346.283,422.925 346.283,425.804 L346.283,425.804 C346.283,428.682 344.137,431.016 341.49,431.016 L331.903,431.016 C329.256,431.016 327.11,428.682 327.11,425.804 L327.11,425.804 C327.11,422.925 329.256,420.591 331.903,420.591 z" fill-opacity="0" stroke="#EEEEEE" stroke-width="1"/>
      </g>
      <path d="M259.01,420.091 L268.597,420.091 C271.244,420.091 273.39,422.425 273.39,425.304 L273.39,425.304 C273.39,428.182 271.244,430.516 268.597,430.516 L259.01,430.516 C256.363,430.516 254.217,428.182 254.217,425.304 L254.217,425.304 C254.217,422.425 256.363,420.091 259.01,420.091 z" fill="#FFFFFF"/>
      <path d="M254.217,368.506 L266.753,372.382 L266.569,384.409 L254.217,388.018 L254.217,368.506 z" fill="#616264"/>
    </g>
  </g>
  <g id="Everenote" display="none">
    <path d="M268.102,79.763 C283.66,79.939 299.364,81.614 313.981,87.18 C323.54,91.032 332.084,102.159 333.862,114.339 C348.679,113.881 373.208,113.686 394.078,116.144 C420.019,119.201 440.665,123.013 450.847,126.693 C460.284,130.095 470.722,138.747 474.002,156.304 C479.609,186.343 486.678,305.359 483.041,344.791 C477.286,407.156 467.777,444.299 463.844,456.47 C456.703,476.589 449.734,501.625 429.529,512.636 C416.794,519.575 401.305,519.513 387.214,519.654 L372.465,519.654 C352.524,518.689 324.271,520.172 309.618,503.597 C299.641,492.31 298.807,475.79 298.72,461.483 C298.72,407.399 324.165,406.259 367.41,407.448 C373.604,407.602 367.056,413.655 367.056,424.126 C367.056,434.652 371.11,438.807 365.524,438.807 C353.018,438.807 336.144,437.019 336.144,454.081 C336.144,475.19 346.27,474.502 372.843,474.502 C405.622,474.502 411.892,470.41 411.892,440.557 C411.892,391.489 398.012,383.962 378.887,381.764 C357.735,379.285 336.918,376.112 326.883,372.553 C301.463,363.526 303.28,329.875 303.28,320.366 C303.28,318.933 301.27,318.996 301.27,320.366 C301.27,333.834 300.306,352.447 293.383,373.425 C291.224,379.466 289.653,383.584 289.626,383.625 C281.652,400.344 268.272,394.61 246.954,391.882 C225.598,389.162 180.031,379.66 160.082,371.119 C151.128,366.962 148.092,363.033 143.535,353.6 C131.78,329.356 119.405,249.639 117.88,238.228 C116.044,223.48 115.963,215.861 115.963,215.861 C115.94,206.536 116.897,197.398 122.413,189.995 C125.184,186.266 128.831,183.114 133.98,180.776 C139.12,178.44 145.851,176.96 154.659,176.96 L195.954,176.96 C204.956,176.949 212.22,169.655 212.225,160.692 C212.225,160.631 212.093,151.628 211.972,141.56 C211.849,131.525 211.716,120.23 211.716,115.435 C211.733,106.963 213.879,100.899 217.196,96.165 C222.141,89.08 231.027,84.481 239.057,82.237 C248.546,80.009 258.399,79.816 268.102,79.763 z M395.719,262.495 C380.393,263.164 375.066,275.074 373.118,288.879 C378.451,288.022 384.169,287.646 390.114,287.854 C401.268,288.246 411.508,290.597 419.781,294.285 C419.71,281.725 416.961,263.184 397.343,262.509 L395.719,262.495 z M203.876,91.647 L202.464,94.299 C199.508,100.204 197.813,107.251 197.813,115.333 L197.813,115.449 C197.813,125.29 198.314,160.677 198.314,160.692 C198.309,163.04 196.406,164.967 194.04,164.966 L152.725,164.966 C142.584,164.967 134.113,166.695 127.127,169.847 C126.806,169.987 124.538,171.11 122.878,171.931 C122.923,171.76 123.021,171.592 123.178,171.463 L203.402,91.908 C203.559,91.751 203.718,91.674 203.876,91.647 z" fill="#000000"/>
  </g>
  <g id="Entertainment" display="none">
    <path d="M397.333,79.763 C438.571,79.763 472,112.759 472,153.462 C471.5,185.32 453.382,210.012 424,222.274 L424,334.091 L360.202,334.091 C361.514,337.678 361.901,341.491 362,345.277 C361.913,353.472 359.146,360.786 354.376,367.401 L435,517.351 L406.333,517.351 L336,380.811 L336.292,380.595 L336,380.698 L336,519.654 L312,519.654 L312,381.1 L311.901,381.067 L312,381.14 L244,517.351 L216,517.022 L292.729,367.847 C287.417,361.413 285.197,353.422 284.667,345.277 C284.625,341.466 285.305,337.712 286.465,334.091 L222.667,334.091 L222.667,316.982 L198.667,313.427 L128,343.303 L128,214.33 L198.667,244.206 L222.667,240.651 L222.667,222.793 C192.507,213.089 174.111,183.813 173.333,153.462 C173.333,112.759 206.763,79.763 248,79.763 C289.237,79.763 322.667,112.759 322.667,153.462 C322.36,184.932 303.741,210.14 274.783,222.226 L370.551,222.226 C341.147,210.596 323.464,184.556 322.667,153.462 C322.667,112.759 356.096,79.763 397.333,79.763 L397.333,79.763 z" fill="#000000"/>
  </g>
  <g id="Embedded" display="none">
    <path d="M498.995,146 L505.995,152 L505.995,221 L518.649,234 L518.649,426 L505.995,441 L501.995,452 L118.995,454 L117.995,146 L498.995,146 z M199.995,429.5 C194.472,429.5 189.995,433.977 189.995,439.5 C189.995,445.023 194.472,449.5 199.995,449.5 L199.995,449.5 C205.518,449.5 209.995,445.023 209.995,439.5 C209.995,433.977 205.518,429.5 199.995,429.5 z M505.649,402 C500.127,402 495.65,406.477 495.649,412 C495.65,417.523 500.127,422 505.649,422 C511.172,422 515.65,417.523 515.649,412 C515.65,406.477 511.172,402 505.649,402 z M505.649,239 C500.127,239 495.65,243.477 495.649,249 C495.65,254.523 500.127,259 505.649,259 C511.172,259 515.65,254.523 515.649,249 C515.65,243.477 511.172,239 505.649,239 z M205.495,150.5 C200.249,150.5 195.995,154.753 195.995,160 C195.995,165.247 200.249,169.5 205.495,169.5 C210.742,169.5 214.995,165.247 214.995,160 C214.995,154.753 210.742,150.5 205.495,150.5 z" fill="#616264" fill-opacity="0.488"/>
    <path d="M394.945,218.125 L435.195,218.125 C441.823,218.125 447.195,223.498 447.195,230.125 L447.195,233.875 C447.195,240.502 441.823,245.875 435.195,245.875 L394.945,245.875 C388.318,245.875 382.945,240.502 382.945,233.875 L382.945,230.125 C382.945,223.498 388.318,218.125 394.945,218.125 z" fill-opacity="0" stroke="#000000" stroke-width="2" stroke-dasharray="2,2,2,2,2,2" stroke-miterlimit="1"/>
    <path d="M138.077,198.958 C142.657,198.958 146.37,202.82 146.37,207.583 L146.342,207.875 L169.445,207.875 L169.445,281.208 L80.763,281.208 L80.763,207.875 L129.813,207.875 L129.785,207.583 C129.785,202.82 133.498,198.958 138.078,198.958 z" fill="#000000"/>
    <path d="M169.445,343.375 L182.779,343.375 L182.779,348.542 L169.445,348.542 z" fill="#000000"/>
    <path d="M223.029,229.542 C220.773,229.542 218.945,227.714 218.945,225.458 C218.945,223.203 220.773,221.375 223.029,221.375 C225.284,221.375 227.112,223.203 227.112,225.458 C227.112,227.714 225.284,229.542 223.029,229.542 z" fill="#000000"/>
    <path d="M270.004,293.125 L289.778,293.125 L289.778,306.875 L270.004,306.875 z" fill="#000000"/>
    <path d="M182.578,283.875 L191.312,283.875 C192.674,283.875 193.779,284.979 193.779,286.342 L193.779,286.342 C193.779,287.704 192.674,288.808 191.312,288.808 L182.578,288.808 C181.216,288.808 180.112,287.704 180.112,286.342 L180.112,286.342 C180.112,284.979 181.216,283.875 182.578,283.875 z" fill="#000000"/>
    <path d="M187.112,236.857 L192.112,236.857 L192.112,256.542 L187.112,256.542 z" fill="#000000"/>
    <path d="M346.445,296.542 L361.445,296.542 L361.445,301.875 L346.445,301.875 z" fill="#000000"/>
    <path d="M243.045,327.208 L257.112,327.208 L257.112,331.542 L243.045,331.542 z" fill="#000000"/>
    <path d="M209.279,299.208 L249.945,299.208 C254.824,299.208 258.779,303.238 258.779,308.208 L258.779,308.208 C258.779,313.179 254.824,317.208 249.945,317.208 L209.279,317.208 C204.4,317.208 200.445,313.179 200.445,308.208 L200.445,308.208 C200.445,303.238 204.4,299.208 209.279,299.208 z" fill="#000000"/>
    <path d="M370.445,156.875 L370.445,173.875 L247.445,173.875 L247.445,156.875 L370.445,156.875 z M352.778,160.375 L342.778,160.375 L342.778,170.375 L352.778,170.375 L352.778,160.375 z M321.772,160.375 L311.772,160.375 L311.772,170.375 L321.772,170.375 L321.772,160.375 z M291.112,160.375 L281.112,160.375 L281.112,170.375 L291.112,170.375 L291.112,160.375 z M306.778,160.375 L296.778,160.375 L296.778,170.375 L306.778,170.375 L306.778,160.375 z M336.778,160.375 L326.778,160.375 L326.778,170.375 L336.778,170.375 L336.778,160.375 z M367.445,160.375 L357.445,160.375 L357.445,170.375 L367.445,170.375 L367.445,160.375 z M261.778,160.208 L251.778,160.208 L251.778,170.208 L261.778,170.208 L261.778,160.208 z M276.445,160.208 L266.445,160.208 L266.445,170.208 L276.445,170.208 L276.445,160.208 z" fill="#000000"/>
    <path d="M500.112,156.875 L500.112,173.875 L377.112,173.875 L377.112,156.875 L500.112,156.875 z M482.445,160.375 L472.445,160.375 L472.445,170.375 L482.445,170.375 L482.445,160.375 z M451.439,160.375 L441.439,160.375 L441.439,170.375 L451.439,170.375 L451.439,160.375 z M420.778,160.375 L410.778,160.375 L410.778,170.375 L420.778,170.375 L420.778,160.375 z M436.445,160.375 L426.445,160.375 L426.445,170.375 L436.445,170.375 L436.445,160.375 z M466.445,160.375 L456.445,160.375 L456.445,170.375 L466.445,170.375 L466.445,160.375 z M497.112,160.375 L487.112,160.375 L487.112,170.375 L497.112,170.375 L497.112,160.375 z M391.445,160.208 L381.445,160.208 L381.445,170.208 L391.445,170.208 L391.445,160.208 z M406.112,160.208 L396.112,160.208 L396.112,170.208 L406.112,170.208 L406.112,160.208 z" fill="#000000"/>
    <path d="M233.112,233.857 L254.796,255.542 L233.112,277.226 L211.427,255.542 z" fill="#000000"/>
    <path d="M289.337,343.375 L297.112,343.375 L297.112,345.875 L316.921,345.875 L316.921,343.375 L324.695,343.375 L324.695,345.875 L346.962,345.875 L346.962,343.375 L354.737,343.375 L354.737,345.875 L377.546,345.875 L377.546,343.375 L385.32,343.375 L385.32,345.875 L407.556,345.875 L407.556,343.375 L415.33,343.375 L415.33,345.875 L438.139,345.875 L438.139,343.375 L445.914,343.375 L445.914,345.875 L467.921,345.875 L467.921,343.375 L475.695,343.375 L475.695,345.875 L492.445,345.875 L492.445,361.225 L492.279,361.208 C487.952,361.208 484.445,364.715 484.445,369.042 C484.445,373.368 487.952,376.875 492.279,376.875 L492.445,376.858 L492.445,392.208 L490.261,392.208 L490.261,394.708 L482.487,394.708 L482.487,392.208 L476.136,392.208 L476.136,394.708 L468.362,394.708 L468.362,392.208 L461.48,392.208 L461.48,394.708 L453.705,394.708 L453.705,392.208 L446.355,392.208 L446.355,394.708 L438.58,394.708 L438.58,392.208 L430.355,392.208 L430.355,394.708 L422.58,394.708 L422.58,392.208 L415.771,392.208 L415.771,394.708 L407.997,394.708 L407.997,392.208 L400.886,392.208 L400.886,394.708 L393.112,394.708 L393.112,392.208 L385.761,392.208 L385.761,394.708 L377.987,394.708 L377.987,392.208 L370.761,392.208 L370.761,394.708 L362.987,394.708 L362.987,392.208 L355.178,392.208 L355.178,394.708 L347.404,394.708 L347.404,392.208 L340.261,392.208 L340.261,394.708 L332.487,394.708 L332.487,392.208 L325.136,392.208 L325.136,394.708 L317.362,394.708 L317.362,392.208 L310.136,392.208 L310.136,394.708 L302.362,394.708 L302.362,392.208 L297.553,392.208 L297.553,394.708 L289.779,394.708 L289.779,392.208 L286.445,392.208 L286.445,345.875 L289.337,345.875 L289.337,343.375 z" fill="#000000"/>
    <path d="M309.695,343.375 L309.695,345.875 L301.921,345.875 L301.921,343.375 L309.695,343.375 z" fill="#000000"/>
    <path d="M339.82,343.375 L339.82,345.875 L332.046,345.875 L332.046,343.375 L339.82,343.375 z" fill="#000000"/>
    <path d="M370.32,343.375 L370.32,345.875 L362.546,345.875 L362.546,343.375 L370.32,343.375 z" fill="#000000"/>
    <path d="M400.445,343.375 L400.445,345.875 L392.671,345.875 L392.671,343.375 L400.445,343.375 z" fill="#000000"/>
    <path d="M429.914,343.375 L429.914,345.875 L422.139,345.875 L422.139,343.375 L429.914,343.375 z" fill="#000000"/>
    <path d="M461.039,343.375 L461.039,345.875 L453.264,345.875 L453.264,343.375 L461.039,343.375 z" fill="#000000"/>
    <path d="M489.82,343.375 L489.82,345.875 L482.046,345.875 L482.046,343.375 L489.82,343.375 z" fill="#000000"/>
    <path d="M169.445,341.042 L169.445,379.375 L151.112,379.375 L151.112,374.542 L119.778,374.542 L119.778,345.875 L151.112,345.875 L151.112,341.042 L169.445,341.042 z" fill="#000000"/>
    <path d="M212.779,331.542 L226.112,331.542 L226.112,349.875 L212.779,349.875 z" fill="#000000"/>
    <path d="M200.445,379.542 L224.445,379.542 L224.445,394.208 L200.445,394.208 z" fill="#000000"/>
    <path d="M249.779,380.875 L265.112,380.875 L265.112,390.208 L249.779,390.208 z" fill="#000000"/>
    <path d="M104.445,385.875 L182.779,385.875 L182.779,441.875 L104.445,441.875 z" fill="#000000"/>
    <path d="M346.445,313.875 L364.112,313.875 L364.112,322.208 L346.445,322.208 z" fill="#000000"/>
    <path d="M459.778,285.542 L459.778,315.833 L469.075,315.833 L469.075,320.25 L459.778,320.25 L459.778,322.208 L423.445,322.208 L423.445,291.729 L414.398,291.729 L414.398,287.312 L423.445,287.312 L423.445,285.542 L459.778,285.542 z M441.612,296.542 C437.009,296.542 433.279,300.273 433.278,304.875 C433.279,309.477 437.009,313.208 441.612,313.208 C446.214,313.208 449.945,309.477 449.945,304.875 C449.945,300.273 446.214,296.542 441.612,296.542 z" fill="#000000"/>
    <path d="M397.445,428.542 L397.445,445.542 L304.445,445.542 L304.445,428.542 L397.445,428.542 z M378.772,432.042 L368.772,432.042 L368.772,442.042 L378.772,442.042 L378.772,432.042 z M348.112,432.042 L338.112,432.042 L338.112,442.042 L348.112,442.042 L348.112,432.042 z M363.778,432.042 L353.778,432.042 L353.778,442.042 L363.778,442.042 L363.778,432.042 z M393.778,432.042 L383.778,432.042 L383.778,442.042 L393.778,442.042 L393.778,432.042 z M318.778,431.875 L308.778,431.875 L308.778,441.875 L318.778,441.875 L318.778,431.875 z M333.445,431.875 L323.445,431.875 L323.445,441.875 L333.445,441.875 L333.445,431.875 z" fill="#000000"/>
    <path d="M499.112,428.542 L499.112,445.542 L406.112,445.542 L406.112,428.542 L499.112,428.542 z M480.439,432.042 L470.439,432.042 L470.439,442.042 L480.439,442.042 L480.439,432.042 z M449.778,432.042 L439.778,432.042 L439.778,442.042 L449.778,442.042 L449.778,432.042 z M465.445,432.042 L455.445,432.042 L455.445,442.042 L465.445,442.042 L465.445,432.042 z M495.445,432.042 L485.445,432.042 L485.445,442.042 L495.445,442.042 L495.445,432.042 z M420.445,431.875 L410.445,431.875 L410.445,441.875 L420.445,441.875 L420.445,431.875 z M435.112,431.875 L425.112,431.875 L425.112,441.875 L435.112,441.875 L435.112,431.875 z" fill="#000000"/>
    <path d="M234.945,445.875 C225.464,445.875 217.779,438.189 217.779,428.708 C217.779,419.227 225.464,411.542 234.945,411.542 C244.426,411.542 252.112,419.227 252.112,428.708 C252.112,438.189 244.426,445.875 234.945,445.875 z" fill="#000000"/>
    <path d="M279.945,445.875 C270.464,445.875 262.779,438.189 262.779,428.708 C262.779,419.227 270.464,411.542 279.945,411.542 C289.426,411.542 297.112,419.227 297.112,428.708 C297.112,438.189 289.426,445.875 279.945,445.875 z" fill="#000000"/>
    <path d="M277.301,310.8 L282.041,310.8 L282.041,329.167 L277.301,329.167 z" fill="#000000"/>
    <path d="M211.427,173.875 L214.645,178.675 L214.645,199.275 L211.427,203.675 L203.445,203.875 L200.445,199.275 L200.445,178.475 L203.445,173.875 L211.427,173.875 z M209.545,193.075 L205.545,193.075 L205.545,197.075 L209.545,197.075 L209.545,193.075 z M209.545,180.475 L205.545,180.475 L205.545,184.475 L209.545,184.475 L209.545,180.475 z" fill="#000000"/>
    <path d="M225.627,173.875 L228.845,178.675 L228.845,199.275 L225.627,203.675 L217.645,203.875 L214.645,199.275 L214.645,178.475 L217.645,173.875 L225.627,173.875 z M223.745,193.075 L219.745,193.075 L219.745,197.075 L223.745,197.075 L223.745,193.075 z M223.745,180.475 L219.745,180.475 L219.745,184.475 L223.745,184.475 L223.745,180.475 z" fill="#000000"/>
    <path d="M505.345,303.008 L509.745,306.226 L509.945,314.208 L505.345,317.208 L484.545,317.208 L479.945,314.208 L479.945,306.226 L484.745,303.008 L505.345,303.008 z M490.545,308.108 L486.545,308.108 L486.545,312.108 L490.545,312.108 L490.545,308.108 z M503.145,308.108 L499.145,308.108 L499.145,312.108 L503.145,312.108 L503.145,308.108 z" fill="#000000"/>
    <path d="M505.345,288.808 L509.745,292.026 L509.945,300.008 L505.345,303.008 L484.545,303.008 L479.945,300.008 L479.945,292.026 L484.745,288.808 L505.345,288.808 z M490.545,293.908 L486.545,293.908 L486.545,297.908 L490.545,297.908 L490.545,293.908 z M503.145,293.908 L499.145,293.908 L499.145,297.908 L503.145,297.908 L503.145,293.908 z" fill="#000000"/>
    <path d="M505.345,274.608 L509.745,277.826 L509.945,285.808 L505.345,288.808 L484.545,288.808 L479.945,285.808 L479.945,277.826 L484.745,274.608 L505.345,274.608 z M490.545,279.708 L486.545,279.708 L486.545,283.708 L490.545,283.708 L490.545,279.708 z M503.145,279.708 L499.145,279.708 L499.145,283.708 L503.145,283.708 L503.145,279.708 z" fill="#000000"/>
    <path d="M277.301,220.151 L282.041,220.151 L282.041,238.518 L277.301,238.518 z" fill="#000000"/>
    <path d="M458.039,251.842 L462.779,251.842 L462.779,270.208 L458.039,270.208 z" fill="#000000"/>
    <path d="M243.045,334.542 L257.112,334.542 L257.112,338.875 L243.045,338.875 z" fill="#000000"/>
    <path d="M243.045,341.208 L257.112,341.208 L257.112,345.542 L243.045,345.542 z" fill="#000000"/>
    <path d="M243.045,348.542 L257.112,348.542 L257.112,352.875 L243.045,352.875 z" fill="#000000"/>
    <path d="M239.827,173.875 L243.045,178.675 L243.045,199.275 L239.827,203.675 L231.845,203.875 L228.845,199.275 L228.845,178.475 L231.845,173.875 L239.827,173.875 z M237.945,193.075 L233.945,193.075 L233.945,197.075 L237.945,197.075 L237.945,193.075 z M237.945,180.475 L233.945,180.475 L233.945,184.475 L237.945,184.475 L237.945,180.475 z" fill="#000000"/>
    <path d="M139.445,313.875 L145.445,313.875 L145.445,329.167 L139.445,329.167 z" fill="#000000"/>
    <path d="M126.112,291.542 L154.112,291.542 L154.112,310.8 L126.112,310.8 z" fill="#000000"/>
    <path d="M187.112,226.542 L192.112,226.542 L192.112,231.542 L187.112,231.542 z" fill="#000000"/>
    <path d="M187.112,260.542 L192.112,260.542 L192.112,265.542 L187.112,265.542 z" fill="#000000"/>
    <path d="M203.445,283.875 L212.179,283.875 C213.541,283.875 214.645,284.979 214.645,286.342 L214.645,286.342 C214.645,287.704 213.541,288.808 212.179,288.808 L203.445,288.808 C202.083,288.808 200.979,287.704 200.979,286.342 L200.979,286.342 C200.979,284.979 202.083,283.875 203.445,283.875 z" fill="#000000"/>
    <path d="M223.912,283.875 L232.645,283.875 C234.007,283.875 235.112,284.979 235.112,286.342 L235.112,286.342 C235.112,287.704 234.007,288.808 232.645,288.808 L223.912,288.808 C222.55,288.808 221.445,287.704 221.445,286.342 L221.445,286.342 C221.445,284.979 222.55,283.875 223.912,283.875 z" fill="#000000"/>
    <path d="M240.912,283.875 L249.645,283.875 C251.008,283.875 252.112,284.979 252.112,286.342 L252.112,286.342 C252.112,287.704 251.008,288.808 249.645,288.808 L240.912,288.808 C239.55,288.808 238.445,287.704 238.445,286.342 L238.445,286.342 C238.445,284.979 239.55,283.875 240.912,283.875 z" fill="#000000"/>
    <path d="M366.213,395.942 L376.011,395.942 C377.54,395.942 378.779,397.046 378.779,398.408 L378.779,398.408 C378.779,399.771 377.54,400.875 376.011,400.875 L366.213,400.875 C364.684,400.875 363.445,399.771 363.445,398.408 L363.445,398.408 C363.445,397.046 364.684,395.942 366.213,395.942 z" fill="#000000"/>
    <path d="M289.778,207.875 L289.778,216.208 L270.445,216.208 L270.445,207.875 L289.778,207.875 z M282.041,209.542 L277.301,209.542 L277.301,214.875 L282.041,214.875 L282.041,209.542 z" fill="#000000"/>
    <path d="M289.338,240.375 L289.338,248.708 L270.004,248.708 L270.004,240.375 L289.338,240.375 z M281.6,242.042 L276.86,242.042 L276.86,247.375 L281.6,247.375 L281.6,242.042 z" fill="#000000"/>
    <path d="M289.778,254.542 L289.778,262.875 L270.445,262.875 L270.445,254.542 L289.778,254.542 z M282.041,256.208 L277.301,256.208 L277.301,261.542 L282.041,261.542 L282.041,256.208 z" fill="#000000"/>
    <path d="M470.075,240.375 L470.075,248.708 L450.742,248.708 L450.742,240.375 L470.075,240.375 z M462.338,242.042 L457.598,242.042 L457.598,247.375 L462.338,247.375 L462.338,242.042 z" fill="#000000"/>
    <path d="M275.245,272.293 L283.979,272.293 C285.341,272.293 286.445,273.397 286.445,274.76 L286.445,274.76 C286.445,276.122 285.341,277.226 283.979,277.226 L275.245,277.226 C273.883,277.226 272.779,276.122 272.779,274.76 L272.779,274.76 C272.779,273.397 273.883,272.293 275.245,272.293 z" fill="#000000"/>
    <path d="M275.245,283.875 L283.979,283.875 C285.341,283.875 286.445,284.979 286.445,286.342 L286.445,286.342 C286.445,287.704 285.341,288.808 283.979,288.808 L275.245,288.808 C273.883,288.808 272.779,287.704 272.779,286.342 L272.779,286.342 C272.779,284.979 273.883,283.875 275.245,283.875 z" fill="#000000"/>
    <path d="M230.578,363.942 L239.312,363.942 C240.674,363.942 241.779,365.046 241.779,366.408 L241.779,366.408 C241.779,367.771 240.674,368.875 239.312,368.875 L230.578,368.875 C229.216,368.875 228.112,367.771 228.112,366.408 L228.112,366.408 C228.112,365.046 229.216,363.942 230.578,363.942 z" fill="#000000"/>
    <path d="M253.079,363.942 L261.812,363.942 C263.174,363.942 264.279,365.046 264.279,366.408 L264.279,366.408 C264.279,367.771 263.174,368.875 261.812,368.875 L253.079,368.875 C251.716,368.875 250.612,367.771 250.612,366.408 L250.612,366.408 C250.612,365.046 251.716,363.942 253.079,363.942 z" fill="#000000"/>
    <path d="M237.695,229.542 C235.44,229.542 233.612,227.713 233.612,225.458 C233.612,223.203 235.44,221.375 237.695,221.375 C239.95,221.375 241.779,223.203 241.779,225.458 C241.779,227.713 239.95,229.542 237.695,229.542 z" fill="#000000"/>
    <path d="M223.029,217.125 C220.773,217.125 218.945,215.297 218.945,213.042 C218.945,210.786 220.773,208.958 223.029,208.958 C225.284,208.958 227.112,210.786 227.112,213.042 C227.112,215.297 225.284,217.125 223.029,217.125 z" fill="#000000"/>
    <path d="M237.695,217.125 C235.44,217.125 233.612,215.297 233.612,213.042 C233.612,210.786 235.44,208.958 237.695,208.958 C239.95,208.958 241.779,210.786 241.779,213.042 C241.779,215.297 239.95,217.125 237.695,217.125 z" fill="#000000"/>
    <path d="M185.245,212.192 L193.979,212.192 C195.341,212.192 196.445,213.296 196.445,214.658 L196.445,214.658 C196.445,216.021 195.341,217.125 193.979,217.125 L185.245,217.125 C183.883,217.125 182.779,216.021 182.779,214.658 L182.779,214.658 C182.779,213.296 183.883,212.192 185.245,212.192 z" fill="#000000"/>
    <path d="M154.495,192.692 L163.229,192.692 C164.591,192.692 165.695,193.796 165.695,195.158 L165.695,195.158 C165.695,196.521 164.591,197.625 163.229,197.625 L154.495,197.625 C153.133,197.625 152.029,196.521 152.029,195.158 L152.029,195.158 C152.029,193.796 153.133,192.692 154.495,192.692 z" fill="#000000"/>
    <path d="M169.445,354.708 L182.779,354.708 L182.779,359.875 L169.445,359.875 z" fill="#000000"/>
    <path d="M169.445,367.708 L182.779,367.708 L182.779,372.875 L169.445,372.875 z" fill="#000000"/>
    <path d="M458.779,287.125 L469.075,287.125 L469.075,291.542 L458.779,291.542 z" fill="#000000"/>
    <path d="M414.398,316.021 L424.695,316.021 L424.695,320.437 L414.398,320.437 z" fill="#000000"/>
    <g>
      <path d="M282.541,202.375 L492.945,202.375" fill="#000000"/>
      <path d="M282.541,202.375 L492.945,202.375" fill-opacity="0" stroke="#000000" stroke-width="3"/>
    </g>
    <path d="M313.445,229.542 L324.445,229.542 L324.445,233.857 L313.445,233.857 z" fill="#000000"/>
    <path d="M354.103,226.542 L354.103,230.083 L357.445,230.083 L357.445,234.399 L354.103,234.399 L354.103,237.542 L349.787,237.542 L349.787,234.399 L346.445,234.399 L346.445,230.083 L349.787,230.083 L349.787,226.542 L354.103,226.542 z" fill="#000000"/>
    <path d="M351.882,215.712 C360.987,215.712 368.369,223.094 368.369,232.199 C368.369,241.305 360.987,248.686 351.882,248.686 C342.776,248.686 335.395,241.305 335.395,232.199 C335.395,223.094 342.776,215.712 351.882,215.712 z" fill-opacity="0" stroke="#000000" stroke-width="4"/>
    <path d="M318.908,215.513 C328.013,215.513 335.395,222.894 335.395,232 C335.395,241.106 328.013,248.487 318.908,248.487 C309.802,248.487 302.421,241.106 302.421,232 C302.421,222.894 309.802,215.513 318.908,215.513 z" fill-opacity="0" stroke="#000000" stroke-width="4"/>
    <path d="M124.278,152.109 L191.612,152.109 L191.612,181.14 L124.278,181.14 z" fill-opacity="0" stroke="#000000" stroke-width="2"/>
    <path d="M323.018,288.808 C321.656,288.808 320.552,287.704 320.552,286.342 C320.552,284.979 321.656,283.875 323.018,283.875 C324.381,283.875 325.485,284.979 325.485,286.342 C325.485,287.704 324.381,288.808 323.018,288.808 z" fill="#000000"/>
    <path d="M312.162,298.058 C310.8,298.058 309.695,296.954 309.695,295.592 C309.695,294.229 310.8,293.125 312.162,293.125 C313.524,293.125 314.629,294.229 314.629,295.592 C314.629,296.954 313.524,298.058 312.162,298.058 z" fill="#000000"/>
    <path d="M306.912,314.875 C305.55,314.875 304.445,313.771 304.445,312.408 C304.445,311.046 305.55,309.942 306.912,309.942 C308.274,309.942 309.379,311.046 309.379,312.408 C309.379,313.771 308.274,314.875 306.912,314.875 z" fill="#000000"/>
    <path d="M392.179,288.808 C390.816,288.808 389.712,287.704 389.712,286.342 C389.712,284.979 390.816,283.875 392.179,283.875 C393.541,283.875 394.645,284.979 394.645,286.342 C394.645,287.704 393.541,288.808 392.179,288.808 z" fill="#000000"/>
    <path d="M292.245,282.16 C290.883,282.16 289.779,281.055 289.779,279.693 C289.779,278.331 290.883,277.226 292.245,277.226 C293.607,277.226 294.712,278.331 294.712,279.693 C294.712,281.055 293.607,282.16 292.245,282.16 z" fill="#000000"/>
    <path d="M267.538,287.125 C266.175,287.125 265.071,286.021 265.071,284.658 C265.071,283.296 266.175,282.192 267.538,282.192 C268.9,282.192 270.004,283.296 270.004,284.658 C270.004,286.021 268.9,287.125 267.538,287.125 z" fill="#000000"/>
    <path d="M300.979,261.475 C299.616,261.475 298.512,260.371 298.512,259.008 C298.512,257.646 299.616,256.542 300.979,256.542 C302.341,256.542 303.445,257.646 303.445,259.008 C303.445,260.371 302.341,261.475 300.979,261.475 z" fill="#000000"/>
    <path d="M296.045,240.375 C294.683,240.375 293.579,239.271 293.579,237.908 C293.579,236.546 294.683,235.442 296.045,235.442 C297.408,235.442 298.512,236.546 298.512,237.908 C298.512,239.271 297.408,240.375 296.045,240.375 z" fill="#000000"/>
    <path d="M261.245,299.208 C259.883,299.208 258.779,298.104 258.779,296.742 C258.779,295.379 259.883,294.275 261.245,294.275 C262.607,294.275 263.712,295.379 263.712,296.742 C263.712,298.104 262.607,299.208 261.245,299.208 z" fill="#000000"/>
    <path d="M267.538,317.208 C266.175,317.208 265.071,316.104 265.071,314.742 C265.071,313.379 266.175,312.275 267.538,312.275 C268.9,312.275 270.004,313.379 270.004,314.742 C270.004,316.104 268.9,317.208 267.538,317.208 z" fill="#000000"/>
    <path d="M265.245,348.542 C263.883,348.542 262.779,347.437 262.779,346.075 C262.779,344.713 263.883,343.608 265.245,343.608 C266.607,343.608 267.712,344.713 267.712,346.075 C267.712,347.437 266.607,348.542 265.245,348.542 z" fill="#000000"/>
    <path d="M235.979,330.475 C234.616,330.475 233.512,329.371 233.512,328.008 C233.512,326.646 234.616,325.542 235.979,325.542 C237.341,325.542 238.445,326.646 238.445,328.008 C238.445,329.371 237.341,330.475 235.979,330.475 z" fill="#000000"/>
    <path d="M237.695,353.475 C236.333,353.475 235.229,352.371 235.229,351.008 C235.229,349.646 236.333,348.542 237.695,348.542 C239.057,348.542 240.162,349.646 240.162,351.008 C240.162,352.371 239.057,353.475 237.695,353.475 z" fill="#000000"/>
    <path d="M272.912,380.875 C271.55,380.875 270.445,379.771 270.445,378.408 C270.445,377.046 271.55,375.942 272.912,375.942 C274.274,375.942 275.379,377.046 275.379,378.408 C275.379,379.771 274.274,380.875 272.912,380.875 z" fill="#000000"/>
    <path d="M188.645,320.437 C187.283,320.437 186.179,319.333 186.179,317.971 C186.179,316.609 187.283,315.504 188.645,315.504 C190.007,315.504 191.112,316.609 191.112,317.971 C191.112,319.333 190.007,320.437 188.645,320.437 z" fill="#000000"/>
    <path d="M166.979,335.408 C165.616,335.408 164.512,334.304 164.512,332.942 C164.512,331.579 165.616,330.475 166.979,330.475 C168.341,330.475 169.445,331.579 169.445,332.942 C169.445,334.304 168.341,335.408 166.979,335.408 z" fill="#000000"/>
    <path d="M184.645,335.408 C183.283,335.408 182.179,334.304 182.179,332.942 C182.179,331.579 183.283,330.475 184.645,330.475 C186.007,330.475 187.112,331.579 187.112,332.942 C187.112,334.304 186.007,335.408 184.645,335.408 z" fill="#000000"/>
    <path d="M155.979,335.408 C154.616,335.408 153.512,334.304 153.512,332.942 C153.512,331.579 154.616,330.475 155.979,330.475 C157.341,330.475 158.445,331.579 158.445,332.942 C158.445,334.304 157.341,335.408 155.979,335.408 z" fill="#000000"/>
    <path d="M140.979,335.408 C139.616,335.408 138.512,334.304 138.512,332.942 C138.512,331.579 139.616,330.475 140.979,330.475 C142.341,330.475 143.445,331.579 143.445,332.942 C143.445,334.304 142.341,335.408 140.979,335.408 z" fill="#000000"/>
    <path d="M130.354,335.408 C128.991,335.408 127.887,334.304 127.887,332.942 C127.887,331.579 128.991,330.475 130.354,330.475 C131.716,330.475 132.82,331.579 132.82,332.942 C132.82,334.304 131.716,335.408 130.354,335.408 z" fill="#000000"/>
    <path d="M160.912,318.808 C159.55,318.808 158.445,317.704 158.445,316.342 C158.445,314.979 159.55,313.875 160.912,313.875 C162.274,313.875 163.379,314.979 163.379,316.342 C163.379,317.704 162.274,318.808 160.912,318.808 z" fill="#000000"/>
    <path d="M129.604,383.5 C128.241,383.5 127.137,382.396 127.137,381.033 C127.137,379.671 128.241,378.567 129.604,378.567 C130.966,378.567 132.07,379.671 132.07,381.033 C132.07,382.396 130.966,383.5 129.604,383.5 z" fill="#000000"/>
    <path d="M141.912,383 C140.55,383 139.445,381.896 139.445,380.533 C139.445,379.171 140.55,378.067 141.912,378.067 C143.274,378.067 144.379,379.171 144.379,380.533 C144.379,381.896 143.274,383 141.912,383 z" fill="#000000"/>
    <path d="M205.979,425.5 C204.616,425.5 203.512,424.396 203.512,423.033 C203.512,421.671 204.616,420.567 205.979,420.567 C207.341,420.567 208.445,421.671 208.445,423.033 C208.445,424.396 207.341,425.5 205.979,425.5 z" fill="#000000"/>
    <path d="M221.412,400.875 C220.05,400.875 218.945,399.771 218.945,398.408 C218.945,397.046 220.05,395.942 221.412,395.942 C222.774,395.942 223.879,397.046 223.879,398.408 C223.879,399.771 222.774,400.875 221.412,400.875 z" fill="#000000"/>
    <path d="M257.979,451.625 C256.616,451.625 255.512,450.521 255.512,449.158 C255.512,447.796 256.616,446.692 257.979,446.692 C259.341,446.692 260.445,447.796 260.445,449.158 C260.445,450.521 259.341,451.625 257.979,451.625 z" fill="#000000"/>
    <path d="M271.354,395.942 C269.991,395.942 268.887,394.837 268.887,393.475 C268.887,392.113 269.991,391.008 271.354,391.008 C272.716,391.008 273.82,392.113 273.82,393.475 C273.82,394.837 272.716,395.942 271.354,395.942 z" fill="#000000"/>
    <path d="M399.354,412.375 C397.991,412.375 396.887,411.271 396.887,409.908 C396.887,408.546 397.991,407.442 399.354,407.442 C400.716,407.442 401.82,408.546 401.82,409.908 C401.82,411.271 400.716,412.375 399.354,412.375 z" fill="#000000"/>
    <path d="M510.229,398.25 C508.866,398.25 507.762,397.146 507.762,395.783 C507.762,394.421 508.866,393.317 510.229,393.317 C511.591,393.317 512.695,394.421 512.695,395.783 C512.695,397.146 511.591,398.25 510.229,398.25 z" fill="#000000"/>
    <path d="M510.229,357.25 C508.866,357.25 507.762,356.146 507.762,354.783 C507.762,353.421 508.866,352.317 510.229,352.317 C511.591,352.317 512.695,353.421 512.695,354.783 C512.695,356.146 511.591,357.25 510.229,357.25 z" fill="#000000"/>
    <path d="M476.479,268.875 C475.116,268.875 474.012,267.771 474.012,266.408 C474.012,265.046 475.116,263.942 476.479,263.942 C477.841,263.942 478.945,265.046 478.945,266.408 C478.945,267.771 477.841,268.875 476.479,268.875 z" fill="#000000"/>
    <path d="M463.927,277.226 C462.565,277.226 461.46,276.122 461.46,274.76 C461.46,273.397 462.565,272.293 463.927,272.293 C465.289,272.293 466.394,273.397 466.394,274.76 C466.394,276.122 465.289,277.226 463.927,277.226 z" fill="#000000"/>
    <path d="M423.104,263.492 C421.741,263.492 420.637,262.387 420.637,261.025 C420.637,259.663 421.741,258.558 423.104,258.558 C424.466,258.558 425.57,259.663 425.57,261.025 C425.57,262.387 424.466,263.492 423.104,263.492 z" fill="#000000"/>
    <path d="M494.945,213.375 C493.583,213.375 492.478,212.271 492.478,210.908 C492.478,209.546 493.583,208.442 494.945,208.442 C496.307,208.442 497.412,209.546 497.412,210.908 C497.412,212.271 496.307,213.375 494.945,213.375 z" fill="#000000"/>
    <path d="M299.454,198.958 C298.092,198.958 296.988,197.854 296.988,196.492 C296.988,195.129 298.092,194.025 299.454,194.025 C300.817,194.025 301.921,195.129 301.921,196.492 C301.921,197.854 300.817,198.958 299.454,198.958 z" fill="#000000"/>
    <path d="M261.812,223.125 C260.45,223.125 259.345,222.021 259.345,220.658 C259.345,219.296 260.45,218.192 261.812,218.192 C263.174,218.192 264.279,219.296 264.279,220.658 C264.279,222.021 263.174,223.125 261.812,223.125 z" fill="#000000"/>
    <path d="M263.854,239.875 C262.491,239.875 261.387,238.771 261.387,237.408 C261.387,236.046 262.491,234.942 263.854,234.942 C265.216,234.942 266.32,236.046 266.32,237.408 C266.32,238.771 265.216,239.875 263.854,239.875 z" fill="#000000"/>
    <path d="M244.979,221.375 C243.616,221.375 242.512,220.271 242.512,218.908 C242.512,217.546 243.616,216.442 244.979,216.442 C246.341,216.442 247.445,217.546 247.445,218.908 C247.445,220.271 246.341,221.375 244.979,221.375 z" fill="#000000"/>
    <path d="M263.854,194.025 C262.491,194.025 261.387,192.921 261.387,191.558 C261.387,190.196 262.491,189.092 263.854,189.092 C265.216,189.092 266.32,190.196 266.32,191.558 C266.32,192.921 265.216,194.025 263.854,194.025 z" fill="#000000"/>
    <path d="M271.82,195.875 L287.32,195.875 L287.32,199.75 L271.82,199.75 z" fill="#000000"/>
    <path d="M241.729,164.5 C240.366,164.5 239.262,163.396 239.262,162.033 C239.262,160.671 240.366,159.567 241.729,159.567 C243.091,159.567 244.195,160.671 244.195,162.033 C244.195,163.396 243.091,164.5 241.729,164.5 z" fill="#000000"/>
    <path d="M192.354,189.875 C190.991,189.875 189.887,188.771 189.887,187.408 C189.887,186.046 190.991,184.942 192.354,184.942 C193.716,184.942 194.82,186.046 194.82,187.408 C194.82,188.771 193.716,189.875 192.354,189.875 z" fill="#000000"/>
    <path d="M225.479,169.125 C220.803,169.125 217.012,165.334 217.012,160.658 C217.012,155.982 220.803,152.192 225.479,152.192 C230.155,152.192 233.945,155.982 233.945,160.658 C233.945,165.334 230.155,169.125 225.479,169.125 z" fill="#000000"/>
    <g>
      <path d="M322.985,404.375 L390.171,404.375" fill="#000000"/>
      <path d="M322.985,404.375 L390.171,404.375" fill-opacity="0" stroke="#000000" stroke-width="3"/>
    </g>
    <g>
      <path d="M409.644,404.375 L492.945,404.375" fill="#000000"/>
      <path d="M409.644,404.375 L492.945,404.375" fill-opacity="0" stroke="#000000" stroke-width="3"/>
    </g>
  </g>
  <g id="Code" display="none">
    <path d="M79.763,120.554 L519.654,120.554 L519.654,404.791 L79.763,404.791 L79.763,120.554 z" fill="#000000"/>
    <path d="M264.5,407.291 L335.5,407.291 L335.5,464.291 L264.5,464.291 L264.5,407.291 z" fill="#000000"/>
    <path d="M174.5,466.791 L425.5,466.791 L425.5,479.446 L174.5,479.446 L174.5,466.791 z" fill="#000000"/>
    <g>
      <g>
        <path d="M104.209,142.673 L496.209,142.673 L496.209,383.673 L104.209,383.673 L104.209,142.673 z" fill="#616264"/>
        <path d="M104.209,142.673 L496.209,142.673 L496.209,383.673 L104.209,383.673 L104.209,142.673 z" fill-opacity="0" stroke="#EEEEEE" stroke-width="2"/>
      </g>
      <text transform="matrix(1, 0, 0, 1, 299.5, 238.5)">
        <tspan x="-184.29" y="-70.5" font-family="SourceCodePro-Bold" font-size="18" fill="#EEEEEE">Python 2.7.5 </tspan>
        <tspan x="-184.29" y="-47.5" font-family="SourceCodePro-Bold" font-size="18" fill="#EEEEEE">[GCC 4.2.1 Compatible Apple LLVM </tspan>
        <tspan x="-184.29" y="-24.5" font-family="SourceCodePro-Bold" font-size="18" fill="#EEEEEE">5.0 (clang-500.0.68)] on darwin</tspan>
        <tspan x="-184.29" y="-1.5" font-family="SourceCodePro-Bold" font-size="18" fill="#EEEEEE">Type "help", "copyright", </tspan>
        <tspan x="-184.29" y="21.5" font-family="SourceCodePro-Bold" font-size="18" fill="#EEEEEE">"credits" or "license" for more </tspan>
        <tspan x="-184.29" y="44.5" font-family="SourceCodePro-Bold" font-size="18" fill="#EEEEEE">information.</tspan>
        <tspan x="-184.29" y="67.5" font-family="SourceCodePro-Bold" font-size="18" fill="#EEEEEE">&gt;&gt;&gt; print “Hello World!”_</tspan>
      </text>
    </g>
  </g>
  <g id="Chrome" display="none">
    <path d="M298.525,80.579 C298.525,80.579 427.003,74.796 495.095,203.916 L287.6,203.916 C287.6,203.916 248.414,202.627 215.008,250.172 C205.375,270.087 195.098,290.644 206.66,331.109 C189.957,302.849 118.008,177.579 118.008,177.579 C118.008,177.579 168.762,85.716 298.525,80.579" fill="#616264"/>
    <path d="M488.406,408.409 C488.406,408.409 429.159,522.552 283.288,516.942 C301.283,485.795 387.06,337.262 387.06,337.262 C387.06,337.262 407.769,303.972 383.316,251.271 C370.885,232.966 358.226,213.784 317.397,203.557 C350.233,203.232 494.682,203.578 494.682,203.578 C494.682,203.578 548.85,293.469 488.406,408.409" fill="#E1E1E1"/>
    <path d="M109.556,409.277 C109.556,409.277 40.333,300.883 118.136,177.369 C136.115,208.529 221.846,357.089 221.846,357.089 C221.846,357.089 240.315,391.668 298.187,396.845 C320.247,395.236 343.194,393.863 372.467,363.623 C356.328,392.216 283.794,517.143 283.794,517.143 C283.794,517.143 178.865,519.099 109.556,409.277" fill="#000000"/>
    <path d="M200.774,300.632 C200.774,246.942 244.294,203.417 297.989,203.417 C351.679,203.417 395.203,246.942 395.203,300.632 C395.203,354.326 351.679,397.85 297.989,397.85 C244.294,397.85 200.774,354.326 200.774,300.632" fill="#FEFEFE"/>
    <path d="M217.044,300.632 C217.044,345.335 253.281,381.577 297.989,381.577 L297.989,381.577 C342.687,381.577 378.93,345.335 378.93,300.632 L378.93,300.632 C378.93,255.93 342.687,219.691 297.989,219.691 L297.989,219.691 C253.281,219.691 217.044,255.93 217.044,300.632" fill="#464646"/>
  </g>
  <g id="Blog" display="none">
    <g>
      <path d="M113.683,424.213 L419.153,118.743 L468.651,168.24 L163.181,473.71 z" fill="#000000"/>
      <path d="M427.639,110.257 L453.094,84.801 L502.592,134.299 L477.136,159.755 z" fill="#000000"/>
      <path d="M110.683,427.213 L93.601,495.224 L160.181,476.71 L110.683,427.213 z" fill="#000000"/>
    </g>
    <path d="M97.839,508.386 L98.999,508.376 L101.326,508.293 L103.622,508.13 L105.877,507.893 L108.096,507.589 L110.287,507.225 L113.523,506.582 L117.787,505.571 L122.028,504.433 L126.28,503.219 L130.579,501.977 L132.757,501.362 L132.757,501.362 C132.758,501.362 132.76,501.361 132.761,501.361 L132.761,501.361 L135.222,500.652 L140.123,499.12 L147.403,496.635 L157.027,493.221 L164.227,490.792 L169.035,489.324 L173.865,488.031 L177.502,487.204 L179.934,486.733 L182.38,486.331 L184.835,486.004 L187.301,485.758 L189.778,485.599 L192.266,485.532 L194.765,485.562 L197.274,485.695 L199.792,485.934 L202.317,486.285 L204.849,486.752 L207.386,487.337 L209.926,488.043 L211.149,488.428 L211.087,488.408 L212.396,488.838 L215.103,489.75 L217.965,490.738 L220.983,491.798 L224.145,492.921 L227.439,494.097 L230.852,495.317 L234.374,496.573 L237.994,497.854 L241.7,499.153 L247.39,501.109 L255.172,503.691 L263.106,506.178 L271.099,508.496 L277.093,510.082 L281.069,511.049 L284.995,511.929 L288.875,512.716 L292.699,513.4 L296.454,513.973 L300.128,514.425 L303.711,514.746 L307.192,514.927 L310.558,514.96 L313.798,514.834 L316.147,514.629 L317.669,514.438 L319.145,514.203 L320.582,513.922 L321.978,513.594 L323.332,513.218 L323.999,513.01 L323.999,513.01 C324.004,513.008 324.008,513.007 324.012,513.005 L324.012,513.005 L325.733,512.427 L329.143,511.162 L332.497,509.77 L335.792,508.26 L339.033,506.64 L342.223,504.919 L345.369,503.105 L348.472,501.207 L351.538,499.232 L354.571,497.19 L359.066,494.018 L364.981,489.629 L370.838,485.117 L376.666,480.549 L382.498,475.992 L388.365,471.512 L392.806,468.244 L395.793,466.125 L398.808,464.061 L401.853,462.063 L404.933,460.138 L408.05,458.295 L411.209,456.542 L414.413,454.887 L417.666,453.338 L420.973,451.904 L422.642,451.235 L422.628,451.241 L424.043,450.72 L426.874,449.865 L429.726,449.234 L432.607,448.813 L435.511,448.588 L438.434,448.549 L441.373,448.682 L444.325,448.975 L447.286,449.418 L450.255,449.998 L453.231,450.704 L456.213,451.526 L459.2,452.454 L462.194,453.477 L465.192,454.587 L468.196,455.774 L472.733,457.688 L478.762,460.411 L484.748,463.251 L490.693,466.135 L495.112,468.276 L498.044,469.677 L500.949,471.038 L503.829,472.35 L506.68,473.601 L509.5,474.778 L512.284,475.869 L515.029,476.862 L516.422,477.33 L516.422,477.33 C517.569,477.713 518.164,477.454 517.751,476.75 C517.339,476.047 516.075,475.166 514.928,474.782 C514.928,474.782 514.928,474.782 514.928,474.782 L513.762,474.394 L511.298,473.507 L508.758,472.514 L506.147,471.426 L503.464,470.251 L500.716,469 L497.906,467.683 L495.04,466.314 L490.627,464.176 L484.573,461.24 L478.356,458.293 L472.034,455.442 L467.24,453.423 L464.005,452.148 L460.757,450.949 L457.503,449.841 L454.251,448.836 L451.005,447.946 L447.773,447.185 L444.56,446.563 L441.373,446.092 L438.216,445.784 L435.094,445.647 L432.009,445.694 L428.964,445.934 L425.963,446.378 L423.007,447.035 L420.11,447.913 L418.693,448.434 L418.693,448.434 C418.688,448.436 418.683,448.438 418.679,448.439 L418.679,448.439 L416.982,449.12 L413.644,450.568 L410.364,452.13 L407.136,453.797 L403.957,455.562 L400.823,457.416 L397.729,459.35 L394.672,461.357 L391.646,463.427 L388.649,465.554 L384.197,468.83 L378.324,473.314 L372.491,477.872 L366.668,482.436 L360.822,486.941 L354.92,491.32 L350.439,494.482 L347.42,496.516 L344.369,498.48 L341.284,500.368 L338.16,502.17 L334.994,503.878 L331.783,505.484 L328.521,506.979 L325.207,508.357 L321.829,509.609 L320.108,510.188 L320.121,510.184 L319.494,510.38 L318.196,510.742 L316.857,511.058 L315.481,511.328 L314.066,511.555 L312.623,511.737 L310.39,511.934 L307.286,512.058 L304.06,512.03 L300.722,511.859 L297.28,511.553 L293.745,511.121 L290.129,510.571 L286.44,509.912 L282.689,509.153 L278.887,508.302 L275.057,507.372 L269.248,505.837 L261.439,503.575 L253.655,501.136 L245.976,498.589 L240.342,496.652 L236.668,495.365 L233.07,494.091 L229.557,492.839 L226.14,491.617 L222.829,490.435 L219.633,489.3 L216.563,488.222 L213.628,487.208 L210.85,486.273 L209.54,485.843 L209.54,485.843 C209.519,485.837 209.498,485.83 209.478,485.824 L209.478,485.824 L207.978,485.357 L205.114,484.568 L202.304,483.926 L199.541,483.423 L196.823,483.049 L194.144,482.798 L191.501,482.661 L188.89,482.631 L186.308,482.703 L183.752,482.868 L181.218,483.122 L178.706,483.457 L176.212,483.868 L173.731,484.35 L170.04,485.19 L165.165,486.496 L160.323,487.974 L153.105,490.41 L143.494,493.819 L136.245,496.294 L131.372,497.818 L128.91,498.527 L128.914,498.526 L126.729,499.143 L122.433,500.384 L118.202,501.592 L114.002,502.72 L109.793,503.718 L106.61,504.352 L104.472,504.708 L102.315,505.004 L100.134,505.235 L97.927,505.394 L95.675,505.475 L94.514,505.485 C94.514,505.485 94.514,505.485 94.514,505.485 C93.713,505.492 93.807,506.147 94.726,506.948 C95.644,507.749 97.038,508.393 97.839,508.386 L97.839,508.386" fill="#000000"/>
  </g>
  <g id="Apple" display="none">
    <path d="M420.051,313.463 C420.669,380.033 478.45,402.186 479.09,402.468 C478.602,404.031 469.858,434.038 448.649,465.033 C430.314,491.831 411.285,518.53 381.31,519.083 C351.855,519.625 342.384,501.616 308.709,501.616 C275.045,501.616 264.522,518.53 236.64,519.625 C207.706,520.72 185.672,490.648 167.185,463.949 C129.41,409.335 100.541,309.623 139.304,242.316 C158.561,208.891 192.974,187.725 230.326,187.183 C258.739,186.641 285.557,206.298 302.927,206.298 C320.285,206.298 352.875,182.658 387.135,186.13 C401.478,186.727 441.738,191.924 467.59,229.764 C465.507,231.056 419.552,257.809 420.051,313.463 M364.695,149.998 C380.057,131.404 390.396,105.519 387.575,79.763 C365.433,80.653 338.658,94.518 322.775,113.102 C308.542,129.56 296.076,155.9 299.44,181.146 C324.12,183.056 349.333,168.605 364.695,149.998" fill="#000000"/>
  </g>
  <g id="About" display="none">
    <path d="M300,80.521 C355.781,80.521 401,125.74 401,181.521 C400.763,203.976 393.619,226.581 379.212,244.038 L379.102,244.89 C378.669,247.149 377.991,248.163 377,250 C372.867,257.315 366.51,268.683 372.899,276.651 C377.234,282.058 385.204,282.797 391.585,283.046 C397.193,282.477 394.168,282.685 400.667,282.521 L400.951,282.528 L401,282.521 L400.992,282.529 C457.658,283.327 500.249,327.45 501.667,383.521 L501.667,519.654 L97.667,519.654 L97.667,383.521 C97.667,327.74 142.886,282.521 198.667,282.521 C208.632,282.082 222.636,282.461 229.526,273.634 C235.001,266.62 230.769,257.11 226.511,250.704 C208.29,232.406 199.642,206.908 199,181.521 C199,125.74 244.219,80.521 300,80.521 L300,80.521 z M333.073,250.121 L266.712,250.121 L266.712,477.468 L333.073,477.468 L333.073,250.121 z M299.667,146.532 C277.546,146.532 261.295,160.741 261.295,181.367 C261.295,201.994 277.546,216.661 299.667,216.661 C322.238,216.661 338.039,201.994 338.039,181.367 C338.039,160.741 322.238,146.532 299.667,146.532 z" fill="#000000"/>
  </g>
  <g id="More" display="none">
    <path d="M80.263,80.263 L520.154,80.263 L520.154,520.154 L80.263,520.154 z" fill-opacity="0" stroke="#000000" stroke-width="10"/>
    <path d="M80.263,80.263 L520.154,520.154" fill-opacity="0" stroke="#000000" stroke-width="2"/>
    <path d="M80.263,520.154 L520.154,80.263" fill-opacity="0" stroke="#000000" stroke-width="2"/>
  </g>
</svg>
