<?xml version="1.0" encoding="UTF-8"?>
<!DOCTYPE svg PUBLIC "-//W3C//DTD SVG 1.1//EN" "http://www.w3.org/Graphics/SVG/1.1/DTD/svg11.dtd">
<svg version="1.1" xmlns="http://www.w3.org/2000/svg" xmlns:xlink="http://www.w3.org/1999/xlink" x="0" y="0" width="600" height="600" viewBox="0, 0, 600, 600">
  <g id="Background"/>
  <g id="Square">
    <path d="M50,50 L550,50 L550,550 L50,550 z" fill="#EEEEEE"/>
  </g>
  <g id="Reviews"/>
  <g id="Presentations" display="none">
    <path d="M504,88 C510.821,88.276 514.628,92.35 515.938,98.773 L516,100 C516,106.627 510.627,112 504,112 L492,112 L492,448 L108,448 L108,112 L96,112 C89.373,112 84,106.627 84,100 L84,100 C84,93.373 89.373,88 96,88 L504,88 z M389.5,244.583 L210.5,244.583 L210.5,400.583 L389.5,400.583 L389.5,244.583 z" fill="#000000"/>
    <path d="M300.5,448.5 L300.5,508.5" fill-opacity="0" stroke="#000000" stroke-width="10" stroke-linecap="round"/>
    <path d="M300.5,472.5 L180.5,508.5" fill-opacity="0" stroke="#000000" stroke-width="10" stroke-linecap="round"/>
    <path d="M300.5,472.5 L420.5,508.5" fill-opacity="0" stroke="#000000" stroke-width="10" stroke-linecap="round"/>
    <text transform="matrix(1, 0, 0, 1, 300, 189)">
      <tspan x="-143" y="-6" font-family="HelveticaNeue-Medium" font-size="24" fill="#EEEEEE">•	Lorem ipsum dolor sit </tspan>
      <tspan x="-143" y="23" font-family="HelveticaNeue-Medium" font-size="24" fill="#EEEEEE">•	Etquat accumsan</tspan>
    </text>
    <g>
      <path d="M223,256.333 L223,389.833" fill="#EEEEEE"/>
      <path d="M223,256.333 L223,389.833" fill-opacity="0" stroke="#000000" stroke-width="4" stroke-linecap="round"/>
    </g>
    <g>
      <path d="M222.5,389.833 L378.5,389.833" fill="#EEEEEE"/>
      <path d="M222.5,389.833 L378.5,389.833" fill-opacity="0" stroke="#000000" stroke-width="4" stroke-linecap="round"/>
    </g>
    <g>
      <path d="M234,353.333 L258,353.333 L258,389.333 L234,389.333 z" fill="#000000"/>
      <path d="M270,317.333 L294,317.333 L294,389.333 L270,389.333 z" fill="#000000"/>
      <path d="M306,329.333 L330,329.333 L330,389.333 L306,389.333 z" fill="#000000"/>
      <path d="M342,293.333 L366,293.333 L366,389.333 L342,389.333 z" fill="#000000"/>
    </g>
    <path d="M120.5,124.5 L480.5,124.5 L480.5,436.5 L120.5,436.5 z" fill-opacity="0" stroke="#EEEEEE" stroke-width="5"/>
  </g>
  <g id="Models" display="none">
    <g>
      <path d="M89.73,216.469 L89.73,380.908 L278.351,459.5 L278.351,291.434 L89.73,216.469 z" fill="#000000"/>
      <path d="M89.73,216.469 L89.73,380.908 L278.351,459.5 L278.351,291.434 L89.73,216.469 z" fill-opacity="0" stroke="#000000" stroke-width="1"/>
    </g>
    <g>
      <path d="M283.188,459.5 L283.188,291.434 L510.5,226.142 L510.5,392.999 L283.188,459.5 z" fill="#000000"/>
      <path d="M283.188,459.5 L283.188,291.434 L510.5,226.142 L510.5,392.999 L283.188,459.5 z" fill-opacity="0" stroke="#000000" stroke-width="1"/>
    </g>
    <g>
      <path d="M313.415,146.341 L508.082,221.305 L280.769,286.597 L92.148,211.633 L313.415,146.341 z M300.115,178.847 C246.452,178.847 202.949,195.691 202.949,216.469 C202.949,237.247 246.452,254.091 300.115,254.091 C353.778,254.091 397.281,237.247 397.281,216.469 C397.281,195.691 353.778,178.847 300.115,178.847 z" fill="#000000"/>
      <path d="M313.415,146.341 L508.082,221.305 L280.769,286.597 L92.148,211.633 L313.415,146.341 z M300.115,178.847 C246.452,178.847 202.949,195.691 202.949,216.469 C202.949,237.247 246.452,254.091 300.115,254.091 C353.778,254.091 397.281,237.247 397.281,216.469 C397.281,195.691 353.778,178.847 300.115,178.847 z" fill-opacity="0" stroke="#000000" stroke-width="1"/>
    </g>
  </g>
  <g id="Linux" display="none">
    <path d="M293.344,187.249 C293.344,188.705 291.888,188.705 291.888,188.705 L290.431,188.705 C288.975,188.705 288.975,187.249 287.518,185.793 C287.518,185.793 286.062,184.336 286.062,182.88 C286.062,181.423 286.062,181.423 287.518,181.423 L290.431,182.88 C291.888,184.336 293.344,185.793 293.344,187.249 M267.128,172.684 C267.128,165.402 264.215,161.033 259.846,161.033 C259.846,161.033 259.846,162.489 258.389,162.489 L258.389,165.402 L262.759,165.402 C262.759,168.315 264.215,169.772 264.215,172.684 L267.128,172.684 M318.104,165.402 C321.017,165.402 322.473,168.315 323.929,172.684 L326.842,172.684 C325.386,171.228 325.386,169.772 325.386,168.315 C325.386,166.859 325.386,165.402 323.929,163.946 C322.473,162.489 321.017,161.033 319.56,161.033 C319.56,161.033 318.104,162.489 316.647,162.489 C316.647,163.946 318.104,163.946 318.104,165.402 M274.41,188.705 C272.954,188.705 272.954,188.705 272.954,187.249 C272.954,185.793 272.954,184.336 274.41,182.88 C277.323,182.88 278.78,181.423 278.78,181.423 C280.236,181.423 280.236,182.88 280.236,182.88 C280.236,184.336 278.78,185.793 275.867,188.705 L274.41,188.705 M258.389,187.249 C252.563,184.336 251.107,179.967 251.107,172.684 C251.107,168.315 251.107,165.402 254.02,162.489 C255.476,159.576 258.389,158.12 261.302,158.12 C264.215,158.12 265.671,159.576 268.584,162.489 C270.041,166.859 271.497,171.228 271.497,175.597 L271.497,177.054 L271.497,178.51 L272.954,178.51 L272.954,177.054 C274.41,177.054 274.41,174.141 274.41,168.315 C274.41,163.946 274.41,159.576 271.497,155.207 C268.584,150.838 265.671,147.925 259.846,147.925 C255.476,147.925 251.107,150.838 249.651,155.207 C246.738,161.033 246.155,165.402 246.155,172.684 C246.155,178.51 248.194,184.336 254.02,190.162 C255.476,188.705 256.933,188.705 258.389,187.249 M440.445,392.608 C441.902,392.608 441.902,392.026 441.902,390.715 C441.902,387.511 440.445,383.724 436.076,379.5 C431.707,375.131 424.424,372.364 415.686,371.198 C414.229,371.053 412.773,371.053 412.773,371.053 C411.316,370.762 411.316,370.762 409.86,370.762 C408.403,370.616 405.491,370.325 404.034,370.033 C408.403,356.488 409.86,344.545 409.86,334.059 C409.86,319.495 406.947,309.299 401.121,300.561 C395.295,291.822 389.47,287.453 382.187,285.996 C380.731,287.453 380.731,287.453 380.731,288.909 C388.013,291.822 395.295,297.648 399.665,306.386 C404.034,316.582 405.491,325.32 405.491,335.515 C405.491,343.672 404.034,355.76 398.208,371.198 C392.383,373.529 386.557,378.918 382.187,387.365 C382.187,388.676 382.187,389.404 383.644,389.404 C383.644,389.404 385.1,388.093 386.557,385.617 C389.47,383.141 390.926,380.665 393.839,378.189 C398.208,375.713 401.121,374.403 405.491,374.403 C412.773,374.403 420.055,375.422 424.424,377.461 C430.25,379.355 433.163,381.394 434.62,383.724 C436.076,385.909 437.532,387.948 438.989,389.841 C438.989,391.734 440.445,392.608 440.445,392.608 M306.452,181.423 C304.996,179.967 304.996,177.054 304.996,174.141 C304.996,168.315 304.996,165.402 307.909,161.033 C310.821,158.12 313.734,156.664 316.647,156.664 C321.017,156.664 323.929,159.576 326.842,162.489 C328.299,166.859 329.755,169.772 329.755,174.141 C329.755,181.423 326.842,185.793 321.017,187.249 C321.017,187.249 322.473,188.705 323.929,188.705 C326.842,188.705 328.299,190.162 331.212,191.618 C332.668,182.88 334.125,177.054 334.125,169.772 C334.125,161.033 332.668,155.207 329.755,150.838 C325.386,146.468 321.017,145.012 315.191,145.012 C310.821,145.012 306.452,146.468 302.083,149.381 C299.17,153.751 297.713,156.664 297.713,161.033 C297.713,168.315 299.17,174.141 302.083,179.967 C303.539,179.967 304.996,181.423 306.452,181.423 M323.929,204.726 C304.996,217.834 290.431,223.66 278.78,223.66 C268.584,223.66 258.389,219.291 249.651,212.009 C251.107,214.921 252.563,217.834 254.02,219.291 L262.759,228.03 C268.584,233.855 275.867,236.768 283.149,236.768 C293.344,236.768 304.996,230.942 319.56,220.747 L332.668,212.009 C335.581,209.096 338.494,206.183 338.494,201.813 C338.494,200.357 338.494,198.901 337.037,198.901 C335.581,195.988 328.299,191.618 313.734,187.249 C300.626,181.423 290.431,178.51 284.605,178.51 C280.236,178.51 272.954,181.423 262.759,187.249 C254.02,193.075 248.194,198.901 248.194,204.726 C248.194,204.726 249.651,206.183 251.107,209.096 C259.846,216.378 268.584,220.747 277.323,220.747 C288.975,220.747 303.539,214.921 322.473,200.357 L322.473,203.27 C323.929,203.27 323.929,204.726 323.929,204.726 M357.428,498.929 C363.254,509.881 373.449,515.387 385.1,515.387 C388.013,515.387 390.926,514.95 393.839,514.076 C396.752,513.493 399.665,512.474 401.121,511.309 C402.578,510.289 404.034,509.27 405.491,508.105 C408.403,507.085 408.403,506.357 409.86,505.629 L434.62,484.219 C440.445,479.573 446.271,475.509 453.553,471.985 C459.379,468.489 465.205,466.159 468.118,464.848 C472.487,463.683 475.4,461.935 478.313,459.605 C479.769,457.42 481.226,454.653 481.226,451.157 C481.226,446.934 478.313,443.73 475.4,441.399 C472.487,439.069 469.574,437.467 466.661,436.447 C463.749,435.428 460.836,433.098 456.466,429.165 C453.553,425.378 450.64,420.135 449.184,413.29 L447.728,404.842 C446.271,400.91 446.271,397.997 444.815,396.395 C444.815,395.958 444.815,395.812 443.358,395.812 C441.902,395.812 438.989,397.123 437.532,399.599 C434.62,402.075 431.707,404.842 428.794,407.755 C427.337,410.668 422.968,413.29 420.055,415.766 C415.686,418.242 411.316,419.553 408.403,419.553 C396.752,419.553 390.926,416.348 386.557,410.086 C383.644,405.425 382.187,400.036 380.731,393.919 C377.818,391.443 376.362,390.132 373.449,390.132 C366.166,390.132 363.254,397.706 363.254,412.999 L363.254,417.805 L363.254,434.7 L363.254,447.662 L363.254,453.925 L363.254,458.294 C363.254,459.605 361.797,462.518 361.797,467.033 C360.341,471.548 360.341,476.674 360.341,482.471 L357.428,498.638 L357.428,498.885 M146.243,491.181 C159.788,493.161 175.372,497.4 192.995,503.866 C210.618,510.275 221.395,513.625 225.328,513.625 C235.523,513.625 243.97,509.11 250.961,500.385 C252.418,497.56 252.418,494.239 252.418,490.423 C252.418,476.66 244.116,459.255 227.513,438.137 L217.609,424.883 C215.57,422.116 213.094,417.892 209.89,412.212 C206.831,406.532 204.064,402.163 201.879,399.104 C199.986,395.754 196.927,392.404 192.995,389.055 C189.208,385.705 184.839,383.52 180.032,382.355 C173.915,383.52 169.692,385.559 167.652,388.326 C165.613,391.094 164.448,394.152 164.157,397.356 C163.72,400.415 162.846,402.454 161.39,403.473 C159.933,404.347 157.457,405.075 154.108,405.804 C153.379,405.804 152.068,405.804 150.175,405.949 L146.243,405.949 C138.524,405.949 133.28,406.823 130.513,408.28 C126.872,412.503 124.979,417.31 124.979,422.407 C124.979,424.737 125.561,428.67 126.726,434.204 C127.891,439.593 128.474,443.963 128.474,447.021 C128.474,452.993 126.726,458.964 123.085,464.935 C119.444,471.198 117.551,475.859 117.551,479.18 C119.007,484.831 128.62,488.807 146.243,491.137 M194.742,358.746 C194.742,348.696 197.364,337.627 202.753,324.519 C207.996,311.411 213.239,302.673 218.337,296.847 C218.046,295.39 217.317,295.39 216.152,295.39 L214.696,293.934 C210.472,298.303 205.375,308.498 199.257,323.063 C193.14,336.171 189.936,348.259 189.936,357.144 C189.936,363.698 191.538,369.378 194.451,374.33 C197.655,379.136 205.375,386.127 217.609,395.011 L233.047,405.061 C249.505,419.334 258.244,429.238 258.244,435.064 C258.244,438.122 256.787,441.181 252.418,444.531 C249.505,448.026 245.572,449.774 242.223,449.774 C241.931,449.774 241.786,450.065 241.786,450.793 C241.786,450.939 243.242,453.852 246.301,459.532 C252.418,467.834 265.526,471.912 283.003,471.912 C315.045,471.912 339.805,458.804 358.739,432.588 C358.739,425.306 358.739,420.791 357.282,418.897 L357.282,413.508 C357.282,404.041 358.739,396.905 361.651,392.244 C364.564,387.583 367.477,385.399 371.847,385.399 C374.759,385.399 377.672,386.418 380.585,388.603 C382.042,377.388 382.042,367.63 382.042,358.891 C382.042,345.638 382.042,334.714 379.129,324.519 C377.672,315.781 374.759,308.498 371.847,302.673 C368.934,298.303 366.021,293.934 363.108,289.564 C360.195,285.195 358.739,280.826 355.826,276.456 C354.369,270.631 352.913,266.261 352.913,258.979 C348.543,251.697 345.631,244.415 341.261,237.132 C338.348,229.85 335.435,222.568 332.522,216.742 L319.414,226.937 C304.85,237.132 293.198,241.502 283.003,241.502 C274.265,241.502 266.982,240.045 262.613,234.219 L253.874,226.937 C253.874,231.307 252.418,237.132 249.505,242.958 L240.329,260.436 C236.251,270.631 234.067,276.456 233.63,280.826 C233.047,283.739 232.61,286.652 232.319,286.652 L221.395,308.498 C209.598,330.345 203.627,350.59 203.627,367.339 C203.627,370.689 203.918,374.184 204.501,377.68 C197.947,373.165 194.742,366.902 194.742,358.746 M299.024,496.526 C280.09,496.526 265.526,499.089 255.331,504.172 L255.331,503.735 C248.048,512.474 239.892,516.989 228.532,516.989 C221.395,516.989 210.181,514.222 195.034,508.687 C179.741,503.444 166.196,499.424 154.399,496.773 C153.234,496.438 150.612,495.943 146.388,495.273 C142.31,494.618 138.524,493.948 135.174,493.278 C132.115,492.623 128.62,491.632 124.833,490.292 C121.192,489.142 118.279,487.642 116.094,485.821 C114.084,483.986 113.094,481.918 113.094,479.602 C113.094,477.272 113.589,474.781 114.579,472.13 C115.512,470.528 116.531,468.926 117.551,467.47 C118.57,465.868 119.444,464.411 120.027,462.955 C120.9,461.644 121.483,460.333 122.066,458.877 C122.648,457.566 123.231,456.255 123.522,454.653 C123.813,453.197 124.105,451.74 124.105,450.284 C124.105,448.827 123.522,444.458 122.357,436.739 C121.192,429.165 120.609,424.359 120.609,422.32 C120.609,415.911 122.066,410.814 125.27,407.173 C128.474,403.532 131.533,401.638 134.737,401.638 L151.486,401.638 C152.797,401.638 154.836,400.91 157.894,399.162 C158.914,396.832 159.788,394.939 160.37,393.191 C161.098,391.443 161.39,390.132 161.681,389.55 C161.972,388.676 162.264,387.802 162.555,387.074 C163.137,386.054 163.866,384.889 164.885,383.724 C163.72,382.267 163.137,380.374 163.137,378.044 C163.137,376.442 163.137,374.985 163.429,374.111 C163.429,368.868 165.905,361.44 171.148,351.682 L176.246,342.506 C180.469,334.642 183.673,328.816 186.004,322.99 C188.48,317.164 191.101,308.426 194.014,296.774 C196.345,286.579 201.879,276.384 210.618,266.188 L221.541,253.08 C229.115,244.342 234.067,237.06 236.834,231.234 C239.601,225.408 241.058,218.126 241.058,212.3 C241.058,209.387 240.329,200.648 238.727,186.084 C237.271,171.519 236.543,156.955 236.543,143.847 C236.543,133.652 237.416,126.369 239.31,119.087 C241.203,111.805 244.553,104.523 249.505,98.697 C253.874,92.871 259.7,87.045 268.439,84.132 C277.177,81.22 287.373,79.763 299.024,79.763 C303.394,79.763 307.763,79.763 312.132,81.22 C316.502,81.22 322.327,82.676 329.61,85.589 C335.435,88.502 341.261,91.415 345.631,95.784 C351.456,100.153 355.826,107.436 360.195,114.718 C363.108,123.457 366.021,132.195 367.477,143.847 C368.934,151.129 368.934,158.411 370.39,168.606 C370.39,177.345 371.847,183.171 371.847,187.54 C373.303,191.91 373.303,197.735 374.759,205.018 C376.216,210.843 377.672,216.669 380.585,221.039 C383.498,226.864 386.411,232.69 390.78,238.516 C395.15,245.798 400.976,253.08 406.801,261.819 C419.909,276.384 430.105,292.405 435.93,308.426 C443.213,322.99 447.582,341.924 447.582,362.168 C447.582,372.218 446.125,381.976 443.213,391.443 C446.125,391.443 447.582,392.608 449.038,394.647 C450.495,396.686 451.951,401.056 453.408,407.901 L454.864,418.679 C456.321,421.883 457.777,424.941 462.146,427.563 C465.059,430.185 467.972,432.369 472.342,434.117 C475.254,435.573 479.624,437.612 482.537,440.234 C485.45,443.147 486.906,446.206 486.906,449.41 C486.906,454.362 485.45,458.003 482.537,460.624 C479.624,463.537 476.711,465.576 472.342,466.887 C469.429,468.344 463.603,471.256 454.864,475.364 C447.582,479.675 440.3,484.903 433.017,491.093 L418.453,503.488 C412.627,509.168 406.801,513.246 402.432,515.722 C398.063,518.343 392.237,519.654 386.411,519.654 L376.216,518.489 C364.564,515.431 357.282,509.605 352.913,500.72 C329.61,497.895 310.676,496.497 299.024,496.497" fill="#000000"/>
  </g>
  <g id="LEGO" display="none">
    <g>
      <path d="M571.5,515.5 z" fill="#000000"/>
      <path d="M571.5,515.5 z" fill-opacity="0" stroke="#000000" stroke-width="1"/>
    </g>
    <g>
      <g>
        <path d="M90.115,216.769 L90.115,381.208 L278.736,459.8 L278.736,291.734 L90.115,216.769 z" fill="#000000"/>
        <path d="M90.115,216.769 L90.115,381.208 L278.736,459.8 L278.736,291.734 L90.115,216.769 z" fill-opacity="0" stroke="#000000" stroke-width="1"/>
      </g>
      <g>
        <path d="M283.572,459.8 L283.572,291.734 L510.885,226.442 L510.885,393.299 L283.572,459.8 z" fill="#000000"/>
        <path d="M283.572,459.8 L283.572,291.734 L510.885,226.442 L510.885,393.299 L283.572,459.8 z" fill-opacity="0" stroke="#000000" stroke-width="1"/>
      </g>
      <g>
        <path d="M92.533,211.933 L281.154,286.898 L508.467,221.606 L313.8,146.641" fill="#000000"/>
        <path d="M92.533,211.933 L281.154,286.898 L508.467,221.606 L313.8,146.641" fill-opacity="0" stroke="#000000" stroke-width="1"/>
      </g>
      <g>
        <path d="M358.642,158.837 L358.642,184.228 C358.642,194.578 337.8,202.969 312.091,202.969 L312.091,202.969 C286.382,202.969 265.54,194.578 265.54,184.228 L265.54,158.837 C265.54,169.187 286.382,177.578 312.091,177.578 C337.8,177.578 358.642,169.187 358.642,158.837 z" fill="#EEEEEE"/>
        <path d="M265.781,157.525 C266.398,156.306 266.802,154.952 267.633,153.868 C276.069,142.862 299.527,140.955 312.091,140.7 C337.8,140.7 358.642,149.091 358.642,159.441 C358.642,169.792 337.8,178.182 312.091,178.182 C286.382,178.182 265.54,169.792 265.54,159.441 L265.781,157.525 z" fill="#000000"/>
      </g>
      <path d="M342.319,221.71 L342.319,247.101 C342.319,257.452 321.477,265.843 295.768,265.843 L295.768,265.843 C270.059,265.843 249.217,257.452 249.217,247.101 L249.217,221.71 C249.217,232.061 270.059,240.451 295.768,240.451 C321.477,240.451 342.319,232.061 342.319,221.71 z" fill="#EEEEEE"/>
      <g>
        <path d="M454.161,192.711 L454.161,218.102 C454.161,228.452 433.32,236.843 407.611,236.843 L407.611,236.843 C381.901,236.843 361.06,228.452 361.06,218.102 L361.06,192.711 C361.06,203.061 381.901,211.452 407.611,211.452 C433.32,211.452 454.161,203.061 454.161,192.711 z" fill="#EEEEEE"/>
        <path d="M361.3,191.399 C361.918,190.18 362.321,188.827 363.153,187.742 C371.588,176.736 395.047,174.829 407.611,174.574 C433.32,174.574 454.161,182.965 454.161,193.315 C454.161,203.666 433.32,212.056 407.611,212.056 C381.901,212.056 361.06,203.666 361.06,193.315 L361.3,191.399 z" fill="#000000"/>
      </g>
      <g>
        <path d="M244.313,188.234 L244.313,213.626 C244.313,223.976 223.471,232.367 197.762,232.367 L197.762,232.367 C172.053,232.367 151.212,223.976 151.212,213.626 L151.212,188.234 C151.212,198.585 172.053,206.976 197.762,206.976 C223.471,206.976 244.313,198.585 244.313,188.234 z" fill="#EEEEEE"/>
        <path d="M151.452,186.923 C152.069,185.704 152.473,184.35 153.304,183.266 C161.74,172.26 185.198,170.353 197.762,170.098 C223.471,170.098 244.313,178.488 244.313,188.839 C244.313,199.189 223.471,207.58 197.762,207.58 C172.053,207.58 151.212,199.189 151.212,188.839 L151.452,186.923 z" fill="#000000"/>
      </g>
    </g>
  </g>
  <g id="Higher_Education" display="none">
    <path d="M298.346,130.109 L518.899,229.649 L299.331,331.647 L79.763,232.107 L298.346,130.109 z M299.331,222.744 C290.074,222.744 282.57,226.386 282.57,230.878 C282.57,235.37 290.074,239.012 299.331,239.012 C308.588,239.012 316.092,235.37 316.092,230.878 C316.092,226.386 308.588,222.744 299.331,222.744 z" fill="#000000"/>
    <path d="M411.576,290.78 L410.223,354.686 C410.592,397.605 360.779,428.122 299.331,428.122 C237.884,428.122 188.07,397.605 188.07,359.598 L188.171,357.139 L188.07,357.14 L187.086,292.009 L224.376,308.748 L299.331,342.394 L373.457,308.309 L373.461,308.311 L373.456,308.309 L411.576,290.78 z" fill="#000000"/>
    <path d="M158.532,262.829 L158.532,306.067 C162.772,307.875 164.515,312.976 164.932,318.129 C164.795,323.508 162.519,328.097 158.532,330.192 L158.532,348.851 L164.932,459.451 L164.867,459.455 L164.932,460.039 C164.932,465.48 160.083,469.891 154.101,469.891 C149.479,469.715 144.057,467.135 143.341,460.676 L143.27,460.68 L143.294,460.256 L143.27,460.039 L143.346,459.356 L149.67,348.851 L149.67,330.192 C145.43,328.383 143.687,323.283 143.27,318.129 C143.407,312.75 145.683,308.161 149.67,306.067 L149.67,262.829 L158.532,262.829 z" fill="#000000"/>
  </g>
  <g id="Everenote" display="none">
    <path d="M268.102,79.763 C283.66,79.939 299.364,81.614 313.981,87.18 C323.54,91.032 332.084,102.159 333.862,114.339 C348.679,113.881 373.208,113.686 394.078,116.144 C420.019,119.201 440.665,123.013 450.847,126.693 C460.284,130.095 470.722,138.747 474.002,156.304 C479.609,186.343 486.678,305.359 483.041,344.791 C477.286,407.156 467.777,444.299 463.844,456.47 C456.703,476.589 449.734,501.625 429.529,512.636 C416.794,519.575 401.305,519.513 387.214,519.654 L372.465,519.654 C352.524,518.689 324.271,520.172 309.618,503.597 C299.641,492.31 298.807,475.79 298.72,461.483 C298.72,407.399 324.165,406.259 367.41,407.448 C373.604,407.602 367.056,413.655 367.056,424.126 C367.056,434.652 371.11,438.807 365.524,438.807 C353.018,438.807 336.144,437.019 336.144,454.081 C336.144,475.19 346.27,474.502 372.843,474.502 C405.622,474.502 411.892,470.41 411.892,440.557 C411.892,391.489 398.012,383.962 378.887,381.764 C357.735,379.285 336.918,376.112 326.883,372.553 C301.463,363.526 303.28,329.875 303.28,320.366 C303.28,318.933 301.27,318.996 301.27,320.366 C301.27,333.834 300.306,352.447 293.383,373.425 C291.224,379.466 289.653,383.584 289.626,383.625 C281.652,400.344 268.272,394.61 246.954,391.882 C225.598,389.162 180.031,379.66 160.082,371.119 C151.128,366.962 148.092,363.033 143.535,353.6 C131.78,329.356 119.405,249.639 117.88,238.228 C116.044,223.48 115.963,215.861 115.963,215.861 C115.94,206.536 116.897,197.398 122.413,189.995 C125.184,186.266 128.831,183.114 133.98,180.776 C139.12,178.44 145.851,176.96 154.659,176.96 L195.954,176.96 C204.956,176.949 212.22,169.655 212.225,160.692 C212.225,160.631 212.093,151.628 211.972,141.56 C211.849,131.525 211.716,120.23 211.716,115.435 C211.733,106.963 213.879,100.899 217.196,96.165 C222.141,89.08 231.027,84.481 239.057,82.237 C248.546,80.009 258.399,79.816 268.102,79.763 z M395.719,262.495 C380.393,263.164 375.066,275.074 373.118,288.879 C378.451,288.022 384.169,287.646 390.114,287.854 C401.268,288.246 411.508,290.597 419.781,294.285 C419.71,281.725 416.961,263.184 397.343,262.509 L395.719,262.495 z M203.876,91.647 L202.464,94.299 C199.508,100.204 197.813,107.251 197.813,115.333 L197.813,115.449 C197.813,125.29 198.314,160.677 198.314,160.692 C198.309,163.04 196.406,164.967 194.04,164.966 L152.725,164.966 C142.584,164.967 134.113,166.695 127.127,169.847 C126.806,169.987 124.538,171.11 122.878,171.931 C122.923,171.76 123.021,171.592 123.178,171.463 L203.402,91.908 C203.559,91.751 203.718,91.674 203.876,91.647 z" fill="#000000"/>
  </g>
  <g id="Entertainment" display="none">
    <path d="M397.333,79.763 C438.571,79.763 472,112.759 472,153.462 C471.5,185.32 453.382,210.012 424,222.274 L424,334.091 L360.202,334.091 C361.514,337.678 361.901,341.491 362,345.277 C361.913,353.472 359.146,360.786 354.376,367.401 L435,517.351 L406.333,517.351 L336,380.811 L336.292,380.595 L336,380.698 L336,519.654 L312,519.654 L312,381.1 L311.901,381.067 L312,381.14 L244,517.351 L216,517.022 L292.729,367.847 C287.417,361.413 285.197,353.422 284.667,345.277 C284.625,341.466 285.305,337.712 286.465,334.091 L222.667,334.091 L222.667,316.982 L198.667,313.427 L128,343.303 L128,214.33 L198.667,244.206 L222.667,240.651 L222.667,222.793 C192.507,213.089 174.111,183.813 173.333,153.462 C173.333,112.759 206.763,79.763 248,79.763 C289.237,79.763 322.667,112.759 322.667,153.462 C322.36,184.932 303.741,210.14 274.783,222.226 L370.551,222.226 C341.147,210.596 323.464,184.556 322.667,153.462 C322.667,112.759 356.096,79.763 397.333,79.763 L397.333,79.763 z" fill="#000000"/>
  </g>
  <g id="Embedded" display="none">
    <path d="M498.995,146 L505.995,152 L505.995,221 L518.649,234 L518.649,426 L505.995,441 L501.995,452 L118.995,454 L117.995,146 L498.995,146 z M199.995,429.5 C194.472,429.5 189.995,433.977 189.995,439.5 C189.995,445.023 194.472,449.5 199.995,449.5 L199.995,449.5 C205.518,449.5 209.995,445.023 209.995,439.5 C209.995,433.977 205.518,429.5 199.995,429.5 z M505.649,402 C500.127,402 495.65,406.477 495.649,412 C495.65,417.523 500.127,422 505.649,422 C511.172,422 515.65,417.523 515.649,412 C515.65,406.477 511.172,402 505.649,402 z M505.649,239 C500.127,239 495.65,243.477 495.649,249 C495.65,254.523 500.127,259 505.649,259 C511.172,259 515.65,254.523 515.649,249 C515.65,243.477 511.172,239 505.649,239 z M205.495,150.5 C200.249,150.5 195.995,154.753 195.995,160 C195.995,165.247 200.249,169.5 205.495,169.5 C210.742,169.5 214.995,165.247 214.995,160 C214.995,154.753 210.742,150.5 205.495,150.5 z" fill="#616264" fill-opacity="0.488"/>
    <path d="M394.945,218.125 L435.195,218.125 C441.823,218.125 447.195,223.498 447.195,230.125 L447.195,233.875 C447.195,240.502 441.823,245.875 435.195,245.875 L394.945,245.875 C388.318,245.875 382.945,240.502 382.945,233.875 L382.945,230.125 C382.945,223.498 388.318,218.125 394.945,218.125 z" fill-opacity="0" stroke="#000000" stroke-width="2" stroke-dasharray="2,2,2,2,2,2" stroke-miterlimit="1"/>
    <path d="M138.077,198.958 C142.657,198.958 146.37,202.82 146.37,207.583 L146.342,207.875 L169.445,207.875 L169.445,281.208 L80.763,281.208 L80.763,207.875 L129.813,207.875 L129.785,207.583 C129.785,202.82 133.498,198.958 138.078,198.958 z" fill="#000000"/>
    <path d="M169.445,343.375 L182.779,343.375 L182.779,348.542 L169.445,348.542 z" fill="#000000"/>
    <path d="M223.029,229.542 C220.773,229.542 218.945,227.714 218.945,225.458 C218.945,223.203 220.773,221.375 223.029,221.375 C225.284,221.375 227.112,223.203 227.112,225.458 C227.112,227.714 225.284,229.542 223.029,229.542 z" fill="#000000"/>
    <path d="M270.004,293.125 L289.778,293.125 L289.778,306.875 L270.004,306.875 z" fill="#000000"/>
    <path d="M182.578,283.875 L191.312,283.875 C192.674,283.875 193.779,284.979 193.779,286.342 L193.779,286.342 C193.779,287.704 192.674,288.808 191.312,288.808 L182.578,288.808 C181.216,288.808 180.112,287.704 180.112,286.342 L180.112,286.342 C180.112,284.979 181.216,283.875 182.578,283.875 z" fill="#000000"/>
    <path d="M187.112,236.857 L192.112,236.857 L192.112,256.542 L187.112,256.542 z" fill="#000000"/>
    <path d="M346.445,296.542 L361.445,296.542 L361.445,301.875 L346.445,301.875 z" fill="#000000"/>
    <path d="M243.045,327.208 L257.112,327.208 L257.112,331.542 L243.045,331.542 z" fill="#000000"/>
    <path d="M209.279,299.208 L249.945,299.208 C254.824,299.208 258.779,303.238 258.779,308.208 L258.779,308.208 C258.779,313.179 254.824,317.208 249.945,317.208 L209.279,317.208 C204.4,317.208 200.445,313.179 200.445,308.208 L200.445,308.208 C200.445,303.238 204.4,299.208 209.279,299.208 z" fill="#000000"/>
    <path d="M370.445,156.875 L370.445,173.875 L247.445,173.875 L247.445,156.875 L370.445,156.875 z M352.778,160.375 L342.778,160.375 L342.778,170.375 L352.778,170.375 L352.778,160.375 z M321.772,160.375 L311.772,160.375 L311.772,170.375 L321.772,170.375 L321.772,160.375 z M291.112,160.375 L281.112,160.375 L281.112,170.375 L291.112,170.375 L291.112,160.375 z M306.778,160.375 L296.778,160.375 L296.778,170.375 L306.778,170.375 L306.778,160.375 z M336.778,160.375 L326.778,160.375 L326.778,170.375 L336.778,170.375 L336.778,160.375 z M367.445,160.375 L357.445,160.375 L357.445,170.375 L367.445,170.375 L367.445,160.375 z M261.778,160.208 L251.778,160.208 L251.778,170.208 L261.778,170.208 L261.778,160.208 z M276.445,160.208 L266.445,160.208 L266.445,170.208 L276.445,170.208 L276.445,160.208 z" fill="#000000"/>
    <path d="M500.112,156.875 L500.112,173.875 L377.112,173.875 L377.112,156.875 L500.112,156.875 z M482.445,160.375 L472.445,160.375 L472.445,170.375 L482.445,170.375 L482.445,160.375 z M451.439,160.375 L441.439,160.375 L441.439,170.375 L451.439,170.375 L451.439,160.375 z M420.778,160.375 L410.778,160.375 L410.778,170.375 L420.778,170.375 L420.778,160.375 z M436.445,160.375 L426.445,160.375 L426.445,170.375 L436.445,170.375 L436.445,160.375 z M466.445,160.375 L456.445,160.375 L456.445,170.375 L466.445,170.375 L466.445,160.375 z M497.112,160.375 L487.112,160.375 L487.112,170.375 L497.112,170.375 L497.112,160.375 z M391.445,160.208 L381.445,160.208 L381.445,170.208 L391.445,170.208 L391.445,160.208 z M406.112,160.208 L396.112,160.208 L396.112,170.208 L406.112,170.208 L406.112,160.208 z" fill="#000000"/>
    <path d="M233.112,233.857 L254.796,255.542 L233.112,277.226 L211.427,255.542 z" fill="#000000"/>
    <path d="M289.337,343.375 L297.112,343.375 L297.112,345.875 L316.921,345.875 L316.921,343.375 L324.695,343.375 L324.695,345.875 L346.962,345.875 L346.962,343.375 L354.737,343.375 L354.737,345.875 L377.546,345.875 L377.546,343.375 L385.32,343.375 L385.32,345.875 L407.556,345.875 L407.556,343.375 L415.33,343.375 L415.33,345.875 L438.139,345.875 L438.139,343.375 L445.914,343.375 L445.914,345.875 L467.921,345.875 L467.921,343.375 L475.695,343.375 L475.695,345.875 L492.445,345.875 L492.445,361.225 L492.279,361.208 C487.952,361.208 484.445,364.715 484.445,369.042 C484.445,373.368 487.952,376.875 492.279,376.875 L492.445,376.858 L492.445,392.208 L490.261,392.208 L490.261,394.708 L482.487,394.708 L482.487,392.208 L476.136,392.208 L476.136,394.708 L468.362,394.708 L468.362,392.208 L461.48,392.208 L461.48,394.708 L453.705,394.708 L453.705,392.208 L446.355,392.208 L446.355,394.708 L438.58,394.708 L438.58,392.208 L430.355,392.208 L430.355,394.708 L422.58,394.708 L422.58,392.208 L415.771,392.208 L415.771,394.708 L407.997,394.708 L407.997,392.208 L400.886,392.208 L400.886,394.708 L393.112,394.708 L393.112,392.208 L385.761,392.208 L385.761,394.708 L377.987,394.708 L377.987,392.208 L370.761,392.208 L370.761,394.708 L362.987,394.708 L362.987,392.208 L355.178,392.208 L355.178,394.708 L347.404,394.708 L347.404,392.208 L340.261,392.208 L340.261,394.708 L332.487,394.708 L332.487,392.208 L325.136,392.208 L325.136,394.708 L317.362,394.708 L317.362,392.208 L310.136,392.208 L310.136,394.708 L302.362,394.708 L302.362,392.208 L297.553,392.208 L297.553,394.708 L289.779,394.708 L289.779,392.208 L286.445,392.208 L286.445,345.875 L289.337,345.875 L289.337,343.375 z" fill="#000000"/>
    <path d="M309.695,343.375 L309.695,345.875 L301.921,345.875 L301.921,343.375 L309.695,343.375 z" fill="#000000"/>
    <path d="M339.82,343.375 L339.82,345.875 L332.046,345.875 L332.046,343.375 L339.82,343.375 z" fill="#000000"/>
    <path d="M370.32,343.375 L370.32,345.875 L362.546,345.875 L362.546,343.375 L370.32,343.375 z" fill="#000000"/>
    <path d="M400.445,343.375 L400.445,345.875 L392.671,345.875 L392.671,343.375 L400.445,343.375 z" fill="#000000"/>
    <path d="M429.914,343.375 L429.914,345.875 L422.139,345.875 L422.139,343.375 L429.914,343.375 z" fill="#000000"/>
    <path d="M461.039,343.375 L461.039,345.875 L453.264,345.875 L453.264,343.375 L461.039,343.375 z" fill="#000000"/>
    <path d="M489.82,343.375 L489.82,345.875 L482.046,345.875 L482.046,343.375 L489.82,343.375 z" fill="#000000"/>
    <path d="M169.445,341.042 L169.445,379.375 L151.112,379.375 L151.112,374.542 L119.778,374.542 L119.778,345.875 L151.112,345.875 L151.112,341.042 L169.445,341.042 z" fill="#000000"/>
    <path d="M212.779,331.542 L226.112,331.542 L226.112,349.875 L212.779,349.875 z" fill="#000000"/>
    <path d="M200.445,379.542 L224.445,379.542 L224.445,394.208 L200.445,394.208 z" fill="#000000"/>
    <path d="M249.779,380.875 L265.112,380.875 L265.112,390.208 L249.779,390.208 z" fill="#000000"/>
    <path d="M104.445,385.875 L182.779,385.875 L182.779,441.875 L104.445,441.875 z" fill="#000000"/>
    <path d="M346.445,313.875 L364.112,313.875 L364.112,322.208 L346.445,322.208 z" fill="#000000"/>
    <path d="M459.778,285.542 L459.778,315.833 L469.075,315.833 L469.075,320.25 L459.778,320.25 L459.778,322.208 L423.445,322.208 L423.445,291.729 L414.398,291.729 L414.398,287.312 L423.445,287.312 L423.445,285.542 L459.778,285.542 z M441.612,296.542 C437.009,296.542 433.279,300.273 433.278,304.875 C433.279,309.477 437.009,313.208 441.612,313.208 C446.214,313.208 449.945,309.477 449.945,304.875 C449.945,300.273 446.214,296.542 441.612,296.542 z" fill="#000000"/>
    <path d="M397.445,428.542 L397.445,445.542 L304.445,445.542 L304.445,428.542 L397.445,428.542 z M378.772,432.042 L368.772,432.042 L368.772,442.042 L378.772,442.042 L378.772,432.042 z M348.112,432.042 L338.112,432.042 L338.112,442.042 L348.112,442.042 L348.112,432.042 z M363.778,432.042 L353.778,432.042 L353.778,442.042 L363.778,442.042 L363.778,432.042 z M393.778,432.042 L383.778,432.042 L383.778,442.042 L393.778,442.042 L393.778,432.042 z M318.778,431.875 L308.778,431.875 L308.778,441.875 L318.778,441.875 L318.778,431.875 z M333.445,431.875 L323.445,431.875 L323.445,441.875 L333.445,441.875 L333.445,431.875 z" fill="#000000"/>
    <path d="M499.112,428.542 L499.112,445.542 L406.112,445.542 L406.112,428.542 L499.112,428.542 z M480.439,432.042 L470.439,432.042 L470.439,442.042 L480.439,442.042 L480.439,432.042 z M449.778,432.042 L439.778,432.042 L439.778,442.042 L449.778,442.042 L449.778,432.042 z M465.445,432.042 L455.445,432.042 L455.445,442.042 L465.445,442.042 L465.445,432.042 z M495.445,432.042 L485.445,432.042 L485.445,442.042 L495.445,442.042 L495.445,432.042 z M420.445,431.875 L410.445,431.875 L410.445,441.875 L420.445,441.875 L420.445,431.875 z M435.112,431.875 L425.112,431.875 L425.112,441.875 L435.112,441.875 L435.112,431.875 z" fill="#000000"/>
    <path d="M234.945,445.875 C225.464,445.875 217.779,438.189 217.779,428.708 C217.779,419.227 225.464,411.542 234.945,411.542 C244.426,411.542 252.112,419.227 252.112,428.708 C252.112,438.189 244.426,445.875 234.945,445.875 z" fill="#000000"/>
    <path d="M279.945,445.875 C270.464,445.875 262.779,438.189 262.779,428.708 C262.779,419.227 270.464,411.542 279.945,411.542 C289.426,411.542 297.112,419.227 297.112,428.708 C297.112,438.189 289.426,445.875 279.945,445.875 z" fill="#000000"/>
    <path d="M277.301,310.8 L282.041,310.8 L282.041,329.167 L277.301,329.167 z" fill="#000000"/>
    <path d="M211.427,173.875 L214.645,178.675 L214.645,199.275 L211.427,203.675 L203.445,203.875 L200.445,199.275 L200.445,178.475 L203.445,173.875 L211.427,173.875 z M209.545,193.075 L205.545,193.075 L205.545,197.075 L209.545,197.075 L209.545,193.075 z M209.545,180.475 L205.545,180.475 L205.545,184.475 L209.545,184.475 L209.545,180.475 z" fill="#000000"/>
    <path d="M225.627,173.875 L228.845,178.675 L228.845,199.275 L225.627,203.675 L217.645,203.875 L214.645,199.275 L214.645,178.475 L217.645,173.875 L225.627,173.875 z M223.745,193.075 L219.745,193.075 L219.745,197.075 L223.745,197.075 L223.745,193.075 z M223.745,180.475 L219.745,180.475 L219.745,184.475 L223.745,184.475 L223.745,180.475 z" fill="#000000"/>
    <path d="M505.345,303.008 L509.745,306.226 L509.945,314.208 L505.345,317.208 L484.545,317.208 L479.945,314.208 L479.945,306.226 L484.745,303.008 L505.345,303.008 z M490.545,308.108 L486.545,308.108 L486.545,312.108 L490.545,312.108 L490.545,308.108 z M503.145,308.108 L499.145,308.108 L499.145,312.108 L503.145,312.108 L503.145,308.108 z" fill="#000000"/>
    <path d="M505.345,288.808 L509.745,292.026 L509.945,300.008 L505.345,303.008 L484.545,303.008 L479.945,300.008 L479.945,292.026 L484.745,288.808 L505.345,288.808 z M490.545,293.908 L486.545,293.908 L486.545,297.908 L490.545,297.908 L490.545,293.908 z M503.145,293.908 L499.145,293.908 L499.145,297.908 L503.145,297.908 L503.145,293.908 z" fill="#000000"/>
    <path d="M505.345,274.608 L509.745,277.826 L509.945,285.808 L505.345,288.808 L484.545,288.808 L479.945,285.808 L479.945,277.826 L484.745,274.608 L505.345,274.608 z M490.545,279.708 L486.545,279.708 L486.545,283.708 L490.545,283.708 L490.545,279.708 z M503.145,279.708 L499.145,279.708 L499.145,283.708 L503.145,283.708 L503.145,279.708 z" fill="#000000"/>
    <path d="M277.301,220.151 L282.041,220.151 L282.041,238.518 L277.301,238.518 z" fill="#000000"/>
    <path d="M458.039,251.842 L462.779,251.842 L462.779,270.208 L458.039,270.208 z" fill="#000000"/>
    <path d="M243.045,334.542 L257.112,334.542 L257.112,338.875 L243.045,338.875 z" fill="#000000"/>
    <path d="M243.045,341.208 L257.112,341.208 L257.112,345.542 L243.045,345.542 z" fill="#000000"/>
    <path d="M243.045,348.542 L257.112,348.542 L257.112,352.875 L243.045,352.875 z" fill="#000000"/>
    <path d="M239.827,173.875 L243.045,178.675 L243.045,199.275 L239.827,203.675 L231.845,203.875 L228.845,199.275 L228.845,178.475 L231.845,173.875 L239.827,173.875 z M237.945,193.075 L233.945,193.075 L233.945,197.075 L237.945,197.075 L237.945,193.075 z M237.945,180.475 L233.945,180.475 L233.945,184.475 L237.945,184.475 L237.945,180.475 z" fill="#000000"/>
    <path d="M139.445,313.875 L145.445,313.875 L145.445,329.167 L139.445,329.167 z" fill="#000000"/>
    <path d="M126.112,291.542 L154.112,291.542 L154.112,310.8 L126.112,310.8 z" fill="#000000"/>
    <path d="M187.112,226.542 L192.112,226.542 L192.112,231.542 L187.112,231.542 z" fill="#000000"/>
    <path d="M187.112,260.542 L192.112,260.542 L192.112,265.542 L187.112,265.542 z" fill="#000000"/>
    <path d="M203.445,283.875 L212.179,283.875 C213.541,283.875 214.645,284.979 214.645,286.342 L214.645,286.342 C214.645,287.704 213.541,288.808 212.179,288.808 L203.445,288.808 C202.083,288.808 200.979,287.704 200.979,286.342 L200.979,286.342 C200.979,284.979 202.083,283.875 203.445,283.875 z" fill="#000000"/>
    <path d="M223.912,283.875 L232.645,283.875 C234.007,283.875 235.112,284.979 235.112,286.342 L235.112,286.342 C235.112,287.704 234.007,288.808 232.645,288.808 L223.912,288.808 C222.55,288.808 221.445,287.704 221.445,286.342 L221.445,286.342 C221.445,284.979 222.55,283.875 223.912,283.875 z" fill="#000000"/>
    <path d="M240.912,283.875 L249.645,283.875 C251.008,283.875 252.112,284.979 252.112,286.342 L252.112,286.342 C252.112,287.704 251.008,288.808 249.645,288.808 L240.912,288.808 C239.55,288.808 238.445,287.704 238.445,286.342 L238.445,286.342 C238.445,284.979 239.55,283.875 240.912,283.875 z" fill="#000000"/>
    <path d="M366.213,395.942 L376.011,395.942 C377.54,395.942 378.779,397.046 378.779,398.408 L378.779,398.408 C378.779,399.771 377.54,400.875 376.011,400.875 L366.213,400.875 C364.684,400.875 363.445,399.771 363.445,398.408 L363.445,398.408 C363.445,397.046 364.684,395.942 366.213,395.942 z" fill="#000000"/>
    <path d="M289.778,207.875 L289.778,216.208 L270.445,216.208 L270.445,207.875 L289.778,207.875 z M282.041,209.542 L277.301,209.542 L277.301,214.875 L282.041,214.875 L282.041,209.542 z" fill="#000000"/>
    <path d="M289.338,240.375 L289.338,248.708 L270.004,248.708 L270.004,240.375 L289.338,240.375 z M281.6,242.042 L276.86,242.042 L276.86,247.375 L281.6,247.375 L281.6,242.042 z" fill="#000000"/>
    <path d="M289.778,254.542 L289.778,262.875 L270.445,262.875 L270.445,254.542 L289.778,254.542 z M282.041,256.208 L277.301,256.208 L277.301,261.542 L282.041,261.542 L282.041,256.208 z" fill="#000000"/>
    <path d="M470.075,240.375 L470.075,248.708 L450.742,248.708 L450.742,240.375 L470.075,240.375 z M462.338,242.042 L457.598,242.042 L457.598,247.375 L462.338,247.375 L462.338,242.042 z" fill="#000000"/>
    <path d="M275.245,272.293 L283.979,272.293 C285.341,272.293 286.445,273.397 286.445,274.76 L286.445,274.76 C286.445,276.122 285.341,277.226 283.979,277.226 L275.245,277.226 C273.883,277.226 272.779,276.122 272.779,274.76 L272.779,274.76 C272.779,273.397 273.883,272.293 275.245,272.293 z" fill="#000000"/>
    <path d="M275.245,283.875 L283.979,283.875 C285.341,283.875 286.445,284.979 286.445,286.342 L286.445,286.342 C286.445,287.704 285.341,288.808 283.979,288.808 L275.245,288.808 C273.883,288.808 272.779,287.704 272.779,286.342 L272.779,286.342 C272.779,284.979 273.883,283.875 275.245,283.875 z" fill="#000000"/>
    <path d="M230.578,363.942 L239.312,363.942 C240.674,363.942 241.779,365.046 241.779,366.408 L241.779,366.408 C241.779,367.771 240.674,368.875 239.312,368.875 L230.578,368.875 C229.216,368.875 228.112,367.771 228.112,366.408 L228.112,366.408 C228.112,365.046 229.216,363.942 230.578,363.942 z" fill="#000000"/>
    <path d="M253.079,363.942 L261.812,363.942 C263.174,363.942 264.279,365.046 264.279,366.408 L264.279,366.408 C264.279,367.771 263.174,368.875 261.812,368.875 L253.079,368.875 C251.716,368.875 250.612,367.771 250.612,366.408 L250.612,366.408 C250.612,365.046 251.716,363.942 253.079,363.942 z" fill="#000000"/>
    <path d="M237.695,229.542 C235.44,229.542 233.612,227.713 233.612,225.458 C233.612,223.203 235.44,221.375 237.695,221.375 C239.95,221.375 241.779,223.203 241.779,225.458 C241.779,227.713 239.95,229.542 237.695,229.542 z" fill="#000000"/>
    <path d="M223.029,217.125 C220.773,217.125 218.945,215.297 218.945,213.042 C218.945,210.786 220.773,208.958 223.029,208.958 C225.284,208.958 227.112,210.786 227.112,213.042 C227.112,215.297 225.284,217.125 223.029,217.125 z" fill="#000000"/>
    <path d="M237.695,217.125 C235.44,217.125 233.612,215.297 233.612,213.042 C233.612,210.786 235.44,208.958 237.695,208.958 C239.95,208.958 241.779,210.786 241.779,213.042 C241.779,215.297 239.95,217.125 237.695,217.125 z" fill="#000000"/>
    <path d="M185.245,212.192 L193.979,212.192 C195.341,212.192 196.445,213.296 196.445,214.658 L196.445,214.658 C196.445,216.021 195.341,217.125 193.979,217.125 L185.245,217.125 C183.883,217.125 182.779,216.021 182.779,214.658 L182.779,214.658 C182.779,213.296 183.883,212.192 185.245,212.192 z" fill="#000000"/>
    <path d="M154.495,192.692 L163.229,192.692 C164.591,192.692 165.695,193.796 165.695,195.158 L165.695,195.158 C165.695,196.521 164.591,197.625 163.229,197.625 L154.495,197.625 C153.133,197.625 152.029,196.521 152.029,195.158 L152.029,195.158 C152.029,193.796 153.133,192.692 154.495,192.692 z" fill="#000000"/>
    <path d="M169.445,354.708 L182.779,354.708 L182.779,359.875 L169.445,359.875 z" fill="#000000"/>
    <path d="M169.445,367.708 L182.779,367.708 L182.779,372.875 L169.445,372.875 z" fill="#000000"/>
    <path d="M458.779,287.125 L469.075,287.125 L469.075,291.542 L458.779,291.542 z" fill="#000000"/>
    <path d="M414.398,316.021 L424.695,316.021 L424.695,320.437 L414.398,320.437 z" fill="#000000"/>
    <g>
      <path d="M282.541,202.375 L492.945,202.375" fill="#000000"/>
      <path d="M282.541,202.375 L492.945,202.375" fill-opacity="0" stroke="#000000" stroke-width="3"/>
    </g>
    <path d="M313.445,229.542 L324.445,229.542 L324.445,233.857 L313.445,233.857 z" fill="#000000"/>
    <path d="M354.103,226.542 L354.103,230.083 L357.445,230.083 L357.445,234.399 L354.103,234.399 L354.103,237.542 L349.787,237.542 L349.787,234.399 L346.445,234.399 L346.445,230.083 L349.787,230.083 L349.787,226.542 L354.103,226.542 z" fill="#000000"/>
    <path d="M351.882,215.712 C360.987,215.712 368.369,223.094 368.369,232.199 C368.369,241.305 360.987,248.686 351.882,248.686 C342.776,248.686 335.395,241.305 335.395,232.199 C335.395,223.094 342.776,215.712 351.882,215.712 z" fill-opacity="0" stroke="#000000" stroke-width="4"/>
    <path d="M318.908,215.513 C328.013,215.513 335.395,222.894 335.395,232 C335.395,241.106 328.013,248.487 318.908,248.487 C309.802,248.487 302.421,241.106 302.421,232 C302.421,222.894 309.802,215.513 318.908,215.513 z" fill-opacity="0" stroke="#000000" stroke-width="4"/>
    <path d="M124.278,152.109 L191.612,152.109 L191.612,181.14 L124.278,181.14 z" fill-opacity="0" stroke="#000000" stroke-width="2"/>
    <path d="M323.018,288.808 C321.656,288.808 320.552,287.704 320.552,286.342 C320.552,284.979 321.656,283.875 323.018,283.875 C324.381,283.875 325.485,284.979 325.485,286.342 C325.485,287.704 324.381,288.808 323.018,288.808 z" fill="#000000"/>
    <path d="M312.162,298.058 C310.8,298.058 309.695,296.954 309.695,295.592 C309.695,294.229 310.8,293.125 312.162,293.125 C313.524,293.125 314.629,294.229 314.629,295.592 C314.629,296.954 313.524,298.058 312.162,298.058 z" fill="#000000"/>
    <path d="M306.912,314.875 C305.55,314.875 304.445,313.771 304.445,312.408 C304.445,311.046 305.55,309.942 306.912,309.942 C308.274,309.942 309.379,311.046 309.379,312.408 C309.379,313.771 308.274,314.875 306.912,314.875 z" fill="#000000"/>
    <path d="M392.179,288.808 C390.816,288.808 389.712,287.704 389.712,286.342 C389.712,284.979 390.816,283.875 392.179,283.875 C393.541,283.875 394.645,284.979 394.645,286.342 C394.645,287.704 393.541,288.808 392.179,288.808 z" fill="#000000"/>
    <path d="M292.245,282.16 C290.883,282.16 289.779,281.055 289.779,279.693 C289.779,278.331 290.883,277.226 292.245,277.226 C293.607,277.226 294.712,278.331 294.712,279.693 C294.712,281.055 293.607,282.16 292.245,282.16 z" fill="#000000"/>
    <path d="M267.538,287.125 C266.175,287.125 265.071,286.021 265.071,284.658 C265.071,283.296 266.175,282.192 267.538,282.192 C268.9,282.192 270.004,283.296 270.004,284.658 C270.004,286.021 268.9,287.125 267.538,287.125 z" fill="#000000"/>
    <path d="M300.979,261.475 C299.616,261.475 298.512,260.371 298.512,259.008 C298.512,257.646 299.616,256.542 300.979,256.542 C302.341,256.542 303.445,257.646 303.445,259.008 C303.445,260.371 302.341,261.475 300.979,261.475 z" fill="#000000"/>
    <path d="M296.045,240.375 C294.683,240.375 293.579,239.271 293.579,237.908 C293.579,236.546 294.683,235.442 296.045,235.442 C297.408,235.442 298.512,236.546 298.512,237.908 C298.512,239.271 297.408,240.375 296.045,240.375 z" fill="#000000"/>
    <path d="M261.245,299.208 C259.883,299.208 258.779,298.104 258.779,296.742 C258.779,295.379 259.883,294.275 261.245,294.275 C262.607,294.275 263.712,295.379 263.712,296.742 C263.712,298.104 262.607,299.208 261.245,299.208 z" fill="#000000"/>
    <path d="M267.538,317.208 C266.175,317.208 265.071,316.104 265.071,314.742 C265.071,313.379 266.175,312.275 267.538,312.275 C268.9,312.275 270.004,313.379 270.004,314.742 C270.004,316.104 268.9,317.208 267.538,317.208 z" fill="#000000"/>
    <path d="M265.245,348.542 C263.883,348.542 262.779,347.437 262.779,346.075 C262.779,344.713 263.883,343.608 265.245,343.608 C266.607,343.608 267.712,344.713 267.712,346.075 C267.712,347.437 266.607,348.542 265.245,348.542 z" fill="#000000"/>
    <path d="M235.979,330.475 C234.616,330.475 233.512,329.371 233.512,328.008 C233.512,326.646 234.616,325.542 235.979,325.542 C237.341,325.542 238.445,326.646 238.445,328.008 C238.445,329.371 237.341,330.475 235.979,330.475 z" fill="#000000"/>
    <path d="M237.695,353.475 C236.333,353.475 235.229,352.371 235.229,351.008 C235.229,349.646 236.333,348.542 237.695,348.542 C239.057,348.542 240.162,349.646 240.162,351.008 C240.162,352.371 239.057,353.475 237.695,353.475 z" fill="#000000"/>
    <path d="M272.912,380.875 C271.55,380.875 270.445,379.771 270.445,378.408 C270.445,377.046 271.55,375.942 272.912,375.942 C274.274,375.942 275.379,377.046 275.379,378.408 C275.379,379.771 274.274,380.875 272.912,380.875 z" fill="#000000"/>
    <path d="M188.645,320.437 C187.283,320.437 186.179,319.333 186.179,317.971 C186.179,316.609 187.283,315.504 188.645,315.504 C190.007,315.504 191.112,316.609 191.112,317.971 C191.112,319.333 190.007,320.437 188.645,320.437 z" fill="#000000"/>
    <path d="M166.979,335.408 C165.616,335.408 164.512,334.304 164.512,332.942 C164.512,331.579 165.616,330.475 166.979,330.475 C168.341,330.475 169.445,331.579 169.445,332.942 C169.445,334.304 168.341,335.408 166.979,335.408 z" fill="#000000"/>
    <path d="M184.645,335.408 C183.283,335.408 182.179,334.304 182.179,332.942 C182.179,331.579 183.283,330.475 184.645,330.475 C186.007,330.475 187.112,331.579 187.112,332.942 C187.112,334.304 186.007,335.408 184.645,335.408 z" fill="#000000"/>
    <path d="M155.979,335.408 C154.616,335.408 153.512,334.304 153.512,332.942 C153.512,331.579 154.616,330.475 155.979,330.475 C157.341,330.475 158.445,331.579 158.445,332.942 C158.445,334.304 157.341,335.408 155.979,335.408 z" fill="#000000"/>
    <path d="M140.979,335.408 C139.616,335.408 138.512,334.304 138.512,332.942 C138.512,331.579 139.616,330.475 140.979,330.475 C142.341,330.475 143.445,331.579 143.445,332.942 C143.445,334.304 142.341,335.408 140.979,335.408 z" fill="#000000"/>
    <path d="M130.354,335.408 C128.991,335.408 127.887,334.304 127.887,332.942 C127.887,331.579 128.991,330.475 130.354,330.475 C131.716,330.475 132.82,331.579 132.82,332.942 C132.82,334.304 131.716,335.408 130.354,335.408 z" fill="#000000"/>
    <path d="M160.912,318.808 C159.55,318.808 158.445,317.704 158.445,316.342 C158.445,314.979 159.55,313.875 160.912,313.875 C162.274,313.875 163.379,314.979 163.379,316.342 C163.379,317.704 162.274,318.808 160.912,318.808 z" fill="#000000"/>
    <path d="M129.604,383.5 C128.241,383.5 127.137,382.396 127.137,381.033 C127.137,379.671 128.241,378.567 129.604,378.567 C130.966,378.567 132.07,379.671 132.07,381.033 C132.07,382.396 130.966,383.5 129.604,383.5 z" fill="#000000"/>
    <path d="M141.912,383 C140.55,383 139.445,381.896 139.445,380.533 C139.445,379.171 140.55,378.067 141.912,378.067 C143.274,378.067 144.379,379.171 144.379,380.533 C144.379,381.896 143.274,383 141.912,383 z" fill="#000000"/>
    <path d="M205.979,425.5 C204.616,425.5 203.512,424.396 203.512,423.033 C203.512,421.671 204.616,420.567 205.979,420.567 C207.341,420.567 208.445,421.671 208.445,423.033 C208.445,424.396 207.341,425.5 205.979,425.5 z" fill="#000000"/>
    <path d="M221.412,400.875 C220.05,400.875 218.945,399.771 218.945,398.408 C218.945,397.046 220.05,395.942 221.412,395.942 C222.774,395.942 223.879,397.046 223.879,398.408 C223.879,399.771 222.774,400.875 221.412,400.875 z" fill="#000000"/>
    <path d="M257.979,451.625 C256.616,451.625 255.512,450.521 255.512,449.158 C255.512,447.796 256.616,446.692 257.979,446.692 C259.341,446.692 260.445,447.796 260.445,449.158 C260.445,450.521 259.341,451.625 257.979,451.625 z" fill="#000000"/>
    <path d="M271.354,395.942 C269.991,395.942 268.887,394.837 268.887,393.475 C268.887,392.113 269.991,391.008 271.354,391.008 C272.716,391.008 273.82,392.113 273.82,393.475 C273.82,394.837 272.716,395.942 271.354,395.942 z" fill="#000000"/>
    <path d="M399.354,412.375 C397.991,412.375 396.887,411.271 396.887,409.908 C396.887,408.546 397.991,407.442 399.354,407.442 C400.716,407.442 401.82,408.546 401.82,409.908 C401.82,411.271 400.716,412.375 399.354,412.375 z" fill="#000000"/>
    <path d="M510.229,398.25 C508.866,398.25 507.762,397.146 507.762,395.783 C507.762,394.421 508.866,393.317 510.229,393.317 C511.591,393.317 512.695,394.421 512.695,395.783 C512.695,397.146 511.591,398.25 510.229,398.25 z" fill="#000000"/>
    <path d="M510.229,357.25 C508.866,357.25 507.762,356.146 507.762,354.783 C507.762,353.421 508.866,352.317 510.229,352.317 C511.591,352.317 512.695,353.421 512.695,354.783 C512.695,356.146 511.591,357.25 510.229,357.25 z" fill="#000000"/>
    <path d="M476.479,268.875 C475.116,268.875 474.012,267.771 474.012,266.408 C474.012,265.046 475.116,263.942 476.479,263.942 C477.841,263.942 478.945,265.046 478.945,266.408 C478.945,267.771 477.841,268.875 476.479,268.875 z" fill="#000000"/>
    <path d="M463.927,277.226 C462.565,277.226 461.46,276.122 461.46,274.76 C461.46,273.397 462.565,272.293 463.927,272.293 C465.289,272.293 466.394,273.397 466.394,274.76 C466.394,276.122 465.289,277.226 463.927,277.226 z" fill="#000000"/>
    <path d="M423.104,263.492 C421.741,263.492 420.637,262.387 420.637,261.025 C420.637,259.663 421.741,258.558 423.104,258.558 C424.466,258.558 425.57,259.663 425.57,261.025 C425.57,262.387 424.466,263.492 423.104,263.492 z" fill="#000000"/>
    <path d="M494.945,213.375 C493.583,213.375 492.478,212.271 492.478,210.908 C492.478,209.546 493.583,208.442 494.945,208.442 C496.307,208.442 497.412,209.546 497.412,210.908 C497.412,212.271 496.307,213.375 494.945,213.375 z" fill="#000000"/>
    <path d="M299.454,198.958 C298.092,198.958 296.988,197.854 296.988,196.492 C296.988,195.129 298.092,194.025 299.454,194.025 C300.817,194.025 301.921,195.129 301.921,196.492 C301.921,197.854 300.817,198.958 299.454,198.958 z" fill="#000000"/>
    <path d="M261.812,223.125 C260.45,223.125 259.345,222.021 259.345,220.658 C259.345,219.296 260.45,218.192 261.812,218.192 C263.174,218.192 264.279,219.296 264.279,220.658 C264.279,222.021 263.174,223.125 261.812,223.125 z" fill="#000000"/>
    <path d="M263.854,239.875 C262.491,239.875 261.387,238.771 261.387,237.408 C261.387,236.046 262.491,234.942 263.854,234.942 C265.216,234.942 266.32,236.046 266.32,237.408 C266.32,238.771 265.216,239.875 263.854,239.875 z" fill="#000000"/>
    <path d="M244.979,221.375 C243.616,221.375 242.512,220.271 242.512,218.908 C242.512,217.546 243.616,216.442 244.979,216.442 C246.341,216.442 247.445,217.546 247.445,218.908 C247.445,220.271 246.341,221.375 244.979,221.375 z" fill="#000000"/>
    <path d="M263.854,194.025 C262.491,194.025 261.387,192.921 261.387,191.558 C261.387,190.196 262.491,189.092 263.854,189.092 C265.216,189.092 266.32,190.196 266.32,191.558 C266.32,192.921 265.216,194.025 263.854,194.025 z" fill="#000000"/>
    <path d="M271.82,195.875 L287.32,195.875 L287.32,199.75 L271.82,199.75 z" fill="#000000"/>
    <path d="M241.729,164.5 C240.366,164.5 239.262,163.396 239.262,162.033 C239.262,160.671 240.366,159.567 241.729,159.567 C243.091,159.567 244.195,160.671 244.195,162.033 C244.195,163.396 243.091,164.5 241.729,164.5 z" fill="#000000"/>
    <path d="M192.354,189.875 C190.991,189.875 189.887,188.771 189.887,187.408 C189.887,186.046 190.991,184.942 192.354,184.942 C193.716,184.942 194.82,186.046 194.82,187.408 C194.82,188.771 193.716,189.875 192.354,189.875 z" fill="#000000"/>
    <path d="M225.479,169.125 C220.803,169.125 217.012,165.334 217.012,160.658 C217.012,155.982 220.803,152.192 225.479,152.192 C230.155,152.192 233.945,155.982 233.945,160.658 C233.945,165.334 230.155,169.125 225.479,169.125 z" fill="#000000"/>
    <g>
      <path d="M322.985,404.375 L390.171,404.375" fill="#000000"/>
      <path d="M322.985,404.375 L390.171,404.375" fill-opacity="0" stroke="#000000" stroke-width="3"/>
    </g>
    <g>
      <path d="M409.644,404.375 L492.945,404.375" fill="#000000"/>
      <path d="M409.644,404.375 L492.945,404.375" fill-opacity="0" stroke="#000000" stroke-width="3"/>
    </g>
  </g>
  <g id="Code" display="none">
    <g>
      <path d="M79.345,148.168 L128.471,179.985 L128.471,163.058 L94.745,141.932 L94.745,141.422 L128.471,120.296 L128.471,103.369 L79.345,135.186 z" fill="#000000"/>
      <path d="M173.015,151.477 L185.233,151.477 L187.778,115.587 L188.415,98.66 L169.833,98.66 L170.47,115.587 z M166.397,172.476 C166.397,180.112 171.87,185.458 179.124,185.458 C186.378,185.458 191.851,180.112 191.851,172.476 C191.851,164.967 186.378,159.749 179.124,159.749 C171.87,159.749 166.397,164.967 166.397,172.476 z" fill="#000000"/>
      <path d="M226.214,148.55 L284.758,148.55 L284.758,135.314 L226.214,135.314 z" fill="#000000"/>
      <path d="M302.575,148.55 L361.119,148.55 L361.119,135.314 L302.575,135.314 z" fill="#000000"/>
      <path d="M153.137,313.575 C153.137,334.575 168.409,346.665 188.263,346.665 C196.917,346.665 206.717,343.738 214.353,337.375 L206.717,325.539 C202.263,328.72 196.663,331.52 190.045,331.52 C179.609,331.52 172.354,324.521 172.354,313.575 C172.354,302.63 179.863,295.63 190.681,295.63 C195.39,295.63 199.845,297.158 204.681,300.594 L213.335,289.012 C207.99,284.049 199.59,280.485 189.663,280.485 C170.191,280.485 153.137,292.576 153.137,313.575 z" fill="#000000"/>
      <path d="M226.953,313.575 C226.953,334.575 242.48,346.665 259.152,346.665 C275.824,346.665 291.351,334.575 291.351,313.575 C291.351,292.576 275.824,280.485 259.152,280.485 C242.48,280.485 226.953,292.576 226.953,313.575 z M246.171,313.575 C246.171,302.63 250.498,295.63 259.152,295.63 C267.806,295.63 272.134,302.63 272.134,313.575 C272.134,324.521 267.806,331.52 259.152,331.52 C250.498,331.52 246.171,324.521 246.171,313.575 z" fill="#000000"/>
      <path d="M303.314,313.575 C303.314,334.193 313.878,346.665 329.914,346.665 C336.277,346.665 342.768,343.229 347.477,338.647 L347.859,338.647 L349.259,345.138 L364.531,345.138 L364.531,255.922 L345.822,255.922 L345.822,277.431 L346.459,287.231 C342.004,283.158 337.55,280.485 330.296,280.485 C316.55,280.485 303.314,292.958 303.314,313.575 z M322.532,313.321 C322.532,301.358 328.387,295.758 335.259,295.758 C338.95,295.758 342.386,296.903 345.822,299.958 L345.822,325.539 C342.513,329.739 338.95,331.393 334.75,331.393 C326.987,331.393 322.532,325.793 322.532,313.321 z" fill="#000000"/>
      <path d="M380.694,313.575 C380.694,334.448 396.094,346.665 415.693,346.665 C424.093,346.665 433.511,343.865 440.638,339.284 L434.529,328.084 C428.929,330.884 423.966,332.411 418.239,332.411 C408.948,332.411 401.185,328.466 399.912,319.048 L442.42,319.048 C442.674,317.521 443.183,314.084 443.183,310.775 C443.183,293.594 433.002,280.485 413.53,280.485 C396.73,280.485 380.694,292.958 380.694,313.575 z M399.657,306.703 C401.312,298.558 407.166,294.74 413.911,294.74 C422.439,294.74 426.257,299.576 426.257,306.703 z" fill="#000000"/>
      <path d="M314.242,469.904 L372.786,469.904 L372.786,456.668 L314.242,456.668 z" fill="#000000"/>
      <path d="M390.603,469.904 L449.147,469.904 L449.147,456.668 L390.603,456.668 z" fill="#000000"/>
      <path d="M519.654,456.541 L470.528,424.724 L470.528,441.651 L504.255,462.777 L504.255,463.286 L470.528,484.413 L470.528,501.34 L519.654,469.523 z" fill="#000000"/>
    </g>
  </g>
  <g id="Code_Copy">
    <g>
      <g>
        <path d="M80.263,121.054 L520.154,121.054 L520.154,405.291 L80.263,405.291 L80.263,121.054 z" fill="#000000"/>
        <path d="M80.263,121.054 L520.154,121.054 L520.154,405.291 L80.263,405.291 L80.263,121.054 z" fill-opacity="0" stroke="#000000" stroke-width="1"/>
      </g>
      <g>
        <path d="M264.709,353.291 L335.709,353.291 L335.709,467.291 L264.709,467.291 L264.709,353.291 z" fill="#000000"/>
        <path d="M264.709,353.291 L335.709,353.291 L335.709,467.291 L264.709,467.291 L264.709,353.291 z" fill-opacity="0" stroke="#000000" stroke-width="1"/>
      </g>
      <g>
        <path d="M175,467.291 L426,467.291 L426,479.946 L175,479.946 L175,467.291 z" fill="#000000"/>
        <path d="M175,467.291 L426,467.291 L426,479.946 L175,479.946 L175,467.291 z" fill-opacity="0" stroke="#000000" stroke-width="1"/>
      </g>
      <path d="M103.709,142.173 L495.709,142.173 L495.709,383.173 L103.709,383.173 L103.709,142.173 z" fill="#616264"/>
      <text transform="matrix(1, 0, 0, 1, 299.5, 238.5)">
        <tspan x="-184.29" y="-76.5" font-family="SourceCodePro-Bold" font-size="12" fill="#FFFFFF">Last login: Fri Aug 22 07:05:14 on console</tspan>
        <tspan x="-184.29" y="-61.5" font-family="SourceCodePro-Bold" font-size="12" fill="#FFFFFF">Mac/Linux:~ stevencombs$ python</tspan>
        <tspan x="-184.29" y="-31.5" font-family="SourceCodePro-Bold" font-size="12" fill="#FFFFFF">Python 2.7.5 (default, Mar  9 2014, 22:15:05) </tspan>
        <tspan x="-184.29" y="-16.5" font-family="SourceCodePro-Bold" font-size="12" fill="#FFFFFF">[GCC 4.2.1 Compatible Apple LLVM 5.0 </tspan>
        <tspan x="-184.29" y="-1.5" font-family="SourceCodePro-Bold" font-size="12" fill="#FFFFFF">(clang-500.0.68)] on darwin</tspan>
        <tspan x="-184.29" y="13.5" font-family="SourceCodePro-Bold" font-size="12" fill="#FFFFFF">Type "help", "copyright", "credits" or "license" </tspan>
        <tspan x="-184.29" y="28.5" font-family="SourceCodePro-Bold" font-size="12" fill="#FFFFFF">for more information.</tspan>
        <tspan x="-184.29" y="43.5" font-family="SourceCodePro-Bold" font-size="12" fill="#FFFFFF">&gt;&gt;&gt; print </tspan>
        <tspan x="-112.29" y="43.5" font-family="SourceCodePro-Bold" font-size="12" fill="#FFFFFF">“Hello World!”_</tspan>
      </text>
    </g>
  </g>
  <g id="Blog" display="none">
    <g>
      <path d="M113.683,424.213 L419.153,118.743 L468.651,168.24 L163.181,473.71 z" fill="#000000"/>
      <path d="M427.639,110.257 L453.094,84.801 L502.592,134.299 L477.136,159.755 z" fill="#000000"/>
      <path d="M110.683,427.213 L93.601,495.224 L160.181,476.71 L110.683,427.213 z" fill="#000000"/>
    </g>
    <path d="M97.839,508.386 L98.999,508.376 L101.326,508.293 L103.622,508.13 L105.877,507.893 L108.096,507.589 L110.287,507.225 L113.523,506.582 L117.787,505.571 L122.028,504.433 L126.28,503.219 L130.579,501.977 L132.757,501.362 L132.757,501.362 C132.758,501.362 132.76,501.361 132.761,501.361 L132.761,501.361 L135.222,500.652 L140.123,499.12 L147.403,496.635 L157.027,493.221 L164.227,490.792 L169.035,489.324 L173.865,488.031 L177.502,487.204 L179.934,486.733 L182.38,486.331 L184.835,486.004 L187.301,485.758 L189.778,485.599 L192.266,485.532 L194.765,485.562 L197.274,485.695 L199.792,485.934 L202.317,486.285 L204.849,486.752 L207.386,487.337 L209.926,488.043 L211.149,488.428 L211.087,488.408 L212.396,488.838 L215.103,489.75 L217.965,490.738 L220.983,491.798 L224.145,492.921 L227.439,494.097 L230.852,495.317 L234.374,496.573 L237.994,497.854 L241.7,499.153 L247.39,501.109 L255.172,503.691 L263.106,506.178 L271.099,508.496 L277.093,510.082 L281.069,511.049 L284.995,511.929 L288.875,512.716 L292.699,513.4 L296.454,513.973 L300.128,514.425 L303.711,514.746 L307.192,514.927 L310.558,514.96 L313.798,514.834 L316.147,514.629 L317.669,514.438 L319.145,514.203 L320.582,513.922 L321.978,513.594 L323.332,513.218 L323.999,513.01 L323.999,513.01 C324.004,513.008 324.008,513.007 324.012,513.005 L324.012,513.005 L325.733,512.427 L329.143,511.162 L332.497,509.77 L335.792,508.26 L339.033,506.64 L342.223,504.919 L345.369,503.105 L348.472,501.207 L351.538,499.232 L354.571,497.19 L359.066,494.018 L364.981,489.629 L370.838,485.117 L376.666,480.549 L382.498,475.992 L388.365,471.512 L392.806,468.244 L395.793,466.125 L398.808,464.061 L401.853,462.063 L404.933,460.138 L408.05,458.295 L411.209,456.542 L414.413,454.887 L417.666,453.338 L420.973,451.904 L422.642,451.235 L422.628,451.241 L424.043,450.72 L426.874,449.865 L429.726,449.234 L432.607,448.813 L435.511,448.588 L438.434,448.549 L441.373,448.682 L444.325,448.975 L447.286,449.418 L450.255,449.998 L453.231,450.704 L456.213,451.526 L459.2,452.454 L462.194,453.477 L465.192,454.587 L468.196,455.774 L472.733,457.688 L478.762,460.411 L484.748,463.251 L490.693,466.135 L495.112,468.276 L498.044,469.677 L500.949,471.038 L503.829,472.35 L506.68,473.601 L509.5,474.778 L512.284,475.869 L515.029,476.862 L516.422,477.33 L516.422,477.33 C517.569,477.713 518.164,477.454 517.751,476.75 C517.339,476.047 516.075,475.166 514.928,474.782 C514.928,474.782 514.928,474.782 514.928,474.782 L513.762,474.394 L511.298,473.507 L508.758,472.514 L506.147,471.426 L503.464,470.251 L500.716,469 L497.906,467.683 L495.04,466.314 L490.627,464.176 L484.573,461.24 L478.356,458.293 L472.034,455.442 L467.24,453.423 L464.005,452.148 L460.757,450.949 L457.503,449.841 L454.251,448.836 L451.005,447.946 L447.773,447.185 L444.56,446.563 L441.373,446.092 L438.216,445.784 L435.094,445.647 L432.009,445.694 L428.964,445.934 L425.963,446.378 L423.007,447.035 L420.11,447.913 L418.693,448.434 L418.693,448.434 C418.688,448.436 418.683,448.438 418.679,448.439 L418.679,448.439 L416.982,449.12 L413.644,450.568 L410.364,452.13 L407.136,453.797 L403.957,455.562 L400.823,457.416 L397.729,459.35 L394.672,461.357 L391.646,463.427 L388.649,465.554 L384.197,468.83 L378.324,473.314 L372.491,477.872 L366.668,482.436 L360.822,486.941 L354.92,491.32 L350.439,494.482 L347.42,496.516 L344.369,498.48 L341.284,500.368 L338.16,502.17 L334.994,503.878 L331.783,505.484 L328.521,506.979 L325.207,508.357 L321.829,509.609 L320.108,510.188 L320.121,510.184 L319.494,510.38 L318.196,510.742 L316.857,511.058 L315.481,511.328 L314.066,511.555 L312.623,511.737 L310.39,511.934 L307.286,512.058 L304.06,512.03 L300.722,511.859 L297.28,511.553 L293.745,511.121 L290.129,510.571 L286.44,509.912 L282.689,509.153 L278.887,508.302 L275.057,507.372 L269.248,505.837 L261.439,503.575 L253.655,501.136 L245.976,498.589 L240.342,496.652 L236.668,495.365 L233.07,494.091 L229.557,492.839 L226.14,491.617 L222.829,490.435 L219.633,489.3 L216.563,488.222 L213.628,487.208 L210.85,486.273 L209.54,485.843 L209.54,485.843 C209.519,485.837 209.498,485.83 209.478,485.824 L209.478,485.824 L207.978,485.357 L205.114,484.568 L202.304,483.926 L199.541,483.423 L196.823,483.049 L194.144,482.798 L191.501,482.661 L188.89,482.631 L186.308,482.703 L183.752,482.868 L181.218,483.122 L178.706,483.457 L176.212,483.868 L173.731,484.35 L170.04,485.19 L165.165,486.496 L160.323,487.974 L153.105,490.41 L143.494,493.819 L136.245,496.294 L131.372,497.818 L128.91,498.527 L128.914,498.526 L126.729,499.143 L122.433,500.384 L118.202,501.592 L114.002,502.72 L109.793,503.718 L106.61,504.352 L104.472,504.708 L102.315,505.004 L100.134,505.235 L97.927,505.394 L95.675,505.475 L94.514,505.485 C94.514,505.485 94.514,505.485 94.514,505.485 C93.713,505.492 93.807,506.147 94.726,506.948 C95.644,507.749 97.038,508.393 97.839,508.386 L97.839,508.386" fill="#000000"/>
  </g>
  <g id="Apple" display="none">
    <path d="M420.051,313.463 C420.669,380.033 478.45,402.186 479.09,402.468 C478.602,404.031 469.858,434.038 448.649,465.033 C430.314,491.831 411.285,518.53 381.31,519.083 C351.855,519.625 342.384,501.616 308.709,501.616 C275.045,501.616 264.522,518.53 236.64,519.625 C207.706,520.72 185.672,490.648 167.185,463.949 C129.41,409.335 100.541,309.623 139.304,242.316 C158.561,208.891 192.974,187.725 230.326,187.183 C258.739,186.641 285.557,206.298 302.927,206.298 C320.285,206.298 352.875,182.658 387.135,186.13 C401.478,186.727 441.738,191.924 467.59,229.764 C465.507,231.056 419.552,257.809 420.051,313.463 M364.695,149.998 C380.057,131.404 390.396,105.519 387.575,79.763 C365.433,80.653 338.658,94.518 322.775,113.102 C308.542,129.56 296.076,155.9 299.44,181.146 C324.12,183.056 349.333,168.605 364.695,149.998" fill="#000000"/>
  </g>
  <g id="About" display="none">
    <path d="M300,80.521 C355.781,80.521 401,125.74 401,181.521 C400.763,203.976 393.619,226.581 379.212,244.038 L379.102,244.89 C378.669,247.149 377.991,248.163 377,250 C372.867,257.315 366.51,268.683 372.899,276.651 C377.234,282.058 385.204,282.797 391.585,283.046 C397.193,282.477 394.168,282.685 400.667,282.521 L400.951,282.528 L401,282.521 L400.992,282.529 C457.658,283.327 500.249,327.45 501.667,383.521 L501.667,519.654 L97.667,519.654 L97.667,383.521 C97.667,327.74 142.886,282.521 198.667,282.521 C208.632,282.082 222.636,282.461 229.526,273.634 C235.001,266.62 230.769,257.11 226.511,250.704 C208.29,232.406 199.642,206.908 199,181.521 C199,125.74 244.219,80.521 300,80.521 L300,80.521 z M333.073,250.121 L266.712,250.121 L266.712,477.468 L333.073,477.468 L333.073,250.121 z M299.667,146.532 C277.546,146.532 261.295,160.741 261.295,181.367 C261.295,201.994 277.546,216.661 299.667,216.661 C322.238,216.661 338.039,201.994 338.039,181.367 C338.039,160.741 322.238,146.532 299.667,146.532 z" fill="#000000"/>
  </g>
  <g id="More" display="none">
    <path d="M80.263,80.263 L520.154,80.263 L520.154,520.154 L80.263,520.154 z" fill-opacity="0" stroke="#000000" stroke-width="10"/>
    <path d="M80.263,80.263 L520.154,520.154" fill-opacity="0" stroke="#000000" stroke-width="2"/>
    <path d="M80.263,520.154 L520.154,80.263" fill-opacity="0" stroke="#000000" stroke-width="2"/>
  </g>
</svg>
