<?xml version="1.0" encoding="UTF-8"?>
<!DOCTYPE svg PUBLIC "-//W3C//DTD SVG 1.1//EN" "http://www.w3.org/Graphics/SVG/1.1/DTD/svg11.dtd">
<svg version="1.1" xmlns="http://www.w3.org/2000/svg" xmlns:xlink="http://www.w3.org/1999/xlink" x="0" y="0" width="600" height="600" viewBox="0, 0, 600, 600">
  <g id="Background">
    <rect x="0" y="0" width="600" height="600" fill="#FFFFFF"/>
  </g>
  <g id="Square">
    <path d="M50,50 L550,50 L550,550 L50,550 z" fill="#EEEEEE"/>
  </g>
  <g id="Commodore">
    <path d="M292.905,56.391 C158.368,56.391 49.223,165.535 49.223,300.072 C49.223,434.609 158.368,543.609 292.905,543.609 C318.777,543.609 343.748,539.502 367.138,532.033 L367.138,410.482 C346.939,422.226 323.301,429.004 297.969,429.004 C223.938,429.004 163.973,371.284 163.973,300.072 C163.973,228.861 223.938,171.141 297.969,171.141 C323.301,171.141 346.939,177.919 367.138,189.663 L367.138,67.967 C343.748,60.49 318.777,56.391 292.905,56.391 z" fill="#464646" id="path3002"/>
    <path d="M369.287,207.398 L369.287,207.398 L550.777,207.398 L469.605,291.934 L369.287,291.934 z" fill="#464646" id="polygon9367"/>
    <path d="M369.287,393.6 L369.287,393.6 L550.777,393.6 L469.605,309.064 L369.287,309.064 z" fill="#8C8C8C" id="polygon9369"/>
  </g>
  <g id="Writing" display="none">
    <g>
      <path d="M141,74.548 L459,74.548 L459,525.452 L141,525.452 L141,74.548 z" fill="#FFFFFF"/>
      <path d="M141,74.548 L459,74.548 L459,525.452 L141,525.452 L141,74.548 z" fill-opacity="0" stroke="#000000" stroke-width="1"/>
    </g>
    <g>
      <path d="M373.64,519.304 L364.448,537.491 L353.863,532.141 L363.055,513.954 L373.64,519.304 z" fill="#616264"/>
      <path d="M468.995,337.006 L375.877,521.24 L360.171,513.301 L453.289,329.067 L468.995,337.006 z" fill="#000000"/>
      <path d="M381.691,509.737 L380.075,512.934 L364.369,504.995 L365.985,501.798 L381.691,509.737 z" fill="#616264"/>
      <path d="M468.995,337.006 L453.289,329.067 L472.221,310.394 L468.995,337.006 z" fill="#616264"/>
    </g>
    <text transform="matrix(1, 0, 0, 1, 300, 332)">
      <tspan x="-137.125" y="-177.5" font-family="BradleyHandITCTT-Bold" font-size="14" fill="#000000">Lorem ipsum dolor sit amet, consectetur </tspan>
      <tspan x="-137.125" y="-159.5" font-family="BradleyHandITCTT-Bold" font-size="14" fill="#000000">adipiscing elit. Sed ut elit nulla. </tspan>
      <tspan x="-137.125" y="-141.5" font-family="BradleyHandITCTT-Bold" font-size="14" fill="#000000">Suspendisse potenti. Morbi condimentum </tspan>
      <tspan x="-137.125" y="-123.5" font-family="BradleyHandITCTT-Bold" font-size="14" fill="#000000">augue a dolor suscipit, at viverra augue </tspan>
      <tspan x="-137.125" y="-105.5" font-family="BradleyHandITCTT-Bold" font-size="14" fill="#000000">convallis. Aliquam tincidunt iaculis diam </tspan>
      <tspan x="-137.125" y="-87.5" font-family="BradleyHandITCTT-Bold" font-size="14" fill="#000000">non tincidunt. Proin sed egestas mauris. </tspan>
      <tspan x="-137.125" y="-69.5" font-family="BradleyHandITCTT-Bold" font-size="14" fill="#000000">Aenean scelerisque vehicula elit quis porta. </tspan>
      <tspan x="-137.125" y="-51.5" font-family="BradleyHandITCTT-Bold" font-size="14" fill="#000000">Duis eu laoreet sapien. Sed faucibus pharetra </tspan>
      <tspan x="-137.125" y="-33.5" font-family="BradleyHandITCTT-Bold" font-size="14" fill="#000000">finibus. Praesent in fringilla odio, sit amet </tspan>
      <tspan x="-137.125" y="-15.5" font-family="BradleyHandITCTT-Bold" font-size="14" fill="#000000">finibus ante.</tspan>
      <tspan x="-137.125" y="15.5" font-family="BradleyHandITCTT-Bold" font-size="14" fill="#000000">Suspendisse sed malesuada diam. Maecenas </tspan>
      <tspan x="-137.125" y="33.5" font-family="BradleyHandITCTT-Bold" font-size="14" fill="#000000">vel facilisis libero, ut posuere nisl. </tspan>
      <tspan x="-137.125" y="51.5" font-family="BradleyHandITCTT-Bold" font-size="14" fill="#000000">Suspendisse sit amet diam vitae ipsum </tspan>
      <tspan x="-137.125" y="69.5" font-family="BradleyHandITCTT-Bold" font-size="14" fill="#000000">dignissim tincidunt. In in gravida augue. </tspan>
      <tspan x="-137.125" y="87.5" font-family="BradleyHandITCTT-Bold" font-size="14" fill="#000000">Nunc volutpat enim pretium ipsum </tspan>
      <tspan x="-137.125" y="105.5" font-family="BradleyHandITCTT-Bold" font-size="14" fill="#000000">commodo semper. Integer pharetra </tspan>
      <tspan x="-137.125" y="123.5" font-family="BradleyHandITCTT-Bold" font-size="14" fill="#000000">vestibulum neque, non aliquam erat </tspan>
      <tspan x="-137.125" y="141.5" font-family="BradleyHandITCTT-Bold" font-size="14" fill="#000000">venenatis in. Aliquam volutpat mattis </tspan>
      <tspan x="-137.125" y="159.5" font-family="BradleyHandITCTT-Bold" font-size="14" fill="#000000">dictum. Curabitur vitae orci quis velit </tspan>
      <tspan x="-137.125" y="177.5" font-family="BradleyHandITCTT-Bold" font-size="14" fill="#000000">pulvinar laoreet dictum ut mi.</tspan>
    </text>
    <text transform="matrix(1, 0, 0, 1, 300, 109)">
      <tspan x="-60.156" y="7.5" font-family="MarkerFelt-Wide" font-size="24" fill="#616264">CHAPTER 1</tspan>
    </text>
    <path d="M162.875,129.5 L437.125,129.5" fill-opacity="0" stroke="#000000" stroke-width="1"/>
  </g>
  <g id="Art" display="none">
    <g>
      <path d="M474.104,492.482 L508.714,499.511 L504.622,519.654 L470.013,512.625 L474.104,492.482 z" fill="#616264"/>
      <path d="M125.719,416.648 L476.314,487.856 L470.243,517.746 L119.648,446.537 L125.719,416.648 z" fill="#000000"/>
      <path d="M454.424,483.41 L460.508,484.646 L454.437,514.536 L448.353,513.3 L454.424,483.41 z" fill="#616264"/>
      <path d="M125.719,416.648 L119.648,446.537 L79.763,423.451 L125.719,416.648 z" fill="#616264"/>
    </g>
    <path d="M95.644,240.46 C123.885,191.972 161.295,136.133 213.061,111.699 C243.529,98.48 247.228,90.223 299.108,87.965 C342.424,86.079 391.434,97.733 413.231,109.764 C425.071,116.299 457.576,127.375 485.924,166.194 C518.428,210.703 521.277,231.192 517.932,288.561 C514.586,345.93 477.51,397.553 447.153,424.564 C416.796,451.576 365.142,456.534 324.112,423.588 C283.081,390.643 261.311,355.455 244.64,343.678 C227.969,331.902 214.629,337.412 206.12,348.162 C197.727,358.767 178.484,382.683 155.004,389.462 C133.566,395.65 80.524,358.996 79.795,320.486 C78.941,275.389 95.485,240.753 95.485,240.753 L95.644,240.46 z M135.52,256.844 C120.481,284.09 122.72,314.143 140.521,323.968 C158.322,333.794 184.944,319.672 199.983,292.425 C215.023,265.179 212.784,235.126 194.983,225.3 C177.182,215.475 150.56,229.597 135.52,256.844 z" fill="#616264"/>
    <path d="M307.577,169.018 C307.577,169.018 309.734,157.336 316.154,156.589 C320.173,156.121 312.618,144.339 313.481,139.666 C314.344,134.993 320.811,124.831 323.805,125.626 C326.799,126.42 327.162,125.763 331.54,125.605 C335.919,125.447 348.327,126.288 352.773,124.452 C357.22,122.615 376.864,127.451 383.894,136.48 C390.925,145.51 392.604,145.579 393.804,157.398 C395.004,169.216 381.643,166.991 378.58,167.875 C375.518,168.759 365.219,165.649 362.315,170.912 C359.41,176.174 359.431,183.909 358.274,187.561 C357.116,191.213 355.959,194.865 350.56,195.318 C345.161,195.771 340.24,184.473 334.183,184.562 C328.127,184.652 326.516,182.905 319.802,182.632 C313.087,182.358 307.577,169.018 307.577,169.018 z" fill="#000000"/>
    <path d="M378.06,233.497 C378.06,233.497 371.217,213.243 392.602,203.42 C413.986,193.597 408.108,193.732 415.606,193.461 C418.233,193.366 436.39,188.456 452.585,202.029 C468.779,215.602 459.455,216.635 458.597,222.855 C457.738,229.075 460.854,231.825 462.392,233.703 C463.93,235.582 465.48,242.102 462.118,245.395 C458.755,248.688 455.487,254.608 457.461,255.697 C459.434,256.787 460.464,281.041 447.317,276.874 C434.17,272.707 433.967,262.811 426.399,265.328 C418.831,267.845 416.965,274.024 412.419,276.663 C407.872,279.303 400.863,278.008 395.896,271.148 C390.93,264.287 378.06,233.497 378.06,233.497 z" fill="#E1E1E1"/>
    <path d="M400.465,396.27 C400.465,396.27 352.218,381.997 360.297,342.174 C368.375,302.35 407.084,303.119 410.677,304.073 C414.27,305.026 427.418,309.194 433.486,318.722 C439.555,328.251 434.001,330.85 440.928,334.158 C447.856,337.467 449.27,342.367 453.817,339.728 C458.363,337.088 461.603,336.816 466.244,336.804 C470.885,336.791 471.346,345.284 466.582,348.318 C461.818,351.353 460.403,346.453 451.433,348.71 C442.463,350.968 432.076,363.257 433.573,366.142 C435.069,369.028 433.68,373.41 440.295,374.487 C446.909,375.564 449.7,387.358 441.858,385.648 C420.803,381.056 419.42,382.457 418.121,383.874 C404.364,398.886 400.465,396.27 400.465,396.27 z" fill="#464646"/>
  </g>
</svg>
