<svg version="1.1" viewBox="0.0 0.0 800.0 800.0" fill="none" stroke="none" stroke-linecap="square" stroke-miterlimit="10" xmlns:xlink="http://www.w3.org/1999/xlink" xmlns="http://www.w3.org/2000/svg"><clipPath id="g7a62f8dbcf_0_0.0"><path d="m0 0l800.0 0l0 800.0l-800.0 0l0 -800.0z" clip-rule="nonzero"/></clipPath><g clip-path="url(#g7a62f8dbcf_0_0.0)"><path fill="#ffffff" d="m0 0l800.0 0l0 800.0l-800.0 0z" fill-rule="evenodd"/><path fill="#eeeeee" d="m67.91253 67.12442l661.9803 0l0 665.61255l-661.9803 0z" fill-rule="evenodd"/><path fill="#414141" d="m-180.76903 157.50394l95.19422 0l0 23.650925l-95.19422 0z" fill-rule="evenodd"/><path fill="#000000" d="m-180.76903 127.5538l95.19422 0l0 23.65355l-95.19422 0z" fill-rule="evenodd"/><path fill="#d9d9d9" d="m-180.76903 217.47507l95.19422 0l0 23.65355l-95.19422 0z" fill-rule="evenodd"/><path fill="#999999" d="m-180.76903 187.52756l95.19422 0l0 23.650925l-95.19422 0z" fill-rule="evenodd"/><path fill="#eeeeee" d="m-180.76903 247.4252l95.19422 0l0 23.653534l-95.19422 0z" fill-rule="evenodd"/><path fill="#000000" d="m-162.62552 264.20822q-0.453125 0 -0.9375 -0.21875q-0.484375 -0.21875 -0.90625 -0.609375l-0.046875 0l-0.09375 0.671875l-0.875 0l0 -9.484375l1.09375 0l0 2.578125l-0.03125 1.171875q0.4375 -0.390625 0.953125 -0.640625q0.53125 -0.265625 1.078125 -0.265625q0.625 0 1.09375 0.234375q0.484375 0.234375 0.8125 0.671875q0.328125 0.4375 0.484375 1.046875q0.171875 0.59375 0.171875 1.34375q0 0.828125 -0.234375 1.484375q-0.21875 0.640625 -0.609375 1.09375q-0.375 0.453125 -0.890625 0.6875q-0.5 0.234375 -1.0625 0.234375zm-0.1875 -0.921875q0.40625 0 0.734375 -0.171875q0.34375 -0.1875 0.59375 -0.5q0.25 -0.328125 0.390625 -0.8125q0.140625 -0.484375 0.140625 -1.078125q0 -0.53125 -0.09375 -0.96875q-0.09375 -0.453125 -0.296875 -0.765625q-0.203125 -0.3125 -0.53125 -0.484375q-0.328125 -0.171875 -0.78125 -0.171875q-0.796875 0 -1.734375 0.875l0 3.40625q0.421875 0.375 0.84375 0.53125q0.421875 0.140625 0.734375 0.140625zm5.9962616 0.921875q-0.8125 0 -1.359375 -0.46875q-0.53125 -0.484375 -0.53125 -1.359375q0 -1.078125 0.9375 -1.640625q0.953125 -0.5625 3.046875 -0.796875q0 -0.296875 -0.0625 -0.59375q-0.0625 -0.296875 -0.21875 -0.515625q-0.140625 -0.234375 -0.40625 -0.375q-0.25 -0.140625 -0.65625 -0.140625q-0.5625 0 -1.0625 0.21875q-0.484375 0.21875 -0.859375 0.484375l-0.4375 -0.765625q0.453125 -0.296875 1.109375 -0.5625q0.65625 -0.28125 1.4375 -0.28125q1.1875 0 1.71875 0.734375q0.53125 0.71875 0.53125 1.9375l0 3.96875l-0.90625 0l-0.09375 -0.765625l-0.03125 0q-0.46875 0.375 -1.0 0.65625q-0.53125 0.265625 -1.15625 0.265625zm0.328125 -0.875q0.46875 0 0.875 -0.21875q0.421875 -0.21875 0.890625 -0.65625l0 -1.796875q-0.8125 0.109375 -1.375 0.265625q-0.546875 0.140625 -0.890625 0.34375q-0.34375 0.203125 -0.5 0.46875q-0.140625 0.25 -0.140625 0.546875q0 0.5625 0.328125 0.8125q0.328125 0.234375 0.8125 0.234375zm7.467346 0.875q-0.640625 0 -1.203125 -0.21875q-0.5625 -0.234375 -0.96875 -0.65625q-0.40625 -0.4375 -0.640625 -1.0625q-0.234375 -0.640625 -0.234375 -1.4375q0 -0.8125 0.25 -1.4375q0.265625 -0.640625 0.6875 -1.078125q0.421875 -0.453125 0.984375 -0.671875q0.578125 -0.234375 1.203125 -0.234375q0.640625 0 1.09375 0.234375q0.453125 0.21875 0.796875 0.53125l-0.5625 0.71875q-0.28125 -0.25 -0.59375 -0.40625q-0.3125 -0.171875 -0.703125 -0.171875q-0.4375 0 -0.8125 0.1875q-0.375 0.171875 -0.640625 0.515625q-0.265625 0.328125 -0.421875 0.796875q-0.140625 0.453125 -0.140625 1.015625q0 0.546875 0.140625 1.0q0.15625 0.453125 0.40625 0.78125q0.265625 0.328125 0.640625 0.515625q0.375 0.171875 0.8125 0.171875q0.453125 0 0.828125 -0.1875q0.375 -0.203125 0.6875 -0.46875l0.484375 0.734375q-0.453125 0.390625 -0.984375 0.609375q-0.53125 0.21875 -1.109375 0.21875zm3.5151062 -0.15625l0 -9.484375l1.078125 0l0 6.421875l0.046875 0l2.75 -3.421875l1.21875 0l-2.171875 2.609375l2.46875 3.875l-1.203125 0l-1.890625 -3.125l-1.21875 1.421875l0 1.703125l-1.078125 0zm8.651566 2.984375q-0.609375 0 -1.109375 -0.109375q-0.484375 -0.109375 -0.84375 -0.34375q-0.34375 -0.21875 -0.546875 -0.546875q-0.1875 -0.3125 -0.1875 -0.75q0 -0.40625 0.25 -0.78125q0.265625 -0.375 0.703125 -0.6875l0 -0.046875q-0.234375 -0.140625 -0.40625 -0.40625q-0.171875 -0.265625 -0.171875 -0.640625q0 -0.421875 0.21875 -0.71875q0.234375 -0.3125 0.484375 -0.484375l0 -0.046875q-0.3125 -0.28125 -0.578125 -0.71875q-0.25 -0.453125 -0.25 -1.03125q0 -0.53125 0.1875 -0.953125q0.1875 -0.4375 0.515625 -0.734375q0.34375 -0.296875 0.78125 -0.453125q0.453125 -0.171875 0.953125 -0.171875q0.265625 0 0.5 0.046875q0.234375 0.046875 0.421875 0.109375l2.25 0l0 0.84375l-1.328125 0q0.21875 0.234375 0.375 0.578125q0.15625 0.34375 0.15625 0.75q0 0.53125 -0.1875 0.953125q-0.1875 0.40625 -0.515625 0.703125q-0.3125 0.28125 -0.75 0.453125q-0.4375 0.15625 -0.921875 0.15625q-0.25 0 -0.5 -0.0625q-0.25 -0.0625 -0.46875 -0.171875q-0.1875 0.15625 -0.3125 0.34375q-0.109375 0.171875 -0.109375 0.4375q0 0.296875 0.234375 0.5q0.25 0.203125 0.90625 0.203125l1.265625 0q1.125 0 1.6875 0.375q0.578125 0.359375 0.578125 1.171875q0 0.453125 -0.234375 0.859375q-0.21875 0.40625 -0.65625 0.703125q-0.421875 0.3125 -1.03125 0.484375q-0.609375 0.1875 -1.359375 0.1875zm0 -5.765625q0.28125 0 0.515625 -0.109375q0.25 -0.109375 0.4375 -0.3125q0.203125 -0.203125 0.3125 -0.484375q0.109375 -0.28125 0.109375 -0.640625q0 -0.71875 -0.40625 -1.109375q-0.390625 -0.40625 -0.96875 -0.40625q-0.578125 0 -0.984375 0.40625q-0.390625 0.390625 -0.390625 1.109375q0 0.359375 0.109375 0.640625q0.109375 0.28125 0.296875 0.484375q0.1875 0.203125 0.4375 0.3125q0.25 0.109375 0.53125 0.109375zm0.15625 5.0q0.46875 0 0.84375 -0.109375q0.390625 -0.109375 0.65625 -0.296875q0.265625 -0.171875 0.40625 -0.421875q0.140625 -0.234375 0.140625 -0.484375q0 -0.453125 -0.328125 -0.625q-0.328125 -0.171875 -0.96875 -0.171875l-1.125 0q-0.1875 0 -0.40625 -0.03125q-0.21875 -0.015625 -0.4375 -0.078125q-0.34375 0.25 -0.5 0.53125q-0.15625 0.28125 -0.15625 0.5625q0 0.515625 0.5 0.8125q0.5 0.3125 1.375 0.3125zm4.373596 -2.21875l0 -6.484375l0.90625 0l0.09375 1.1875l0.03125 0q0.34375 -0.625 0.8125 -0.984375q0.46875 -0.359375 1.03125 -0.359375q0.390625 0 0.703125 0.140625l-0.21875 0.953125q-0.15625 -0.046875 -0.296875 -0.078125q-0.125 -0.03125 -0.328125 -0.03125q-0.421875 0 -0.875 0.34375q-0.4375 0.328125 -0.765625 1.15625l0 4.15625l-1.09375 0zm7.007141 0.15625q-0.59375 0 -1.140625 -0.21875q-0.53125 -0.234375 -0.953125 -0.65625q-0.40625 -0.4375 -0.65625 -1.0625q-0.25 -0.640625 -0.25 -1.4375q0 -0.8125 0.25 -1.4375q0.25 -0.640625 0.65625 -1.078125q0.421875 -0.453125 0.953125 -0.671875q0.546875 -0.234375 1.140625 -0.234375q0.609375 0 1.140625 0.234375q0.546875 0.21875 0.953125 0.671875q0.421875 0.4375 0.65625 1.078125q0.25 0.625 0.25 1.4375q0 0.796875 -0.25 1.4375q-0.234375 0.625 -0.65625 1.0625q-0.40625 0.421875 -0.953125 0.65625q-0.53125 0.21875 -1.140625 0.21875zm0 -0.90625q0.421875 0 0.765625 -0.171875q0.34375 -0.1875 0.59375 -0.515625q0.25 -0.328125 0.375 -0.78125q0.140625 -0.453125 0.140625 -1.0q0 -0.5625 -0.140625 -1.015625q-0.125 -0.46875 -0.375 -0.796875q-0.25 -0.34375 -0.59375 -0.515625q-0.34375 -0.1875 -0.765625 -0.1875q-0.40625 0 -0.765625 0.1875q-0.34375 0.171875 -0.59375 0.515625q-0.234375 0.328125 -0.375 0.796875q-0.125 0.453125 -0.125 1.015625q0 0.546875 0.125 1.0q0.140625 0.453125 0.375 0.78125q0.25 0.328125 0.59375 0.515625q0.359375 0.171875 0.765625 0.171875zm6.598816 0.90625q-1.03125 0 -1.515625 -0.640625q-0.46875 -0.640625 -0.46875 -1.890625l0 -4.109375l1.109375 0l0 3.96875q0 0.921875 0.28125 1.328125q0.28125 0.40625 0.921875 0.40625q0.515625 0 0.890625 -0.265625q0.390625 -0.265625 0.859375 -0.828125l0 -4.609375l1.09375 0l0 6.484375l-0.90625 0l-0.09375 -1.015625l-0.03125 0q-0.453125 0.53125 -0.953125 0.859375q-0.5 0.3125 -1.1875 0.3125zm5.359848 -0.15625l0 -6.484375l0.90625 0l0.09375 0.9375l0.03125 0q0.46875 -0.46875 0.984375 -0.78125q0.515625 -0.3125 1.203125 -0.3125q1.015625 0 1.484375 0.640625q0.484375 0.640625 0.484375 1.890625l0 4.109375l-1.09375 0l0 -3.953125q0 -0.921875 -0.296875 -1.328125q-0.296875 -0.40625 -0.9375 -0.40625q-0.5 0 -0.890625 0.25q-0.390625 0.25 -0.875 0.75l0 4.6875l-1.09375 0zm9.509201 0.15625q-1.234375 0 -1.96875 -0.875q-0.71875 -0.875 -0.71875 -2.5q0 -0.796875 0.234375 -1.421875q0.234375 -0.640625 0.609375 -1.078125q0.390625 -0.4375 0.890625 -0.671875q0.515625 -0.25 1.078125 -0.25q0.5625 0 0.96875 0.203125q0.421875 0.203125 0.84375 0.546875l-0.046875 -1.109375l0 -2.484375l1.09375 0l0 9.484375l-0.90625 0l-0.09375 -0.765625l-0.03125 0q-0.390625 0.375 -0.890625 0.65625q-0.5 0.265625 -1.0625 0.265625zm0.234375 -0.921875q0.453125 0 0.84375 -0.21875q0.40625 -0.21875 0.8125 -0.671875l0 -3.375q-0.421875 -0.375 -0.796875 -0.53125q-0.375 -0.15625 -0.78125 -0.15625q-0.390625 0 -0.734375 0.1875q-0.328125 0.171875 -0.59375 0.5q-0.25 0.328125 -0.390625 0.78125q-0.140625 0.453125 -0.140625 1.015625q0 1.171875 0.453125 1.828125q0.46875 0.640625 1.328125 0.640625z" fill-rule="nonzero"/><path fill="#000000" d="m392.28418 135.17815c-146.297 0 -264.9134 118.61641 -264.9134 264.9134c0 146.30035 118.6164 264.7303 264.9134 264.7303c28.143402 0 55.267975 -4.458069 80.717896 -12.541809l0 -132.17706c-22.013977 12.818176 -47.65033 20.156189 -75.2377 20.156189c-80.44153 0 -145.64777 -62.79242 -145.64777 -140.1676c0 -77.46506 65.20624 -140.16425 145.64777 -140.16425c27.587372 0 53.223724 7.337982 75.2377 20.156158l0 -132.36348c-25.44992 -8.083771 -52.574493 -12.54184 -80.717896 -12.54184z" fill-rule="evenodd"/><path fill="#414141" d="m475.3344 299.3147l0 91.95792l109.04773 0l88.24231 -91.95792z" fill-rule="evenodd"/><path fill="#999999" d="m475.3344 409.85333l0 91.95792l197.29004 0l-88.24231 -91.95792z" fill-rule="evenodd"/></g></svg>