<?xml version="1.0" encoding="UTF-8"?>
<!DOCTYPE svg PUBLIC "-//W3C//DTD SVG 1.1//EN" "http://www.w3.org/Graphics/SVG/1.1/DTD/svg11.dtd">
<svg version="1.1" xmlns="http://www.w3.org/2000/svg" xmlns:xlink="http://www.w3.org/1999/xlink" x="0" y="0" width="856.241" height="883.291" viewBox="0, 0, 856.241, 883.291">
  <g id="Layer_1" transform="translate(-531.879, -92.906)">
    <path d="M569.911,534.544 L569.911,534.544 C569.911,311.638 750.612,130.938 973.517,130.938 L973.517,130.938 C1080.56,130.938 1183.219,173.46 1258.91,249.151 C1334.601,324.842 1377.124,427.501 1377.124,534.544 L1377.124,534.544 C1377.124,757.45 1196.423,938.15 973.517,938.15 L973.517,938.15 C750.612,938.15 569.911,757.45 569.911,534.544 z M878.04,534.544 C878.04,587.275 920.787,630.021 973.517,630.021 C1026.248,630.021 1068.994,587.275 1068.994,534.544 C1068.994,481.814 1026.248,439.067 973.517,439.067 L973.517,439.067 C920.787,439.067 878.04,481.814 878.04,534.544 z" fill="#272727"/>
    <path d="M531.879,98.461 L531.879,98.461 C531.879,95.393 534.366,92.906 537.434,92.906 L861.978,92.906 C863.451,92.906 864.864,93.491 865.906,94.533 C866.948,95.575 867.533,96.988 867.533,98.461 L867.533,970.626 C867.533,973.694 865.046,976.181 861.978,976.181 L537.434,976.181 L537.434,976.181 C534.366,976.181 531.879,973.694 531.879,970.626 z" fill="#272727"/>
    <path d="M1042.002,96.32 L1042.002,96.32 C1042.002,94.434 1043.53,92.906 1045.416,92.906 L1384.7,92.906 C1385.606,92.906 1386.474,93.266 1387.114,93.906 C1387.755,94.546 1388.114,95.415 1388.114,96.32 L1388.114,295.791 C1388.114,297.676 1386.586,299.205 1384.7,299.205 L1045.416,299.205 C1043.53,299.205 1042.002,297.676 1042.002,295.791 z" fill="#272727"/>
    <path d="M1072.557,339.709 L1072.557,339.709 C1072.557,337.823 1074.085,336.294 1075.971,336.294 L1384.703,336.294 C1385.608,336.294 1386.477,336.654 1387.117,337.294 C1387.757,337.935 1388.117,338.803 1388.117,339.709 L1388.117,539.179 C1388.117,541.065 1386.588,542.594 1384.703,542.594 L1075.971,542.594 C1074.085,542.594 1072.557,541.065 1072.557,539.179 z" fill="#272727"/>
    <path d="M1360.217,92.906 L1360.217,92.906 C1362.891,92.906 1365.058,95.073 1365.058,97.747 L1365.058,537.64 C1365.058,538.924 1364.548,540.155 1363.64,541.063 C1362.732,541.971 1361.501,542.481 1360.217,542.481 L1077.398,542.481 C1074.724,542.481 1072.557,540.313 1072.557,537.64 L1072.557,97.747 C1072.557,95.073 1074.724,92.906 1077.398,92.906 z" fill="#272727"/>
    <path d="M1049.957,92.964 L1049.957,92.964 C1051.321,92.964 1052.427,94.07 1052.427,95.434 L1052.427,239.753 C1052.427,240.408 1052.167,241.037 1051.703,241.5 C1051.24,241.963 1050.612,242.223 1049.957,242.223 L858.621,242.223 C857.257,242.223 856.151,241.118 856.151,239.753 L856.151,95.434 L856.151,95.434 C856.151,94.07 857.257,92.964 858.621,92.964 z" fill="#272727"/>
    <path d="M856.15,976.196 L856.15,976.196 C856.15,961.341 868.192,949.299 883.047,949.299 C897.902,949.299 909.945,961.341 909.945,976.196 L896.496,976.196 C896.496,968.769 890.475,962.748 883.047,962.748 C875.62,962.748 869.598,968.769 869.598,976.196 z" fill="#272727"/>
    <path d="M1038.751,975.839 L1038.751,975.839 C1038.751,960.983 1050.793,948.941 1065.648,948.941 C1080.503,948.941 1092.546,960.983 1092.546,975.839 L1079.097,975.839 C1079.097,968.411 1073.076,962.39 1065.648,962.39 C1058.221,962.39 1052.199,968.411 1052.199,975.839 z" fill="#272727"/>
    <path d="M859.748,901.006 L1097.795,901.006 L1097.795,961.667 L859.748,961.667 z" fill="#272727"/>
    <path d="M900.283,915.52 L1046.646,915.52 L1046.646,976.181 L900.283,976.181 z" fill="#272727"/>
    <path d="M1082.798,542.594 L1388.121,542.594 L1388.121,976.168 L1082.798,976.168 z" fill="#272727"/>
    <path d="M835.438,534.544 L835.438,534.544 C835.438,458.285 897.258,396.465 973.517,396.465 L973.517,396.465 C1010.138,396.465 1045.259,411.013 1071.153,436.907 C1097.048,462.802 1111.596,497.923 1111.596,534.544 L1111.596,534.544 C1111.596,610.803 1049.776,672.623 973.517,672.623 L973.517,672.623 C897.258,672.623 835.438,610.803 835.438,534.544 z M879.447,534.544 L879.447,534.544 C879.447,586.497 921.563,628.614 973.517,628.614 C1025.471,628.614 1067.587,586.497 1067.587,534.544 C1067.587,482.59 1025.471,440.474 973.517,440.474 L973.517,440.474 C921.563,440.474 879.447,482.59 879.447,534.544 z" fill="#434343"/>
    <path d="M1122.404,579.683 L1122.404,579.683 C1122.404,567.219 1132.508,557.116 1144.971,557.116 L1144.971,557.116 C1150.956,557.116 1156.696,559.493 1160.928,563.726 C1165.161,567.958 1167.538,573.698 1167.538,579.683 L1167.538,579.683 C1167.538,592.146 1157.434,602.25 1144.971,602.25 L1144.971,602.25 C1132.508,602.25 1122.404,592.146 1122.404,579.683 z" fill="#434343"/>
    <path d="M937.891,761.987 L937.891,761.987 C937.891,741.853 954.213,725.531 974.348,725.531 L974.348,725.531 L974.348,725.531 C984.017,725.531 993.29,729.372 1000.127,736.208 C1006.964,743.045 1010.804,752.318 1010.804,761.987 L1010.804,913.011 C1010.804,933.145 994.482,949.468 974.348,949.468 L974.348,949.468 L974.348,949.468 C954.213,949.468 937.891,933.145 937.891,913.011 z" fill="#434343"/>
    <path d="M561.297,116.084 L561.297,116.084 C561.297,116.082 561.298,116.081 561.3,116.081 L973.517,116.084 C973.518,116.084 973.519,116.085 973.519,116.085 C973.52,116.086 973.521,116.087 973.521,116.088 L973.517,296.651 C973.517,296.653 973.516,296.655 973.514,296.655 L561.297,296.651 L561.297,296.651 C561.295,296.651 561.293,296.65 561.293,296.648 z" fill="#EEEEEE"/>
    <g>
      <path d="M561.297,116.084 L561.297,116.084 C561.297,116.082 561.298,116.081 561.3,116.081 L973.517,116.084 C973.518,116.084 973.519,116.085 973.519,116.085 C973.52,116.086 973.521,116.087 973.521,116.088 L973.517,296.651 C973.517,296.653 973.516,296.655 973.514,296.655 L561.297,296.651 L561.297,296.651 C561.295,296.651 561.293,296.65 561.293,296.648 z" fill="#FFFBFB"/>
      <path d="M561.297,116.084 L561.297,116.084 C561.297,116.082 561.298,116.081 561.3,116.081 L973.517,116.084 C973.518,116.084 973.519,116.085 973.519,116.085 C973.52,116.086 973.521,116.087 973.521,116.088 L973.517,296.651 C973.517,296.653 973.516,296.655 973.514,296.655 L561.297,296.651 L561.297,296.651 C561.295,296.651 561.293,296.65 561.293,296.648 z" fill-opacity="0" stroke="#595959" stroke-width="1" stroke-linejoin="round"/>
    </g>
    <path d="M560.386,201.556 L974.893,201.556 L974.893,297.555 L560.386,297.555 z" fill="#646054"/>
    <path d="M854.868,219.024 L952.677,219.024 L952.677,229.129 L854.868,229.129 z" fill="#FF9900"/>
    <path d="M854.868,231.764 L952.677,231.764 L952.677,241.868 L854.868,241.868 z" fill="#FFD966"/>
    <path d="M854.868,244.503 L952.677,244.503 L952.677,254.608 L854.868,254.608 z" fill="#FFFF00"/>
    <path d="M854.868,257.242 L952.677,257.242 L952.677,267.347 L854.868,267.347 z" fill="#6AA84F"/>
    <path d="M854.868,269.982 L952.677,269.982 L952.677,280.086 L854.868,280.086 z" fill="#6FA8DC"/>
    <path d="M717.929,277.732 L717.929,277.732 C707.193,277.732 697.283,272.462 691.976,263.93 C686.669,255.399 686.782,244.919 692.272,236.485 C697.762,228.05 707.783,222.96 718.517,223.153 L718.269,234.642 C711.669,234.537 705.511,237.488 702.14,242.371 C698.769,247.254 698.704,253.319 701.969,258.255 C705.235,263.191 711.328,266.24 717.929,266.24 z" fill="#EEEEEE"/>
    <path d="M596.137,240.675 C594.466,240.675 592.988,240.937 591.704,241.46 C590.42,241.983 589.4,242.755 588.643,243.775 L588.643,240.994 L582.601,240.994 L582.601,262.072 L588.927,262.072 L588.927,252.117 C588.927,250.161 589.439,248.694 590.464,247.716 C591.493,246.734 592.911,246.243 594.718,246.243 C594.965,246.243 595.437,246.269 596.137,246.32 L596.137,240.675 z" fill="#EEEEEE"/>
    <path d="M609.756,245.299 C611.163,245.299 612.353,245.699 613.325,246.498 C614.296,247.293 614.89,248.356 615.106,249.687 L604.367,249.687 C604.583,248.331 605.176,247.261 606.148,246.479 C607.12,245.692 608.323,245.299 609.756,245.299 z M609.716,240.676 C607.527,240.676 605.546,241.141 603.773,242.072 C602.006,242.999 600.616,244.292 599.605,245.95 C598.593,247.608 598.088,249.468 598.088,251.53 C598.088,253.622 598.6,255.49 599.624,257.136 C600.653,258.781 602.113,260.067 604.004,260.994 C605.895,261.921 608.07,262.385 610.528,262.385 C614.472,262.385 617.471,261.249 619.525,258.979 L616.161,255.452 C615.405,256.158 614.587,256.675 613.707,257.002 C612.828,257.325 611.821,257.487 610.686,257.487 C609.042,257.487 607.665,257.108 606.557,256.351 C605.449,255.595 604.745,254.564 604.446,253.258 L620.943,253.258 C621.022,252.238 621.062,251.689 621.062,251.613 C621.062,249.415 620.569,247.487 619.584,245.829 C618.599,244.17 617.24,242.897 615.508,242.008 C613.78,241.12 611.849,240.676 609.716,240.676 z" fill="#EEEEEE"/>
    <path d="M626.048,236.326 L626.048,241.46 L622.684,241.46 L622.684,246.167 L626.048,246.167 L626.048,254.821 C626.048,257.304 626.756,259.185 628.172,260.465 C629.592,261.745 631.599,262.385 634.194,262.385 C635.192,262.385 636.144,262.274 637.05,262.053 C637.956,261.832 638.719,261.498 639.339,261.052 L637.637,256.74 C636.938,257.263 636.087,257.525 635.084,257.525 C634.222,257.525 633.554,257.285 633.079,256.804 C632.609,256.32 632.373,255.633 632.373,254.744 L632.373,246.167 L637.802,246.167 L637.802,241.46 L632.373,241.46 L632.373,236.326 z" fill="#EEEEEE"/>
    <path d="M656.44,240.675 C654.769,240.675 653.292,240.937 652.008,241.46 C650.724,241.983 649.703,242.755 648.947,243.775 L648.947,240.994 L642.905,240.994 L642.905,262.072 L649.231,262.072 L649.231,252.117 C649.231,250.161 649.743,248.694 650.768,247.716 C651.797,246.734 653.215,246.243 655.022,246.243 C655.268,246.243 655.741,246.269 656.44,246.32 L656.44,240.675 z" fill="#EEEEEE"/>
    <path d="M670.383,245.695 C672.005,245.695 673.336,246.224 674.373,247.283 C675.416,248.337 675.937,249.753 675.937,251.53 C675.937,253.307 675.416,254.725 674.373,255.784 C673.336,256.842 672.005,257.372 670.383,257.372 C668.765,257.372 667.428,256.842 666.372,255.784 C665.317,254.725 664.789,253.307 664.789,251.53 C664.789,249.753 665.317,248.337 666.372,247.283 C667.428,246.224 668.765,245.695 670.383,245.695 z M670.383,240.676 C668.087,240.676 666.027,241.141 664.202,242.072 C662.382,242.999 660.957,244.285 659.928,245.931 C658.903,247.576 658.391,249.442 658.391,251.53 C658.391,253.622 658.903,255.49 659.928,257.136 C660.957,258.781 662.382,260.067 664.202,260.994 C666.027,261.921 668.087,262.385 670.383,262.385 C672.678,262.385 674.732,261.921 676.544,260.994 C678.355,260.067 679.773,258.781 680.798,257.136 C681.827,255.49 682.342,253.622 682.342,251.53 C682.342,249.442 681.827,247.576 680.798,245.931 C679.773,244.285 678.355,242.999 676.544,242.072 C674.732,241.141 672.678,240.676 670.383,240.676 z" fill="#EEEEEE"/>
    <path d="M731.335,245.695 C732.957,245.695 734.288,246.224 735.325,247.283 C736.368,248.337 736.889,249.753 736.889,251.53 C736.889,253.307 736.368,254.725 735.325,255.784 C734.288,256.842 732.957,257.372 731.335,257.372 C729.717,257.372 728.38,256.842 727.324,255.784 C726.269,254.725 725.741,253.307 725.741,251.53 C725.741,249.753 726.269,248.337 727.324,247.283 C728.38,246.224 729.717,245.695 731.335,245.695 z M731.335,240.676 C729.039,240.676 726.979,241.141 725.154,242.072 C723.334,242.999 721.909,244.285 720.88,245.931 C719.855,247.576 719.343,249.442 719.343,251.53 C719.343,253.622 719.855,255.49 720.88,257.136 C721.909,258.781 723.334,260.067 725.154,260.994 C726.979,261.921 729.039,262.385 731.335,262.385 C733.63,262.385 735.684,261.921 737.496,260.994 C739.307,260.067 740.725,258.781 741.75,257.136 C742.779,255.49 743.294,253.622 743.294,251.53 C743.294,249.442 742.779,247.576 741.75,245.931 C740.725,244.285 739.307,242.999 737.496,242.072 C735.684,241.141 733.63,240.676 731.335,240.676 z" fill="#EEEEEE"/>
    <path d="M760.393,240.675 C758.99,240.675 757.699,240.911 756.521,241.383 C755.347,241.855 754.355,242.533 753.546,243.418 L753.546,240.994 L747.504,240.994 L747.504,262.072 L753.83,262.072 L753.83,251.492 C753.83,249.664 754.261,248.286 755.122,247.359 C755.989,246.432 757.152,245.969 758.612,245.969 C761.369,245.969 762.748,247.627 762.748,250.943 L762.748,262.072 L769.067,262.072 L769.067,251.492 C769.067,249.664 769.498,248.286 770.359,247.359 C771.226,246.432 772.402,245.969 773.888,245.969 C775.212,245.969 776.232,246.381 776.949,247.206 C777.666,248.027 778.024,249.272 778.024,250.943 L778.024,262.072 L784.343,262.072 L784.343,250.006 C784.343,246.898 783.539,244.566 781.929,243.01 C780.324,241.454 778.158,240.675 775.432,240.675 C773.809,240.675 772.314,240.977 770.947,241.581 C769.583,242.181 768.458,243.029 767.569,244.126 C766.813,243.003 765.813,242.149 764.568,241.562 C763.324,240.971 761.932,240.675 760.393,240.675 z" fill="#EEEEEE"/>
    <path d="M801.81,245.695 C803.433,245.695 804.763,246.224 805.801,247.283 C806.843,248.337 807.364,249.753 807.364,251.53 C807.364,253.307 806.843,254.725 805.801,255.784 C804.763,256.842 803.433,257.372 801.81,257.372 C800.192,257.372 798.862,256.842 797.82,255.784 C796.782,254.725 796.263,253.307 796.263,251.53 C796.263,249.753 796.782,248.337 797.82,247.283 C798.862,246.224 800.192,245.695 801.81,245.695 z M790.016,232.997 L790.016,262.072 L796.058,262.072 L796.058,259.642 C797.624,261.47 799.906,262.385 802.905,262.385 C804.932,262.385 806.777,261.934 808.439,261.033 C810.102,260.131 811.405,258.864 812.351,257.232 C813.296,255.599 813.769,253.698 813.769,251.53 C813.769,249.362 813.296,247.461 812.351,245.829 C811.405,244.196 810.102,242.929 808.439,242.028 C806.777,241.126 804.932,240.676 802.905,240.676 C800.122,240.676 797.934,241.526 796.342,243.227 L796.342,232.997 z" fill="#EEEEEE"/>
    <path d="M826.495,240.675 C824.415,240.675 822.61,240.965 821.08,241.543 C819.554,242.117 818.393,242.92 817.597,243.954 C816.801,244.982 816.403,246.162 816.403,247.493 C816.403,249.087 816.828,250.316 817.676,251.179 C818.529,252.042 819.536,252.644 820.697,252.984 C821.858,253.32 823.331,253.62 825.117,253.883 C826.629,254.066 827.751,254.289 828.481,254.553 C829.211,254.812 829.576,255.242 829.576,255.841 C829.576,257.121 828.237,257.761 825.559,257.761 C824.235,257.761 822.885,257.572 821.509,257.193 C820.132,256.815 818.956,256.326 817.98,255.726 L815.875,260.114 C816.9,260.765 818.276,261.307 820.005,261.74 C821.737,262.17 823.507,262.385 825.315,262.385 C827.452,262.385 829.296,262.104 830.849,261.543 C832.401,260.982 833.582,260.193 834.391,259.177 C835.204,258.156 835.611,256.993 835.611,255.688 C835.611,254.145 835.191,252.944 834.351,252.085 C833.516,251.222 832.531,250.627 831.396,250.299 C830.262,249.972 828.802,249.664 827.016,249.374 C825.424,249.141 824.264,248.894 823.534,248.635 C822.804,248.371 822.439,247.914 822.439,247.263 C822.439,246.685 822.775,246.213 823.448,245.848 C824.125,245.482 825.141,245.299 826.495,245.299 C828.764,245.299 830.857,245.822 832.775,246.868 L834.879,242.519 C833.881,241.945 832.619,241.494 831.093,241.167 C829.567,240.839 828.034,240.675 826.495,240.675 z" fill="#EEEEEE"/>
    <path d="M567.769,122.631 L567.769,136.737 L570.415,136.737 L570.415,127.538 L576.102,136.737 L578.96,136.737 L578.96,122.631 L576.314,122.631 L576.314,132.051 L570.541,122.631 z" fill="#000000"/>
    <path d="M581.952,122.631 L581.952,130.155 C581.952,131.734 582.045,132.927 582.231,133.735 C582.359,134.28 582.625,134.802 583.03,135.3 C583.434,135.796 583.983,136.2 584.678,136.513 C585.375,136.823 586.397,136.978 587.744,136.978 C588.86,136.978 589.765,136.836 590.458,136.551 C591.15,136.265 591.703,135.881 592.116,135.4 C592.531,134.919 592.815,134.328 592.969,133.629 C593.123,132.93 593.2,131.734 593.2,130.04 L593.2,122.631 L590.352,122.631 L590.352,130.435 C590.352,131.551 590.31,132.349 590.227,132.83 C590.143,133.312 589.896,133.718 589.486,134.049 C589.075,134.379 588.466,134.543 587.658,134.543 C586.862,134.543 586.235,134.369 585.775,134.02 C585.317,133.67 585.028,133.206 584.906,132.628 C584.835,132.269 584.8,131.483 584.8,130.271 L584.8,122.631 z" fill="#000000"/>
    <path d="M596.163,122.631 L596.163,136.737 L598.809,136.737 L598.809,125.633 L601.6,136.737 L604.342,136.737 L607.142,125.633 L607.142,136.737 L609.788,136.737 L609.788,122.631 L605.516,122.631 L602.985,132.253 L600.426,122.631 z" fill="#000000"/>
    <path d="M617.11,124.979 C618.451,124.979 619.262,124.995 619.544,125.027 C620.019,125.084 620.376,125.25 620.616,125.524 C620.857,125.795 620.978,126.149 620.978,126.586 C620.978,127.041 620.838,127.409 620.558,127.689 C620.28,127.967 619.897,128.135 619.41,128.193 C619.14,128.225 618.451,128.241 617.341,128.241 L615.474,128.241 L615.474,124.979 z M617.774,130.588 C619.07,130.588 619.911,130.656 620.298,130.791 C620.687,130.925 620.985,131.14 621.19,131.435 C621.395,131.73 621.498,132.09 621.498,132.513 C621.498,133.013 621.364,133.413 621.097,133.713 C620.832,134.01 620.487,134.197 620.064,134.274 C619.788,134.332 619.137,134.36 618.111,134.36 L615.474,134.36 L615.474,130.588 z M612.626,122.631 L612.626,136.737 L617.428,136.737 C619.243,136.724 620.388,136.692 620.863,136.641 C621.62,136.558 622.256,136.335 622.771,135.974 C623.288,135.61 623.696,135.126 623.993,134.521 C624.292,133.914 624.442,133.289 624.442,132.648 C624.442,131.833 624.211,131.124 623.749,130.521 C623.287,129.918 622.627,129.492 621.767,129.241 C622.377,128.966 622.859,128.552 623.214,128 C623.571,127.448 623.749,126.842 623.749,126.181 C623.749,125.572 623.605,125.022 623.316,124.533 C623.028,124.041 622.666,123.648 622.232,123.352 C621.8,123.057 621.31,122.864 620.76,122.772 C620.213,122.678 619.381,122.631 618.265,122.631 z" fill="#000000"/>
    <path d="M626.847,122.631 L626.847,136.737 L637.576,136.737 L637.576,134.36 L629.696,134.36 L629.696,130.521 L636.777,130.521 L636.777,128.144 L629.696,128.144 L629.696,125.017 L637.306,125.017 L637.306,122.631 z" fill="#000000"/>
    <path d="M645.071,125.017 C646.226,125.017 646.919,125.033 647.15,125.065 C647.611,125.142 647.968,125.327 648.221,125.62 C648.475,125.911 648.602,126.294 648.602,126.768 C648.602,127.192 648.506,127.545 648.314,127.827 C648.121,128.109 647.855,128.308 647.515,128.423 C647.175,128.539 646.322,128.597 644.956,128.597 L642.849,128.597 L642.849,125.017 z M640.001,122.631 L640.001,136.737 L642.849,136.737 L642.849,130.848 L643.426,130.848 C644.08,130.848 644.558,130.902 644.86,131.009 C645.161,131.113 645.446,131.309 645.716,131.596 C645.985,131.88 646.486,132.571 647.217,133.668 L649.276,136.737 L652.682,136.737 L650.96,133.985 C650.28,132.888 649.739,132.125 649.337,131.695 C648.937,131.265 648.429,130.871 647.813,130.512 C649.051,130.332 649.982,129.898 650.604,129.209 C651.226,128.519 651.537,127.644 651.537,126.586 C651.537,125.752 651.332,125.011 650.921,124.363 C650.511,123.715 649.963,123.265 649.279,123.012 C648.597,122.758 647.502,122.631 645.995,122.631 z" fill="#000000"/>
    <path d="M654.722,126.518 L654.722,129.222 L657.426,129.222 L657.426,126.518 z M654.722,134.033 L654.722,136.737 L657.426,136.737 L657.426,134.033 z" fill="#000000"/>
    <g>
      <path d="M567.625,143.132 L966.27,143.132" fill="#000000"/>
      <path d="M567.625,143.132 L966.27,143.132" fill-opacity="0" stroke="#595959" stroke-width="1" stroke-linejoin="round"/>
    </g>
    <g>
      <path d="M567.625,167.88 L966.27,167.88" fill="#000000"/>
      <path d="M567.625,167.88 L966.27,167.88" fill-opacity="0" stroke="#595959" stroke-width="1" stroke-linejoin="round"/>
    </g>
    <g>
      <path d="M568.315,191.658 L966.961,191.658" fill="#000000"/>
      <path d="M568.315,191.658 L966.961,191.658" fill-opacity="0" stroke="#595959" stroke-width="1" stroke-linejoin="round"/>
    </g>
  </g>
</svg>
