<?xml version="1.0" encoding="UTF-8" standalone="no"?>
<!DOCTYPE svg PUBLIC "-//W3C//DTD SVG 1.1//EN" "http://www.w3.org/Graphics/SVG/1.1/DTD/svg11.dtd">
<svg width="100%" height="100%" viewBox="0 0 600 600" version="1.1" xmlns="http://www.w3.org/2000/svg" xmlns:xlink="http://www.w3.org/1999/xlink" xml:space="preserve" xmlns:serif="http://www.serif.com/" style="fill-rule:evenodd;clip-rule:evenodd;stroke-linejoin:round;stroke-miterlimit:2;">
    <rect x="0" y="0" width="600" height="600" style="fill:white;"/>
    <rect id="Gray-Background" serif:id="Gray Background" x="51.78" y="50.425" width="496.441" height="499.15" style="fill:rgb(238,238,238);"/>
    <g id="Layer2">
    </g>
    <g id="MEGA-Logo" serif:id="MEGA Logo" transform="matrix(1.72521,0,0,1.72521,-224.029,-429.659)">
        <path d="M292.677,552.056L294.03,551.169L294.03,400.929L287.155,394.153C273.408,380.604 241.436,350.269 210.28,321.214C199.83,311.469 189.678,301.993 187.719,300.156C179.508,292.456 177.406,291.452 174.848,294.01L173.53,295.328L173.53,551.585L175.405,552.368C177.075,553.066 183.517,553.14 234.302,553.047C287.947,552.948 291.404,552.89 292.677,552.056ZM433.757,546.067C433.938,542.148 434.018,483.966 433.933,416.773L433.78,294.604L432.599,293.648C430.103,291.627 428.24,292.454 419.53,299.454C408.034,308.692 397.534,318.589 346.405,368.38L312.53,401.368L312.53,476.501C312.53,533.059 312.674,551.722 313.111,551.992C313.431,552.19 314.387,552.518 315.236,552.721C316.085,552.924 343.025,553.113 375.103,553.141L433.426,553.192L433.757,546.067Z" style="fill-rule:nonzero;"/>
    </g>
    <g id="MEGA65-Logo" serif:id="MEGA65 Logo" transform="matrix(0.537087,0,0,0.537087,138.186,-97.3473)">
        <path id="path191" d="M34.843,426.379C32.574,425.786 27.537,423.74 23.649,421.83C11.211,415.721 1.222,403.998 -3.111,390.429C-7.273,377.391 -6.178,363.938 0.095,351.054C2.996,345.096 4.622,342.873 10.016,337.486C17.133,330.379 23.251,326.538 32.468,323.392L38.218,321.429L560.968,321.429L567.539,323.78C576.874,327.12 581.808,330.271 589.108,337.554C596.167,344.597 600.711,352.371 603.134,361.554C604.883,368.185 604.852,381.263 603.071,387.804C598.037,406.29 583.514,420.899 565.096,426.003L559.498,427.554L299.233,427.504C75.628,427.462 38.387,427.303 34.843,426.379L34.843,426.379ZM264.531,405.054C272.424,404.286 274.896,403.363 277.911,400.058C281.301,396.343 281.876,393.682 281.924,381.491L281.968,370.179L241.468,370.179L241.468,384.429L251.832,384.638C261.062,384.824 262.168,384.984 261.953,386.105C261.802,386.885 260.572,387.612 258.714,388.018C255.422,388.738 231.983,388.248 229.273,387.403C228.331,387.11 227.33,385.996 227.023,384.902C226.093,381.592 226.386,366.604 227.416,364.787C228.681,362.557 231.967,362.181 247.822,362.454L260.926,362.679L261.858,364.554C262.371,365.585 263.562,366.648 264.505,366.916C267.293,367.71 278.329,367.617 280.526,366.782C282.517,366.025 282.547,365.917 282.101,361.14C281.844,358.38 280.893,354.759 279.909,352.785C276.631,346.212 271.422,345.056 245.218,345.085C219.664,345.115 212.591,346.601 209.48,352.597C207.08,357.224 206.424,363.396 206.777,378.054C207.316,400.442 209.434,403.375 226.238,404.998C235.141,405.857 255.955,405.888 264.531,405.054L264.531,405.054ZM481.026,405.018C493.557,403.446 496.474,399.838 496.46,385.929C496.454,379.131 496.173,377.073 494.868,374.236C493.241,370.701 490.096,368.189 486.124,367.253C477.893,365.313 455.614,365.535 451.764,367.596C450.344,368.356 450.266,368.209 450.485,365.197C450.776,361.192 451.406,360.977 463.093,360.887C473.962,360.803 477.427,361.338 477.908,363.176C478.402,365.063 480.246,365.407 488.514,365.149C497.211,364.877 497.533,364.553 496.296,357.33C494.487,346.769 491.856,345.659 467.593,345.223C442.978,344.78 437.245,346.034 434.079,352.554C429.92,361.12 429.87,387.401 433.995,396.99C435.898,401.413 438.886,403.177 446.344,404.277C456.771,405.815 472.062,406.142 481.026,405.018L481.026,405.018ZM451.225,388.651C450.632,388.275 450.33,387.014 450.475,385.518C450.684,383.363 451.082,382.921 453.34,382.34C454.782,381.969 460.462,381.781 465.963,381.922C474.839,382.15 476.086,382.343 477.033,383.639C478.145,385.161 477.773,387.762 476.305,388.73C475.142,389.496 452.445,389.425 451.225,388.651L451.225,388.651ZM548.514,405.034C565.019,403.574 568.843,399.434 568.843,383.028C568.843,371.092 565.945,366.21 557.864,364.532C549.438,362.783 526.345,363.527 520.596,365.733C519.568,366.128 519.343,365.728 519.343,363.509L519.343,360.804L565.065,360.804L565.49,359.107C565.725,358.174 565.815,354.884 565.692,351.795L565.468,346.179L501.718,346.179L501.516,363.428C501.334,378.981 501.44,380.77 502.597,381.616C503.407,382.208 506.465,382.554 510.897,382.554C517.419,382.554 518.038,382.421 519.653,380.679C521.366,378.829 521.553,378.804 533.304,378.814C549.096,378.828 548.718,378.7 548.44,383.932C548.164,389.137 548.179,389.131 533.968,389.219C522.134,389.291 520.389,389.015 519.858,386.984C519.517,385.681 518.713,385.554 510.803,385.554L502.122,385.554L501.638,387.482C500.953,390.21 501.862,395.885 503.421,398.614C505.451,402.167 510.417,404.238 518.657,404.97C528.864,405.877 538.757,405.898 548.514,405.034L548.514,405.034ZM55.693,404.154C56.345,403.502 56.597,397.978 56.608,384.091L56.623,364.929L66.397,384.023C71.772,394.525 76.541,403.565 76.994,404.111C77.602,404.843 79.81,405.048 85.393,404.891L92.968,404.679L96.446,397.554C98.358,393.635 102.577,384.809 105.821,377.941L111.718,365.453L111.919,384.255C112.05,396.592 112.404,403.4 112.948,404.055C114.141,405.493 130.314,405.469 131.51,404.03C132.12,403.295 132.306,394.94 132.165,374.592L131.968,346.18L116.689,345.977C107.693,345.857 101.053,346.07 100.541,346.494C100.063,346.891 96.477,354.145 92.57,362.614C88.664,371.083 85.284,378.022 85.058,378.034C84.833,378.045 81.482,371.221 77.612,362.868C73.742,354.514 70.251,347.252 69.856,346.728C69.304,345.999 65.339,345.824 52.927,345.978L36.718,346.18L36.521,374.678C36.413,390.351 36.487,403.598 36.685,404.115C37.181,405.406 54.405,405.443 55.693,404.155L55.693,404.154ZM201.317,403.603C201.744,402.805 202.093,399.745 202.093,396.804C202.093,387.902 203.903,388.554 179.192,388.554L157.843,388.554L157.843,383.336L186.718,382.929L186.934,375.49C187.093,370.045 186.892,367.888 186.184,367.439C185.653,367.102 179.037,366.821 171.483,366.815L157.748,366.804L158.218,362.241L179.433,362.085C197.358,361.953 200.759,361.754 201.359,360.804C202.144,359.562 202.36,348.871 201.638,346.99C201.233,345.934 197.722,345.804 169.763,345.804L138.343,345.804L138.343,374.991C138.343,397.639 138.553,404.264 139.281,404.557C139.796,404.765 153.791,404.962 170.379,404.995C199.463,405.052 200.568,405.003 201.317,403.603ZM302.155,404.599C302.807,404.349 304.4,402.155 305.696,399.724L308.052,395.304L341.247,395.304L343.679,399.727C345.016,402.159 346.64,404.353 347.288,404.602C347.936,404.85 352.836,405.054 358.178,405.054C366.147,405.054 367.968,404.851 368.325,403.922C368.573,403.275 362.696,390.656 354.614,374.484L340.468,346.179L308.968,346.179L294.778,374.368C285.665,392.472 280.759,403.004 281.067,403.805C281.48,404.881 282.891,405.054 291.258,405.054C296.6,405.054 301.504,404.849 302.155,404.599ZM316.093,377.772C316.093,377.101 324.354,360.804 324.694,360.804C325.129,360.804 328.742,367.836 331.427,373.907L333.261,378.054L324.677,378.054C319.956,378.054 316.093,377.927 316.093,377.772L316.093,377.772ZM419.888,403.117C420.59,401.287 420.405,395.062 419.61,393.804C419.016,392.864 415.843,392.641 400.309,392.448C379.304,392.187 376.843,392.415 376.843,394.618C376.843,396.079 379.279,401.499 380.776,403.366C381.341,404.072 386.218,404.304 400.48,404.304C417.07,404.304 419.489,404.156 419.888,403.117L419.888,403.117ZM418.893,388.527C420.096,387.883 420.343,386.929 420.343,382.929C420.343,378.929 420.096,377.974 418.893,377.33C417.333,376.496 371.892,376.198 369.78,377.009C369.127,377.259 368.593,377.944 368.593,378.53C368.593,380.541 373.055,388.436 374.387,388.783C377.228,389.523 417.465,389.291 418.893,388.527L418.893,388.527ZM419.539,372.494C420.068,371.857 420.329,369.54 420.193,366.682L419.968,361.929L390.531,361.733C364.399,361.559 361.093,361.667 361.093,362.695C361.093,363.88 364.418,370.928 365.774,372.616C366.949,374.08 418.32,373.963 419.539,372.494L419.539,372.494ZM419.567,356.353C419.994,355.555 420.344,353.508 420.344,351.804C420.344,345.339 422.961,345.804 386.544,345.804C358.075,345.804 354.244,345.94 353.849,346.969C353.351,348.267 355.412,353.303 357.558,356.031L358.952,357.804L388.872,357.804C417.684,357.804 418.82,357.75 419.567,356.353L419.567,356.353Z" style="fill-rule:nonzero;"/>
    </g>
</svg>
