<?xml version="1.0" encoding="UTF-8" standalone="no"?>
<!DOCTYPE svg PUBLIC "-//W3C//DTD SVG 1.1//EN" "http://www.w3.org/Graphics/SVG/1.1/DTD/svg11.dtd">
<svg width="100%" height="100%" viewBox="0 0 600 600" version="1.1" xmlns="http://www.w3.org/2000/svg" xmlns:xlink="http://www.w3.org/1999/xlink" xml:space="preserve" xmlns:serif="http://www.serif.com/" style="fill-rule:evenodd;clip-rule:evenodd;stroke-linejoin:round;stroke-miterlimit:2;">
    <rect x="0" y="0" width="600" height="600" style="fill:white;"/>
    <rect id="Gray-Background" serif:id="Gray Background" x="51.78" y="50.425" width="496.441" height="499.15" style="fill:rgb(238,238,238);"/>
    <g id="MEGA65-Logo" serif:id="MEGA65 Logo">
    </g>
    <g transform="matrix(1.60248,0,0,1.60248,-186.752,-377.754)">
        <g id="MEGA-Logo" serif:id="MEGA Logo">
            <path d="M292.677,552.056L294.03,551.169L294.03,400.929L287.155,394.153C273.408,380.604 241.436,350.269 210.28,321.214C199.83,311.469 189.678,301.993 187.719,300.156C179.508,292.456 177.406,291.452 174.848,294.01L173.53,295.328L173.53,551.585L175.405,552.368C177.075,553.066 183.517,553.14 234.302,553.047C287.947,552.948 291.404,552.89 292.677,552.056ZM433.757,546.067C433.938,542.148 434.018,483.966 433.933,416.773L433.78,294.604L432.599,293.648C430.103,291.627 428.24,292.454 419.53,299.454C408.034,308.692 397.534,318.589 346.405,368.38L312.53,401.368L312.53,476.501C312.53,533.059 312.674,551.722 313.111,551.992C313.431,552.19 314.387,552.518 315.236,552.721C316.085,552.924 343.025,553.113 375.103,553.141L433.426,553.192L433.757,546.067Z" style="fill-rule:nonzero;"/>
        </g>
    </g>
</svg>
