<?xml version="1.0" encoding="UTF-8" standalone="no"?>
<!DOCTYPE svg PUBLIC "-//W3C//DTD SVG 1.1//EN" "http://www.w3.org/Graphics/SVG/1.1/DTD/svg11.dtd">
<svg width="100%" height="100%" viewBox="0 0 3000 3000" version="1.1" xmlns="http://www.w3.org/2000/svg" xmlns:xlink="http://www.w3.org/1999/xlink" xml:space="preserve" xmlns:serif="http://www.serif.com/" style="fill-rule:evenodd;clip-rule:evenodd;stroke-linejoin:round;stroke-miterlimit:2;">
    <g transform="matrix(1.2835,0,0,1.27329,-360.883,-396.399)">
        <rect x="281.172" y="311.319" width="2337.36" height="2356.1" style="fill:rgb(99,96,84);"/>
        <path d="M2618.93,311.319L2618.93,2667.42C2618.93,2667.64 2618.75,2667.81 2618.54,2667.81L281.172,2667.81C280.957,2667.81 280.782,2667.64 280.782,2667.42L280.782,311.319C280.782,311.102 280.957,310.926 281.172,310.926L2618.54,310.926C2618.75,310.926 2618.93,311.102 2618.93,311.319ZM2618.15,311.712C2583.99,311.712 315.713,311.712 281.561,311.712C281.561,311.712 281.561,2667.03 281.561,2667.03C281.561,2667.03 2618.15,2667.03 2618.15,2667.03L2618.15,311.712Z"/>
    </g>
    <g transform="matrix(1.19937,0,0,1.20817,-302.6,-309.668)">
        <g transform="matrix(1.00526,0,0,1.02835,1107.35,1168.7)">
            <g>
                <g transform="matrix(1,0,0,1,-4103.55,-1413.74)">
                    <path d="M5794.56,11.332C5786.22,14.846 5778.44,19.362 5770.58,23.805C5762.03,28.639 5753.47,33.475 5744.91,38.312C5717.55,53.785 5690.19,69.27 5662.83,84.765C5579.69,131.858 5496.61,179.05 5413.58,226.331C5159.57,370.965 4906.05,516.428 4652.88,662.521C3875.85,1110.92 3102.12,1565.05 2330.1,2022.01C2347.66,2066.55 2373.58,2107.4 2404.55,2143.81C2417.53,2159.08 2431.58,2173.33 2445.67,2187.57C2458.26,2200.3 2470.85,2213.03 2483.44,2225.77C2563.51,2306.72 2643.57,2387.68 2723.63,2468.64C3450.63,1971.96 4177.48,1475.08 4904.06,977.79C5145.75,812.371 5387.41,646.905 5629.03,481.38C5709.11,426.52 5789.18,371.655 5869.25,316.781C5895.42,298.845 5921.6,280.907 5947.77,262.969C5955.52,257.652 5963.31,252.378 5971.04,247.017C5976.94,242.922 5982.72,238.676 5988.81,234.847C5944.66,181.786 5900.52,128.723 5856.37,75.657C5845.91,63.083 5835.45,50.509 5824.99,37.934C5821.09,33.248 5817.36,28.323 5813.09,23.969C5807.82,18.595 5801.61,14.062 5794.56,11.332Z" style="fill:rgb(255,153,0);"/>
                </g>
                <g transform="matrix(1,0,0,1,-4103.55,-1034.67)">
                    <path d="M5969.1,-167.915C5963.1,-164.203 5957.39,-160.079 5951.58,-156.086C5943.82,-150.754 5936,-145.5 5928.22,-140.208C5901.94,-122.352 5875.66,-104.497 5849.39,-86.643C5769,-32.02 5688.6,22.596 5608.2,77.206C5365.59,241.996 5122.94,406.73 4880.27,571.422C4150.57,1066.63 3420.63,1561.47 2690.56,2056.13C2797.71,2164.48 2904.86,2272.83 3012.01,2381.18C3715.31,1864.58 4418.38,1347.66 5121.01,830.15C5355.09,657.744 5589.11,485.268 5823.06,312.702C5901.42,254.905 5979.77,197.098 6058.11,139.28C6083.29,120.699 6108.47,102.116 6133.64,83.533C6137.57,80.629 6141.52,77.749 6145.39,74.754C6150.59,70.722 6155.76,66.674 6161.13,62.865C6097.11,-14.057 6033.1,-90.984 5969.1,-167.915Z" style="fill:rgb(255,216,102);"/>
                </g>
                <g transform="matrix(1,0,0,1,-4103.55,-625.527)">
                    <path d="M6155.22,-353.389C6149.87,-349.611 6144.72,-345.592 6139.55,-341.59C6135.68,-338.602 6131.73,-335.728 6127.79,-332.831C6101.32,-313.335 6074.84,-293.84 6048.36,-274.346C5971.19,-217.539 5894.02,-160.743 5816.84,-103.957C5582.59,68.393 5348.27,240.652 5113.9,412.842C4410.35,929.745 3706.36,1446.05 3002.14,1962.04C3107.7,2068.79 3213.27,2175.54 3318.84,2282.29C3996.51,1744.52 4673.93,1206.44 5350.88,667.757C5575.52,489.005 5800.09,310.184 6024.6,131.273C6098.64,72.268 6172.68,13.254 6246.71,-45.772C6270.92,-65.078 6295.13,-84.385 6319.34,-103.694C6328.1,-110.678 6336.54,-118.036 6345.41,-124.877C6282.01,-201.043 6218.61,-277.214 6155.22,-353.389Z" style="fill:rgb(255,255,0);"/>
                </g>
                <g transform="matrix(1,0,0,1,-4103.55,-236.834)">
                    <path d="M6330.38,-531.629C6321.57,-524.877 6313.19,-517.603 6304.5,-510.712C6280.21,-491.463 6255.93,-472.216 6231.64,-452.97C6157.38,-394.125 6083.11,-335.292 6008.83,-276.469C5783.59,-98.094 5558.28,80.189 5332.92,258.403C4653.64,795.563 3973.88,1332.11 3293.87,1868.35C3397.95,1973.59 3502.03,2078.83 3606.1,2184.07C4254.02,1631.12 4901.76,1077.97 5549.18,524.422C5764.57,340.256 5979.93,156.046 6195.24,-28.222C6266.79,-89.46 6338.34,-150.704 6409.88,-211.955C6434.45,-232.989 6459.01,-254.024 6483.58,-275.06C6495.33,-285.125 6506.85,-295.486 6518.85,-305.255C6456.02,-380.708 6393.2,-456.166 6330.38,-531.629Z" style="fill:rgb(106,167,79);"/>
                </g>
                <g transform="matrix(1,0,0,1,-4103.55,172.311)">
                    <path d="M6513.04,-721.374C6501.07,-711.639 6489.57,-701.312 6477.84,-691.288C6453.24,-670.276 6428.65,-649.264 6404.05,-628.254C6332.42,-567.071 6260.78,-505.895 6189.14,-444.726C5973.56,-260.659 5757.92,-76.651 5542.25,107.311C4893.95,660.284 4245.32,1212.86 3596.51,1765.23C3664.51,1833.99 3732.52,1902.75 3800.52,1971.52C3822.51,1993.76 3844.5,2015.99 3866.49,2038.23C3879.53,2051.41 3892.51,2064.66 3905.64,2077.76C4532.86,1509.81 5160.56,942.415 5789.31,376.164C6001.65,184.927 6214.12,-6.174 6426.75,-197.091C6497.4,-260.526 6568.07,-323.941 6638.76,-387.333C6658.13,-404.704 6677.65,-421.931 6696.89,-439.446C6705.55,-447.334 6714.02,-455.416 6722.83,-463.143C6714.62,-475.981 6705.84,-488.414 6696.72,-500.626C6694.51,-503.594 6692.07,-506.4 6689.7,-509.245C6685.41,-514.396 6681.12,-519.547 6676.83,-524.697C6663.94,-540.171 6651.05,-555.645 6638.17,-571.119C6596.46,-621.202 6554.75,-671.287 6513.04,-721.374Z" style="fill:rgb(111,167,219);"/>
                </g>
            </g>
        </g>
    </g>
    <g id="Layer-2" transform="matrix(1,0,0,1,1104,1194)">
        <g transform="matrix(1.05731,0,0,1.05731,-17.0424,13.2941)">
            <g transform="matrix(6.52748,0,0,6.52748,-904.733,-1737.15)">
                <path d="M61.715,305.778L221.008,434.532L373.151,306L212.514,195.534L61.715,305.778Z" style="fill:rgb(217,205,173);"/>
            </g>
            <g transform="matrix(6.52748,0,0,6.52748,-904.733,-1737.15)">
                <path d="M125.251,309.778C125.251,268.378 168.123,234.816 221.008,234.816C273.893,234.816 316.765,268.378 316.765,309.778C316.765,351.178 273.893,384.74 221.008,384.74C168.123,384.74 125.251,351.178 125.251,309.778Z" style="fill:rgb(82,81,81);fill-rule:nonzero;"/>
            </g>
            <g transform="matrix(6.52748,0,0,6.52748,-904.733,-1737.15)">
                <path d="M125.251,305.778C125.251,264.378 168.123,230.816 221.008,230.816C273.893,230.816 316.765,264.378 316.765,305.778C316.765,347.178 273.893,380.74 221.008,380.74C168.123,380.74 125.251,347.178 125.251,305.778Z" style="fill:rgb(224,217,195);fill-rule:nonzero;"/>
            </g>
            <g transform="matrix(6.52748,0,0,6.52748,-904.733,-1737.15)">
                <path d="M142.104,305.778C142.104,271.664 177.431,244.01 221.008,244.01C264.585,244.01 299.911,271.664 299.911,305.778C299.911,339.892 264.585,367.546 221.008,367.546C177.431,367.546 142.104,339.892 142.104,305.778Z" style="fill:rgb(245,234,201);fill-rule:nonzero;"/>
            </g>
            <g transform="matrix(6.52748,0,0,6.52748,-904.733,-1737.15)">
                <path d="M62.305,306L212.86,195.661L170.146,180.006C170.146,180.006 165.764,177.754 162.318,180.26C137.795,198.098 42.888,257.924 17.895,276.704C10.034,282.611 13.162,287.492 13.162,287.492L62.305,306Z" style="fill:rgb(226,214,183);"/>
            </g>
            <g transform="matrix(6.52748,0,0,6.52748,-904.733,-1737.15)">
                <path d="M153.753,305.778C153.753,276.701 183.864,253.129 221.008,253.129C258.152,253.129 288.263,276.701 288.263,305.778C288.263,334.855 258.152,358.427 221.008,358.427C183.864,358.427 153.753,334.855 153.753,305.778Z" style="fill:rgb(8,13,12);fill-rule:nonzero;"/>
            </g>
            <g transform="matrix(5.00192,0,0,5.00192,-567.572,-1270.67)">
                <path d="M153.753,305.778C153.753,276.701 183.864,253.129 221.008,253.129C258.152,253.129 288.263,276.701 288.263,305.778C288.263,334.855 258.152,358.427 221.008,358.427C183.864,358.427 153.753,334.855 153.753,305.778Z" style="fill:rgb(64,64,64);fill-rule:nonzero;"/>
            </g>
            <g transform="matrix(6.52748,0,0,6.52748,-595.035,-2429.54)">
                <g transform="matrix(0.0644219,0,0,0.0644219,160.338,459.627)">
                    <path d="M153.753,305.778C153.753,276.701 183.864,253.129 221.008,253.129C258.152,253.129 288.263,276.701 288.263,305.778C288.263,334.855 258.152,358.427 221.008,358.427C183.864,358.427 153.753,334.855 153.753,305.778Z" style="fill:rgb(245,236,221);fill-rule:nonzero;stroke:black;stroke-width:1.57px;"/>
                </g>
                <g transform="matrix(0.0644219,0,0,0.0644219,244.174,388.07)">
                    <path d="M153.753,305.778C153.753,276.701 183.864,253.129 221.008,253.129C258.152,253.129 288.263,276.701 288.263,305.778C288.263,334.855 258.152,358.427 221.008,358.427C183.864,358.427 153.753,334.855 153.753,305.778Z" style="fill:rgb(245,236,221);fill-rule:nonzero;stroke:black;stroke-width:1.57px;"/>
                </g>
                <g transform="matrix(0.0644219,0,0,0.0644219,74.4748,391.461)">
                    <path d="M153.753,305.778C153.753,276.701 183.864,253.129 221.008,253.129C258.152,253.129 288.263,276.701 288.263,305.778C288.263,334.855 258.152,358.427 221.008,358.427C183.864,358.427 153.753,334.855 153.753,305.778Z" style="fill:rgb(245,236,221);fill-rule:nonzero;stroke:black;stroke-width:1.57px;"/>
                </g>
                <path d="M231.089,457.696L236.88,452.196L239.637,459.654L231.089,457.696Z" style="fill:rgb(245,236,221);stroke:black;stroke-width:0.1px;"/>
                <g transform="matrix(0.865652,-0.500647,0.500647,0.865652,-319.411,181.973)">
                    <path d="M231.089,457.696L236.88,452.196L239.637,459.654L231.089,457.696Z" style="fill:rgb(245,236,221);stroke:black;stroke-width:0.1px;"/>
                </g>
                <g transform="matrix(-0.844034,0.53629,-0.53629,-0.844034,674.224,621.583)">
                    <path d="M231.089,457.696L236.88,452.196L239.637,459.654L231.089,457.696Z" style="fill:rgb(245,236,221);stroke:black;stroke-width:0.1px;"/>
                </g>
                <g transform="matrix(0.258819,0.965926,-0.965926,0.258819,494.912,17.922)">
                    <path d="M232.387,459.38L236.88,452.196L239.637,459.654L232.387,459.38Z" style="fill:rgb(245,236,221);stroke:black;stroke-width:0.1px;"/>
                </g>
            </g>
            <g transform="matrix(6.52748,0,0,6.52748,-904.733,-1737.15)">
                <path d="M13.443,283.432C14.297,281.482 17.26,281.835 18.03,282.176C30.328,287.635 62.305,306 62.305,306L221.008,434.532C221.008,434.532 226.795,439.149 228.991,441.992C232.21,446.161 233.871,449.016 235.032,453.701C237.235,462.6 235.753,483.819 235.753,483.819L15.12,302.088C15.12,302.088 12.277,286.092 13.443,283.432Z" style="fill:rgb(147,132,107);fill-rule:nonzero;"/>
            </g>
            <g transform="matrix(6.52748,0,0,6.52748,-904.733,-1737.15)">
                <path d="M384.154,323.511L235.419,455.6L235.753,483.819L380.574,353.785L384.154,323.511Z" style="fill:rgb(194,179,138);"/>
            </g>
            <g transform="matrix(6.52748,0,0,6.52748,-891.678,-1730.62)">
                <path d="M215.535,165.694L250.247,136.02L248.339,124.974L194.12,117.289L186.958,126.133L202.915,164.309L215.535,165.694Z" style="fill:rgb(51,51,51);fill-rule:nonzero;"/>
                <path d="M198.741,171.215L219.313,173.131L222.288,338.734L199.628,332.373L198.741,171.215Z" style="fill:rgb(84,84,84);fill-rule:nonzero;"/>
                <path d="M219.313,173.131L255.861,138.081L257.829,297.726L222.288,338.734L219.313,173.131Z" style="fill:rgb(51,51,51);fill-rule:nonzero;"/>
                <path d="M198.741,171.215L181.882,131.344L181.621,288.053L199.628,332.373L198.741,171.215Z" style="fill:rgb(51,51,51);fill-rule:nonzero;"/>
                <path d="M250.247,136.02L248.339,124.974L254.149,132.188L255.861,138.081L219.313,173.131L198.741,171.215L181.882,131.344L182.81,126.029L194.12,117.289L186.958,126.133L202.915,164.309L215.535,165.694L250.247,136.02Z" style="fill:rgb(82,81,81);fill-rule:nonzero;"/>
                <path d="M202.915,164.309L215.535,165.694L219.313,173.131L198.741,171.215L202.915,164.309Z" style="fill:rgb(158,158,158);fill-rule:nonzero;"/>
            </g>
            <g transform="matrix(6.52748,0,0,6.52748,-904.733,-1737.15)">
                <path d="M221.008,434.532L373.151,306C373.151,306 378.905,310.095 380.739,313.013C382.501,315.818 384.154,323.511 384.154,323.511L235.419,455.6C235.419,455.6 234.148,448.928 230.233,443.618C227.709,440.194 221.008,434.532 221.008,434.532Z" style="fill:rgb(217,205,173);"/>
            </g>
            <g transform="matrix(6.52748,0,0,6.52748,-904.733,-1737.15)">
                <path d="M15.12,302.088L235.753,483.819L380.574,353.785L379.661,359.832L235.419,488.724L15.582,306L15.12,302.088Z"/>
            </g>
            <g transform="matrix(6.52748,0,0,6.52748,-904.733,-1737.15)">
                <path d="M15.582,306C15.582,306 17.376,316.399 19.245,320.53C20.906,324.202 26.331,330.787 26.331,330.787L222.088,493.847C222.088,493.847 227.647,497.983 230.687,498.001C231.43,498.006 233.48,498.034 234.618,495.989C235.954,493.588 235.419,488.724 235.419,488.724L15.582,306Z" style="fill:rgb(71,71,71);"/>
            </g>
            <g transform="matrix(6.52748,0,0,6.52748,-904.733,-1737.15)">
                <path d="M235.419,488.724L379.661,359.832C379.661,359.832 378.973,365.208 378.082,367.486C377.291,369.51 374.316,373.498 374.316,373.498C374.316,373.498 260.324,476.986 236.642,498.002C234.169,500.197 227.527,497.114 227.527,497.114L235.419,488.724Z" style="fill:rgb(71,71,71);"/>
            </g>
            <g transform="matrix(6.52748,0,0,6.52748,-2207.94,-1710.78)">
                <g transform="matrix(0.998376,0.0569625,-0.0569625,0.998376,217.339,-6.01206)">
                    <path d="M75,246.125C75.422,242.288 77.634,239.33 79.987,237.075C87.525,229.853 113.631,211 122.397,204.906C125.426,202.801 132.445,202.147 136.403,203.43C140.081,204.622 140.152,204.677 143.524,207.002C150.035,211.492 150.767,222.605 145.918,226.724C138.989,232.61 118.923,250.051 110.176,255.991C103.34,260.633 99.634,261.293 95.1,261.573C87.001,262.073 82.192,259.113 80.339,257.96C78.126,256.584 76.392,253.943 75.653,252.081C75.124,250.745 74.742,248.462 75,246.125Z" style="fill:rgb(140,11,6);"/>
                </g>
                <g transform="matrix(0.998376,0.0569625,-0.0569625,0.998376,217.339,-6.01206)">
                    <path d="M103.834,249.387C101.455,251.198 98.207,252.313 94.627,252.313C87.331,252.313 81.416,247.682 81.416,241.97C81.416,238.585 83.493,235.579 86.705,233.693L117.299,210.843C119.721,208.659 123.294,207.277 127.279,207.277C134.576,207.277 140.491,211.908 140.491,217.62C140.491,220.602 138.879,223.289 136.3,225.176L103.834,249.387Z" style="fill:rgb(181,30,24);"/>
                </g>
            </g>
        </g>
        <g transform="matrix(1,0,0,1,-1090,-1172)">
            <g>
                <g>
                    <g transform="matrix(0.565341,0,0,0.565341,1345.6,1688.91)">
                        <g transform="matrix(288,0,0,288,537.844,585.813)">
                            <path d="M1.176,1.094C1.168,1.098 1.16,1.103 1.153,1.108C1.146,1.113 1.139,1.118 1.133,1.123C1.115,1.138 1.099,1.155 1.09,1.176C1.083,1.191 1.079,1.208 1.08,1.225C1.081,1.24 1.084,1.254 1.092,1.268C1.098,1.278 1.105,1.29 1.114,1.298C1.114,1.298 1.324,1.485 1.324,1.485C1.324,1.485 1.169,1.617 1.169,1.617C1.078,1.536 0.988,1.454 0.897,1.373C0.851,1.332 0.715,1.21 0.761,1.251C0.761,1.251 0.911,1.126 0.911,1.126C0.911,1.126 0.97,1.179 0.97,1.179L0.972,1.177C0.963,1.148 0.964,1.118 0.973,1.089C0.982,1.057 1.004,1.03 1.03,1.009C1.036,1.004 1.042,0.999 1.049,0.994C1.054,0.99 1.06,0.987 1.066,0.984C1.066,0.984 1.176,1.094 1.176,1.094Z" style="fill:rgb(99,96,84);fill-rule:nonzero;"/>
                        </g>
                        <g transform="matrix(288,0,0,288,646.708,585.813)">
                            <path d="M1.215,0.826C1.194,0.807 1.167,0.797 1.139,0.797C1.105,0.796 1.074,0.812 1.048,0.834C1.035,0.845 1.023,0.858 1.014,0.873C1.006,0.886 1,0.9 0.998,0.915C0.995,0.929 0.996,0.942 1,0.955C1.004,0.968 1.01,0.98 1.02,0.989C1.02,0.989 1.215,0.826 1.215,0.826ZM1.404,0.754C1.41,0.759 1.415,0.763 1.42,0.768C1.425,0.773 1.43,0.777 1.434,0.782C1.434,0.782 1.102,1.063 1.102,1.063C1.115,1.072 1.129,1.078 1.145,1.08C1.161,1.083 1.177,1.083 1.194,1.08C1.211,1.078 1.227,1.072 1.243,1.065C1.26,1.058 1.275,1.049 1.288,1.037C1.308,1.02 1.327,1 1.337,0.975C1.345,0.956 1.349,0.935 1.347,0.914C1.347,0.914 1.509,0.877 1.509,0.877C1.515,0.92 1.506,0.965 1.488,1.005C1.465,1.053 1.428,1.094 1.388,1.129C1.354,1.158 1.317,1.182 1.276,1.2C1.238,1.217 1.196,1.228 1.154,1.232C1.113,1.236 1.071,1.231 1.032,1.219C0.991,1.206 0.953,1.183 0.921,1.155C0.892,1.129 0.866,1.096 0.851,1.059C0.838,1.026 0.833,0.989 0.837,0.953C0.841,0.917 0.854,0.881 0.873,0.849C0.895,0.813 0.924,0.781 0.957,0.754C0.989,0.727 1.026,0.704 1.065,0.689C1.102,0.675 1.141,0.667 1.181,0.667C1.22,0.666 1.26,0.674 1.296,0.688C1.336,0.702 1.373,0.726 1.404,0.754Z" style="fill:rgb(99,96,84);fill-rule:nonzero;"/>
                        </g>
                        <g transform="matrix(288,0,0,288,818.356,585.813)">
                            <path d="M0.958,0.448C0.958,0.448 1.108,0.581 1.108,0.581C1.123,0.594 1.141,0.606 1.162,0.607C1.183,0.609 1.203,0.596 1.219,0.583C1.227,0.576 1.234,0.569 1.24,0.562C1.246,0.556 1.252,0.548 1.256,0.541C1.256,0.541 1.352,0.623 1.352,0.623C1.344,0.636 1.333,0.651 1.322,0.663C1.309,0.678 1.295,0.693 1.279,0.706C1.254,0.728 1.226,0.748 1.194,0.761C1.17,0.772 1.143,0.778 1.117,0.778C1.092,0.777 1.068,0.772 1.045,0.761C1.022,0.75 0.999,0.734 0.98,0.717C0.98,0.717 0.812,0.569 0.812,0.569C0.812,0.569 0.739,0.63 0.739,0.63C0.739,0.63 0.641,0.543 0.641,0.543C0.641,0.543 0.714,0.483 0.714,0.483C0.714,0.483 0.61,0.391 0.61,0.391C0.61,0.391 0.757,0.271 0.757,0.271C0.757,0.271 0.86,0.362 0.86,0.362C0.86,0.362 0.966,0.274 0.966,0.274C0.966,0.274 1.063,0.36 1.063,0.36C1.063,0.36 0.958,0.448 0.958,0.448Z" style="fill:rgb(99,96,84);fill-rule:nonzero;"/>
                        </g>
                        <g transform="matrix(288,0,0,288,925.492,585.813)">
                            <path d="M1.056,0.07C1.048,0.074 1.041,0.078 1.034,0.083C1.027,0.088 1.021,0.093 1.015,0.098C0.999,0.111 0.984,0.127 0.975,0.147C0.969,0.162 0.965,0.177 0.966,0.193C0.967,0.208 0.971,0.221 0.978,0.233C0.983,0.244 0.991,0.254 1,0.262C1,0.262 1.2,0.438 1.2,0.438C1.2,0.438 1.056,0.562 1.056,0.562C0.968,0.486 0.881,0.409 0.794,0.332C0.751,0.294 0.62,0.179 0.664,0.217C0.664,0.217 0.805,0.1 0.805,0.1C0.805,0.1 0.861,0.149 0.861,0.149L0.863,0.148C0.855,0.121 0.855,0.093 0.863,0.065C0.872,0.035 0.892,0.01 0.916,-0.01C0.922,-0.015 0.928,-0.02 0.934,-0.024C0.939,-0.028 0.944,-0.031 0.95,-0.033C0.95,-0.033 1.056,0.07 1.056,0.07Z" style="fill:rgb(99,96,84);fill-rule:nonzero;"/>
                        </g>
                        <g transform="matrix(288,0,0,288,1034.36,585.813)">
                            <path d="M1.272,-0.278C1.3,-0.254 1.324,-0.223 1.337,-0.188C1.35,-0.157 1.355,-0.122 1.351,-0.089C1.347,-0.054 1.334,-0.019 1.317,0.012C1.297,0.046 1.27,0.077 1.239,0.103C1.208,0.13 1.171,0.153 1.133,0.169C1.096,0.184 1.055,0.195 1.015,0.198C0.976,0.2 0.935,0.196 0.898,0.184C0.859,0.173 0.823,0.152 0.792,0.125C0.764,0.1 0.739,0.069 0.726,0.034C0.714,0.002 0.71,-0.033 0.714,-0.066C0.719,-0.101 0.732,-0.136 0.751,-0.166C0.772,-0.199 0.8,-0.229 0.83,-0.255C0.862,-0.281 0.899,-0.304 0.937,-0.32C0.974,-0.335 1.014,-0.345 1.053,-0.348C1.092,-0.351 1.131,-0.347 1.168,-0.336C1.206,-0.324 1.242,-0.304 1.272,-0.278ZM1.136,-0.164C1.123,-0.175 1.109,-0.184 1.093,-0.19C1.076,-0.196 1.059,-0.2 1.042,-0.2C1.023,-0.201 1.005,-0.198 0.988,-0.193C0.969,-0.187 0.95,-0.176 0.935,-0.163C0.921,-0.151 0.907,-0.136 0.899,-0.119C0.893,-0.104 0.889,-0.089 0.889,-0.073C0.89,-0.057 0.894,-0.043 0.902,-0.029C0.909,-0.015 0.919,-0.003 0.931,0.008C0.944,0.019 0.959,0.028 0.974,0.035C0.991,0.041 1.008,0.045 1.026,0.046C1.045,0.047 1.063,0.045 1.081,0.039C1.1,0.033 1.118,0.022 1.134,0.009C1.148,-0.003 1.161,-0.019 1.169,-0.036C1.176,-0.051 1.179,-0.066 1.178,-0.083C1.177,-0.098 1.173,-0.113 1.166,-0.127C1.158,-0.141 1.148,-0.153 1.136,-0.164Z" style="fill:rgb(99,96,84);fill-rule:nonzero;"/>
                        </g>
                        <g transform="matrix(288,0,0,288,1432.37,585.813)">
                            <path d="M1.033,-1.24C1.06,-1.217 1.083,-1.189 1.096,-1.156C1.108,-1.126 1.114,-1.094 1.11,-1.062C1.107,-1.029 1.096,-0.997 1.079,-0.968C1.061,-0.935 1.036,-0.906 1.008,-0.882C0.978,-0.857 0.944,-0.836 0.908,-0.821C0.872,-0.806 0.834,-0.797 0.796,-0.794C0.759,-0.792 0.721,-0.796 0.685,-0.807C0.648,-0.818 0.614,-0.838 0.584,-0.863C0.557,-0.886 0.534,-0.916 0.521,-0.949C0.509,-0.979 0.504,-1.011 0.508,-1.043C0.512,-1.076 0.524,-1.108 0.541,-1.136C0.561,-1.168 0.587,-1.196 0.615,-1.22C0.645,-1.245 0.68,-1.266 0.716,-1.281C0.75,-1.295 0.788,-1.304 0.825,-1.307C0.862,-1.309 0.899,-1.305 0.934,-1.295C0.97,-1.284 1.004,-1.265 1.033,-1.24ZM0.906,-1.133C0.894,-1.144 0.88,-1.152 0.865,-1.158C0.849,-1.164 0.833,-1.167 0.816,-1.168C0.799,-1.169 0.782,-1.166 0.765,-1.161C0.747,-1.155 0.73,-1.145 0.716,-1.133C0.702,-1.122 0.69,-1.108 0.682,-1.092C0.676,-1.078 0.673,-1.064 0.674,-1.049C0.675,-1.034 0.679,-1.02 0.686,-1.008C0.693,-0.994 0.703,-0.983 0.715,-0.972C0.727,-0.962 0.741,-0.954 0.756,-0.948C0.771,-0.941 0.788,-0.937 0.805,-0.936C0.822,-0.935 0.84,-0.938 0.857,-0.943C0.875,-0.949 0.892,-0.959 0.906,-0.971C0.919,-0.982 0.932,-0.997 0.939,-1.013C0.945,-1.027 0.948,-1.042 0.947,-1.057C0.946,-1.072 0.942,-1.086 0.935,-1.099C0.927,-1.112 0.918,-1.124 0.906,-1.133Z" style="fill:rgb(99,96,84);fill-rule:nonzero;"/>
                        </g>
                        <g transform="matrix(288,0,0,288,1614.39,585.813)">
                            <path d="M1.162,-1.576C1.162,-1.576 0.967,-1.742 0.967,-1.742C0.957,-1.751 0.947,-1.758 0.936,-1.765C0.926,-1.771 0.915,-1.776 0.903,-1.778C0.892,-1.781 0.881,-1.781 0.87,-1.778C0.858,-1.776 0.846,-1.769 0.837,-1.76C0.827,-1.753 0.819,-1.743 0.815,-1.731C0.811,-1.721 0.81,-1.71 0.812,-1.7C0.814,-1.688 0.818,-1.678 0.825,-1.668C0.832,-1.658 0.84,-1.648 0.85,-1.64C0.85,-1.64 1.044,-1.475 1.044,-1.475C1.044,-1.475 0.917,-1.366 0.917,-1.366C0.917,-1.366 0.711,-1.542 0.711,-1.542C0.693,-1.557 0.672,-1.569 0.648,-1.573C0.626,-1.576 0.605,-1.567 0.588,-1.553C0.57,-1.538 0.559,-1.517 0.562,-1.493C0.567,-1.469 0.582,-1.448 0.601,-1.432C0.601,-1.432 0.797,-1.264 0.797,-1.264C0.797,-1.264 0.668,-1.153 0.668,-1.153C0.668,-1.153 0.303,-1.465 0.303,-1.465C0.303,-1.465 0.43,-1.57 0.43,-1.57C0.43,-1.57 0.48,-1.527 0.48,-1.527L0.482,-1.528C0.479,-1.539 0.477,-1.551 0.477,-1.562C0.477,-1.575 0.48,-1.588 0.484,-1.6C0.489,-1.614 0.496,-1.627 0.504,-1.64C0.514,-1.654 0.526,-1.667 0.54,-1.678C0.565,-1.699 0.595,-1.716 0.628,-1.724C0.658,-1.731 0.689,-1.73 0.719,-1.723C0.713,-1.749 0.715,-1.777 0.724,-1.802C0.735,-1.833 0.757,-1.858 0.782,-1.878C0.805,-1.897 0.832,-1.913 0.861,-1.921C0.886,-1.928 0.913,-1.931 0.938,-1.928C0.963,-1.925 0.987,-1.918 1.009,-1.907C1.03,-1.897 1.05,-1.885 1.067,-1.87C1.067,-1.87 1.288,-1.683 1.288,-1.683C1.288,-1.683 1.162,-1.576 1.162,-1.576Z" style="fill:rgb(99,96,84);fill-rule:nonzero;"/>
                        </g>
                        <g transform="matrix(288,0,0,288,1880.5,585.813)">
                            <path d="M0.695,-2.265C0.718,-2.246 0.738,-2.223 0.753,-2.196C0.767,-2.172 0.776,-2.145 0.778,-2.117C0.78,-2.089 0.775,-2.061 0.764,-2.036C0.752,-2.006 0.73,-1.98 0.706,-1.959C0.681,-1.938 0.652,-1.921 0.621,-1.911C0.591,-1.901 0.559,-1.897 0.528,-1.902L0.527,-1.901C0.527,-1.901 0.573,-1.862 0.573,-1.862C0.573,-1.862 0.459,-1.765 0.459,-1.765C0.28,-1.917 0.101,-2.069 -0.079,-2.221C-0.079,-2.221 0.047,-2.323 0.047,-2.323C0.047,-2.323 0.267,-2.137 0.267,-2.137L0.269,-2.138C0.267,-2.16 0.273,-2.183 0.281,-2.203C0.292,-2.231 0.313,-2.255 0.336,-2.274C0.362,-2.295 0.392,-2.312 0.424,-2.322C0.455,-2.331 0.488,-2.336 0.52,-2.334C0.552,-2.333 0.583,-2.326 0.613,-2.314C0.643,-2.302 0.671,-2.286 0.695,-2.265ZM0.578,-2.167C0.566,-2.177 0.553,-2.184 0.539,-2.19C0.525,-2.196 0.509,-2.199 0.494,-2.2C0.478,-2.201 0.462,-2.198 0.446,-2.194C0.429,-2.189 0.413,-2.179 0.4,-2.168C0.388,-2.158 0.376,-2.145 0.37,-2.13C0.364,-2.117 0.361,-2.103 0.362,-2.089C0.363,-2.075 0.367,-2.062 0.373,-2.049C0.38,-2.036 0.389,-2.025 0.4,-2.016C0.412,-2.006 0.425,-1.998 0.44,-1.993C0.455,-1.987 0.471,-1.984 0.487,-1.984C0.503,-1.983 0.519,-1.985 0.535,-1.99C0.552,-1.995 0.567,-2.004 0.581,-2.015C0.593,-2.026 0.605,-2.039 0.611,-2.054C0.616,-2.067 0.619,-2.081 0.618,-2.095C0.617,-2.109 0.613,-2.122 0.606,-2.134C0.598,-2.146 0.589,-2.157 0.578,-2.167Z" style="fill:rgb(99,96,84);fill-rule:nonzero;"/>
                        </g>
                        <g transform="matrix(288,0,0,288,2070.29,585.813)">
                            <path d="M0.258,-2.568C0.239,-2.568 0.219,-2.564 0.201,-2.558C0.183,-2.553 0.166,-2.544 0.151,-2.531C0.14,-2.522 0.132,-2.512 0.126,-2.5C0.121,-2.489 0.124,-2.478 0.133,-2.47C0.144,-2.461 0.157,-2.461 0.17,-2.466C0.192,-2.474 0.214,-2.485 0.234,-2.496C0.251,-2.506 0.269,-2.514 0.287,-2.521C0.305,-2.528 0.325,-2.533 0.345,-2.536C0.364,-2.538 0.383,-2.537 0.402,-2.533C0.421,-2.528 0.439,-2.518 0.455,-2.505C0.473,-2.49 0.489,-2.471 0.496,-2.448C0.502,-2.428 0.502,-2.407 0.497,-2.387C0.491,-2.365 0.481,-2.345 0.467,-2.328C0.453,-2.309 0.437,-2.291 0.419,-2.275C0.389,-2.25 0.354,-2.228 0.318,-2.212C0.283,-2.197 0.245,-2.187 0.207,-2.185C0.207,-2.185 0.206,-2.3 0.206,-2.3C0.229,-2.299 0.252,-2.303 0.274,-2.31C0.296,-2.316 0.317,-2.327 0.334,-2.342C0.344,-2.351 0.352,-2.361 0.357,-2.372C0.362,-2.384 0.357,-2.396 0.347,-2.404C0.336,-2.414 0.32,-2.414 0.306,-2.409C0.282,-2.401 0.258,-2.388 0.236,-2.376C0.22,-2.368 0.203,-2.36 0.187,-2.353C0.17,-2.347 0.151,-2.342 0.134,-2.34C0.116,-2.339 0.097,-2.34 0.08,-2.344C0.061,-2.349 0.043,-2.359 0.028,-2.372C0.01,-2.387 -0.005,-2.405 -0.011,-2.428C-0.016,-2.448 -0.016,-2.469 -0.011,-2.489C-0.005,-2.51 0.005,-2.529 0.018,-2.547C0.031,-2.565 0.047,-2.582 0.065,-2.596C0.092,-2.619 0.124,-2.638 0.157,-2.652C0.189,-2.666 0.224,-2.675 0.259,-2.677C0.259,-2.677 0.258,-2.568 0.258,-2.568Z" style="fill:rgb(99,96,84);fill-rule:nonzero;"/>
                        </g>
                    </g>
                    <g transform="matrix(1.39573,0,0,1.39573,2040.95,1891.24)">
                        <path d="M161.911,13.783C169.778,20.581 177.646,27.38 185.513,34.178C182.141,39.246 178.047,43.823 173.457,47.818C156.887,62.24 134.021,68.918 112.264,66.422C99.129,64.915 86.254,59.952 76.221,51.215C72.121,47.646 68.54,43.478 65.72,38.827C63.555,35.255 61.845,31.409 60.66,27.404C59.663,24.033 59.036,20.555 58.789,17.049C57.447,-1.951 67.32,-19.764 81.797,-31.517C86.714,-35.509 92.14,-38.865 97.874,-41.55C105.7,-34.788 113.527,-28.025 121.354,-21.262C114.859,-19.849 108.657,-16.95 103.523,-12.713C94.552,-5.308 89.195,6.663 92.653,18.196C93.296,20.34 94.226,22.396 95.406,24.299C96.862,26.65 98.693,28.759 100.78,30.571C114.91,42.839 137.897,40.642 151.607,28.905C156.294,24.893 160.041,19.694 161.911,13.783" style="fill:rgb(98,96,84);fill-rule:nonzero;"/>
                    </g>
                </g>
            </g>
        </g>
    </g>
</svg>
