<svg version="1.1" viewBox="0.0 0.0 1000.0 1000.0" fill="none" stroke="none" stroke-linecap="square" stroke-miterlimit="10" xmlns:xlink="http://www.w3.org/1999/xlink" xmlns="http://www.w3.org/2000/svg"><clipPath id="gf660ffbba6_1_0.0"><path d="m0 0l1000.0 0l0 1000.0l-1000.0 0l0 -1000.0z" clip-rule="nonzero"/></clipPath><g clip-path="url(#gf660ffbba6_1_0.0)"><path fill="#636054" d="m0 0l1000.0 0l0 1000.0l-1000.0 0z" fill-rule="evenodd"/><path fill="#000000" fill-opacity="0.0" d="m1099.6455 499.9976l0 0c0.008666992 -276.1424 223.87329 -499.99295 500.01575 -499.98425l0 0c132.60828 0.004176637 259.78357 52.686604 353.5487 146.45775c93.76526 93.77115 146.4397 220.94977 146.43555 353.558l0 0c-0.0087890625 276.14236 -223.87341 499.99295 -500.01575 499.98422l0 0c-276.14246 -0.008666992 -499.99292 -223.87335 -499.98425 -500.01572z" fill-rule="evenodd"/><path stroke="#000000" stroke-width="3.0" stroke-linejoin="round" stroke-linecap="butt" d="m1099.6455 499.9976l0 0c0.008666992 -276.1424 223.87329 -499.99295 500.01575 -499.98425l0 0c132.60828 0.004176637 259.78357 52.686604 353.5487 146.45775c93.76526 93.77115 146.4397 220.94977 146.43555 353.558l0 0c-0.0087890625 276.14236 -223.87341 499.99295 -500.01575 499.98422l0 0c-276.14246 -0.008666992 -499.99292 -223.87335 -499.98425 -500.01572z" fill-rule="evenodd"/><path fill="#ff9900" d="m157.17316 188.31502l0 0c0 -34.866455 28.264832 -63.131294 63.131287 -63.131294l559.39075 0c16.74347 0 32.801147 6.651314 44.640564 18.49073c11.8394165 11.8394165 18.490723 27.897095 18.490723 44.640564l0 0l0 0c0 34.86644 -28.264832 63.131287 -63.131287 63.131287l-559.39075 0c-34.866455 0 -63.131287 -28.264847 -63.131287 -63.131287z" fill-rule="evenodd"/><path fill="#ffd966" d="m108.000015 345.03943l0 0c0 -34.866455 28.264847 -63.131287 63.131287 -63.131287l657.76514 0c16.74347 0 32.801147 6.651306 44.640564 18.490723c11.8394165 11.8394165 18.490723 27.897095 18.490723 44.640564l0 0l0 0c0 34.866455 -28.264832 63.131287 -63.131287 63.131287l-657.76514 0c-34.86644 0 -63.131287 -28.264832 -63.131287 -63.131287z" fill-rule="evenodd"/><path fill="#ffff00" d="m60.0 501.32025l0 0c0 -34.866425 28.26484 -63.131287 63.131287 -63.131287l753.7464 0c16.74347 0 32.801147 6.6513367 44.640564 18.490723c11.8394165 11.8394165 18.490723 27.897125 18.490723 44.640564l0 0l0 0c0 34.866455 -28.264832 63.131287 -63.131287 63.131287l-753.7464 0c-34.866447 0 -63.131287 -28.264832 -63.131287 -63.131287z" fill-rule="evenodd"/><path fill="#6aa84f" d="m101.28346 657.6037l0 0c0 -34.866394 28.264847 -63.131287 63.131287 -63.131287l664.49786 0c16.74347 0 32.801147 6.651367 44.640564 18.490784c11.8394165 11.839355 18.490723 27.897095 18.490723 44.640503l0 0l0 0c0 34.866455 -28.264832 63.131287 -63.131287 63.131287l-664.49786 0c-34.86644 0 -63.131287 -28.264832 -63.131287 -63.131287z" fill-rule="evenodd"/><path fill="#6fa8dc" d="m159.10237 813.8846l0 0c0 -34.866455 28.264832 -63.131287 63.131287 -63.131287l559.39075 0c16.74347 0 32.801147 6.651306 44.640564 18.490723c11.8394165 11.8394165 18.490723 27.897095 18.490723 44.640564l0 0l0 0c0 34.866455 -28.264832 63.131287 -63.131287 63.131287l-559.39075 0c-34.866455 0 -63.131287 -28.264832 -63.131287 -63.131287z" fill-rule="evenodd"/><path fill="#000000" d="m836.394 677.5299l-36.674805 119.660706l-596.4993 0l-36.674805 -119.660706z" fill-rule="evenodd"/><path fill="#000000" d="m785.2337 795.87366l-19.605469 63.967834l-528.3174 0l-19.6055 -63.967834z" fill-rule="evenodd"/><path fill="#434343" d="m166.54506 678.07153l134.60939 -166.24191l400.63016 0l134.60938 166.24191z" fill-rule="evenodd"/><path fill="#000000" fill-opacity="0.0" d="m320.1412 586.66l0 0c0 -29.864685 81.38913 -54.074768 181.78772 -54.074768l0 0c100.39859 0 181.78769 24.210083 181.78769 54.074768l0 0c0 29.864624 -81.3891 54.074707 -181.78769 54.074707l0 0c-100.39859 0 -181.78772 -24.210083 -181.78772 -54.074707z" fill-rule="evenodd"/><path stroke="#cccccc" stroke-width="4.0" stroke-linejoin="round" stroke-linecap="butt" stroke-dasharray="4.0,12.0" d="m320.1412 586.66l0 0c0 -29.864685 81.38913 -54.074768 181.78772 -54.074768l0 0c100.39859 0 181.78769 24.210083 181.78769 54.074768l0 0c0 29.864624 -81.3891 54.074707 -181.78769 54.074707l0 0c-100.39859 0 -181.78772 -24.210083 -181.78772 -54.074707z" fill-rule="evenodd"/><path fill="#000000" d="m352.3779 586.8577l0 0c0 -22.32489 66.74887 -40.42279 149.08777 -40.42279l0 0c82.3389 0 149.08774 18.0979 149.08774 40.42279l0 0c0 22.32489 -66.74884 40.42279 -149.08774 40.42279l0 0c-82.3389 0 -149.08777 -18.0979 -149.08777 -40.42279z" fill-rule="evenodd"/><path fill="#434343" d="m385.8068 565.6821l0 0c0 -17.317566 51.783966 -31.356201 115.66275 -31.356201l0 0c63.878723 0 115.66272 14.038635 115.66272 31.356201l0 0c0 17.317566 -51.783997 31.356201 -115.66272 31.356201l0 0c-63.878784 0 -115.66275 -14.038635 -115.66275 -31.356201z" fill-rule="evenodd"/><path fill="#000000" d="m404.54156 546.43494l0 0c0 -14.511841 43.39612 -26.276062 96.92798 -26.276062l0 0c53.5318 0 96.92798 11.764221 96.92798 26.276062l0 0c0 14.511841 -43.39618 26.276001 -96.92798 26.276001l0 0c-53.53186 0 -96.92798 -11.76416 -96.92798 -26.276001z" fill-rule="evenodd"/><path fill="#434343" d="m423.01675 524.82587l0 0c0 -11.746399 35.122772 -21.268768 78.44891 -21.268768l0 0c43.32614 0 78.44888 9.522369 78.44888 21.268768l0 0c0 11.746399 -35.12274 21.268738 -78.44888 21.268738l0 0c-43.32614 0 -78.44891 -9.522339 -78.44891 -21.268738z" fill-rule="evenodd"/><path fill="#000000" d="m457.06552 150.90092l88.79251 0l0 355.61353l-88.79251 0z" fill-rule="evenodd"/><path fill="#434343" d="m457.07327 150.98193l0 0c0 -6.645111 19.876892 -12.032028 44.39627 -12.032028l0 0c24.519348 0 44.39624 5.386917 44.39624 12.032028l0 0c0 6.645111 -19.876892 12.032043 -44.39624 12.032043l0 0c-24.519379 0 -44.39627 -5.3869324 -44.39627 -12.032043z" fill-rule="evenodd"/><path fill="#000000" d="m457.06552 506.51044l0 0c0 -6.645111 19.876892 -12.032043 44.39627 -12.032043l0 0c24.519348 0 44.39624 5.3869324 44.39624 12.032043l0 0c0 6.6450806 -19.876892 12.032043 -44.39624 12.032043l0 0c-24.519379 0 -44.39627 -5.386963 -44.39627 -12.032043z" fill-rule="evenodd"/><path fill="#990000" d="m230.33218 645.34106l0 0c0 -7.295532 24.330978 -13.209717 54.344757 -13.209717l0 0c30.013763 0 54.344727 5.9141846 54.344727 13.209717l0 0c0 7.295532 -24.330963 13.209717 -54.344727 13.209717l0 0c-30.013779 0 -54.344757 -5.9141846 -54.344757 -13.209717z" fill-rule="evenodd"/><path fill="#990000" d="m230.33218 618.7l108.68948 0l0 26.419434l-108.68948 0z" fill-rule="evenodd"/><path fill="#cc0000" d="m230.33218 618.92163l0 0c0 -7.295532 24.330978 -13.209778 54.344757 -13.209778l0 0c30.013763 0 54.344727 5.9142456 54.344727 13.209778l0 0c0 7.295532 -24.330963 13.209717 -54.344727 13.209717l0 0c-30.013779 0 -54.344757 -5.9141846 -54.344757 -13.209717z" fill-rule="evenodd"/><path fill="#eeeeee" d="m517.0749 785.7206l0 0c-18.44696 0 -35.472748 -9.366882 -44.587616 -24.530334c-9.114868 -15.163452 -8.914368 -33.786926 0.52511597 -48.77179c9.439484 -14.984863 26.663422 -24.022095 45.106567 -23.667053l-0.4395752 20.412415l0 0c-11.098175 -0.19769287 -21.458496 5.0389404 -27.133667 13.714661c-5.6752014 8.675781 -5.79126 19.45465 -0.30395508 28.229797c5.487274 8.7751465 15.732849 14.1953125 26.83313 14.1953125z" fill-rule="evenodd"/><path fill="#eeeeee" d="m307.85852 719.8832c-2.8704834 0 -5.4086304 0.46453857 -7.6143494 1.3936768c-2.2057495 0.9291382 -3.958252 2.300171 -5.257538 4.113159l0 -4.9403076l-10.379089 0l0 37.44861l10.866333 0l0 -17.687561c0 -3.4747925 0.8800049 -6.0808716 2.6400757 -7.8182983c1.7676392 -1.7449341 4.203766 -2.6174316 7.308441 -2.6174316c0.42300415 0 1.2350464 0.04534912 2.4361267 0.13598633l0 -10.027832z" fill-rule="evenodd"/><path fill="#eeeeee" d="m331.25415 728.0981c2.4172363 0 4.4605713 0.710083 6.130005 2.130188c1.6694031 1.4125977 2.6891785 3.3010864 3.0593262 5.6654663l-18.446686 0c0.3701477 -2.409729 1.3899536 -4.3095093 3.0593567 -5.699463c1.6694031 -1.3974609 3.7354126 -2.0961914 6.197998 -2.0961914zm-0.067993164 -8.214905c-3.7618408 0 -7.1648865 0.82714844 -10.209137 2.4814453c-3.0366821 1.6467896 -5.423706 3.9431763 -7.1611023 6.889221c-1.7374268 2.945984 -2.6061096 6.2508545 -2.6061096 9.91449c0 3.7165527 0.8800354 7.036499 2.6401062 9.959839c1.7676086 2.9234009 4.2755127 5.208435 7.5236816 6.8552246c3.2481995 1.6467285 6.983612 2.4700928 11.206268 2.4700928c6.7758484 0 11.927643 -2.0169067 15.455322 -6.050659l-5.7787476 -6.265991c-1.2992859 1.2539673 -2.7043152 2.171753 -4.215088 2.753418c-1.5108032 0.5740967 -3.240631 0.861145 -5.1895447 0.861145c-2.8251648 0 -5.1895447 -0.67230225 -7.0931396 -2.0169067c-1.903595 -1.3446045 -3.1122131 -3.1764526 -3.625885 -5.4954834l28.338531 0c0.13598633 -1.8129272 0.20397949 -2.7874146 0.20397949 -2.9234009c0 -3.9053345 -0.84606934 -7.3310547 -2.538147 -10.2771c-1.6920471 -2.945984 -4.0262146 -5.208435 -7.002472 -6.7871704c-2.968689 -1.5787964 -6.2848816 -2.368164 -9.948517 -2.368164z" fill-rule="evenodd"/><path fill="#eeeeee" d="m359.23987 712.1555l0 9.121338l-5.7787476 0l0 8.362183l5.7787476 0l0 15.376038c0 4.411499 1.2161865 7.7540894 3.6485596 10.027832c2.439911 2.2737427 5.888275 3.4105835 10.345093 3.4105835c1.7147217 0 3.3501587 -0.19641113 4.9062805 -0.58917236c1.5560913 -0.39282227 2.8666992 -0.9857788 3.9318237 -1.7789917l-2.9233704 -7.659668c-1.2010803 0.9291382 -2.6627808 1.3937378 -4.385071 1.3937378c-1.4805603 0 -2.6287537 -0.42681885 -3.44458 -1.2803955c-0.80825806 -0.861145 -1.2124023 -2.0811157 -1.2124023 -3.659912l0 -15.240051l9.325317 0l0 -8.362183l-9.325317 0l0 -9.121338z" fill-rule="evenodd"/><path fill="#eeeeee" d="m411.4485 719.8832c-2.8704834 0 -5.4086 0.46453857 -7.6143494 1.3936768c-2.2057495 0.9291382 -3.958252 2.300171 -5.257538 4.113159l0 -4.9403076l-10.379089 0l0 37.44861l10.866333 0l0 -17.687561c0 -3.4747925 0.8800354 -6.0808716 2.6401062 -7.8182983c1.7676086 -1.7449341 4.2037354 -2.6174316 7.3084106 -2.6174316c0.42303467 0 1.2350769 0.04534912 2.4361267 0.13598633l0 -10.027832z" fill-rule="evenodd"/><path fill="#eeeeee" d="m435.39935 728.8006c2.787384 0 5.0724487 0.9404297 6.8551636 2.82135c1.7902832 1.8734131 2.6854248 4.388855 2.6854248 7.5463867c0 3.1575317 -0.8951416 5.676758 -2.6854248 7.557678c-1.7827148 1.8809814 -4.0677795 2.8214111 -6.8551636 2.8214111c-2.7798462 0 -5.076233 -0.9404297 -6.8891907 -2.8214111c-1.8129272 -1.8809204 -2.7194214 -4.4001465 -2.7194214 -7.557678c0 -3.1575317 0.90649414 -5.6729736 2.7194214 -7.5463867c1.8129578 -1.8809204 4.1093445 -2.82135 6.8891907 -2.82135zm0 -8.917419c-3.9431458 0 -7.4821777 0.82714844 -10.617035 2.4814453c-3.1273499 1.6467896 -5.5747986 3.9318237 -7.3424377 6.8552246c-1.7600403 2.9233398 -2.6400757 6.239502 -2.6400757 9.948486c0 3.7165527 0.8800354 7.036499 2.6400757 9.959839c1.7676392 2.9234009 4.215088 5.208435 7.3424377 6.8552246c3.1348572 1.6467285 6.673889 2.4700928 10.617035 2.4700928c3.9431458 0 7.470825 -0.82336426 10.583038 -2.4700928c3.1122131 -1.6467896 5.54834 -3.9318237 7.3084106 -6.8552246c1.7676392 -2.9233398 2.6514282 -6.243286 2.6514282 -9.959839c0 -3.7089844 -0.88378906 -7.0251465 -2.6514282 -9.948486c-1.7600708 -2.9234009 -4.1961975 -5.208435 -7.3084106 -6.8552246c-3.1122131 -1.6542969 -6.6398926 -2.4814453 -10.583038 -2.4814453z" fill-rule="evenodd"/><path fill="#eeeeee" d="m540.1032 728.8006c2.7873535 0 5.0724487 0.9404297 6.8551636 2.82135c1.7902832 1.8734131 2.6854248 4.388855 2.6854248 7.5463867c0 3.1575317 -0.8951416 5.676758 -2.6854248 7.557678c-1.7827148 1.8809814 -4.06781 2.8214111 -6.8551636 2.8214111c-2.7798462 0 -5.076233 -0.9404297 -6.889221 -2.8214111c-1.8129272 -1.8809204 -2.7193604 -4.4001465 -2.7193604 -7.557678c0 -3.1575317 0.9064331 -5.6729736 2.7193604 -7.5463867c1.8129883 -1.8809204 4.109375 -2.82135 6.889221 -2.82135zm0 -8.917419c-3.9431763 0 -7.4821777 0.82714844 -10.617065 2.4814453c-3.1273193 1.6467896 -5.574768 3.9318237 -7.342407 6.8552246c-1.7600708 2.9233398 -2.6400757 6.239502 -2.6400757 9.948486c0 3.7165527 0.8800049 7.036499 2.6400757 9.959839c1.7676392 2.9234009 4.215088 5.208435 7.342407 6.8552246c3.1348877 1.6467285 6.673889 2.4700928 10.617065 2.4700928c3.9431152 0 7.470825 -0.82336426 10.583008 -2.4700928c3.1122437 -1.6467896 5.548401 -3.9318237 7.3084106 -6.8552246c1.7676392 -2.9233398 2.6514282 -6.243286 2.6514282 -9.959839c0 -3.7089844 -0.88378906 -7.0251465 -2.6514282 -9.948486c-1.7600098 -2.9234009 -4.196167 -5.208435 -7.3084106 -6.8552246c-3.1121826 -1.6542969 -6.6398926 -2.4814453 -10.583008 -2.4814453z" fill-rule="evenodd"/><path fill="#eeeeee" d="m590.01935 719.8832c-2.409729 0 -4.62677 0.4192505 -6.651245 1.2577515c-2.0169067 0.83843994 -3.7202759 2.043335 -5.1102295 3.614502l0 -4.305725l-10.379089 0l0 37.44861l10.866333 0l0 -18.797974c0 -3.248169 0.7402954 -5.6956177 2.2208252 -7.342407c1.4881592 -1.6467285 3.486145 -2.4701538 5.9940796 -2.4701538c4.736267 0 7.104431 2.946045 7.104431 8.838135l0 19.7724l10.85498 0l0 -18.797974c0 -3.248169 0.7402954 -5.6956177 2.2208862 -7.342407c1.4880981 -1.6467285 3.508789 -2.4701538 6.0620117 -2.4701538c2.2737427 0 4.026245 0.7327881 5.2575073 2.1982422c1.2313232 1.4578857 1.8469849 3.6712036 1.8469849 6.6398926l0 19.7724l10.85498 0l0 -21.43805c0 -5.5219116 -1.3823853 -9.665222 -4.1470947 -12.429993c-2.7572021 -2.7647095 -6.477539 -4.1470947 -11.16095 -4.1470947c-2.7874146 0 -5.355713 0.5363159 -7.705017 1.6090088c-2.3416748 1.0650635 -4.2755127 2.5720825 -5.8013916 4.520996c-1.2992554 -1.9942627 -3.0178223 -3.5125732 -5.1555786 -4.5549927c-2.1377563 -1.0500488 -4.5285645 -1.5750122 -7.1724243 -1.5750122z" fill-rule="evenodd"/><path fill="#eeeeee" d="m661.16656 728.8006c2.7874146 0 5.0724487 0.9404297 6.8551636 2.82135c1.7902832 1.8734131 2.6854248 4.388855 2.6854248 7.5463867c0 3.1575317 -0.8951416 5.676758 -2.6854248 7.557678c-1.7827148 1.8809814 -4.067749 2.8214111 -6.8551636 2.8214111c-2.7798462 0 -5.0648804 -0.9404297 -6.8551636 -2.8214111c-1.7827148 -1.8809204 -2.6741333 -4.4001465 -2.6741333 -7.557678c0 -3.1575317 0.89141846 -5.6729736 2.6741333 -7.5463867c1.7902832 -1.8809204 4.0753174 -2.82135 6.8551636 -2.82135zm-20.259644 -22.559814l0 51.65753l10.379089 0l0 -4.3170776c2.689209 3.248169 6.60968 4.8722534 11.761475 4.8722534c3.4823608 0 6.651245 -0.8007202 9.506592 -2.4021606c2.8554077 -1.6013794 5.095154 -3.852478 6.7192383 -6.753174c1.6240845 -2.9006958 2.4361572 -6.2773438 2.4361572 -10.129822c0 -3.852478 -0.81207275 -7.229126 -2.4361572 -10.129822c-1.6240845 -2.9006958 -3.8638306 -5.1517334 -6.7192383 -6.753174c-2.8553467 -1.6014404 -6.024231 -2.4021606 -9.506592 -2.4021606c-4.781616 0 -8.539734 1.5108032 -11.274231 4.5323486l0 -18.174744z" fill-rule="evenodd"/><path fill="#eeeeee" d="m703.5708 719.8832c-3.572998 0 -6.673889 0.5136719 -9.302673 1.5410156c-2.6212158 1.0197754 -4.6154175 2.4474487 -5.982666 4.283081c-1.3672485 1.8280029 -2.0509033 3.9242554 -2.0509033 6.2886353c0 2.8327026 0.7289429 5.015808 2.1868286 6.5492554c1.4655151 1.5334473 3.1953125 2.602295 5.189575 3.206604c1.9942627 0.5967407 4.5247803 1.1293335 7.591675 1.5976562c2.5985718 0.3248291 4.5248413 0.72143555 5.7787476 1.1897583c1.2539673 0.4607544 1.8809204 1.2237549 1.8809204 2.2888184c0 2.2737427 -2.300171 3.4105835 -6.9005127 3.4105835c-2.2736816 0 -4.5927124 -0.3361206 -6.9571533 -1.0084229c-2.36438 -0.67230225 -4.38501 -1.5410156 -6.0620117 -2.606079l-3.614563 7.7956543c1.7600708 1.1557007 4.1244507 2.1188354 7.0931396 2.8893433c2.9762573 0.76293945 6.0167236 1.1444092 9.121399 1.1444092c3.6712036 0 6.840027 -0.49853516 9.506592 -1.4956665c2.666565 -0.99713135 4.694763 -2.3983765 6.084656 -4.2037354c1.397522 -1.8129883 2.0962524 -3.8789673 2.0962524 -6.197998c0 -2.7420654 -0.72143555 -4.8760986 -2.1641846 -6.4019775c-1.4352417 -1.5334473 -3.1273804 -2.5910034 -5.076294 -3.1726074c-1.9488525 -0.58166504 -4.456787 -1.1293335 -7.5236816 -1.6430054c-2.734497 -0.4154663 -4.72876 -0.85357666 -5.982727 -1.3143921c-1.2539062 -0.46832275 -1.8809204 -1.2803955 -1.8809204 -2.4361572c0 -1.0272827 0.57788086 -1.8657837 1.7336426 -2.515442c1.163269 -0.64959717 2.9082642 -0.97442627 5.2348633 -0.97442627c3.8978271 0 7.4935303 0.9291382 10.786987 2.7873535l3.614563 -7.727661c-1.7147217 -1.0197754 -3.8827515 -1.8204956 -6.5039062 -2.4020996c-2.6212158 -0.58166504 -5.253784 -0.87249756 -7.897644 -0.87249756z" fill-rule="evenodd"/><path fill="#000000" fill-opacity="0.0" d="m218.7877 797.8153l565.97205 0" fill-rule="evenodd"/><path stroke="#434343" stroke-width="4.0" stroke-linejoin="round" stroke-linecap="butt" d="m218.7877 797.8153l565.97205 0" fill-rule="evenodd"/></g></svg>