<?xml version="1.0" encoding="UTF-8"?>
<!DOCTYPE svg PUBLIC "-//W3C//DTD SVG 1.1//EN" "http://www.w3.org/Graphics/SVG/1.1/DTD/svg11.dtd">
<svg version="1.1" xmlns="http://www.w3.org/2000/svg" xmlns:xlink="http://www.w3.org/1999/xlink" x="0" y="0" width="512" height="512" viewBox="0, 0, 512, 512">
  <g id="Layer_1">
    <g>
      <path d="M512,0 L512,25.739 C510.102,34.408 506.23,42.363 500.625,49.219 C485.373,56.203 480.18,59.176 473.083,77.806 C464.139,134.95 460.375,79.132 427.017,117.233 C411.449,133.218 398.288,152.077 383.922,169.244 C380.355,173.508 375.675,175.055 371.329,178.09 C362.997,183.908 355.061,188.855 346.257,193.917 C343.603,195.443 339.237,194.274 337.125,196.037 C334.63,198.121 335.148,204.631 335.039,207.63 C334.778,214.828 333.534,223.458 327.794,228.213 C320.713,234.078 311.239,236.113 302.84,238.722 C275.09,247.345 234.035,250.233 208.748,232.692 C195.97,223.827 191.325,211.093 182.64,198.894 C178.232,192.704 158.694,192.311 152.963,197.056 C143.499,211.415 149.456,230.173 146.468,248.008 C145.583,254.54 142.106,259.176 140.589,265.313 C138.939,271.987 138.994,279.041 138.193,285.695 C137.679,289.972 135.613,294.158 134.892,298.482 C133.512,306.773 136.722,316.813 144.74,320.02 C152.243,323.021 163.548,323.314 170.983,320.128 C178.686,316.827 184.864,310.794 193.386,309.891 C199.331,309.261 212.397,310.802 215.789,316.652 L224.11,314.633 C216.42,326.057 204.319,310.03 194.666,312.445 C184.816,314.911 181.264,321.785 174.371,328.762 C172.157,331.004 168.7,331.885 166.815,334.371 C160.126,347.296 170.753,341.952 165.863,358.376 L163.943,365.779 L155.585,382.445 L154.341,385.968 C155.085,394.501 172.769,399.347 179.305,401.527 C189.86,405.047 198.995,401.325 209.388,398.95 C222.041,396.056 235.039,394.515 247.793,391.998 C254.159,390.739 264.346,386.466 266.996,379.911 L258.675,377.892 L257.394,374.527 C258.368,368.632 267.154,360.886 273.397,361.593 C277.872,362.098 281.696,365.207 286.198,365.711 C297.028,366.04 311.001,367.198 319.482,374.527 C322.988,376.56 322.219,381.022 321.402,384.622 C324.662,386.863 328.395,396.591 331.807,399.188 C406.856,367.261 437.222,332.604 453.178,253.188 C459.074,215.685 477.046,69.673 484.713,162.225 L475.662,221.089 C482.542,218.946 489.79,220.521 496.785,219.456 C502.117,217.101 507.284,214.331 512,210.895 L512,232.572 C508.098,236.153 503.484,238.834 498.705,241.044 C494.482,242.811 488.466,241.382 486.443,246.689 C485.418,249.379 486.051,252.583 485.72,255.411 C484.541,265.507 484.803,275.506 484.607,285.669 C484.539,289.233 483.063,296.144 485.012,299.081 C493.005,304.5 503.146,304.347 512,307.638 L512,512 L407.14,512 L436.617,475.474 C499.12,362.406 423.136,417.764 396.932,481.53 C391.694,491.545 387.239,501.956 382.066,512 L0,512 L0,0 L60.362,0 C57.698,27.869 57.675,55.987 60.889,83.803 L73.076,93.928 C81.542,99.881 90.573,104.085 99.112,109.748 C109.687,117.392 115.852,112.182 120.479,125.786 L129.378,137.641 C133.354,138.78 134.483,142.617 137.202,145.371 C148.951,157.274 149.833,171.321 151.781,187.441 C159.483,188.944 173.279,191.258 180.527,187.133 C183.692,185.332 185.639,181.296 188.268,178.762 C192.116,175.055 197.307,172.31 202.347,170.938 C217.264,166.881 231.85,164.206 247.153,162.655 C254.404,161.92 261.029,164.009 268.276,161.868 C263.003,151.871 264.124,148.125 266.996,137.641 C259.479,136.38 254.565,140.691 247.793,143.056 C243.797,144.13 240.783,146.774 236.912,145.717 C241.035,141.632 248.246,134.494 253.554,132.93 C259.574,128.329 259.211,129.055 264.435,120.816 C254.913,121.298 237.856,122.841 232.431,132.257 L201.067,153.792 L190.826,157.83 C191.131,153.652 196.35,144.782 200.427,143.698 L202.347,132.257 L196.587,136.968 L194.026,133.603 C193.408,122.653 185.412,117.213 189.546,109.376 C193.763,111.075 197.151,114.071 197.227,107.357 L197.867,116.106 C201.008,112.961 200.197,106.992 200.427,102.646 L205.548,102.646 L215.149,95.243 L220.91,93.898 L217.709,101.3 C220.633,99.036 223.467,95.849 223.47,91.879 L241.392,83.13 L239.472,87.168 C247.608,86.292 258.335,82.806 265.716,79.092 L265.25,82.855 C276.162,81.222 290.123,67.913 296.439,79.765 L306.193,83.531 L321.402,86.495 L288.118,96.589 C285.406,97.027 283.719,98.921 281.186,99.806 C272.83,102.721 255.439,106.681 250.354,114.76 C258.595,117.322 267.018,115.26 275.317,115.47 C282.642,115.655 290.578,118.843 297.72,120.508 C308.701,123.068 321.901,124.247 330.364,132.93 L318.385,129.991 L292.599,123.508 L283.638,121.49 L278.517,122.835 C284.356,129.685 296.361,129.824 305.401,133.603 C306.132,139.107 316.48,141.377 320.763,142.352 L324.603,153.792 L302.84,143.025 C305.332,153.151 301.161,155.682 298.36,164.56 C305.439,165.501 314.229,166.058 320.763,169.205 C324.942,171.218 328.458,177.183 332.925,177.802 C336.304,178.27 343.202,178.49 346.222,176.806 C353.607,171.545 361.018,169.506 369.409,165.88 C385.811,156.266 396.736,140.584 409.734,126.873 C418.096,118.053 426.467,108.663 434.237,99.281 C447.423,68.125 450.129,33.46 447.685,0 L512,0 z M287.91,375.377 L286.839,375.409 C283.684,375.665 281.847,378.411 279.772,380.557 C264.884,393.609 256.861,399.706 236.912,403.687 C227.627,405.706 218.125,409.004 208.748,410.653 C200.968,412 182.53,413.902 176.104,410.868 C168.108,408.459 168.57,415.209 168.423,420.963 L178.664,429.038 C184.3,429.664 189.831,433.48 195.578,434.611 C202.558,435.977 213.895,434.429 220.91,433.13 C242.799,425.306 259.249,413.498 277.877,402.119 L270.043,421.968 L242.707,442.188 C226.333,450.91 214.03,453.103 194.666,452.592 L185.705,457.976 L182.505,468.744 C183.604,475.846 186.589,476.631 189.571,480.124 C222.214,508.406 245.015,479.931 279.806,485.965 C300.671,478.812 295.409,470.821 309.498,457.276 C327.66,446.056 333.167,442.587 334.204,430.384 L327.803,428.365 L309.881,430.384 L295.799,424.328 L304.12,422.982 L309.881,404.811 L309.341,390.739 C307.809,386.513 304.159,385.026 300.904,382.637 C296.524,379.204 293.647,376.091 287.91,375.377 z M129.378,233.876 L127.458,236.568 L128.098,233.876 C117.055,243.359 101.245,245.216 87.502,245.254 C81.722,245.27 70.341,243.531 67.29,250.027 L71.444,263.756 L73.574,268.167 L85.13,317.998 C87.578,328.68 90.458,341.07 94.814,350.3 C99.422,343.208 104.046,327.882 113.343,326.44 C124.709,327.809 117.924,334.019 124.931,340.879 L130.018,320.69 C132.254,311.381 121.962,306.715 121.735,297.809 C121.506,288.822 127.385,281.764 129.546,273.582 C131.494,266.206 130.383,257.695 130.683,250.028 C130.889,244.767 133.503,237.884 129.378,233.876 z M253.888,168.871 C243.852,168.978 233.984,171.02 224.11,172.596 C217.889,173.516 210.312,172.699 205.548,178.019 L196.464,185.653 C191.609,192.273 219.314,199.414 201.246,211.842 C197.941,217.328 204.778,224.423 208.758,227.436 C215.194,232.307 223.558,234.719 231.151,236.655 C253.574,242.373 281.855,240.128 303.48,231.821 C312.125,228.501 322.996,226.374 328.873,218.049 C340.441,191.774 324.637,190.325 325.243,189.46 C319.341,175.147 314.345,182.421 310.521,175.327 C290.604,172.411 284.891,185.929 266.996,170.617 C262.76,169.172 258.302,169.068 253.888,168.871 z M131.939,153.119 C127.097,159.307 123.461,166.599 116.74,170.679 C117.352,174.202 132.115,184.447 136.444,186.658 C145.076,186.912 149.171,174.666 142.82,169.271 L141.86,158.615 L131.939,153.119 z M96.094,138.314 L76.801,144.398 C76.233,161.345 83.335,165.345 97.374,167.925 C96.331,164.177 92.86,162.045 91.256,158.503 C87.887,151.064 93.457,144.747 96.094,138.314 z M112.715,148.823 L112.156,148.915 C109.522,149.625 109.827,154.226 112.727,153.752 C114.837,153.501 115.676,149.945 113.641,149.002 C113.356,148.87 113.024,148.883 112.715,148.823 z M281.779,146.381 C279.125,146.702 278.694,150.283 281.161,151.267 C284.009,152.068 285.162,147.132 282.291,146.447 L281.779,146.381 z M234.352,93.449 C233.857,93.449 234.249,93.784 234.565,93.674 L234.352,93.449 z" fill="#000000"/>
      <path d="M512,146.056 L512,154.954 C509.789,158.94 506.843,162.537 504.847,166.647 L496.785,168.598 L501.265,157.157 L512,146.056 z" fill="#000000"/>
    </g>
    <path d="M0.5,0.5 L512.5,0.5 L512.5,512.5 L0.5,512.5 L0.5,0.5 z" fill-opacity="0" stroke="#3498DB" stroke-width="10"/>
  </g>
</svg>
