<svg version="1.1" viewBox="0.0 0.0 600.0 600.0" fill="none" stroke="none" stroke-linecap="square" stroke-miterlimit="10" xmlns:xlink="http://www.w3.org/1999/xlink" xmlns="http://www.w3.org/2000/svg"><clipPath id="gf0c4ed7212_0_0.0"><path d="m0 0l600.0 0l0 600.0l-600.0 0l0 -600.0z" clip-rule="nonzero"/></clipPath><g clip-path="url(#gf0c4ed7212_0_0.0)"><path fill="#ffffff" d="m0 0l600.0 0l0 600.0l-600.0 0z" fill-rule="evenodd"/><path fill="#eeeeee" d="m51.779526 50.425198l496.44092 0l0 499.14963l-496.44092 0z" fill-rule="evenodd"/><path fill="#414141" d="m-122.97113 99.13911l104.031494 0l0 25.858269l-104.031494 0z" fill-rule="evenodd"/><path fill="#000000" d="m-122.97113 66.38058l104.031494 0l0 25.858269l-104.031494 0z" fill-rule="evenodd"/><path fill="#eeeeee" d="m-122.97113 164.65617l104.031494 0l0 25.858261l-104.031494 0z" fill-rule="evenodd"/><path fill="#999999" d="m-122.97113 131.89764l104.031494 0l0 25.858261l-104.031494 0z" fill-rule="evenodd"/><path fill="#414141" d="m186.08272 475.53464l205.72899 -101.511475l22.099365 44.753876l-205.72896 101.511475z" fill-rule="evenodd"/><path fill="#999999" d="m128.32239 130.09245l0 0c0 -31.605652 25.621445 -57.227097 57.22711 -57.227097l228.90155 0l0 0c15.177582 0 29.73352 6.0292664 40.465668 16.761429c10.732178 10.732162 16.761444 25.288101 16.761444 40.465668l0 230.60152c0 31.605652 -25.62146 57.22711 -57.22711 57.22711l-228.90155 0c-31.605667 0 -57.22711 -25.62146 -57.22711 -57.22711z" fill-rule="evenodd"/><path fill="#000000" d="m172.01884 159.4369l0 0c0 -23.56134 19.100235 -42.661575 42.661575 -42.661575l170.64117 0l0 0c11.314545 0 22.16568 4.4946823 30.16629 12.495285c8.00058 8.000595 12.49527 18.85173 12.49527 30.16629l0 171.92479c0 23.56134 -19.10022 42.66159 -42.66156 42.66159l-170.64117 0c-23.56134 0 -42.661575 -19.10025 -42.661575 -42.66159z" fill-rule="evenodd"/><path fill="#999999" d="m128.32239 527.12854l10.192062 -59.463654l322.97162 0l10.192078 59.463654z" fill-rule="evenodd"/><path fill="#414141" d="m241.3667 245.39388l0 0c0 -32.381012 26.25 -58.631027 58.631012 -58.631027l0 0c15.549927 0 30.462952 6.177185 41.458405 17.172638c10.995453 10.995453 17.172638 25.908478 17.172638 41.45839l0 0c0 32.381027 -26.25 58.631027 -58.631042 58.631027l0 0c-32.381012 0 -58.631012 -26.25 -58.631012 -58.631027z" fill-rule="evenodd"/><path fill="#000000" d="m250.1784 245.40254l0 0c0 -27.514297 22.304749 -49.81903 49.81903 -49.81903l0 0c13.21283 0 25.884491 5.2487793 35.227356 14.59166c9.3428955 9.34288 14.591675 22.014542 14.591675 35.22737l0 0c0 27.514267 -22.304749 49.819016 -49.81903 49.819016l0 0c-27.514282 0 -49.81903 -22.304749 -49.81903 -49.819016z" fill-rule="evenodd"/><path fill="#414141" d="m283.8999 245.40254l0 0c0 -8.890411 7.2070923 -16.097519 16.097504 -16.097519l0 0c4.2693176 0 8.3638 1.6959839 11.38266 4.714859c3.0188599 3.0188599 4.7148438 7.113327 4.7148438 11.38266l0 0c0 8.890396 -7.2070923 16.097519 -16.097504 16.097519l0 0c-8.890411 0 -16.097504 -7.207123 -16.097504 -16.097519z" fill-rule="evenodd"/></g></svg>