<svg version="1.1" viewBox="0.0 0.0 600.0 600.0" fill="none" stroke="none" stroke-linecap="square" stroke-miterlimit="10" xmlns:xlink="http://www.w3.org/1999/xlink" xmlns="http://www.w3.org/2000/svg"><clipPath id="gf0c4ed7212_0_0.0"><path d="m0 0l600.0 0l0 600.0l-600.0 0l0 -600.0z" clip-rule="nonzero"/></clipPath><g clip-path="url(#gf0c4ed7212_0_0.0)"><path fill="#ffffff" d="m0 0l600.0 0l0 600.0l-600.0 0z" fill-rule="evenodd"/><path fill="#eeeeee" d="m51.779526 50.425198l496.44092 0l0 499.14963l-496.44092 0z" fill-rule="evenodd"/><path fill="#414141" d="m-122.97113 99.13911l104.031494 0l0 25.858269l-104.031494 0z" fill-rule="evenodd"/><path fill="#000000" d="m-122.97113 66.38058l104.031494 0l0 25.858269l-104.031494 0z" fill-rule="evenodd"/><path fill="#eeeeee" d="m-122.97113 164.65617l104.031494 0l0 25.858261l-104.031494 0z" fill-rule="evenodd"/><path fill="#999999" d="m-122.97113 131.89764l104.031494 0l0 25.858261l-104.031494 0z" fill-rule="evenodd"/><path fill="#414141" d="m190.94614 468.04187l196.94434 -97.17691l21.155762 42.842865l-196.94437 97.17691z" fill-rule="evenodd"/><path fill="#999999" d="m135.65216 137.35008l0 0c0 -30.256096 24.52742 -54.78351 54.78351 -54.78351l219.12747 0l0 0c14.52948 0 28.463867 5.77182 38.737793 16.045723c10.273895 10.273895 16.045715 24.208298 16.045715 38.737785l0 220.75484c0 30.256073 -24.527435 54.78351 -54.78351 54.78351l-219.12747 0l0 0c-30.256088 0 -54.78351 -24.527435 -54.78351 -54.78351z" fill-rule="evenodd"/><path fill="#000000" d="m177.48279 165.44151l0 0c0 -22.555267 18.284653 -40.83992 40.83992 -40.83992l163.35478 0l0 0c10.831421 0 21.219208 4.302765 28.878204 11.961731c7.658966 7.6589813 11.961731 18.046768 11.961731 28.87819l0 164.58363c0 22.555267 -18.284668 40.839905 -40.839935 40.839905l-163.35478 0c-22.555267 0 -40.83992 -18.284637 -40.83992 -40.839905z" fill-rule="evenodd"/><path fill="#999999" d="m135.65216 517.43274l9.756866 -56.92456l309.18073 0l9.756866 56.92456z" fill-rule="evenodd"/><path fill="#414141" d="m243.86948 247.72813l0 0c0 -30.998352 25.12912 -56.127487 56.127472 -56.127487l0 0c14.885956 0 29.16217 5.9134216 39.68814 16.439362c10.52594 10.52594 16.439362 24.802185 16.439362 39.688126l0 0c0 30.998337 -25.12915 56.127487 -56.127502 56.127487l0 0c-30.998352 0 -56.127472 -25.12915 -56.127472 -56.127487z" fill-rule="evenodd"/><path fill="#000000" d="m252.30493 247.73642l0 0c0 -26.339432 21.352325 -47.691757 47.691742 -47.691757l0 0c12.648651 0 24.779236 5.024658 33.723175 13.968597c8.943939 8.943939 13.968597 21.074524 13.968597 33.72316l0 0c0 26.339417 -21.352325 47.691742 -47.691772 47.691742l0 0c-26.339417 0 -47.691742 -21.352325 -47.691742 -47.691742z" fill-rule="evenodd"/><path fill="#414141" d="m284.58652 247.73642l0 0c0 -8.510788 6.899353 -15.410156 15.410156 -15.410156l0 0c4.0870056 0 8.006653 1.6235657 10.896606 4.5135345c2.8899536 2.8899689 4.5135193 6.809601 4.5135193 10.896622l0 0c0 8.510773 -6.899353 15.410156 -15.410126 15.410156l0 0c-8.510803 0 -15.410156 -6.8993835 -15.410156 -15.410156z" fill-rule="evenodd"/></g></svg>