<svg version="1.1" viewBox="0.0 0.0 3000.0 3000.0" fill="none" stroke="none" stroke-linecap="square" stroke-miterlimit="10" xmlns:xlink="http://www.w3.org/1999/xlink" xmlns="http://www.w3.org/2000/svg"><clipPath id="p.0"><path d="m0 0l3000.0 0l0 3000.0l-3000.0 0l0 -3000.0z" clip-rule="nonzero"/></clipPath><g clip-path="url(#p.0)"><path fill="#000000" fill-opacity="0.0" d="m0 0l3000.0 0l0 3000.0l-3000.0 0z" fill-rule="evenodd"/><path fill="#e03f3c" d="m0.84664655 0.00494042l757.6455 0l0 322.04907l-757.6455 0z" fill-rule="evenodd"/><path fill="#f4bc26" d="m758.51526 0.00494042l750.099 0l0 322.04907l-750.099 0z" fill-rule="evenodd"/><path fill="#46a955" d="m1498.9486 0.00494042l750.099 0l0 322.04907l-750.099 0z" fill-rule="evenodd"/><path fill="#5580f2" d="m2249.0435 0.00494042l750.0989 0l0 322.04907l-750.0989 0z" fill-rule="evenodd"/><path fill="#e03f3c" d="m1.0033573 2676.5618l757.64545 0l0 322.04907l-757.64545 0z" fill-rule="evenodd"/><path fill="#f4bc26" d="m758.67194 2676.5618l750.09906 0l0 322.04907l-750.09906 0z" fill-rule="evenodd"/><path fill="#46a955" d="m1499.1052 2676.5618l750.0991 0l0 322.04907l-750.0991 0z" fill-rule="evenodd"/><path fill="#5580f2" d="m2249.2002 2676.5618l750.0989 0l0 322.04907l-750.0989 0z" fill-rule="evenodd"/><path fill="#999999" d="m79.66938 2346.594c18.696808 0 32.959496 4.652588 42.78807 13.958252c9.828575 9.268066 14.742912 22.628174 14.742912 40.080566c0 17.452393 -4.914337 30.831299 -14.742912 40.13672c-9.828575 9.305664 -24.091263 13.958252 -42.78807 13.958252l-50.135513 0l0 -108.13379zm-79.669365 -29.990479l0 241.10083l29.533854 0l0 -73.04199l50.999924 0c26.764587 0 47.81449 -7.4558105 63.14962 -22.366943c15.33522 -14.911133 23.002792 -35.465332 23.002792 -61.662598c0 -26.159912 -7.667572 -46.695312 -23.002792 -61.606445c-15.33522 -14.94873 -36.38513 -22.422852 -63.14962 -22.422852z" fill-rule="evenodd"/><path fill="#999999" d="m217.45708 2296.9836c-5.506546 0 -10.084732 2.130127 -13.734436 6.390381c-3.6497192 4.2229004 -5.474579 9.324219 -5.474579 15.303467c0 5.979492 1.8248596 11.043213 5.474579 15.19165c3.649704 4.11084 8.22789 6.16626 13.734436 6.16626c5.5065613 0 10.068695 -2.1115723 13.686417 -6.3344727c3.6497192 -4.260498 5.474579 -9.492432 5.474579 -15.696045c0 -5.979492 -1.8248596 -10.968506 -5.474579 -14.967285c-3.6177216 -4.0358887 -8.179855 -6.053955 -13.686417 -6.053955zm-14.166641 78.19946l0 182.52124l28.333282 0l0 -182.52124z" fill-rule="evenodd"/><path fill="#999999" d="m265.8241 2375.183l58.731567 89.18652l-61.66092 93.33472l31.550781 0l45.765472 -69.90283l45.141174 69.90283l32.127075 0l-62.237183 -93.33472l59.019684 -89.18652l-30.974548 0l-42.788055 65.75464l-43.076202 -65.75464z" fill-rule="evenodd"/><path fill="#999999" d="m507.18027 2401.3616c13.57431 0 24.939606 4.876953 34.095978 14.630859c9.15625 9.753906 14.518738 22.329346 16.087585 37.72632l-100.31909 0c1.5687256 -15.621094 6.9152527 -28.252686 16.03952 -37.89453c9.1562805 -9.641602 20.521576 -14.4626465 34.09601 -14.4626465zm0 -27.91626c-14.95105 0 -28.381317 3.9611816 -40.290894 11.884033c-11.8776245 7.9226074 -21.210022 19.003174 -27.997131 33.2417c-6.7872314 14.238525 -10.180786 30.196045 -10.180786 47.87256c0 17.900879 3.4895935 33.970703 10.468903 48.208984c6.979309 14.238525 16.855927 25.319092 29.629913 33.241943c12.805969 7.9226074 27.468872 11.884033 43.988617 11.884033c12.998047 0 24.747559 -2.522461 35.248535 -7.567627c10.532959 -5.045166 19.337158 -12.407471 26.412415 -22.086426l-15.607361 -21.301758c-11.429321 14.687012 -26.47644 22.030518 -45.141174 22.030518c-15.3671875 0 -28.221191 -4.876953 -38.562073 -14.630859c-10.308807 -9.753906 -16.343597 -22.68457 -18.104492 -38.791504l126.87555 0c0.38415527 -4.11084 0.5762329 -7.4370117 0.5762329 -9.9782715c0 -18.349121 -3.2974854 -34.643066 -9.892639 -48.88159c-6.595093 -14.238525 -15.751404 -25.319092 -27.468872 -33.2417c-11.685486 -7.9228516 -25.003784 -11.884033 -39.954742 -11.884033z" fill-rule="evenodd"/><path fill="#999999" d="m623.73706 2302.1409l0 255.56348l28.333252 0l0 -255.56348z" fill-rule="evenodd"/><path fill="#999999" d="m869.2239 2346.594c18.696777 0 32.95941 4.652588 42.788086 13.958252c9.828613 9.268066 14.74292 22.628174 14.74292 40.080566c0 17.452393 -4.9143066 30.831299 -14.74292 40.13672c-9.828674 9.305664 -24.091309 13.958252 -42.788086 13.958252l-50.135498 0l0 -108.13379zm-79.66937 -29.990479l0 241.10083l29.533875 0l0 -73.04199l50.999878 0c26.764587 0 47.814392 -7.4558105 63.14966 -22.366943c15.335144 -14.911133 23.002747 -35.465332 23.002747 -61.662598c0 -26.159912 -7.6676025 -46.695312 -23.002747 -61.606445c-15.335205 -14.94873 -36.38507 -22.422852 -63.14966 -22.422852z" fill-rule="evenodd"/><path fill="#999999" d="m1061.9017 2402.3706c10.02063 0 19.016846 2.6533203 26.988647 7.960205c7.9716797 5.269287 14.2146 12.781006 18.72876 22.534912c4.51416 9.753906 6.771118 20.946533 6.771118 33.57788c0 12.631592 -2.256958 23.824219 -6.771118 33.578125c-4.51416 9.753906 -10.75708 17.340332 -18.72876 22.759277c-7.9718018 5.3813477 -16.968018 8.072266 -26.988647 8.072266c-10.052734 0 -19.064941 -2.690918 -27.036743 -8.072266c-7.9396973 -5.4189453 -14.230652 -13.005371 -18.872803 -22.759277c-4.6101685 -9.753906 -6.915283 -20.946533 -6.915283 -33.578125c0 -12.631348 2.3051147 -23.823975 6.915283 -33.57788c4.642151 -9.753906 10.933105 -17.265625 18.872803 -22.534912c7.9718018 -5.306885 16.984009 -7.960205 27.036743 -7.960205zm0 -28.925293c-15.559326 0 -29.533936 3.9611816 -41.923706 11.884033c-12.389832 7.9226074 -22.07434 18.947266 -29.05365 33.073486c-6.979248 14.126465 -10.468872 30.140137 -10.468872 48.04077c0 17.900879 3.489624 33.91455 10.468872 48.041016c6.979309 14.126221 16.663818 25.206787 29.05365 33.2417c12.3897705 8.034912 26.36438 12.052246 41.923706 12.052246c15.527222 0 29.437744 -4.017334 41.731567 -12.052246c12.293701 -8.034912 21.930298 -19.115479 28.909546 -33.2417c6.979248 -14.126465 10.468872 -30.140137 10.468872 -48.041016c0 -17.900635 -3.489624 -33.914307 -10.468872 -48.04077c-6.979248 -14.126221 -16.615845 -25.150879 -28.909546 -33.073486c-12.293823 -7.9228516 -26.204346 -11.884033 -41.731567 -11.884033z" fill-rule="evenodd"/><path fill="#999999" d="m1152.7737 2375.183l58.107178 182.52124l27.132812 0l45.76538 -138.4607l45.141235 138.4607l27.13269 0l58.44348 -182.52124l-25.40393 0l-46.629883 146.02832l-46.2937 -146.02832l-23.915283 0l-47.206177 145.29956l-45.42932 -145.29956z" fill-rule="evenodd"/><path fill="#999999" d="m1502.6798 2401.3616c13.574341 0 24.939697 4.876953 34.09607 14.630859c9.15625 9.753906 14.518799 22.329346 16.087524 37.72632l-100.31909 0c1.5687256 -15.621094 6.915283 -28.252686 16.03955 -37.89453c9.15625 -9.641602 20.521606 -14.4626465 34.095947 -14.4626465zm0 -27.91626c-14.95105 0 -28.381348 3.9611816 -40.290894 11.884033c-11.877563 7.9226074 -21.20996 19.003174 -27.99707 33.2417c-6.7872314 14.238525 -10.180786 30.196045 -10.180786 47.87256c0 17.900879 3.489624 33.970703 10.468872 48.208984c6.979248 14.238525 16.855957 25.319092 29.629883 33.241943c12.80603 7.9226074 27.468872 11.884033 43.988647 11.884033c12.998047 0 24.747559 -2.522461 35.248535 -7.567627c10.532959 -5.045166 19.337036 -12.407471 26.412354 -22.086426l-15.6073 -21.301758c-11.429321 14.687012 -26.47644 22.030518 -45.141113 22.030518c-15.36731 0 -28.221313 -4.876953 -38.562134 -14.630859c-10.308838 -9.753906 -16.343628 -22.68457 -18.104492 -38.791504l126.87549 0c0.38415527 -4.11084 0.57629395 -7.4370117 0.57629395 -9.9782715c0 -18.349121 -3.2974854 -34.643066 -9.892578 -48.88159c-6.595215 -14.238525 -15.751465 -25.319092 -27.468994 -33.2417c-11.685425 -7.9228516 -25.003662 -11.884033 -39.954712 -11.884033z" fill-rule="evenodd"/><path fill="#999999" d="m1703.324 2373.4453c-13.7664795 0 -25.468018 2.7653809 -35.104492 8.296387c-9.636475 5.4936523 -16.919922 13.509766 -21.85022 24.04834l0 -30.606934l-27.132812 0l0 182.52124l28.333374 0l0 -90.92432c0 -19.731934 4.369995 -34.94214 13.110107 -45.63037c8.772095 -10.688232 20.825806 -16.032227 36.16101 -16.032227c2.753296 0 4.9143066 0.11206055 6.483032 0.33642578l0 -32.008545z" fill-rule="evenodd"/><path fill="#999999" d="m1903.3749 2346.594c18.696777 0 32.959473 4.652588 42.788086 13.958252c9.828613 9.268066 14.74292 22.628174 14.74292 40.080566c0 17.452393 -4.9143066 30.831299 -14.74292 40.13672c-9.828613 9.305664 -24.091309 13.958252 -42.788086 13.958252l-50.135498 0l0 -108.13379zm-79.66931 -29.990479l0 241.10083l29.533813 0l0 -73.04199l50.999878 0c26.764648 0 47.814453 -7.4558105 63.14966 -22.366943c15.335205 -14.911133 23.002808 -35.465332 23.002808 -61.662598c0 -26.159912 -7.6676025 -46.695312 -23.002808 -61.606445c-15.335205 -14.94873 -36.38501 -22.422852 -63.14966 -22.422852z" fill-rule="evenodd"/><path fill="#999999" d="m2096.0527 2402.3706c10.020752 0 19.016846 2.6533203 26.98877 7.960205c7.9716797 5.269287 14.2146 12.781006 18.72876 22.534912c4.513916 9.753906 6.770996 20.946533 6.770996 33.57788c0 12.631592 -2.25708 23.824219 -6.770996 33.578125c-4.51416 9.753906 -10.75708 17.340332 -18.72876 22.759277c-7.971924 5.3813477 -16.968018 8.072266 -26.98877 8.072266c-10.052734 0 -19.064941 -2.690918 -27.036621 -8.072266c-7.9396973 -5.4189453 -14.230713 -13.005371 -18.872803 -22.759277c-4.6102295 -9.753906 -6.9154053 -20.946533 -6.9154053 -33.578125c0 -12.631348 2.3051758 -23.823975 6.9154053 -33.57788c4.64209 -9.753906 10.933105 -17.265625 18.872803 -22.534912c7.9716797 -5.306885 16.983887 -7.960205 27.036621 -7.960205zm0 -28.925293c-15.559326 0 -29.533936 3.9611816 -41.923584 11.884033c-12.389893 7.9226074 -22.074463 18.947266 -29.05371 33.073486c-6.979248 14.126465 -10.468872 30.140137 -10.468872 48.04077c0 17.900879 3.489624 33.91455 10.468872 48.041016c6.979248 14.126221 16.663818 25.206787 29.05371 33.2417c12.389648 8.034912 26.364258 12.052246 41.923584 12.052246c15.527344 0 29.437744 -4.017334 41.73169 -12.052246c12.293701 -8.034912 21.930176 -19.115479 28.909424 -33.2417c6.979248 -14.126465 10.468994 -30.140137 10.468994 -48.041016c0 -17.900635 -3.489746 -33.914307 -10.468994 -48.04077c-6.979248 -14.126221 -16.615723 -25.150879 -28.909424 -33.073486c-12.293945 -7.9228516 -26.204346 -11.884033 -41.73169 -11.884033z" fill-rule="evenodd"/><path fill="#999999" d="m2283.4097 2402.3706c9.828613 0 18.776855 2.6533203 26.844482 7.960205c8.067871 5.269287 14.358887 12.781006 18.872803 22.534912c4.51416 9.753906 6.77124 20.946533 6.77124 33.57788c0 12.631592 -2.25708 23.824219 -6.77124 33.578125c-4.513916 9.753906 -10.804932 17.340332 -18.872803 22.759277c-8.067627 5.3813477 -17.01587 8.072266 -26.844482 8.072266c-10.052734 0 -19.064941 -2.690918 -27.036621 -8.072266c-7.9399414 -5.4189453 -14.230713 -13.005371 -18.873047 -22.759277c-4.6101074 -9.753906 -6.915283 -20.946533 -6.915283 -33.578125c0 -12.631348 2.3051758 -23.823975 6.915283 -33.57788c4.642334 -9.753906 10.933105 -17.265625 18.873047 -22.534912c7.9716797 -5.306885 16.983887 -7.960205 27.036621 -7.960205zm52.20044 -100.22974l0 100.56616c-6.2749023 -9.641846 -14.1345215 -16.9292 -23.579102 -21.862305c-9.444336 -4.9328613 -19.769287 -7.399414 -30.97461 -7.399414c-15.143066 0 -28.717285 3.9052734 -40.7229 11.71582c-12.005615 7.810547 -21.4021 18.723145 -28.189209 32.737305c-6.7873535 13.976807 -10.180908 30.158691 -10.180908 48.545166c0 18.349365 3.3935547 34.58716 10.180908 48.713623c6.7871094 14.126221 16.183594 25.094727 28.189209 32.905518c12.005615 7.810547 25.579834 11.71582 40.7229 11.71582c11.5896 0 22.202637 -2.6347656 31.839111 -7.9040527c9.636475 -5.3066406 17.608154 -13.005127 23.91504 -23.095459l0 28.925293l27.132812 0l0 -255.56348z" fill-rule="evenodd"/><path fill="#999999" d="m2485.7864 2373.4453c-15.911377 0 -30.125977 3.9611816 -42.6438 11.884033c-12.48584 7.9226074 -22.266602 18.947266 -29.341797 33.073486c-7.0754395 14.126465 -10.613037 30.140137 -10.613037 48.04077c0 17.900879 3.5375977 33.91455 10.613037 48.041016c7.0751953 14.126221 16.855957 25.206787 29.341797 33.2417c12.517822 8.034912 26.732422 12.052246 42.6438 12.052246c14.182861 0 26.828857 -3.38208 37.93799 -10.14624c11.109131 -6.801758 19.705078 -16.51831 25.788086 -29.149658l-21.51416 -15.808105c-4.930176 8.70752 -11.029053 15.247559 -18.29663 19.619873c-7.267334 4.3725586 -15.335205 6.558838 -24.20337 6.558838c-10.2126465 0 -19.401123 -2.6347656 -27.564941 -7.9040527c-8.163818 -5.306885 -14.566895 -12.837158 -19.208984 -22.591064c-4.6101074 -9.753906 -6.915283 -21.058594 -6.915283 -33.91455c0 -12.631348 2.3051758 -23.823975 6.915283 -33.57788c4.64209 -9.753906 11.045166 -17.265625 19.208984 -22.534912c8.163818 -5.306885 17.352295 -7.960205 27.564941 -7.960205c8.868164 0 16.936035 2.1862793 24.20337 6.5585938c7.267578 4.3725586 13.366455 10.912598 18.29663 19.620117l21.51416 -16.20044c-6.083008 -12.631592 -14.678955 -22.273438 -25.788086 -28.925537c-11.109375 -6.6520996 -23.755371 -9.978027 -37.93799 -9.978027z" fill-rule="evenodd"/><path fill="#999999" d="m2681.729 2476.4219l0 25.50586c-3.5534668 10.314453 -9.268311 18.293213 -17.144043 23.93628c-7.843506 5.605713 -17.176025 8.408691 -27.99707 8.408691c-10.821045 0 -19.289062 -2.6347656 -25.403809 -7.9040527c-6.083008 -5.269287 -9.124268 -12.500732 -9.124268 -21.694092c0 -18.835205 11.989502 -28.252686 35.96875 -28.252686zm-38.65796 -102.97656c-12.582031 0 -24.4917 2.0180664 -35.72876 6.053955c-11.205322 3.9987793 -20.841797 9.791504 -28.909668 17.377686l11.813477 24.777344c6.11499 -5.979492 13.590576 -10.744385 22.426514 -14.294678c8.868164 -3.550293 17.912598 -5.3254395 27.132812 -5.3254395c13.766357 0 24.187256 3.793213 31.262695 11.379639c7.107422 7.5490723 10.660889 18.442871 10.660889 32.681152l0 6.558838l-44.853027 0c-21.834229 0 -37.777588 4.876953 -47.830322 14.630859c-10.020752 9.753906 -15.031006 22.665527 -15.031006 38.73535c0 16.06958 5.2663574 29.056152 15.799316 38.959473c10.532959 9.865967 24.53955 14.799072 42.019775 14.799072c12.005615 0 22.378418 -2.2421875 31.118652 -6.7268066c8.771973 -4.484619 15.51123 -10.968506 20.217285 -19.451904l0 24.104492l26.892578 0l0 -110.20776c0 -24.552979 -5.7626953 -43.033203 -17.288086 -55.44043c-11.493408 -12.407227 -28.061035 -18.61084 -49.703125 -18.61084z" fill-rule="evenodd"/><path fill="#999999" d="m2813.0278 2373.4453c-19.881348 0 -35.72876 4.9890137 -47.542236 14.967041c-11.781494 9.9782715 -17.672363 23.245117 -17.672363 39.800537c0 12.855713 2.8493652 22.85254 8.548096 29.990479c5.6987305 7.100586 12.533936 12.145752 20.505615 15.135254c7.9716797 2.989746 18.248535 5.6245117 30.830566 7.9040527c9.252197 1.8312988 16.375488 3.4943848 21.369873 4.989258c5.026367 1.4946289 9.204346 3.849121 12.533936 7.0629883c3.3615723 3.2141113 5.0424805 7.586426 5.0424805 13.117432c0 16.518066 -12.389893 24.7771 -37.169434 24.7771c-10.020752 0 -19.961426 -1.7189941 -29.822021 -5.1572266c-9.828613 -3.4382324 -18.18457 -8.034912 -25.067871 -13.790039l-11.813477 26.17871c6.691162 6.2036133 15.943359 11.323486 27.75708 15.359619c11.813477 3.9987793 24.107178 5.998047 36.881104 5.998047c20.841797 0 37.31372 -4.876953 49.415283 -14.630859c12.1015625 -9.753906 18.152588 -22.908691 18.152588 -39.46411c0 -12.407227 -2.753418 -22.049072 -8.26001 -28.925293c-5.506592 -6.876465 -12.149658 -11.753418 -19.9292 -14.630859c-7.7478027 -2.8776855 -17.928467 -5.5683594 -30.54248 -8.072266c-9.444336 -2.0927734 -16.775635 -3.942627 -21.99414 -5.5495605c-5.1865234 -1.6071777 -9.556641 -4.1296387 -13.110352 -7.567871c-3.5214844 -3.4379883 -5.2824707 -8.146973 -5.2824707 -14.126221c0 -7.5490723 3.1376953 -13.621826 9.412598 -18.218506c6.306885 -4.5966797 15.463135 -6.8950195 27.46875 -6.8950195c17.288086 0 32.335205 4.820801 45.141113 14.4626465l12.101807 -26.17871c-6.691162 -5.044922 -15.255127 -9.0625 -25.692139 -12.052246c-10.436768 -2.989502 -20.857666 -4.484375 -31.262695 -4.484375z" fill-rule="evenodd"/><path fill="#999999" d="m2914.5063 2335.2144l0 39.96875l-26.55664 0l0 27.1875l26.55664 0l0 100.22974c0 18.349365 4.3220215 32.47583 12.966064 42.37915c8.676025 9.865967 20.87378 14.799072 36.593018 14.799072c6.4992676 0 12.790039 -1.0837402 18.873047 -3.2512207c6.114746 -2.2050781 11.237061 -5.362793 15.3671875 -9.473633l-8.836182 -23.76831c-6.11499 5.7177734 -13.494385 8.576904 -22.138428 8.576904c-7.8757324 0 -13.926514 -2.6347656 -18.152588 -7.9040527c-4.22583 -5.2695312 -6.338867 -12.855713 -6.338867 -22.759277l0 -98.82837l44.853027 0l0 -27.1875l-44.853027 0l0 -39.96875z" fill-rule="evenodd"/><path fill="#f4bc26" d="m2375.073 777.20953c97.26416 0 171.13306 25.88031 221.60645 77.64093c50.68994 51.493835 76.03516 125.66626 76.03516 222.51733c0 94.9834 -25.345215 168.35535 -76.03516 220.11609c-50.47339 51.493774 -124.34204 77.24072 -221.60645 77.24072l-263.5232 0l0 -597.5151zm-586.8345 -324.57117l0 1721.3076l323.31128 0l0 -474.65027l281.71973 0c123.69238 0 231.1377 -24.946655 322.33643 -74.83948c91.19873 -50.159912 161.38501 -122.3313 210.5586 -216.51416c49.17383 -94.18298 73.7605 -204.37439 73.7605 -330.57434c0 -127.80072 -24.58667 -238.39233 -73.7605 -331.77496c-49.173584 -93.64935 -119.35986 -165.8208 -210.5586 -216.51416c-91.19849 -50.960236 -198.64404 -76.44031 -322.33643 -76.44031z" fill-rule="evenodd"/><path fill="#e03f3c" d="m1480.5675 777.20953c97.26416 0 171.13306 25.88031 221.60645 77.64093c50.68994 51.493835 76.035034 125.66626 76.035034 222.51733c0 94.9834 -25.345093 168.35535 -76.035034 220.11609c-50.47339 51.493774 -124.34216 77.24072 -221.60645 77.24072l-263.5232 0l0 -597.5151zm-586.83453 -324.57117l0 1721.3076l323.31134 0l0 -474.65027l281.7196 0c123.69238 0 231.13782 -24.946655 322.33655 -74.83948c91.19873 -50.159912 161.38501 -122.3313 210.5586 -216.51416c49.173706 -94.18298 73.76062 -204.37439 73.76062 -330.57434c0 -127.80072 -24.586914 -238.39233 -73.76062 -331.77496c-49.173584 -93.64935 -119.35986 -165.8208 -210.5586 -216.51416c-91.19861 -50.960236 -198.64417 -76.44031 -322.33655 -76.44031z" fill-rule="evenodd"/><path fill="#5580f2" d="m586.8388 777.2143c97.26422 0 171.133 25.880371 221.60638 77.64099c50.690063 51.493835 76.035034 125.66626 76.035034 222.51727c0 94.9834 -25.34497 168.35547 -76.035034 220.11609c-50.47339 51.493896 -124.34216 77.24072 -221.60638 77.24072l-263.52316 0l0 -597.5151zm-586.83453 -324.5711l0 1721.3077l323.3114 0l0 -474.6504l281.71957 0c123.69232 0 231.13788 -24.946533 322.3366 -74.83948c91.19867 -50.15979 161.38489 -122.3313 210.5586 -216.51416c49.173584 -94.18298 73.7605 -204.37439 73.7605 -330.57434c0 -127.80066 -24.586914 -238.39227 -73.7605 -331.7749c-49.173706 -93.649414 -119.359924 -165.8208 -210.5586 -216.51416c-91.19873 -50.960236 -198.64423 -76.44031 -322.3366 -76.44031z" fill-rule="evenodd"/></g></svg>